ISO-10303-21;
HEADER;
FILE_DESCRIPTION(('Open CASCADE Model'),'2;1');
FILE_NAME('Open CASCADE Shape Model','2026-10-03T08:57:04',('Author'),(
    'Open CASCADE'),'Open CASCADE STEP processor 7.9','Open CASCADE 7.9'
  ,'Unknown');
FILE_SCHEMA(('AUTOMOTIVE_DESIGN { 1 0 10303 214 1 1 1 1 }'));
ENDSEC;
DATA;
#1 = APPLICATION_PROTOCOL_DEFINITION('international standard',
  'automotive_design',2000,#2);
#2 = APPLICATION_CONTEXT(
  'core data for automotive mechanical design processes');
#3 = SHAPE_DEFINITION_REPRESENTATION(#4,#10);
#4 = PRODUCT_DEFINITION_SHAPE('','',#5);
#5 = PRODUCT_DEFINITION('design','',#6,#9);
#6 = PRODUCT_DEFINITION_FORMATION('','',#7);
#7 = PRODUCT('Open CASCADE STEP translator 7.9 1',
  'Open CASCADE STEP translator 7.9 1','',(#8));
#8 = PRODUCT_CONTEXT('',#2,'mechanical');
#9 = PRODUCT_DEFINITION_CONTEXT('part definition',#2,'design');
#10 = ADVANCED_BREP_SHAPE_REPRESENTATION('',(#11,#15),#723);
#11 = AXIS2_PLACEMENT_3D('',#12,#13,#14);
#12 = CARTESIAN_POINT('',(0.,0.,0.));
#13 = DIRECTION('',(0.,0.,1.));
#14 = DIRECTION('',(1.,0.,-0.));
#15 = MANIFOLD_SOLID_BREP('',#16);
#16 = CLOSED_SHELL('',(#17,#298,#333,#389,#579,#659,#663,#719));
#17 = ADVANCED_FACE('',(#18,#127),#32,.T.);
#18 = FACE_BOUND('',#19,.F.);
#19 = EDGE_LOOP('',(#20,#50,#78,#99,#100));
#20 = ORIENTED_EDGE('',*,*,#21,.F.);
#21 = EDGE_CURVE('',#22,#24,#26,.T.);
#22 = VERTEX_POINT('',#23);
#23 = CARTESIAN_POINT('',(25.,0.,255.70777420509));
#24 = VERTEX_POINT('',#25);
#25 = CARTESIAN_POINT('',(25.,0.,544.));
#26 = SEAM_CURVE('',#27,(#31,#43),.PCURVE_S1.);
#27 = LINE('',#28,#29);
#28 = CARTESIAN_POINT('',(25.,0.,255.70777420509));
#29 = VECTOR('',#30,1.);
#30 = DIRECTION('',(0.,0.,1.));
#31 = PCURVE('',#32,#37);
#32 = CYLINDRICAL_SURFACE('',#33,25.);
#33 = AXIS2_PLACEMENT_3D('',#34,#35,#36);
#34 = CARTESIAN_POINT('',(0.,0.,255.70777420509));
#35 = DIRECTION('',(-0.,-0.,-1.));
#36 = DIRECTION('',(1.,0.,0.));
#37 = DEFINITIONAL_REPRESENTATION('',(#38),#42);
#38 = LINE('',#39,#40);
#39 = CARTESIAN_POINT('',(-6.28318530718,0.));
#40 = VECTOR('',#41,1.);
#41 = DIRECTION('',(-0.,-1.));
#42 = ( GEOMETRIC_REPRESENTATION_CONTEXT(2) 
PARAMETRIC_REPRESENTATION_CONTEXT() REPRESENTATION_CONTEXT('2D SPACE',''
  ) );
#43 = PCURVE('',#32,#44);
#44 = DEFINITIONAL_REPRESENTATION('',(#45),#49);
#45 = LINE('',#46,#47);
#46 = CARTESIAN_POINT('',(-0.,0.));
#47 = VECTOR('',#48,1.);
#48 = DIRECTION('',(-0.,-1.));
#49 = ( GEOMETRIC_REPRESENTATION_CONTEXT(2) 
PARAMETRIC_REPRESENTATION_CONTEXT() REPRESENTATION_CONTEXT('2D SPACE',''
  ) );
#50 = ORIENTED_EDGE('',*,*,#51,.F.);
#51 = EDGE_CURVE('',#52,#22,#54,.T.);
#52 = VERTEX_POINT('',#53);
#53 = CARTESIAN_POINT('',(-25.,-6.123233995737E-15,255.70777420509));
#54 = SURFACE_CURVE('',#55,(#60,#67),.PCURVE_S1.);
#55 = CIRCLE('',#56,25.);
#56 = AXIS2_PLACEMENT_3D('',#57,#58,#59);
#57 = CARTESIAN_POINT('',(0.,0.,255.70777420509));
#58 = DIRECTION('',(0.,0.,1.));
#59 = DIRECTION('',(1.,0.,0.));
#60 = PCURVE('',#32,#61);
#61 = DEFINITIONAL_REPRESENTATION('',(#62),#66);
#62 = LINE('',#63,#64);
#63 = CARTESIAN_POINT('',(-0.,0.));
#64 = VECTOR('',#65,1.);
#65 = DIRECTION('',(-1.,0.));
#66 = ( GEOMETRIC_REPRESENTATION_CONTEXT(2) 
PARAMETRIC_REPRESENTATION_CONTEXT() REPRESENTATION_CONTEXT('2D SPACE',''
  ) );
#67 = PCURVE('',#68,#73);
#68 = CONICAL_SURFACE('',#69,25.,0.649870449412);
#69 = AXIS2_PLACEMENT_3D('',#70,#71,#72);
#70 = CARTESIAN_POINT('',(0.,0.,255.70777420509));
#71 = DIRECTION('',(-0.,-0.,1.));
#72 = DIRECTION('',(-1.,0.,-0.));
#73 = DEFINITIONAL_REPRESENTATION('',(#74),#77);
#74 = B_SPLINE_CURVE_WITH_KNOTS('',1,(#75,#76),.UNSPECIFIED.,.F.,.F.,(2,
    2),(3.14159265359,6.28318530718),.PIECEWISE_BEZIER_KNOTS.);
#75 = CARTESIAN_POINT('',(-6.28318530718,0.));
#76 = CARTESIAN_POINT('',(-3.14159265359,0.));
#77 = ( GEOMETRIC_REPRESENTATION_CONTEXT(2) 
PARAMETRIC_REPRESENTATION_CONTEXT() REPRESENTATION_CONTEXT('2D SPACE',''
  ) );
#78 = ORIENTED_EDGE('',*,*,#79,.F.);
#79 = EDGE_CURVE('',#22,#52,#80,.T.);
#80 = SURFACE_CURVE('',#81,(#86,#93),.PCURVE_S1.);
#81 = CIRCLE('',#82,25.);
#82 = AXIS2_PLACEMENT_3D('',#83,#84,#85);
#83 = CARTESIAN_POINT('',(0.,0.,255.70777420509));
#84 = DIRECTION('',(0.,0.,1.));
#85 = DIRECTION('',(1.,0.,0.));
#86 = PCURVE('',#32,#87);
#87 = DEFINITIONAL_REPRESENTATION('',(#88),#92);
#88 = LINE('',#89,#90);
#89 = CARTESIAN_POINT('',(-0.,0.));
#90 = VECTOR('',#91,1.);
#91 = DIRECTION('',(-1.,0.));
#92 = ( GEOMETRIC_REPRESENTATION_CONTEXT(2) 
PARAMETRIC_REPRESENTATION_CONTEXT() REPRESENTATION_CONTEXT('2D SPACE',''
  ) );
#93 = PCURVE('',#68,#94);
#94 = DEFINITIONAL_REPRESENTATION('',(#95),#98);
#95 = B_SPLINE_CURVE_WITH_KNOTS('',1,(#96,#97),.UNSPECIFIED.,.F.,.F.,(2,
    2),(0.,3.14159265359),.PIECEWISE_BEZIER_KNOTS.);
#96 = CARTESIAN_POINT('',(-3.14159265359,0.));
#97 = CARTESIAN_POINT('',(0.,0.));
#98 = ( GEOMETRIC_REPRESENTATION_CONTEXT(2) 
PARAMETRIC_REPRESENTATION_CONTEXT() REPRESENTATION_CONTEXT('2D SPACE',''
  ) );
#99 = ORIENTED_EDGE('',*,*,#21,.T.);
#100 = ORIENTED_EDGE('',*,*,#101,.T.);
#101 = EDGE_CURVE('',#24,#24,#102,.T.);
#102 = SURFACE_CURVE('',#103,(#108,#115),.PCURVE_S1.);
#103 = CIRCLE('',#104,25.);
#104 = AXIS2_PLACEMENT_3D('',#105,#106,#107);
#105 = CARTESIAN_POINT('',(0.,0.,544.));
#106 = DIRECTION('',(0.,0.,1.));
#107 = DIRECTION('',(1.,0.,0.));
#108 = PCURVE('',#32,#109);
#109 = DEFINITIONAL_REPRESENTATION('',(#110),#114);
#110 = LINE('',#111,#112);
#111 = CARTESIAN_POINT('',(-0.,-288.2922257949));
#112 = VECTOR('',#113,1.);
#113 = DIRECTION('',(-1.,0.));
#114 = ( GEOMETRIC_REPRESENTATION_CONTEXT(2) 
PARAMETRIC_REPRESENTATION_CONTEXT() REPRESENTATION_CONTEXT('2D SPACE',''
  ) );
#115 = PCURVE('',#116,#121);
#116 = PLANE('',#117);
#117 = AXIS2_PLACEMENT_3D('',#118,#119,#120);
#118 = CARTESIAN_POINT('',(-8.751616848252E-16,1.604946055186E-15,544.)
  );
#119 = DIRECTION('',(0.,0.,1.));
#120 = DIRECTION('',(1.,0.,-0.));
#121 = DEFINITIONAL_REPRESENTATION('',(#122),#126);
#122 = CIRCLE('',#123,25.);
#123 = AXIS2_PLACEMENT_2D('',#124,#125);
#124 = CARTESIAN_POINT('',(8.751616848252E-16,-1.604946055186E-15));
#125 = DIRECTION('',(1.,0.));
#126 = ( GEOMETRIC_REPRESENTATION_CONTEXT(2) 
PARAMETRIC_REPRESENTATION_CONTEXT() REPRESENTATION_CONTEXT('2D SPACE',''
  ) );
#127 = FACE_BOUND('',#128,.F.);
#128 = EDGE_LOOP('',(#129));
#129 = ORIENTED_EDGE('',*,*,#130,.T.);
#130 = EDGE_CURVE('',#131,#131,#133,.T.);
#131 = VERTEX_POINT('',#132);
#132 = CARTESIAN_POINT('',(-4.163799117101E-16,-25.,534.3));
#133 = SURFACE_CURVE('',#134,(#185,#239),.PCURVE_S1.);
#134 = B_SPLINE_CURVE_WITH_KNOTS('',7,(#135,#136,#137,#138,#139,#140,
    #141,#142,#143,#144,#145,#146,#147,#148,#149,#150,#151,#152,#153,
    #154,#155,#156,#157,#158,#159,#160,#161,#162,#163,#164,#165,#166,
    #167,#168,#169,#170,#171,#172,#173,#174,#175,#176,#177,#178,#179,
    #180,#181,#182,#183,#184),.UNSPECIFIED.,.T.,.F.,(8,6,6,6,6,6,6,6,8),
  (0.,0.142512098486,0.277154379031,0.445430708201,0.591960835568,
    0.687004615631,0.79156024685,0.892846452269,1.),.UNSPECIFIED.);
#135 = CARTESIAN_POINT('',(-2.442490654175E-15,-25.,534.3));
#136 = CARTESIAN_POINT('',(0.233455241267,-25.,534.3));
#137 = CARTESIAN_POINT('',(0.460817640833,-24.9974565757,534.33740255646
    ));
#138 = CARTESIAN_POINT('',(0.67513128371,-24.99260891362,534.40869585923
    ));
#139 = CARTESIAN_POINT('',(0.870610125762,-24.98613877126,
    534.50899288547));
#140 = CARTESIAN_POINT('',(1.042868016695,-24.97898941067,
    534.63211159519));
#141 = CARTESIAN_POINT('',(1.189356002634,-24.97198423254,
    534.77069978193));
#142 = CARTESIAN_POINT('',(1.423733847536,-24.95968713792,
    535.05401392796));
#143 = CARTESIAN_POINT('',(1.517187133109,-24.95417641183,
    535.20133214936));
#144 = CARTESIAN_POINT('',(1.590908210122,-24.94948491863,535.355313545)
  );
#145 = CARTESIAN_POINT('',(1.645606781783,-24.94584037443,535.5137406864
    ));
#146 = CARTESIAN_POINT('',(1.681859514672,-24.9433694371,535.67490599747
    ));
#147 = CARTESIAN_POINT('',(1.7,-24.94213302827,535.83741593014));
#148 = CARTESIAN_POINT('',(1.7,-24.94213302827,536.20319806189));
#149 = CARTESIAN_POINT('',(1.671665327321,-24.94406415855,
    536.40630036037));
#150 = CARTESIAN_POINT('',(1.615035330352,-24.94792443916,
    536.60683284301));
#151 = CARTESIAN_POINT('',(1.529282690957,-24.9535641062,536.80198547846
    ));
#152 = CARTESIAN_POINT('',(1.413062001555,-24.96067447959,
    536.98807602809));
#153 = CARTESIAN_POINT('',(1.264827322851,-24.96864252338,
    537.15996542552));
#154 = CARTESIAN_POINT('',(0.92583140389,-24.98335006688,537.44040723907
    ));
#155 = CARTESIAN_POINT('',(0.737472327376,-24.99035625954,
    537.55888105466));
#156 = CARTESIAN_POINT('',(0.52232046009,-24.99655280486,537.65173648152
    ));
#157 = CARTESIAN_POINT('',(0.288157693966,-25.00070637157,
    537.70964093039));
#158 = CARTESIAN_POINT('',(4.538622685029E-02,-25.00191818096,
    537.72757900521));
#159 = CARTESIAN_POINT('',(-0.194906513983,-25.00027898548,
    537.70509749426));
#160 = CARTESIAN_POINT('',(-0.5705736348,-24.99392520315,537.60864257161
    ));
#161 = CARTESIAN_POINT('',(-0.714400536907,-24.9904727925,
    537.55521518652));
#162 = CARTESIAN_POINT('',(-0.852295657401,-24.98619888079,
    537.48681488053));
#163 = CARTESIAN_POINT('',(-0.982410991799,-24.98131057917,
    537.40424322387));
#164 = CARTESIAN_POINT('',(-1.103029350493,-24.97607019168,
    537.30858590082));
#165 = CARTESIAN_POINT('',(-1.212611932792,-24.97076406442,
    537.20118862758));
#166 = CARTESIAN_POINT('',(-1.41686679809,-24.96004743118,
    536.95428690887));
#167 = CARTESIAN_POINT('',(-1.508965127266,-24.95467901385,
    536.81262374787));
#168 = CARTESIAN_POINT('',(-1.58444887745,-24.94991359601,536.6607119058
    ));
#169 = CARTESIAN_POINT('',(-1.641989950794,-24.9460871865,
    536.50089048681));
#170 = CARTESIAN_POINT('',(-1.680667150748,-24.94345058125,
    536.33570805329));
#171 = CARTESIAN_POINT('',(-1.7,-24.94213302827,536.16784395113));
#172 = CARTESIAN_POINT('',(-1.7,-24.94213302827,535.837404483));
#173 = CARTESIAN_POINT('',(-1.681856981462,-24.94336960885,
    535.67489313132));
#174 = CARTESIAN_POINT('',(-1.645603095709,-24.94584062842,
    535.51373547628));
#175 = CARTESIAN_POINT('',(-1.590908131215,-24.94948489636,
    535.35532065488));
#176 = CARTESIAN_POINT('',(-1.517194605589,-24.95417589286,
    535.20134838615));
#177 = CARTESIAN_POINT('',(-1.423745757337,-24.95968651305,
    535.05402832443));
#178 = CARTESIAN_POINT('',(-1.189402779432,-24.9719817783,
    534.77075632537));
#179 = CARTESIAN_POINT('',(-1.042913315884,-24.97898756172,
    534.63213643645));
#180 = CARTESIAN_POINT('',(-0.870607022232,-24.98613974324,
    534.50896893085));
#181 = CARTESIAN_POINT('',(-0.675059187527,-24.99261217164,
    534.40864806568));
#182 = CARTESIAN_POINT('',(-0.460696790852,-24.99745887603,
    534.33736870832));
#183 = CARTESIAN_POINT('',(-0.233349584945,-25.,534.3));
#184 = CARTESIAN_POINT('',(-2.442490654175E-15,-25.,534.3));
#185 = PCURVE('',#32,#186);
#186 = DEFINITIONAL_REPRESENTATION('',(#187),#238);
#187 = B_SPLINE_CURVE_WITH_KNOTS('',7,(#188,#189,#190,#191,#192,#193,
    #194,#195,#196,#197,#198,#199,#200,#201,#202,#203,#204,#205,#206,
    #207,#208,#209,#210,#211,#212,#213,#214,#215,#216,#217,#218,#219,
    #220,#221,#222,#223,#224,#225,#226,#227,#228,#229,#230,#231,#232,
    #233,#234,#235,#236,#237),.UNSPECIFIED.,.T.,.F.,(8,6,6,6,6,6,6,6,8),
  (0.,0.142512098486,0.277154379031,0.445430708201,0.591960835568,
    0.687004615631,0.79156024685,0.892846452269,1.),.UNSPECIFIED.);
#188 = CARTESIAN_POINT('',(-4.712388980385,-278.5922257949));
#189 = CARTESIAN_POINT('',(-4.721727190035,-278.5922257949));
#190 = CARTESIAN_POINT('',(-4.730821687771,-278.6296283513));
#191 = CARTESIAN_POINT('',(-4.73939555366,-278.7009216541));
#192 = CARTESIAN_POINT('',(-4.74721841486,-278.8012186803));
#193 = CARTESIAN_POINT('',(-4.754114441241,-278.9243373901));
#194 = CARTESIAN_POINT('',(-4.759980592235,-279.0629255768));
#195 = CARTESIAN_POINT('',(-4.769368600988,-279.3462397228));
#196 = CARTESIAN_POINT('',(-4.773113147249,-279.4935579442));
#197 = CARTESIAN_POINT('',(-4.776067927237,-279.6475393399));
#198 = CARTESIAN_POINT('',(-4.778260718339,-279.8059664813));
#199 = CARTESIAN_POINT('',(-4.779714192219,-279.9671317923));
#200 = CARTESIAN_POINT('',(-4.780441495064,-280.129641725));
#201 = CARTESIAN_POINT('',(-4.780441495064,-280.4954238568));
#202 = CARTESIAN_POINT('',(-4.779305478805,-280.6985261552));
#203 = CARTESIAN_POINT('',(-4.777035022532,-280.8990586379));
#204 = CARTESIAN_POINT('',(-4.773597516687,-281.0942112733));
#205 = CARTESIAN_POINT('',(-4.768940105116,-281.280301823));
#206 = CARTESIAN_POINT('',(-4.763002475847,-281.4521912204));
#207 = CARTESIAN_POINT('',(-4.749429883174,-281.7326330339));
#208 = CARTESIAN_POINT('',(-4.741890459847,-281.8511068495));
#209 = CARTESIAN_POINT('',(-4.733281284599,-281.9439622764));
#210 = CARTESIAN_POINT('',(-4.723914522377,-282.0018667253));
#211 = CARTESIAN_POINT('',(-4.71420466762,-282.0198048001));
#212 = CARTESIAN_POINT('',(-4.704593217273,-281.9973232891));
#213 = CARTESIAN_POINT('',(-4.689564383322,-281.9008683665));
#214 = CARTESIAN_POINT('',(-4.683809794525,-281.8474409814));
#215 = CARTESIAN_POINT('',(-4.678291550142,-281.7790406754));
#216 = CARTESIAN_POINT('',(-4.673083441735,-281.6964690187));
#217 = CARTESIAN_POINT('',(-4.668254254989,-281.6008116957));
#218 = CARTESIAN_POINT('',(-4.663865851837,-281.4934144224));
#219 = CARTESIAN_POINT('',(-4.655684419569,-281.2465127037));
#220 = CARTESIAN_POINT('',(-4.651994296743,-281.1048495427));
#221 = CARTESIAN_POINT('',(-4.648968973197,-280.9529377007));
#222 = CARTESIAN_POINT('',(-4.646662254685,-280.7931162817));
#223 = CARTESIAN_POINT('',(-4.64511157231,-280.6279338482));
#224 = CARTESIAN_POINT('',(-4.644336465705,-280.460069746));
#225 = CARTESIAN_POINT('',(-4.644336465705,-280.1296302779));
#226 = CARTESIAN_POINT('',(-4.645063870108,-279.9671189262));
#227 = CARTESIAN_POINT('',(-4.646517390235,-279.8059612711));
#228 = CARTESIAN_POINT('',(-4.648710036596,-279.6475464497));
#229 = CARTESIAN_POINT('',(-4.651664513943,-279.493574181));
#230 = CARTESIAN_POINT('',(-4.655408882734,-279.3462541193));
#231 = CARTESIAN_POINT('',(-4.664795494889,-279.0629821202));
#232 = CARTESIAN_POINT('',(-4.670661706127,-278.9243622313));
#233 = CARTESIAN_POINT('',(-4.677559671902,-278.8011947257));
#234 = CARTESIAN_POINT('',(-4.685385292916,-278.7008738605));
#235 = CARTESIAN_POINT('',(-4.693961106978,-278.6295945032));
#236 = CARTESIAN_POINT('',(-4.703054996987,-278.5922257949));
#237 = CARTESIAN_POINT('',(-4.712388980385,-278.5922257949));
#238 = ( GEOMETRIC_REPRESENTATION_CONTEXT(2) 
PARAMETRIC_REPRESENTATION_CONTEXT() REPRESENTATION_CONTEXT('2D SPACE',''
  ) );
#239 = PCURVE('',#240,#245);
#240 = CYLINDRICAL_SURFACE('',#241,1.7);
#241 = AXIS2_PLACEMENT_3D('',#242,#243,#244);
#242 = CARTESIAN_POINT('',(0.,-21.,536.));
#243 = DIRECTION('',(0.,-1.,0.));
#244 = DIRECTION('',(0.,-0.,-1.));
#245 = DEFINITIONAL_REPRESENTATION('',(#246),#297);
#246 = B_SPLINE_CURVE_WITH_KNOTS('',7,(#247,#248,#249,#250,#251,#252,
    #253,#254,#255,#256,#257,#258,#259,#260,#261,#262,#263,#264,#265,
    #266,#267,#268,#269,#270,#271,#272,#273,#274,#275,#276,#277,#278,
    #279,#280,#281,#282,#283,#284,#285,#286,#287,#288,#289,#290,#291,
    #292,#293,#294,#295,#296),.UNSPECIFIED.,.F.,.F.,(8,6,6,6,6,6,6,6,8),
  (0.,0.142512098486,0.277154379031,0.445430708201,0.591960835568,
    0.687004615631,0.79156024685,0.892846452269,1.),.UNSPECIFIED.);
#247 = CARTESIAN_POINT('',(0.,4.));
#248 = CARTESIAN_POINT('',(0.13732661251,4.));
#249 = CARTESIAN_POINT('',(0.271069136086,3.997456575708));
#250 = CARTESIAN_POINT('',(0.401366114276,3.992608913627));
#251 = CARTESIAN_POINT('',(0.528050743264,3.986138771261));
#252 = CARTESIAN_POINT('',(0.650688804893,3.978989410677));
#253 = CARTESIAN_POINT('',(0.768429443633,3.97198423254));
#254 = CARTESIAN_POINT('',(0.984720833269,3.959687137926));
#255 = CARTESIAN_POINT('',(1.086532666205,3.954176411831));
#256 = CARTESIAN_POINT('',(1.185860174441,3.949484918634));
#257 = CARTESIAN_POINT('',(1.283332383845,3.945840374436));
#258 = CARTESIAN_POINT('',(1.379564637606,3.943369437103));
#259 = CARTESIAN_POINT('',(1.475158638646,3.942133028272));
#260 = CARTESIAN_POINT('',(1.690324598499,3.942133028272));
#261 = CARTESIAN_POINT('',(1.80979577532,3.944064158553));
#262 = CARTESIAN_POINT('',(1.930548809041,3.94792443916));
#263 = CARTESIAN_POINT('',(2.053693562026,3.953564106208));
#264 = CARTESIAN_POINT('',(2.180465383572,3.960674479599));
#265 = CARTESIAN_POINT('',(2.312103203579,3.968642523389));
#266 = CARTESIAN_POINT('',(2.570903900341,3.983350066883));
#267 = CARTESIAN_POINT('',(2.700700126466,3.990356259542));
#268 = CARTESIAN_POINT('',(2.835879766923,3.996552804867));
#269 = CARTESIAN_POINT('',(2.974308103357,4.000706371574));
#270 = CARTESIAN_POINT('',(3.114337620737,4.00191818096));
#271 = CARTESIAN_POINT('',(3.254533397632,4.000278985483));
#272 = CARTESIAN_POINT('',(3.482681757187,3.99392520315));
#273 = CARTESIAN_POINT('',(3.572443567367,3.990472792502));
#274 = CARTESIAN_POINT('',(3.662197649234,3.986198880798));
#275 = CARTESIAN_POINT('',(3.751953901099,3.981310579174));
#276 = CARTESIAN_POINT('',(3.841717943106,3.97607019168));
#277 = CARTESIAN_POINT('',(3.931483415178,3.970764064424));
#278 = CARTESIAN_POINT('',(4.119976353467,3.960047431181));
#279 = CARTESIAN_POINT('',(4.21871682981,3.954679013858));
#280 = CARTESIAN_POINT('',(4.317445662409,3.949913596017));
#281 = CARTESIAN_POINT('',(4.416174908027,3.946087186506));
#282 = CARTESIAN_POINT('',(4.514913946455,3.943450581252));
#283 = CARTESIAN_POINT('',(4.613657244426,3.942133028272));
#284 = CARTESIAN_POINT('',(4.808033402146,3.942133028272));
#285 = CARTESIAN_POINT('',(4.903628227429,3.94336960885));
#286 = CARTESIAN_POINT('',(4.999856313807,3.94584062842));
#287 = CARTESIAN_POINT('',(5.097321343474,3.94948489636));
#288 = CARTESIAN_POINT('',(5.196642480768,3.954175892861));
#289 = CARTESIAN_POINT('',(5.298453483164,3.959686513055));
#290 = CARTESIAN_POINT('',(5.514712696418,3.971981778304));
#291 = CARTESIAN_POINT('',(5.632468272899,3.978987561726));
#292 = CARTESIAN_POINT('',(5.755143898286,3.986139743244));
#293 = CARTESIAN_POINT('',(5.88186727266,3.992612171643));
#294 = CARTESIAN_POINT('',(6.012187272933,3.997458876031));
#295 = CARTESIAN_POINT('',(6.145920845447,4.));
#296 = CARTESIAN_POINT('',(6.28318530718,4.));
#297 = ( GEOMETRIC_REPRESENTATION_CONTEXT(2) 
PARAMETRIC_REPRESENTATION_CONTEXT() REPRESENTATION_CONTEXT('2D SPACE',''
  ) );
#298 = ADVANCED_FACE('',(#299,#302),#116,.T.);
#299 = FACE_BOUND('',#300,.T.);
#300 = EDGE_LOOP('',(#301));
#301 = ORIENTED_EDGE('',*,*,#101,.T.);
#302 = FACE_BOUND('',#303,.T.);
#303 = EDGE_LOOP('',(#304));
#304 = ORIENTED_EDGE('',*,*,#305,.F.);
#305 = EDGE_CURVE('',#306,#306,#308,.T.);
#306 = VERTEX_POINT('',#307);
#307 = CARTESIAN_POINT('',(23.,8.526512829121E-16,544.));
#308 = SURFACE_CURVE('',#309,(#314,#321),.PCURVE_S1.);
#309 = CIRCLE('',#310,23.);
#310 = AXIS2_PLACEMENT_3D('',#311,#312,#313);
#311 = CARTESIAN_POINT('',(1.188027454191E-13,8.526512829121E-16,544.));
#312 = DIRECTION('',(0.,0.,1.));
#313 = DIRECTION('',(1.,0.,0.));
#314 = PCURVE('',#116,#315);
#315 = DEFINITIONAL_REPRESENTATION('',(#316),#320);
#316 = CIRCLE('',#317,23.);
#317 = AXIS2_PLACEMENT_2D('',#318,#319);
#318 = CARTESIAN_POINT('',(1.196779071039E-13,-7.522947722741E-16));
#319 = DIRECTION('',(1.,0.));
#320 = ( GEOMETRIC_REPRESENTATION_CONTEXT(2) 
PARAMETRIC_REPRESENTATION_CONTEXT() REPRESENTATION_CONTEXT('2D SPACE',''
  ) );
#321 = PCURVE('',#322,#327);
#322 = CYLINDRICAL_SURFACE('',#323,23.);
#323 = AXIS2_PLACEMENT_3D('',#324,#325,#326);
#324 = CARTESIAN_POINT('',(1.188027454191E-13,8.526512829121E-16,
    255.70777420509));
#325 = DIRECTION('',(-0.,-0.,-1.));
#326 = DIRECTION('',(1.,0.,0.));
#327 = DEFINITIONAL_REPRESENTATION('',(#328),#332);
#328 = LINE('',#329,#330);
#329 = CARTESIAN_POINT('',(-0.,-288.2922257949));
#330 = VECTOR('',#331,1.);
#331 = DIRECTION('',(-1.,0.));
#332 = ( GEOMETRIC_REPRESENTATION_CONTEXT(2) 
PARAMETRIC_REPRESENTATION_CONTEXT() REPRESENTATION_CONTEXT('2D SPACE',''
  ) );
#333 = ADVANCED_FACE('',(#334),#68,.T.);
#334 = FACE_BOUND('',#335,.T.);
#335 = EDGE_LOOP('',(#336,#359,#386,#387,#388));
#336 = ORIENTED_EDGE('',*,*,#337,.T.);
#337 = EDGE_CURVE('',#52,#338,#340,.T.);
#338 = VERTEX_POINT('',#339);
#339 = CARTESIAN_POINT('',(-6.,-1.469576158977E-15,230.70777420509));
#340 = SEAM_CURVE('',#341,(#345,#352),.PCURVE_S1.);
#341 = LINE('',#342,#343);
#342 = CARTESIAN_POINT('',(-25.,-6.123233995737E-15,255.70777420509));
#343 = VECTOR('',#344,1.);
#344 = DIRECTION('',(0.605083267534,1.482026573605E-16,-0.796162194123)
  );
#345 = PCURVE('',#68,#346);
#346 = DEFINITIONAL_REPRESENTATION('',(#347),#351);
#347 = LINE('',#348,#349);
#348 = CARTESIAN_POINT('',(-6.28318530718,0.));
#349 = VECTOR('',#350,1.);
#350 = DIRECTION('',(-0.,-1.));
#351 = ( GEOMETRIC_REPRESENTATION_CONTEXT(2) 
PARAMETRIC_REPRESENTATION_CONTEXT() REPRESENTATION_CONTEXT('2D SPACE',''
  ) );
#352 = PCURVE('',#68,#353);
#353 = DEFINITIONAL_REPRESENTATION('',(#354),#358);
#354 = LINE('',#355,#356);
#355 = CARTESIAN_POINT('',(0.,-0.));
#356 = VECTOR('',#357,1.);
#357 = DIRECTION('',(-0.,-1.));
#358 = ( GEOMETRIC_REPRESENTATION_CONTEXT(2) 
PARAMETRIC_REPRESENTATION_CONTEXT() REPRESENTATION_CONTEXT('2D SPACE',''
  ) );
#359 = ORIENTED_EDGE('',*,*,#360,.F.);
#360 = EDGE_CURVE('',#338,#338,#361,.T.);
#361 = SURFACE_CURVE('',#362,(#367,#374),.PCURVE_S1.);
#362 = CIRCLE('',#363,6.);
#363 = AXIS2_PLACEMENT_3D('',#364,#365,#366);
#364 = CARTESIAN_POINT('',(0.,0.,230.70777420509));
#365 = DIRECTION('',(0.,0.,-1.));
#366 = DIRECTION('',(-1.,0.,-0.));
#367 = PCURVE('',#68,#368);
#368 = DEFINITIONAL_REPRESENTATION('',(#369),#373);
#369 = LINE('',#370,#371);
#370 = CARTESIAN_POINT('',(-0.,-25.));
#371 = VECTOR('',#372,1.);
#372 = DIRECTION('',(-1.,-0.));
#373 = ( GEOMETRIC_REPRESENTATION_CONTEXT(2) 
PARAMETRIC_REPRESENTATION_CONTEXT() REPRESENTATION_CONTEXT('2D SPACE',''
  ) );
#374 = PCURVE('',#375,#380);
#375 = PLANE('',#376);
#376 = AXIS2_PLACEMENT_3D('',#377,#378,#379);
#377 = CARTESIAN_POINT('',(0.,0.,230.70777420509));
#378 = DIRECTION('',(0.,0.,-1.));
#379 = DIRECTION('',(-1.,0.,-0.));
#380 = DEFINITIONAL_REPRESENTATION('',(#381),#385);
#381 = CIRCLE('',#382,6.);
#382 = AXIS2_PLACEMENT_2D('',#383,#384);
#383 = CARTESIAN_POINT('',(0.,0.));
#384 = DIRECTION('',(1.,0.));
#385 = ( GEOMETRIC_REPRESENTATION_CONTEXT(2) 
PARAMETRIC_REPRESENTATION_CONTEXT() REPRESENTATION_CONTEXT('2D SPACE',''
  ) );
#386 = ORIENTED_EDGE('',*,*,#337,.F.);
#387 = ORIENTED_EDGE('',*,*,#79,.F.);
#388 = ORIENTED_EDGE('',*,*,#51,.F.);
#389 = ADVANCED_FACE('',(#390),#240,.F.);
#390 = FACE_BOUND('',#391,.F.);
#391 = EDGE_LOOP('',(#392,#393,#416,#578));
#392 = ORIENTED_EDGE('',*,*,#130,.F.);
#393 = ORIENTED_EDGE('',*,*,#394,.F.);
#394 = EDGE_CURVE('',#395,#131,#397,.T.);
#395 = VERTEX_POINT('',#396);
#396 = CARTESIAN_POINT('',(-4.163799117101E-16,-23.,534.3));
#397 = SEAM_CURVE('',#398,(#402,#409),.PCURVE_S1.);
#398 = LINE('',#399,#400);
#399 = CARTESIAN_POINT('',(-4.163799117101E-16,-21.,534.3));
#400 = VECTOR('',#401,1.);
#401 = DIRECTION('',(0.,-1.,0.));
#402 = PCURVE('',#240,#403);
#403 = DEFINITIONAL_REPRESENTATION('',(#404),#408);
#404 = LINE('',#405,#406);
#405 = CARTESIAN_POINT('',(6.28318530718,-0.));
#406 = VECTOR('',#407,1.);
#407 = DIRECTION('',(0.,1.));
#408 = ( GEOMETRIC_REPRESENTATION_CONTEXT(2) 
PARAMETRIC_REPRESENTATION_CONTEXT() REPRESENTATION_CONTEXT('2D SPACE',''
  ) );
#409 = PCURVE('',#240,#410);
#410 = DEFINITIONAL_REPRESENTATION('',(#411),#415);
#411 = LINE('',#412,#413);
#412 = CARTESIAN_POINT('',(0.,-0.));
#413 = VECTOR('',#414,1.);
#414 = DIRECTION('',(0.,1.));
#415 = ( GEOMETRIC_REPRESENTATION_CONTEXT(2) 
PARAMETRIC_REPRESENTATION_CONTEXT() REPRESENTATION_CONTEXT('2D SPACE',''
  ) );
#416 = ORIENTED_EDGE('',*,*,#417,.T.);
#417 = EDGE_CURVE('',#395,#395,#418,.T.);
#418 = SURFACE_CURVE('',#419,(#470,#524),.PCURVE_S1.);
#419 = B_SPLINE_CURVE_WITH_KNOTS('',7,(#420,#421,#422,#423,#424,#425,
    #426,#427,#428,#429,#430,#431,#432,#433,#434,#435,#436,#437,#438,
    #439,#440,#441,#442,#443,#444,#445,#446,#447,#448,#449,#450,#451,
    #452,#453,#454,#455,#456,#457,#458,#459,#460,#461,#462,#463,#464,
    #465,#466,#467,#468,#469),.UNSPECIFIED.,.T.,.F.,(8,6,6,6,6,6,6,6,8),
  (0.,0.142514560493,0.277151653187,0.445422404351,0.591952590633,
    0.686993152296,0.791546197339,0.892835439611,1.),.UNSPECIFIED.);
#420 = CARTESIAN_POINT('',(-4.218847493576E-15,-23.,534.3));
#421 = CARTESIAN_POINT('',(0.233469845549,-23.,534.3));
#422 = CARTESIAN_POINT('',(0.460834856479,-22.9972350599,534.3374072334)
  );
#423 = CARTESIAN_POINT('',(0.675143757241,-22.99196571112,
    534.40870277444));
#424 = CARTESIAN_POINT('',(0.870616249574,-22.98493279762,
    534.50899825826));
#425 = CARTESIAN_POINT('',(1.042869621347,-22.97716089523,
    534.63211372264));
#426 = CARTESIAN_POINT('',(1.18935570269,-22.96954515386,534.77069941936
    ));
#427 = CARTESIAN_POINT('',(1.42372777682,-22.95617573595,535.05400658972
    ));
#428 = CARTESIAN_POINT('',(1.517176823701,-22.95018430174,
    535.20131602384));
#429 = CARTESIAN_POINT('',(1.590897894065,-22.94508309004,
    535.35529032898));
#430 = CARTESIAN_POINT('',(1.645599973464,-22.94111979922,535.5137155084
    ));
#431 = CARTESIAN_POINT('',(1.6818570438,-22.9384325436,535.67488535037)
  );
#432 = CARTESIAN_POINT('',(1.7,-22.93708787095,535.8374048587));
#433 = CARTESIAN_POINT('',(1.7,-22.93708787095,536.2032129929));
#434 = CARTESIAN_POINT('',(1.671661158952,-22.9391881206,536.40633009277
    ));
#435 = CARTESIAN_POINT('',(1.615022922065,-22.94338645468,
    536.60687191288));
#436 = CARTESIAN_POINT('',(1.529261683244,-22.94951950743,
    536.80202480636));
#437 = CARTESIAN_POINT('',(1.413037487998,-22.95725067515,536.9881063124
    ));
#438 = CARTESIAN_POINT('',(1.264808909115,-22.9659130146,537.15998065868
    ));
#439 = CARTESIAN_POINT('',(0.92584214457,-22.98190083093,537.44039835361
    ));
#440 = CARTESIAN_POINT('',(0.737487133993,-22.98951710756,
    537.55887390787));
#441 = CARTESIAN_POINT('',(0.522335600634,-22.99625292693,
    537.65173200648));
#442 = CARTESIAN_POINT('',(0.288172621679,-23.00076753409,
    537.70963857813));
#443 = CARTESIAN_POINT('',(4.539946040025E-02,-23.00208500737,
    537.7275796215));
#444 = CARTESIAN_POINT('',(-0.194898422987,-23.00030345214,
    537.70509957168));
#445 = CARTESIAN_POINT('',(-0.570573818381,-22.99339683561,
    537.60864252448));
#446 = CARTESIAN_POINT('',(-0.714400592631,-22.989644059,537.55521513021
    ));
#447 = CARTESIAN_POINT('',(-0.852295549943,-22.98499819769,
    537.48681490895));
#448 = CARTESIAN_POINT('',(-0.982410870582,-22.97968425091,
    537.40424332249));
#449 = CARTESIAN_POINT('',(-1.103029348577,-22.97398726728,
    537.30858594519));
#450 = CARTESIAN_POINT('',(-1.212612012244,-22.96821853113,
    537.20118853154));
#451 = CARTESIAN_POINT('',(-1.416867687295,-22.95656705989,
    536.95428583401));
#452 = CARTESIAN_POINT('',(-1.508965649423,-22.95073008681,
    536.81262261099));
#453 = CARTESIAN_POINT('',(-1.584448757056,-22.94554849244,
    536.66071157347));
#454 = CARTESIAN_POINT('',(-1.641989590565,-22.94138771285,
    536.50089114911));
#455 = CARTESIAN_POINT('',(-1.680666976779,-22.93852060904,
    536.33570918257));
#456 = CARTESIAN_POINT('',(-1.7,-22.93708787095,536.16784470164));
#457 = CARTESIAN_POINT('',(-1.7,-22.93708787095,535.83739485883));
#458 = CARTESIAN_POINT('',(-1.68185483321,-22.93843270648,
    535.67487423698));
#459 = CARTESIAN_POINT('',(-1.645596797956,-22.94112003745,
    535.51371101034));
#460 = CARTESIAN_POINT('',(-1.590897816255,-22.94508306921,
    535.35529628664));
#461 = CARTESIAN_POINT('',(-1.517183102097,-22.95018382872,
    535.20132961465));
#462 = CARTESIAN_POINT('',(-1.423737693164,-22.95617517028,
    535.05401857652));
#463 = CARTESIAN_POINT('',(-1.189402542441,-22.96954248196,
    534.7707560389));
#464 = CARTESIAN_POINT('',(-1.042914974081,-22.97715888297,
    534.63213858827));
#465 = CARTESIAN_POINT('',(-0.87061312824,-22.98493385682,
    534.50897426469));
#466 = CARTESIAN_POINT('',(-0.675071557581,-22.99196925702,
    534.40865491723));
#467 = CARTESIAN_POINT('',(-0.460713844391,-22.9972375639,
    534.33737333662));
#468 = CARTESIAN_POINT('',(-0.233364043705,-23.,534.3));
#469 = CARTESIAN_POINT('',(-4.218847493576E-15,-23.,534.3));
#470 = PCURVE('',#240,#471);
#471 = DEFINITIONAL_REPRESENTATION('',(#472),#523);
#472 = B_SPLINE_CURVE_WITH_KNOTS('',7,(#473,#474,#475,#476,#477,#478,
    #479,#480,#481,#482,#483,#484,#485,#486,#487,#488,#489,#490,#491,
    #492,#493,#494,#495,#496,#497,#498,#499,#500,#501,#502,#503,#504,
    #505,#506,#507,#508,#509,#510,#511,#512,#513,#514,#515,#516,#517,
    #518,#519,#520,#521,#522),.UNSPECIFIED.,.F.,.F.,(8,6,6,6,6,6,6,6,8),
  (0.,0.142514560493,0.277151653187,0.445422404351,0.591952590633,
    0.686993152296,0.791546197339,0.892835439611,1.),.UNSPECIFIED.);
#473 = CARTESIAN_POINT('',(0.,2.));
#474 = CARTESIAN_POINT('',(0.137335203264,2.));
#475 = CARTESIAN_POINT('',(0.271079263396,1.997235059904));
#476 = CARTESIAN_POINT('',(0.401374242415,1.991965711123));
#477 = CARTESIAN_POINT('',(0.528055454523,1.984932797629));
#478 = CARTESIAN_POINT('',(0.650690371768,1.977160895231));
#479 = CARTESIAN_POINT('',(0.768429166835,1.969545153868));
#480 = CARTESIAN_POINT('',(0.984715231018,1.956175735952));
#481 = CARTESIAN_POINT('',(1.086521492663,1.950184301746));
#482 = CARTESIAN_POINT('',(1.185845477153,1.945083090043));
#483 = CARTESIAN_POINT('',(1.283317278357,1.941119799222));
#484 = CARTESIAN_POINT('',(1.379552492912,1.938432543605));
#485 = CARTESIAN_POINT('',(1.475152126031,1.937087870957));
#486 = CARTESIAN_POINT('',(1.690333381442,1.937087870957));
#487 = CARTESIAN_POINT('',(1.809813266433,1.939188120608));
#488 = CARTESIAN_POINT('',(1.930572401232,1.94338645468));
#489 = CARTESIAN_POINT('',(2.053719144106,1.949519507438));
#490 = CARTESIAN_POINT('',(2.180487849943,1.957250675158));
#491 = CARTESIAN_POINT('',(2.312117261234,1.965913014604));
#492 = CARTESIAN_POINT('',(2.570895700551,1.981900830934));
#493 = CARTESIAN_POINT('',(2.700690742222,1.989517107561));
#494 = CARTESIAN_POINT('',(2.835870611818,1.996252926938));
#495 = CARTESIAN_POINT('',(2.974299447315,2.000767534091));
#496 = CARTESIAN_POINT('',(3.114329998824,2.002085007373));
#497 = CARTESIAN_POINT('',(3.254528483847,2.000303452149));
#498 = CARTESIAN_POINT('',(3.482681868679,1.99339683561));
#499 = CARTESIAN_POINT('',(3.572443607074,1.989644059008));
#500 = CARTESIAN_POINT('',(3.66219758902,1.98499819769));
#501 = CARTESIAN_POINT('',(3.751953812523,1.979684250912));
#502 = CARTESIAN_POINT('',(3.841717922818,1.973987267283));
#503 = CARTESIAN_POINT('',(3.931483488499,1.968218531135));
#504 = CARTESIAN_POINT('',(4.119977174054,1.956567059894));
#505 = CARTESIAN_POINT('',(4.218717538188,1.950730086812));
#506 = CARTESIAN_POINT('',(4.317445813688,1.945548492441));
#507 = CARTESIAN_POINT('',(4.416174489852,1.941387712858));
#508 = CARTESIAN_POINT('',(4.514913285054,1.938520609042));
#509 = CARTESIAN_POINT('',(4.613656802948,1.937087870957));
#510 = CARTESIAN_POINT('',(4.808039063426,1.937087870957));
#511 = CARTESIAN_POINT('',(4.903639341443,1.938432706482));
#512 = CARTESIAN_POINT('',(4.999870960733,1.941120037452));
#513 = CARTESIAN_POINT('',(5.097336660138,1.945083069219));
#514 = CARTESIAN_POINT('',(5.19665530175,1.950183828728));
#515 = CARTESIAN_POINT('',(5.298460925041,1.956175170289));
#516 = CARTESIAN_POINT('',(5.51471291512,1.969542481962));
#517 = CARTESIAN_POINT('',(5.632466674992,1.977158882973));
#518 = CARTESIAN_POINT('',(5.75513920745,1.984933856827));
#519 = CARTESIAN_POINT('',(5.881859213548,1.991969257024));
#520 = CARTESIAN_POINT('',(6.012177241075,1.997237563906));
#521 = CARTESIAN_POINT('',(6.145912340294,2.));
#522 = CARTESIAN_POINT('',(6.28318530718,2.));
#523 = ( GEOMETRIC_REPRESENTATION_CONTEXT(2) 
PARAMETRIC_REPRESENTATION_CONTEXT() REPRESENTATION_CONTEXT('2D SPACE',''
  ) );
#524 = PCURVE('',#322,#525);
#525 = DEFINITIONAL_REPRESENTATION('',(#526),#577);
#526 = B_SPLINE_CURVE_WITH_KNOTS('',7,(#527,#528,#529,#530,#531,#532,
    #533,#534,#535,#536,#537,#538,#539,#540,#541,#542,#543,#544,#545,
    #546,#547,#548,#549,#550,#551,#552,#553,#554,#555,#556,#557,#558,
    #559,#560,#561,#562,#563,#564,#565,#566,#567,#568,#569,#570,#571,
    #572,#573,#574,#575,#576),.UNSPECIFIED.,.T.,.F.,(8,6,6,6,6,6,6,6,8),
  (0.,0.142514560493,0.277151653187,0.445422404351,0.591952590633,
    0.686993152296,0.791546197339,0.892835439611,1.),.UNSPECIFIED.);
#527 = CARTESIAN_POINT('',(-4.712388980385,-278.5922257949));
#528 = CARTESIAN_POINT('',(-4.722539843235,-278.5922257949));
#529 = CARTESIAN_POINT('',(-4.732425280735,-278.6296330283));
#530 = CARTESIAN_POINT('',(-4.741744754787,-278.7009285693));
#531 = CARTESIAN_POINT('',(-4.750248319963,-278.8012240531));
#532 = CARTESIAN_POINT('',(-4.757744931858,-278.9243395175));
#533 = CARTESIAN_POINT('',(-4.7641224106,-279.0629252142));
#534 = CARTESIAN_POINT('',(-4.774329066428,-279.3462323846));
#535 = CARTESIAN_POINT('',(-4.778400309701,-279.4935418187));
#536 = CARTESIAN_POINT('',(-4.781613201701,-279.6475161238));
#537 = CARTESIAN_POINT('',(-4.783997783226,-279.8059413033));
#538 = CARTESIAN_POINT('',(-4.785578501652,-279.9671111452));
#539 = CARTESIAN_POINT('',(-4.786369489379,-280.1296306536));
#540 = CARTESIAN_POINT('',(-4.786369489379,-280.4954387878));
#541 = CARTESIAN_POINT('',(-4.785133986576,-280.6985558876));
#542 = CARTESIAN_POINT('',(-4.78266469898,-280.8990977077));
#543 = CARTESIAN_POINT('',(-4.77892643953,-281.0942506012));
#544 = CARTESIAN_POINT('',(-4.773862185348,-281.2803321073));
#545 = CARTESIAN_POINT('',(-4.767406877304,-281.4522064535));
#546 = CARTESIAN_POINT('',(-4.752652807811,-281.7326241485));
#547 = CARTESIAN_POINT('',(-4.744456959882,-281.8510997027));
#548 = CARTESIAN_POINT('',(-4.735098563578,-281.9439578013));
#549 = CARTESIAN_POINT('',(-4.724917241473,-282.001864373));
#550 = CARTESIAN_POINT('',(-4.714363175678,-282.0198054164));
#551 = CARTESIAN_POINT('',(-4.703915774835,-281.9973253665));
#552 = CARTESIAN_POINT('',(-4.687579301901,-281.9008683193));
#553 = CARTESIAN_POINT('',(-4.681324021132,-281.8474409251));
#554 = CARTESIAN_POINT('',(-4.675325455034,-281.7790407038));
#555 = CARTESIAN_POINT('',(-4.669663778191,-281.6964691174));
#556 = CARTESIAN_POINT('',(-4.664413777451,-281.6008117401));
#557 = CARTESIAN_POINT('',(-4.659642762497,-281.4934143264));
#558 = CARTESIAN_POINT('',(-4.650747643981,-281.2465116289));
#559 = CARTESIAN_POINT('',(-4.646735432415,-281.1048484059));
#560 = CARTESIAN_POINT('',(-4.643445882928,-280.9529373683));
#561 = CARTESIAN_POINT('',(-4.640937585602,-280.793116944));
#562 = CARTESIAN_POINT('',(-4.63925134121,-280.6279349774));
#563 = CARTESIAN_POINT('',(-4.63840847139,-280.4600704965));
#564 = CARTESIAN_POINT('',(-4.63840847139,-280.1296206537));
#565 = CARTESIAN_POINT('',(-4.639199555486,-279.9671000318));
#566 = CARTESIAN_POINT('',(-4.640780316011,-279.8059368052));
#567 = CARTESIAN_POINT('',(-4.643164762348,-279.6475220815));
#568 = CARTESIAN_POINT('',(-4.646377377365,-279.4935554095));
#569 = CARTESIAN_POINT('',(-4.650448462495,-279.3462443714));
#570 = CARTESIAN_POINT('',(-4.660653510348,-279.0629818338));
#571 = CARTESIAN_POINT('',(-4.66703105521,-278.9243643831));
#572 = CARTESIAN_POINT('',(-4.674529778898,-278.8012000596));
#573 = CARTESIAN_POINT('',(-4.683036347618,-278.7008807121));
#574 = CARTESIAN_POINT('',(-4.692357941405,-278.6295991315));
#575 = CARTESIAN_POINT('',(-4.702242717615,-278.5922257949));
#576 = CARTESIAN_POINT('',(-4.712388980385,-278.5922257949));
#577 = ( GEOMETRIC_REPRESENTATION_CONTEXT(2) 
PARAMETRIC_REPRESENTATION_CONTEXT() REPRESENTATION_CONTEXT('2D SPACE',''
  ) );
#578 = ORIENTED_EDGE('',*,*,#394,.T.);
#579 = ADVANCED_FACE('',(#580,#656),#322,.F.);
#580 = FACE_BOUND('',#581,.T.);
#581 = EDGE_LOOP('',(#582,#605,#633,#654,#655));
#582 = ORIENTED_EDGE('',*,*,#583,.F.);
#583 = EDGE_CURVE('',#584,#306,#586,.T.);
#584 = VERTEX_POINT('',#585);
#585 = CARTESIAN_POINT('',(23.,8.526512829121E-16,255.70777420509));
#586 = SEAM_CURVE('',#587,(#591,#598),.PCURVE_S1.);
#587 = LINE('',#588,#589);
#588 = CARTESIAN_POINT('',(23.,8.526512829121E-16,255.70777420509));
#589 = VECTOR('',#590,1.);
#590 = DIRECTION('',(0.,0.,1.));
#591 = PCURVE('',#322,#592);
#592 = DEFINITIONAL_REPRESENTATION('',(#593),#597);
#593 = LINE('',#594,#595);
#594 = CARTESIAN_POINT('',(-6.28318530718,0.));
#595 = VECTOR('',#596,1.);
#596 = DIRECTION('',(-0.,-1.));
#597 = ( GEOMETRIC_REPRESENTATION_CONTEXT(2) 
PARAMETRIC_REPRESENTATION_CONTEXT() REPRESENTATION_CONTEXT('2D SPACE',''
  ) );
#598 = PCURVE('',#322,#599);
#599 = DEFINITIONAL_REPRESENTATION('',(#600),#604);
#600 = LINE('',#601,#602);
#601 = CARTESIAN_POINT('',(-0.,0.));
#602 = VECTOR('',#603,1.);
#603 = DIRECTION('',(-0.,-1.));
#604 = ( GEOMETRIC_REPRESENTATION_CONTEXT(2) 
PARAMETRIC_REPRESENTATION_CONTEXT() REPRESENTATION_CONTEXT('2D SPACE',''
  ) );
#605 = ORIENTED_EDGE('',*,*,#606,.F.);
#606 = EDGE_CURVE('',#607,#584,#609,.T.);
#607 = VERTEX_POINT('',#608);
#608 = CARTESIAN_POINT('',(-23.,-5.633375276078E-15,255.70777420509));
#609 = SURFACE_CURVE('',#610,(#615,#622),.PCURVE_S1.);
#610 = CIRCLE('',#611,23.);
#611 = AXIS2_PLACEMENT_3D('',#612,#613,#614);
#612 = CARTESIAN_POINT('',(1.188027454191E-13,8.526512829121E-16,
    255.70777420509));
#613 = DIRECTION('',(0.,0.,1.));
#614 = DIRECTION('',(1.,0.,0.));
#615 = PCURVE('',#322,#616);
#616 = DEFINITIONAL_REPRESENTATION('',(#617),#621);
#617 = LINE('',#618,#619);
#618 = CARTESIAN_POINT('',(-0.,0.));
#619 = VECTOR('',#620,1.);
#620 = DIRECTION('',(-1.,0.));
#621 = ( GEOMETRIC_REPRESENTATION_CONTEXT(2) 
PARAMETRIC_REPRESENTATION_CONTEXT() REPRESENTATION_CONTEXT('2D SPACE',''
  ) );
#622 = PCURVE('',#623,#628);
#623 = CONICAL_SURFACE('',#624,23.,0.677386438697);
#624 = AXIS2_PLACEMENT_3D('',#625,#626,#627);
#625 = CARTESIAN_POINT('',(0.,0.,255.70777420509));
#626 = DIRECTION('',(-0.,-0.,1.));
#627 = DIRECTION('',(-1.,0.,-0.));
#628 = DEFINITIONAL_REPRESENTATION('',(#629),#632);
#629 = B_SPLINE_CURVE_WITH_KNOTS('',1,(#630,#631),.UNSPECIFIED.,.F.,.F.,
  (2,2),(3.14159265359,6.28318530718),.PIECEWISE_BEZIER_KNOTS.);
#630 = CARTESIAN_POINT('',(-6.28318530718,0.));
#631 = CARTESIAN_POINT('',(-3.14159265359,0.));
#632 = ( GEOMETRIC_REPRESENTATION_CONTEXT(2) 
PARAMETRIC_REPRESENTATION_CONTEXT() REPRESENTATION_CONTEXT('2D SPACE',''
  ) );
#633 = ORIENTED_EDGE('',*,*,#634,.F.);
#634 = EDGE_CURVE('',#584,#607,#635,.T.);
#635 = SURFACE_CURVE('',#636,(#641,#648),.PCURVE_S1.);
#636 = CIRCLE('',#637,23.);
#637 = AXIS2_PLACEMENT_3D('',#638,#639,#640);
#638 = CARTESIAN_POINT('',(1.188027454191E-13,8.526512829121E-16,
    255.70777420509));
#639 = DIRECTION('',(0.,0.,1.));
#640 = DIRECTION('',(1.,0.,0.));
#641 = PCURVE('',#322,#642);
#642 = DEFINITIONAL_REPRESENTATION('',(#643),#647);
#643 = LINE('',#644,#645);
#644 = CARTESIAN_POINT('',(-0.,0.));
#645 = VECTOR('',#646,1.);
#646 = DIRECTION('',(-1.,0.));
#647 = ( GEOMETRIC_REPRESENTATION_CONTEXT(2) 
PARAMETRIC_REPRESENTATION_CONTEXT() REPRESENTATION_CONTEXT('2D SPACE',''
  ) );
#648 = PCURVE('',#623,#649);
#649 = DEFINITIONAL_REPRESENTATION('',(#650),#653);
#650 = B_SPLINE_CURVE_WITH_KNOTS('',1,(#651,#652),.UNSPECIFIED.,.F.,.F.,
  (2,2),(0.,3.14159265359),.PIECEWISE_BEZIER_KNOTS.);
#651 = CARTESIAN_POINT('',(-3.14159265359,0.));
#652 = CARTESIAN_POINT('',(0.,0.));
#653 = ( GEOMETRIC_REPRESENTATION_CONTEXT(2) 
PARAMETRIC_REPRESENTATION_CONTEXT() REPRESENTATION_CONTEXT('2D SPACE',''
  ) );
#654 = ORIENTED_EDGE('',*,*,#583,.T.);
#655 = ORIENTED_EDGE('',*,*,#305,.T.);
#656 = FACE_BOUND('',#657,.T.);
#657 = EDGE_LOOP('',(#658));
#658 = ORIENTED_EDGE('',*,*,#417,.T.);
#659 = ADVANCED_FACE('',(#660),#375,.T.);
#660 = FACE_BOUND('',#661,.T.);
#661 = EDGE_LOOP('',(#662));
#662 = ORIENTED_EDGE('',*,*,#360,.T.);
#663 = ADVANCED_FACE('',(#664),#623,.F.);
#664 = FACE_BOUND('',#665,.F.);
#665 = EDGE_LOOP('',(#666,#689,#716,#717,#718));
#666 = ORIENTED_EDGE('',*,*,#667,.T.);
#667 = EDGE_CURVE('',#607,#668,#670,.T.);
#668 = VERTEX_POINT('',#669);
#669 = CARTESIAN_POINT('',(-4.5,-1.102182119233E-15,232.70777420509));
#670 = SEAM_CURVE('',#671,(#675,#682),.PCURVE_S1.);
#671 = LINE('',#672,#673);
#672 = CARTESIAN_POINT('',(-23.,-5.633375276078E-15,255.70777420509));
#673 = VECTOR('',#674,1.);
#674 = DIRECTION('',(0.626758644817,1.535115936425E-16,-0.779213450312)
  );
#675 = PCURVE('',#623,#676);
#676 = DEFINITIONAL_REPRESENTATION('',(#677),#681);
#677 = LINE('',#678,#679);
#678 = CARTESIAN_POINT('',(-6.28318530718,0.));
#679 = VECTOR('',#680,1.);
#680 = DIRECTION('',(-0.,-1.));
#681 = ( GEOMETRIC_REPRESENTATION_CONTEXT(2) 
PARAMETRIC_REPRESENTATION_CONTEXT() REPRESENTATION_CONTEXT('2D SPACE',''
  ) );
#682 = PCURVE('',#623,#683);
#683 = DEFINITIONAL_REPRESENTATION('',(#684),#688);
#684 = LINE('',#685,#686);
#685 = CARTESIAN_POINT('',(0.,-0.));
#686 = VECTOR('',#687,1.);
#687 = DIRECTION('',(-0.,-1.));
#688 = ( GEOMETRIC_REPRESENTATION_CONTEXT(2) 
PARAMETRIC_REPRESENTATION_CONTEXT() REPRESENTATION_CONTEXT('2D SPACE',''
  ) );
#689 = ORIENTED_EDGE('',*,*,#690,.F.);
#690 = EDGE_CURVE('',#668,#668,#691,.T.);
#691 = SURFACE_CURVE('',#692,(#697,#704),.PCURVE_S1.);
#692 = CIRCLE('',#693,4.5);
#693 = AXIS2_PLACEMENT_3D('',#694,#695,#696);
#694 = CARTESIAN_POINT('',(0.,0.,232.70777420509));
#695 = DIRECTION('',(0.,0.,-1.));
#696 = DIRECTION('',(-1.,0.,-0.));
#697 = PCURVE('',#623,#698);
#698 = DEFINITIONAL_REPRESENTATION('',(#699),#703);
#699 = LINE('',#700,#701);
#700 = CARTESIAN_POINT('',(-0.,-23.));
#701 = VECTOR('',#702,1.);
#702 = DIRECTION('',(-1.,-0.));
#703 = ( GEOMETRIC_REPRESENTATION_CONTEXT(2) 
PARAMETRIC_REPRESENTATION_CONTEXT() REPRESENTATION_CONTEXT('2D SPACE',''
  ) );
#704 = PCURVE('',#705,#710);
#705 = PLANE('',#706);
#706 = AXIS2_PLACEMENT_3D('',#707,#708,#709);
#707 = CARTESIAN_POINT('',(0.,0.,232.70777420509));
#708 = DIRECTION('',(0.,0.,-1.));
#709 = DIRECTION('',(-1.,0.,-0.));
#710 = DEFINITIONAL_REPRESENTATION('',(#711),#715);
#711 = CIRCLE('',#712,4.5);
#712 = AXIS2_PLACEMENT_2D('',#713,#714);
#713 = CARTESIAN_POINT('',(0.,0.));
#714 = DIRECTION('',(1.,0.));
#715 = ( GEOMETRIC_REPRESENTATION_CONTEXT(2) 
PARAMETRIC_REPRESENTATION_CONTEXT() REPRESENTATION_CONTEXT('2D SPACE',''
  ) );
#716 = ORIENTED_EDGE('',*,*,#667,.F.);
#717 = ORIENTED_EDGE('',*,*,#634,.F.);
#718 = ORIENTED_EDGE('',*,*,#606,.F.);
#719 = ADVANCED_FACE('',(#720),#705,.F.);
#720 = FACE_BOUND('',#721,.F.);
#721 = EDGE_LOOP('',(#722));
#722 = ORIENTED_EDGE('',*,*,#690,.T.);
#723 = ( GEOMETRIC_REPRESENTATION_CONTEXT(3) 
GLOBAL_UNCERTAINTY_ASSIGNED_CONTEXT((#727)) GLOBAL_UNIT_ASSIGNED_CONTEXT
((#724,#725,#726)) REPRESENTATION_CONTEXT('Context #1',
  '3D Context with UNIT and UNCERTAINTY') );
#724 = ( LENGTH_UNIT() NAMED_UNIT(*) SI_UNIT(.MILLI.,.METRE.) );
#725 = ( NAMED_UNIT(*) PLANE_ANGLE_UNIT() SI_UNIT($,.RADIAN.) );
#726 = ( NAMED_UNIT(*) SI_UNIT($,.STERADIAN.) SOLID_ANGLE_UNIT() );
#727 = UNCERTAINTY_MEASURE_WITH_UNIT(LENGTH_MEASURE(1.E-07),#724,
  'distance_accuracy_value','confusion accuracy');
#728 = PRODUCT_RELATED_PRODUCT_CATEGORY('part',$,(#7));
ENDSEC;
END-ISO-10303-21;
