ISO-10303-21;
HEADER;
FILE_DESCRIPTION(('Open CASCADE Model'),'2;1');
FILE_NAME('Open CASCADE Shape Model','2026-10-03T09:06:59',('Author'),(
    'Open CASCADE'),'Open CASCADE STEP processor 7.9','Open CASCADE 7.9'
  ,'Unknown');
FILE_SCHEMA(('AUTOMOTIVE_DESIGN { 1 0 10303 214 1 1 1 1 }'));
ENDSEC;
DATA;
#1 = APPLICATION_PROTOCOL_DEFINITION('international standard',
  'automotive_design',2000,#2);
#2 = APPLICATION_CONTEXT(
  'core data for automotive mechanical design processes');
#3 = SHAPE_DEFINITION_REPRESENTATION(#4,#10);
#4 = PRODUCT_DEFINITION_SHAPE('','',#5);
#5 = PRODUCT_DEFINITION('design','',#6,#9);
#6 = PRODUCT_DEFINITION_FORMATION('','',#7);
#7 = PRODUCT('Open CASCADE STEP translator 7.9 14',
  'Open CASCADE STEP translator 7.9 14','',(#8));
#8 = PRODUCT_CONTEXT('',#2,'mechanical');
#9 = PRODUCT_DEFINITION_CONTEXT('part definition',#2,'design');
#10 = ADVANCED_BREP_SHAPE_REPRESENTATION('',(#11,#15),#939);
#11 = AXIS2_PLACEMENT_3D('',#12,#13,#14);
#12 = CARTESIAN_POINT('',(0.,0.,0.));
#13 = DIRECTION('',(0.,0.,1.));
#14 = DIRECTION('',(1.,0.,-0.));
#15 = MANIFOLD_SOLID_BREP('',#16);
#16 = CLOSED_SHELL('',(#17,#105,#140,#249,#478,#532,#586,#640,#684,#877,
    #935));
#17 = ADVANCED_FACE('',(#18),#32,.T.);
#18 = FACE_BOUND('',#19,.F.);
#19 = EDGE_LOOP('',(#20,#50,#77,#78));
#20 = ORIENTED_EDGE('',*,*,#21,.T.);
#21 = EDGE_CURVE('',#22,#24,#26,.T.);
#22 = VERTEX_POINT('',#23);
#23 = CARTESIAN_POINT('',(31.,0.,0.));
#24 = VERTEX_POINT('',#25);
#25 = CARTESIAN_POINT('',(31.,0.,5.));
#26 = SEAM_CURVE('',#27,(#31,#43),.PCURVE_S1.);
#27 = LINE('',#28,#29);
#28 = CARTESIAN_POINT('',(31.,0.,0.));
#29 = VECTOR('',#30,1.);
#30 = DIRECTION('',(0.,0.,1.));
#31 = PCURVE('',#32,#37);
#32 = CYLINDRICAL_SURFACE('',#33,31.);
#33 = AXIS2_PLACEMENT_3D('',#34,#35,#36);
#34 = CARTESIAN_POINT('',(0.,0.,0.));
#35 = DIRECTION('',(-0.,-0.,-1.));
#36 = DIRECTION('',(1.,0.,0.));
#37 = DEFINITIONAL_REPRESENTATION('',(#38),#42);
#38 = LINE('',#39,#40);
#39 = CARTESIAN_POINT('',(-0.,0.));
#40 = VECTOR('',#41,1.);
#41 = DIRECTION('',(-0.,-1.));
#42 = ( GEOMETRIC_REPRESENTATION_CONTEXT(2) 
PARAMETRIC_REPRESENTATION_CONTEXT() REPRESENTATION_CONTEXT('2D SPACE',''
  ) );
#43 = PCURVE('',#32,#44);
#44 = DEFINITIONAL_REPRESENTATION('',(#45),#49);
#45 = LINE('',#46,#47);
#46 = CARTESIAN_POINT('',(-6.28318530718,0.));
#47 = VECTOR('',#48,1.);
#48 = DIRECTION('',(-0.,-1.));
#49 = ( GEOMETRIC_REPRESENTATION_CONTEXT(2) 
PARAMETRIC_REPRESENTATION_CONTEXT() REPRESENTATION_CONTEXT('2D SPACE',''
  ) );
#50 = ORIENTED_EDGE('',*,*,#51,.T.);
#51 = EDGE_CURVE('',#24,#24,#52,.T.);
#52 = SURFACE_CURVE('',#53,(#58,#65),.PCURVE_S1.);
#53 = CIRCLE('',#54,31.);
#54 = AXIS2_PLACEMENT_3D('',#55,#56,#57);
#55 = CARTESIAN_POINT('',(0.,0.,5.));
#56 = DIRECTION('',(0.,0.,1.));
#57 = DIRECTION('',(1.,0.,0.));
#58 = PCURVE('',#32,#59);
#59 = DEFINITIONAL_REPRESENTATION('',(#60),#64);
#60 = LINE('',#61,#62);
#61 = CARTESIAN_POINT('',(-0.,-5.));
#62 = VECTOR('',#63,1.);
#63 = DIRECTION('',(-1.,0.));
#64 = ( GEOMETRIC_REPRESENTATION_CONTEXT(2) 
PARAMETRIC_REPRESENTATION_CONTEXT() REPRESENTATION_CONTEXT('2D SPACE',''
  ) );
#65 = PCURVE('',#66,#71);
#66 = PLANE('',#67);
#67 = AXIS2_PLACEMENT_3D('',#68,#69,#70);
#68 = CARTESIAN_POINT('',(-1.411551104557E-15,1.557633849995E-15,5.));
#69 = DIRECTION('',(0.,0.,1.));
#70 = DIRECTION('',(1.,0.,-0.));
#71 = DEFINITIONAL_REPRESENTATION('',(#72),#76);
#72 = CIRCLE('',#73,31.);
#73 = AXIS2_PLACEMENT_2D('',#74,#75);
#74 = CARTESIAN_POINT('',(1.411551104557E-15,-1.557633849995E-15));
#75 = DIRECTION('',(1.,0.));
#76 = ( GEOMETRIC_REPRESENTATION_CONTEXT(2) 
PARAMETRIC_REPRESENTATION_CONTEXT() REPRESENTATION_CONTEXT('2D SPACE',''
  ) );
#77 = ORIENTED_EDGE('',*,*,#21,.F.);
#78 = ORIENTED_EDGE('',*,*,#79,.F.);
#79 = EDGE_CURVE('',#22,#22,#80,.T.);
#80 = SURFACE_CURVE('',#81,(#86,#93),.PCURVE_S1.);
#81 = CIRCLE('',#82,31.);
#82 = AXIS2_PLACEMENT_3D('',#83,#84,#85);
#83 = CARTESIAN_POINT('',(0.,0.,0.));
#84 = DIRECTION('',(0.,0.,1.));
#85 = DIRECTION('',(1.,0.,0.));
#86 = PCURVE('',#32,#87);
#87 = DEFINITIONAL_REPRESENTATION('',(#88),#92);
#88 = LINE('',#89,#90);
#89 = CARTESIAN_POINT('',(-0.,0.));
#90 = VECTOR('',#91,1.);
#91 = DIRECTION('',(-1.,0.));
#92 = ( GEOMETRIC_REPRESENTATION_CONTEXT(2) 
PARAMETRIC_REPRESENTATION_CONTEXT() REPRESENTATION_CONTEXT('2D SPACE',''
  ) );
#93 = PCURVE('',#94,#99);
#94 = PLANE('',#95);
#95 = AXIS2_PLACEMENT_3D('',#96,#97,#98);
#96 = CARTESIAN_POINT('',(-1.411551104557E-15,1.557633849995E-15,0.));
#97 = DIRECTION('',(0.,0.,1.));
#98 = DIRECTION('',(1.,0.,-0.));
#99 = DEFINITIONAL_REPRESENTATION('',(#100),#104);
#100 = CIRCLE('',#101,31.);
#101 = AXIS2_PLACEMENT_2D('',#102,#103);
#102 = CARTESIAN_POINT('',(1.411551104557E-15,-1.557633849995E-15));
#103 = DIRECTION('',(1.,0.));
#104 = ( GEOMETRIC_REPRESENTATION_CONTEXT(2) 
PARAMETRIC_REPRESENTATION_CONTEXT() REPRESENTATION_CONTEXT('2D SPACE',''
  ) );
#105 = ADVANCED_FACE('',(#106,#109),#94,.F.);
#106 = FACE_BOUND('',#107,.F.);
#107 = EDGE_LOOP('',(#108));
#108 = ORIENTED_EDGE('',*,*,#79,.T.);
#109 = FACE_BOUND('',#110,.F.);
#110 = EDGE_LOOP('',(#111));
#111 = ORIENTED_EDGE('',*,*,#112,.F.);
#112 = EDGE_CURVE('',#113,#113,#115,.T.);
#113 = VERTEX_POINT('',#114);
#114 = CARTESIAN_POINT('',(22.75,0.,0.));
#115 = SURFACE_CURVE('',#116,(#121,#128),.PCURVE_S1.);
#116 = CIRCLE('',#117,22.75);
#117 = AXIS2_PLACEMENT_3D('',#118,#119,#120);
#118 = CARTESIAN_POINT('',(0.,0.,0.));
#119 = DIRECTION('',(0.,0.,1.));
#120 = DIRECTION('',(1.,0.,0.));
#121 = PCURVE('',#94,#122);
#122 = DEFINITIONAL_REPRESENTATION('',(#123),#127);
#123 = CIRCLE('',#124,22.75);
#124 = AXIS2_PLACEMENT_2D('',#125,#126);
#125 = CARTESIAN_POINT('',(1.411551104557E-15,-1.557633849995E-15));
#126 = DIRECTION('',(1.,0.));
#127 = ( GEOMETRIC_REPRESENTATION_CONTEXT(2) 
PARAMETRIC_REPRESENTATION_CONTEXT() REPRESENTATION_CONTEXT('2D SPACE',''
  ) );
#128 = PCURVE('',#129,#134);
#129 = CYLINDRICAL_SURFACE('',#130,22.75);
#130 = AXIS2_PLACEMENT_3D('',#131,#132,#133);
#131 = CARTESIAN_POINT('',(0.,0.,-15.));
#132 = DIRECTION('',(-0.,-0.,-1.));
#133 = DIRECTION('',(1.,0.,0.));
#134 = DEFINITIONAL_REPRESENTATION('',(#135),#139);
#135 = LINE('',#136,#137);
#136 = CARTESIAN_POINT('',(-0.,-15.));
#137 = VECTOR('',#138,1.);
#138 = DIRECTION('',(-1.,0.));
#139 = ( GEOMETRIC_REPRESENTATION_CONTEXT(2) 
PARAMETRIC_REPRESENTATION_CONTEXT() REPRESENTATION_CONTEXT('2D SPACE',''
  ) );
#140 = ADVANCED_FACE('',(#141,#144,#179,#214),#66,.T.);
#141 = FACE_BOUND('',#142,.T.);
#142 = EDGE_LOOP('',(#143));
#143 = ORIENTED_EDGE('',*,*,#51,.T.);
#144 = FACE_BOUND('',#145,.T.);
#145 = EDGE_LOOP('',(#146));
#146 = ORIENTED_EDGE('',*,*,#147,.T.);
#147 = EDGE_CURVE('',#148,#148,#150,.T.);
#148 = VERTEX_POINT('',#149);
#149 = CARTESIAN_POINT('',(-8.3,-17.32050807568,5.));
#150 = SURFACE_CURVE('',#151,(#156,#167),.PCURVE_S1.);
#151 = CIRCLE('',#152,1.7);
#152 = AXIS2_PLACEMENT_3D('',#153,#154,#155);
#153 = CARTESIAN_POINT('',(-10.,-17.32050807568,5.));
#154 = DIRECTION('',(0.,0.,-1.));
#155 = DIRECTION('',(1.,0.,0.));
#156 = PCURVE('',#66,#157);
#157 = DEFINITIONAL_REPRESENTATION('',(#158),#166);
#158 = ( BOUNDED_CURVE() B_SPLINE_CURVE(2,(#159,#160,#161,#162,#163,#164
,#165),.UNSPECIFIED.,.T.,.F.) B_SPLINE_CURVE_WITH_KNOTS((1,2,2,2,2,1),(
    -2.094395102393,0.,2.094395102393,4.188790204786,6.28318530718,
8.377580409573),.UNSPECIFIED.) CURVE() GEOMETRIC_REPRESENTATION_ITEM() 
RATIONAL_B_SPLINE_CURVE((1.,0.5,1.,0.5,1.,0.5,1.)) REPRESENTATION_ITEM(
  '') );
#159 = CARTESIAN_POINT('',(-8.3,-17.32050807568));
#160 = CARTESIAN_POINT('',(-8.3,-20.26499444855));
#161 = CARTESIAN_POINT('',(-10.85,-18.79275126212));
#162 = CARTESIAN_POINT('',(-13.4,-17.32050807568));
#163 = CARTESIAN_POINT('',(-10.85,-15.84826488925));
#164 = CARTESIAN_POINT('',(-8.3,-14.37602170282));
#165 = CARTESIAN_POINT('',(-8.3,-17.32050807568));
#166 = ( GEOMETRIC_REPRESENTATION_CONTEXT(2) 
PARAMETRIC_REPRESENTATION_CONTEXT() REPRESENTATION_CONTEXT('2D SPACE',''
  ) );
#167 = PCURVE('',#168,#173);
#168 = CYLINDRICAL_SURFACE('',#169,1.7);
#169 = AXIS2_PLACEMENT_3D('',#170,#171,#172);
#170 = CARTESIAN_POINT('',(-10.,-17.32050807568,-16.));
#171 = DIRECTION('',(-0.,-0.,-1.));
#172 = DIRECTION('',(1.,0.,0.));
#173 = DEFINITIONAL_REPRESENTATION('',(#174),#178);
#174 = LINE('',#175,#176);
#175 = CARTESIAN_POINT('',(-6.28318530718,-21.));
#176 = VECTOR('',#177,1.);
#177 = DIRECTION('',(1.,-0.));
#178 = ( GEOMETRIC_REPRESENTATION_CONTEXT(2) 
PARAMETRIC_REPRESENTATION_CONTEXT() REPRESENTATION_CONTEXT('2D SPACE',''
  ) );
#179 = FACE_BOUND('',#180,.T.);
#180 = EDGE_LOOP('',(#181));
#181 = ORIENTED_EDGE('',*,*,#182,.T.);
#182 = EDGE_CURVE('',#183,#183,#185,.T.);
#183 = VERTEX_POINT('',#184);
#184 = CARTESIAN_POINT('',(21.7,0.,5.));
#185 = SURFACE_CURVE('',#186,(#191,#202),.PCURVE_S1.);
#186 = CIRCLE('',#187,1.7);
#187 = AXIS2_PLACEMENT_3D('',#188,#189,#190);
#188 = CARTESIAN_POINT('',(20.,0.,5.));
#189 = DIRECTION('',(0.,0.,-1.));
#190 = DIRECTION('',(1.,0.,0.));
#191 = PCURVE('',#66,#192);
#192 = DEFINITIONAL_REPRESENTATION('',(#193),#201);
#193 = ( BOUNDED_CURVE() B_SPLINE_CURVE(2,(#194,#195,#196,#197,#198,#199
,#200),.UNSPECIFIED.,.T.,.F.) B_SPLINE_CURVE_WITH_KNOTS((1,2,2,2,2,1),(
    -2.094395102393,0.,2.094395102393,4.188790204786,6.28318530718,
8.377580409573),.UNSPECIFIED.) CURVE() GEOMETRIC_REPRESENTATION_ITEM() 
RATIONAL_B_SPLINE_CURVE((1.,0.5,1.,0.5,1.,0.5,1.)) REPRESENTATION_ITEM(
  '') );
#194 = CARTESIAN_POINT('',(21.7,-1.557633849995E-15));
#195 = CARTESIAN_POINT('',(21.7,-2.944486372867));
#196 = CARTESIAN_POINT('',(19.15,-1.472243186434));
#197 = CARTESIAN_POINT('',(16.6,-1.974013761705E-15));
#198 = CARTESIAN_POINT('',(19.15,1.472243186434));
#199 = CARTESIAN_POINT('',(21.7,2.944486372867));
#200 = CARTESIAN_POINT('',(21.7,-1.557633849995E-15));
#201 = ( GEOMETRIC_REPRESENTATION_CONTEXT(2) 
PARAMETRIC_REPRESENTATION_CONTEXT() REPRESENTATION_CONTEXT('2D SPACE',''
  ) );
#202 = PCURVE('',#203,#208);
#203 = CYLINDRICAL_SURFACE('',#204,1.7);
#204 = AXIS2_PLACEMENT_3D('',#205,#206,#207);
#205 = CARTESIAN_POINT('',(20.,0.,-16.));
#206 = DIRECTION('',(-0.,-0.,-1.));
#207 = DIRECTION('',(1.,0.,0.));
#208 = DEFINITIONAL_REPRESENTATION('',(#209),#213);
#209 = LINE('',#210,#211);
#210 = CARTESIAN_POINT('',(-6.28318530718,-21.));
#211 = VECTOR('',#212,1.);
#212 = DIRECTION('',(1.,-0.));
#213 = ( GEOMETRIC_REPRESENTATION_CONTEXT(2) 
PARAMETRIC_REPRESENTATION_CONTEXT() REPRESENTATION_CONTEXT('2D SPACE',''
  ) );
#214 = FACE_BOUND('',#215,.T.);
#215 = EDGE_LOOP('',(#216));
#216 = ORIENTED_EDGE('',*,*,#217,.T.);
#217 = EDGE_CURVE('',#218,#218,#220,.T.);
#218 = VERTEX_POINT('',#219);
#219 = CARTESIAN_POINT('',(-8.3,17.320508075689,5.));
#220 = SURFACE_CURVE('',#221,(#226,#237),.PCURVE_S1.);
#221 = CIRCLE('',#222,1.7);
#222 = AXIS2_PLACEMENT_3D('',#223,#224,#225);
#223 = CARTESIAN_POINT('',(-10.,17.320508075689,5.));
#224 = DIRECTION('',(0.,0.,-1.));
#225 = DIRECTION('',(1.,0.,0.));
#226 = PCURVE('',#66,#227);
#227 = DEFINITIONAL_REPRESENTATION('',(#228),#236);
#228 = ( BOUNDED_CURVE() B_SPLINE_CURVE(2,(#229,#230,#231,#232,#233,#234
,#235),.UNSPECIFIED.,.T.,.F.) B_SPLINE_CURVE_WITH_KNOTS((1,2,2,2,2,1),(
    -2.094395102393,0.,2.094395102393,4.188790204786,6.28318530718,
8.377580409573),.UNSPECIFIED.) CURVE() GEOMETRIC_REPRESENTATION_ITEM() 
RATIONAL_B_SPLINE_CURVE((1.,0.5,1.,0.5,1.,0.5,1.)) REPRESENTATION_ITEM(
  '') );
#229 = CARTESIAN_POINT('',(-8.3,17.320508075689));
#230 = CARTESIAN_POINT('',(-8.3,14.376021702822));
#231 = CARTESIAN_POINT('',(-10.85,15.848264889255));
#232 = CARTESIAN_POINT('',(-13.4,17.320508075689));
#233 = CARTESIAN_POINT('',(-10.85,18.792751262122));
#234 = CARTESIAN_POINT('',(-8.3,20.264994448556));
#235 = CARTESIAN_POINT('',(-8.3,17.320508075689));
#236 = ( GEOMETRIC_REPRESENTATION_CONTEXT(2) 
PARAMETRIC_REPRESENTATION_CONTEXT() REPRESENTATION_CONTEXT('2D SPACE',''
  ) );
#237 = PCURVE('',#238,#243);
#238 = CYLINDRICAL_SURFACE('',#239,1.7);
#239 = AXIS2_PLACEMENT_3D('',#240,#241,#242);
#240 = CARTESIAN_POINT('',(-10.,17.320508075689,-16.));
#241 = DIRECTION('',(-0.,-0.,-1.));
#242 = DIRECTION('',(1.,0.,0.));
#243 = DEFINITIONAL_REPRESENTATION('',(#244),#248);
#244 = LINE('',#245,#246);
#245 = CARTESIAN_POINT('',(-6.28318530718,-21.));
#246 = VECTOR('',#247,1.);
#247 = DIRECTION('',(1.,-0.));
#248 = ( GEOMETRIC_REPRESENTATION_CONTEXT(2) 
PARAMETRIC_REPRESENTATION_CONTEXT() REPRESENTATION_CONTEXT('2D SPACE',''
  ) );
#249 = ADVANCED_FACE('',(#250,#304),#129,.T.);
#250 = FACE_BOUND('',#251,.F.);
#251 = EDGE_LOOP('',(#252,#281,#302,#303));
#252 = ORIENTED_EDGE('',*,*,#253,.F.);
#253 = EDGE_CURVE('',#254,#254,#256,.T.);
#254 = VERTEX_POINT('',#255);
#255 = CARTESIAN_POINT('',(22.75,0.,-15.));
#256 = SURFACE_CURVE('',#257,(#262,#269),.PCURVE_S1.);
#257 = CIRCLE('',#258,22.75);
#258 = AXIS2_PLACEMENT_3D('',#259,#260,#261);
#259 = CARTESIAN_POINT('',(0.,0.,-15.));
#260 = DIRECTION('',(0.,0.,1.));
#261 = DIRECTION('',(1.,0.,0.));
#262 = PCURVE('',#129,#263);
#263 = DEFINITIONAL_REPRESENTATION('',(#264),#268);
#264 = LINE('',#265,#266);
#265 = CARTESIAN_POINT('',(-0.,0.));
#266 = VECTOR('',#267,1.);
#267 = DIRECTION('',(-1.,0.));
#268 = ( GEOMETRIC_REPRESENTATION_CONTEXT(2) 
PARAMETRIC_REPRESENTATION_CONTEXT() REPRESENTATION_CONTEXT('2D SPACE',''
  ) );
#269 = PCURVE('',#270,#275);
#270 = PLANE('',#271);
#271 = AXIS2_PLACEMENT_3D('',#272,#273,#274);
#272 = CARTESIAN_POINT('',(-9.617161371706E-16,1.956457922158E-15,-15.)
  );
#273 = DIRECTION('',(0.,0.,1.));
#274 = DIRECTION('',(1.,0.,-0.));
#275 = DEFINITIONAL_REPRESENTATION('',(#276),#280);
#276 = CIRCLE('',#277,22.75);
#277 = AXIS2_PLACEMENT_2D('',#278,#279);
#278 = CARTESIAN_POINT('',(9.617161371706E-16,-1.956457922158E-15));
#279 = DIRECTION('',(1.,0.));
#280 = ( GEOMETRIC_REPRESENTATION_CONTEXT(2) 
PARAMETRIC_REPRESENTATION_CONTEXT() REPRESENTATION_CONTEXT('2D SPACE',''
  ) );
#281 = ORIENTED_EDGE('',*,*,#282,.T.);
#282 = EDGE_CURVE('',#254,#113,#283,.T.);
#283 = SEAM_CURVE('',#284,(#288,#295),.PCURVE_S1.);
#284 = LINE('',#285,#286);
#285 = CARTESIAN_POINT('',(22.75,0.,-15.));
#286 = VECTOR('',#287,1.);
#287 = DIRECTION('',(0.,0.,1.));
#288 = PCURVE('',#129,#289);
#289 = DEFINITIONAL_REPRESENTATION('',(#290),#294);
#290 = LINE('',#291,#292);
#291 = CARTESIAN_POINT('',(-6.28318530718,0.));
#292 = VECTOR('',#293,1.);
#293 = DIRECTION('',(-0.,-1.));
#294 = ( GEOMETRIC_REPRESENTATION_CONTEXT(2) 
PARAMETRIC_REPRESENTATION_CONTEXT() REPRESENTATION_CONTEXT('2D SPACE',''
  ) );
#295 = PCURVE('',#129,#296);
#296 = DEFINITIONAL_REPRESENTATION('',(#297),#301);
#297 = LINE('',#298,#299);
#298 = CARTESIAN_POINT('',(-0.,0.));
#299 = VECTOR('',#300,1.);
#300 = DIRECTION('',(-0.,-1.));
#301 = ( GEOMETRIC_REPRESENTATION_CONTEXT(2) 
PARAMETRIC_REPRESENTATION_CONTEXT() REPRESENTATION_CONTEXT('2D SPACE',''
  ) );
#302 = ORIENTED_EDGE('',*,*,#112,.T.);
#303 = ORIENTED_EDGE('',*,*,#282,.F.);
#304 = FACE_BOUND('',#305,.F.);
#305 = EDGE_LOOP('',(#306));
#306 = ORIENTED_EDGE('',*,*,#307,.F.);
#307 = EDGE_CURVE('',#308,#308,#310,.T.);
#308 = VERTEX_POINT('',#309);
#309 = CARTESIAN_POINT('',(-3.061616997868E-16,-22.75,-6.75));
#310 = SURFACE_CURVE('',#311,(#363,#418),.PCURVE_S1.);
#311 = B_SPLINE_CURVE_WITH_KNOTS('',8,(#312,#313,#314,#315,#316,#317,
    #318,#319,#320,#321,#322,#323,#324,#325,#326,#327,#328,#329,#330,
    #331,#332,#333,#334,#335,#336,#337,#338,#339,#340,#341,#342,#343,
    #344,#345,#346,#347,#348,#349,#350,#351,#352,#353,#354,#355,#356,
    #357,#358,#359,#360,#361,#362),.UNSPECIFIED.,.T.,.F.,(9,7,7,7,7,7,7,
    9),(0.,0.13528157308,0.25010941874,0.400371195804,0.535310434725,
    0.749859038194,0.864721062893,1.),.UNSPECIFIED.);
#312 = CARTESIAN_POINT('',(-2.22044604925E-15,-22.75,-6.75));
#313 = CARTESIAN_POINT('',(0.15391045081,-22.75,-6.75));
#314 = CARTESIAN_POINT('',(0.304813326547,-22.74880997924,
    -6.771657843009));
#315 = CARTESIAN_POINT('',(0.449241718603,-22.74651146454,
    -6.813493128905));
#316 = CARTESIAN_POINT('',(0.584140086964,-22.7433329667,-6.873432325126
    ));
#317 = CARTESIAN_POINT('',(0.706953915956,-22.73961115785,
    -6.948838751363));
#318 = CARTESIAN_POINT('',(0.815753054659,-22.73571243877,
    -7.036549163223));
#319 = CARTESIAN_POINT('',(0.909389923118,-22.73195224872,
    -7.132917477655));
#320 = CARTESIAN_POINT('',(1.054158556789,-22.72566117075,-7.31955207559
    ));
#321 = CARTESIAN_POINT('',(1.110676402092,-22.72298253399,
    -7.409955902801));
#322 = CARTESIAN_POINT('',(1.157425710844,-22.72062247062,
    -7.503969810118));
#323 = CARTESIAN_POINT('',(1.194588890406,-22.71866152081,-7.60067296388
    ));
#324 = CARTESIAN_POINT('',(1.222330403402,-22.71715592762,
    -7.699285121042));
#325 = CARTESIAN_POINT('',(1.24077698213,-22.7161409454,-7.799123520149)
  );
#326 = CARTESIAN_POINT('',(1.25,-22.7156333832,-7.899563093424));
#327 = CARTESIAN_POINT('',(1.25,-22.7156333832,-8.131430037534));
#328 = CARTESIAN_POINT('',(1.234207122815,-22.71650240043,
    -8.262918592274));
#329 = CARTESIAN_POINT('',(1.202594607669,-22.71824212325,
    -8.393123815351));
#330 = CARTESIAN_POINT('',(1.15492889396,-22.72080317948,-8.520592491906
    ));
#331 = CARTESIAN_POINT('',(1.090858378949,-22.72408176226,
    -8.643639715522));
#332 = CARTESIAN_POINT('',(1.009988090475,-22.72790291336,
    -8.760233188431));
#333 = CARTESIAN_POINT('',(0.911987660734,-22.73200535842,
    -8.867833477183));
#334 = CARTESIAN_POINT('',(0.693320304424,-22.73966851137,
    -9.048730846558));
#335 = CARTESIAN_POINT('',(0.573688652018,-22.74332202633,
    -9.126306402668));
#336 = CARTESIAN_POINT('',(0.439671333004,-22.74664782985,
    -9.190281824922));
#337 = CARTESIAN_POINT('',(0.294448409888,-22.74922424206,-9.23646519399
    ));
#338 = CARTESIAN_POINT('',(0.142143460263,-22.75069259502,
    -9.262100982358));
#339 = CARTESIAN_POINT('',(-1.259695281536E-02,-22.75088320443,
    -9.265915341365));
#340 = CARTESIAN_POINT('',(-0.165039620041,-22.74986879448,
    -9.248169867113));
#341 = CARTESIAN_POINT('',(-0.542715341369,-22.74470764601,
    -9.151199223506));
#342 = CARTESIAN_POINT('',(-0.746654268311,-22.73921933353,
    -9.04475071864));
#343 = CARTESIAN_POINT('',(-0.917040479134,-22.73262625209,
    -8.904970738491));
#344 = CARTESIAN_POINT('',(-1.052333347875,-22.72625671921,
    -8.741884827858));
#345 = CARTESIAN_POINT('',(-1.152329946436,-22.72100714989,
    -8.563701159389));
#346 = CARTESIAN_POINT('',(-1.217822412968,-22.71740423186,
    -8.377094589227));
#347 = CARTESIAN_POINT('',(-1.25,-22.7156333832,-8.187601853678));
#348 = CARTESIAN_POINT('',(-1.25,-22.7156333832,-7.899564348579));
#349 = CARTESIAN_POINT('',(-1.240777201268,-22.71614093806,
    -7.799125439246));
#350 = CARTESIAN_POINT('',(-1.222330889717,-22.71715590021,
    -7.699286817808));
#351 = CARTESIAN_POINT('',(-1.194589390476,-22.7186614908,
    -7.600673657802));
#352 = CARTESIAN_POINT('',(-1.157425745909,-22.7206224716,-7.50396914561
    ));
#353 = CARTESIAN_POINT('',(-1.110675586653,-22.72298258039,
    -7.40995417068));
#354 = CARTESIAN_POINT('',(-1.054157195694,-22.7256612299,
    -7.319550320877));
#355 = CARTESIAN_POINT('',(-0.909416352019,-22.73195110022,
    -7.132951549588));
#356 = CARTESIAN_POINT('',(-0.815783566729,-22.73571132091,
    -7.036572041079));
#357 = CARTESIAN_POINT('',(-0.706964805616,-22.73961107372,
    -6.948835259991));
#358 = CARTESIAN_POINT('',(-0.584115941434,-22.7433341186,
    -6.873407881108));
#359 = CARTESIAN_POINT('',(-0.449181821992,-22.74651307456,-6.8134638803
    ));
#360 = CARTESIAN_POINT('',(-0.304734932588,-22.74881094098,
    -6.771640330082));
#361 = CARTESIAN_POINT('',(-0.15384821056,-22.75,-6.75));
#362 = CARTESIAN_POINT('',(-2.22044604925E-15,-22.75,-6.75));
#363 = PCURVE('',#129,#364);
#364 = DEFINITIONAL_REPRESENTATION('',(#365),#417);
#365 = B_SPLINE_CURVE_WITH_KNOTS('',8,(#366,#367,#368,#369,#370,#371,
    #372,#373,#374,#375,#376,#377,#378,#379,#380,#381,#382,#383,#384,
    #385,#386,#387,#388,#389,#390,#391,#392,#393,#394,#395,#396,#397,
    #398,#399,#400,#401,#402,#403,#404,#405,#406,#407,#408,#409,#410,
    #411,#412,#413,#414,#415,#416),.UNSPECIFIED.,.T.,.F.,(9,7,7,7,7,7,7,
    9),(0.,0.13528157308,0.25010941874,0.400371195804,0.535310434725,
    0.749859038194,0.864721062893,1.),.UNSPECIFIED.);
#366 = CARTESIAN_POINT('',(-4.712388980385,-8.25));
#367 = CARTESIAN_POINT('',(-4.719154274926,-8.25));
#368 = CARTESIAN_POINT('',(-4.725787369274,-8.228342156991));
#369 = CARTESIAN_POINT('',(-4.732136337923,-8.186506871095));
#370 = CARTESIAN_POINT('',(-4.738067282171,-8.126567674874));
#371 = CARTESIAN_POINT('',(-4.743467989096,-8.051161248637));
#372 = CARTESIAN_POINT('',(-4.748253365162,-7.963450836777));
#373 = CARTESIAN_POINT('',(-4.752372565664,-7.867082522345));
#374 = CARTESIAN_POINT('',(-4.75874202773,-7.68044792441));
#375 = CARTESIAN_POINT('',(-4.761229098154,-7.590044097199));
#376 = CARTESIAN_POINT('',(-4.763286616888,-7.496030189882));
#377 = CARTESIAN_POINT('',(-4.764922431846,-7.39932703612));
#378 = CARTESIAN_POINT('',(-4.766143633339,-7.300714878958));
#379 = CARTESIAN_POINT('',(-4.766955698198,-7.200876479851));
#380 = CARTESIAN_POINT('',(-4.767361719101,-7.100436906576));
#381 = CARTESIAN_POINT('',(-4.767361719101,-6.868569962466));
#382 = CARTESIAN_POINT('',(-4.766666476427,-6.737081407726));
#383 = CARTESIAN_POINT('',(-4.765274813094,-6.606876184649));
#384 = CARTESIAN_POINT('',(-4.763176596085,-6.479407508094));
#385 = CARTESIAN_POINT('',(-4.760356645477,-6.356360284478));
#386 = CARTESIAN_POINT('',(-4.756798006797,-6.239766811569));
#387 = CARTESIAN_POINT('',(-4.75248662289,-6.132166522817));
#388 = CARTESIAN_POINT('',(-4.742868970498,-5.951269153442));
#389 = CARTESIAN_POINT('',(-4.737608039964,-5.873693597332));
#390 = CARTESIAN_POINT('',(-4.731715510461,-5.809718175078));
#391 = CARTESIAN_POINT('',(-4.72533143306,-5.76353480601));
#392 = CARTESIAN_POINT('',(-4.718636847187,-5.737899017642));
#393 = CARTESIAN_POINT('',(-4.711835427193,-5.734084658635));
#394 = CARTESIAN_POINT('',(-4.705134664819,-5.751830132887));
#395 = CARTESIAN_POINT('',(-4.688531984174,-5.848800776494));
#396 = CARTESIAN_POINT('',(-4.679565177622,-5.955249281359));
#397 = CARTESIAN_POINT('',(-4.672070790892,-6.095029261509));
#398 = CARTESIAN_POINT('',(-4.666117399371,-6.258115172142));
#399 = CARTESIAN_POINT('',(-4.661715931242,-6.436298840611));
#400 = CARTESIAN_POINT('',(-4.658832779855,-6.622905410773));
#401 = CARTESIAN_POINT('',(-4.657416241669,-6.812398146322));
#402 = CARTESIAN_POINT('',(-4.657416241669,-7.100435651421));
#403 = CARTESIAN_POINT('',(-4.657822252945,-7.200874560754));
#404 = CARTESIAN_POINT('',(-4.658634306022,-7.300713182192));
#405 = CARTESIAN_POINT('',(-4.659855506895,-7.399326342198));
#406 = CARTESIAN_POINT('',(-4.66149134234,-7.49603085439));
#407 = CARTESIAN_POINT('',(-4.663548898522,-7.59004582932));
#408 = CARTESIAN_POINT('',(-4.666035992924,-7.680449679123));
#409 = CARTESIAN_POINT('',(-4.672404232299,-7.867048450412));
#410 = CARTESIAN_POINT('',(-4.676523253526,-7.963427958921));
#411 = CARTESIAN_POINT('',(-4.681309493299,-8.051164740009));
#412 = CARTESIAN_POINT('',(-4.686711740897,-8.126592118892));
#413 = CARTESIAN_POINT('',(-4.692644256279,-8.1865361197));
#414 = CARTESIAN_POINT('',(-4.698994037382,-8.228359669918));
#415 = CARTESIAN_POINT('',(-4.705626421679,-8.25));
#416 = CARTESIAN_POINT('',(-4.712388980385,-8.25));
#417 = ( GEOMETRIC_REPRESENTATION_CONTEXT(2) 
PARAMETRIC_REPRESENTATION_CONTEXT() REPRESENTATION_CONTEXT('2D SPACE',''
  ) );
#418 = PCURVE('',#419,#424);
#419 = CYLINDRICAL_SURFACE('',#420,1.25);
#420 = AXIS2_PLACEMENT_3D('',#421,#422,#423);
#421 = CARTESIAN_POINT('',(0.,-23.75,-8.));
#422 = DIRECTION('',(0.,1.,0.));
#423 = DIRECTION('',(0.,-0.,1.));
#424 = DEFINITIONAL_REPRESENTATION('',(#425),#477);
#425 = B_SPLINE_CURVE_WITH_KNOTS('',8,(#426,#427,#428,#429,#430,#431,
    #432,#433,#434,#435,#436,#437,#438,#439,#440,#441,#442,#443,#444,
    #445,#446,#447,#448,#449,#450,#451,#452,#453,#454,#455,#456,#457,
    #458,#459,#460,#461,#462,#463,#464,#465,#466,#467,#468,#469,#470,
    #471,#472,#473,#474,#475,#476),.UNSPECIFIED.,.F.,.F.,(9,7,7,7,7,7,7,
    9),(0.,0.13528157308,0.25010941874,0.400371195804,0.535310434725,
    0.749859038194,0.864721062893,1.),.UNSPECIFIED.);
#426 = CARTESIAN_POINT('',(0.,1.));
#427 = CARTESIAN_POINT('',(0.123128360648,1.));
#428 = CARTESIAN_POINT('',(0.243850646081,1.001190020752));
#429 = CARTESIAN_POINT('',(0.362237802957,1.003488535454));
#430 = CARTESIAN_POINT('',(0.478223615999,1.006667033298));
#431 = CARTESIAN_POINT('',(0.591608510821,1.010388842148));
#432 = CARTESIAN_POINT('',(0.702026088412,1.014287561227));
#433 = CARTESIAN_POINT('',(0.808855387322,1.018047751274));
#434 = CARTESIAN_POINT('',(0.997815371134,1.024338829246));
#435 = CARTESIAN_POINT('',(1.082674563304,1.027017466003));
#436 = CARTESIAN_POINT('',(1.166018632954,1.029377529371));
#437 = CARTESIAN_POINT('',(1.248172793835,1.031338479187));
#438 = CARTESIAN_POINT('',(1.329434821808,1.032844072377));
#439 = CARTESIAN_POINT('',(1.410094618241,1.033859054594));
#440 = CARTESIAN_POINT('',(1.490446801534,1.034366616799));
#441 = CARTESIAN_POINT('',(1.675940356822,1.034366616799));
#442 = CARTESIAN_POINT('',(1.78113083885,1.033497599563));
#443 = CARTESIAN_POINT('',(1.887067547893,1.031757876749));
#444 = CARTESIAN_POINT('',(1.994361616775,1.029196820512));
#445 = CARTESIAN_POINT('',(2.103636199149,1.02591823774));
#446 = CARTESIAN_POINT('',(2.215547255622,1.022097086638));
#447 = CARTESIAN_POINT('',(2.330825715896,1.017994641573));
#448 = CARTESIAN_POINT('',(2.557861249274,1.010331488623));
#449 = CARTESIAN_POINT('',(2.671162809249,1.006677973661));
#450 = CARTESIAN_POINT('',(2.788282218011,1.003352170146));
#451 = CARTESIAN_POINT('',(2.907891682209,1.000775757936));
#452 = CARTESIAN_POINT('',(3.029016597137,0.99930740498));
#453 = CARTESIAN_POINT('',(3.150825307518,0.999116795567));
#454 = CARTESIAN_POINT('',(3.272477964658,1.00013120552));
#455 = CARTESIAN_POINT('',(3.584418734627,1.00529235399));
#456 = CARTESIAN_POINT('',(3.763624731509,1.010780666461));
#457 = CARTESIAN_POINT('',(3.934145532538,1.017373747901));
#458 = CARTESIAN_POINT('',(4.097820643455,1.023743280788));
#459 = CARTESIAN_POINT('',(4.256285228062,1.028992850104));
#460 = CARTESIAN_POINT('',(4.4107114383,1.03259576814));
#461 = CARTESIAN_POINT('',(4.562307497442,1.034366616799));
#462 = CARTESIAN_POINT('',(4.792737501521,1.034366616799));
#463 = CARTESIAN_POINT('',(4.873089212399,1.03385906194));
#464 = CARTESIAN_POINT('',(4.953749110297,1.03284409979));
#465 = CARTESIAN_POINT('',(5.035011832061,1.031338509194));
#466 = CARTESIAN_POINT('',(5.117167114188,1.029377528393));
#467 = CARTESIAN_POINT('',(5.2005122741,1.02701741961));
#468 = CARTESIAN_POINT('',(5.285371712621,1.024338770098));
#469 = CARTESIAN_POINT('',(5.474295423403,1.018048899771));
#470 = CARTESIAN_POINT('',(5.581129805771,1.014288679089));
#471 = CARTESIAN_POINT('',(5.691571983121,1.010388926279));
#472 = CARTESIAN_POINT('',(5.804987329628,1.006665881393));
#473 = CARTESIAN_POINT('',(5.920998836169,1.003486925433));
#474 = CARTESIAN_POINT('',(6.039397385605,1.001189059014));
#475 = CARTESIAN_POINT('',(6.160106738732,1.));
#476 = CARTESIAN_POINT('',(6.28318530718,1.));
#477 = ( GEOMETRIC_REPRESENTATION_CONTEXT(2) 
PARAMETRIC_REPRESENTATION_CONTEXT() REPRESENTATION_CONTEXT('2D SPACE',''
  ) );
#478 = ADVANCED_FACE('',(#479),#168,.F.);
#479 = FACE_BOUND('',#480,.T.);
#480 = EDGE_LOOP('',(#481,#509,#530,#531));
#481 = ORIENTED_EDGE('',*,*,#482,.T.);
#482 = EDGE_CURVE('',#483,#483,#485,.T.);
#483 = VERTEX_POINT('',#484);
#484 = CARTESIAN_POINT('',(-8.3,-17.32050807568,-15.));
#485 = SURFACE_CURVE('',#486,(#491,#498),.PCURVE_S1.);
#486 = CIRCLE('',#487,1.7);
#487 = AXIS2_PLACEMENT_3D('',#488,#489,#490);
#488 = CARTESIAN_POINT('',(-10.,-17.32050807568,-15.));
#489 = DIRECTION('',(0.,0.,-1.));
#490 = DIRECTION('',(1.,0.,0.));
#491 = PCURVE('',#168,#492);
#492 = DEFINITIONAL_REPRESENTATION('',(#493),#497);
#493 = LINE('',#494,#495);
#494 = CARTESIAN_POINT('',(-6.28318530718,-1.));
#495 = VECTOR('',#496,1.);
#496 = DIRECTION('',(1.,-0.));
#497 = ( GEOMETRIC_REPRESENTATION_CONTEXT(2) 
PARAMETRIC_REPRESENTATION_CONTEXT() REPRESENTATION_CONTEXT('2D SPACE',''
  ) );
#498 = PCURVE('',#270,#499);
#499 = DEFINITIONAL_REPRESENTATION('',(#500),#508);
#500 = ( BOUNDED_CURVE() B_SPLINE_CURVE(2,(#501,#502,#503,#504,#505,#506
,#507),.UNSPECIFIED.,.T.,.F.) B_SPLINE_CURVE_WITH_KNOTS((1,2,2,2,2,1),(
    -2.094395102393,0.,2.094395102393,4.188790204786,6.28318530718,
8.377580409573),.UNSPECIFIED.) CURVE() GEOMETRIC_REPRESENTATION_ITEM() 
RATIONAL_B_SPLINE_CURVE((1.,0.5,1.,0.5,1.,0.5,1.)) REPRESENTATION_ITEM(
  '') );
#501 = CARTESIAN_POINT('',(-8.3,-17.32050807568));
#502 = CARTESIAN_POINT('',(-8.3,-20.26499444855));
#503 = CARTESIAN_POINT('',(-10.85,-18.79275126212));
#504 = CARTESIAN_POINT('',(-13.4,-17.32050807568));
#505 = CARTESIAN_POINT('',(-10.85,-15.84826488925));
#506 = CARTESIAN_POINT('',(-8.3,-14.37602170282));
#507 = CARTESIAN_POINT('',(-8.3,-17.32050807568));
#508 = ( GEOMETRIC_REPRESENTATION_CONTEXT(2) 
PARAMETRIC_REPRESENTATION_CONTEXT() REPRESENTATION_CONTEXT('2D SPACE',''
  ) );
#509 = ORIENTED_EDGE('',*,*,#510,.T.);
#510 = EDGE_CURVE('',#483,#148,#511,.T.);
#511 = SEAM_CURVE('',#512,(#516,#523),.PCURVE_S1.);
#512 = LINE('',#513,#514);
#513 = CARTESIAN_POINT('',(-8.3,-17.32050807568,-16.));
#514 = VECTOR('',#515,1.);
#515 = DIRECTION('',(0.,0.,1.));
#516 = PCURVE('',#168,#517);
#517 = DEFINITIONAL_REPRESENTATION('',(#518),#522);
#518 = LINE('',#519,#520);
#519 = CARTESIAN_POINT('',(-6.28318530718,0.));
#520 = VECTOR('',#521,1.);
#521 = DIRECTION('',(-0.,-1.));
#522 = ( GEOMETRIC_REPRESENTATION_CONTEXT(2) 
PARAMETRIC_REPRESENTATION_CONTEXT() REPRESENTATION_CONTEXT('2D SPACE',''
  ) );
#523 = PCURVE('',#168,#524);
#524 = DEFINITIONAL_REPRESENTATION('',(#525),#529);
#525 = LINE('',#526,#527);
#526 = CARTESIAN_POINT('',(-0.,0.));
#527 = VECTOR('',#528,1.);
#528 = DIRECTION('',(-0.,-1.));
#529 = ( GEOMETRIC_REPRESENTATION_CONTEXT(2) 
PARAMETRIC_REPRESENTATION_CONTEXT() REPRESENTATION_CONTEXT('2D SPACE',''
  ) );
#530 = ORIENTED_EDGE('',*,*,#147,.F.);
#531 = ORIENTED_EDGE('',*,*,#510,.F.);
#532 = ADVANCED_FACE('',(#533),#203,.F.);
#533 = FACE_BOUND('',#534,.T.);
#534 = EDGE_LOOP('',(#535,#563,#584,#585));
#535 = ORIENTED_EDGE('',*,*,#536,.T.);
#536 = EDGE_CURVE('',#537,#537,#539,.T.);
#537 = VERTEX_POINT('',#538);
#538 = CARTESIAN_POINT('',(21.7,0.,-15.));
#539 = SURFACE_CURVE('',#540,(#545,#552),.PCURVE_S1.);
#540 = CIRCLE('',#541,1.7);
#541 = AXIS2_PLACEMENT_3D('',#542,#543,#544);
#542 = CARTESIAN_POINT('',(20.,0.,-15.));
#543 = DIRECTION('',(0.,0.,-1.));
#544 = DIRECTION('',(1.,0.,0.));
#545 = PCURVE('',#203,#546);
#546 = DEFINITIONAL_REPRESENTATION('',(#547),#551);
#547 = LINE('',#548,#549);
#548 = CARTESIAN_POINT('',(-6.28318530718,-1.));
#549 = VECTOR('',#550,1.);
#550 = DIRECTION('',(1.,-0.));
#551 = ( GEOMETRIC_REPRESENTATION_CONTEXT(2) 
PARAMETRIC_REPRESENTATION_CONTEXT() REPRESENTATION_CONTEXT('2D SPACE',''
  ) );
#552 = PCURVE('',#270,#553);
#553 = DEFINITIONAL_REPRESENTATION('',(#554),#562);
#554 = ( BOUNDED_CURVE() B_SPLINE_CURVE(2,(#555,#556,#557,#558,#559,#560
,#561),.UNSPECIFIED.,.T.,.F.) B_SPLINE_CURVE_WITH_KNOTS((1,2,2,2,2,1),(
    -2.094395102393,0.,2.094395102393,4.188790204786,6.28318530718,
8.377580409573),.UNSPECIFIED.) CURVE() GEOMETRIC_REPRESENTATION_ITEM() 
RATIONAL_B_SPLINE_CURVE((1.,0.5,1.,0.5,1.,0.5,1.)) REPRESENTATION_ITEM(
  '') );
#555 = CARTESIAN_POINT('',(21.7,-1.956457922158E-15));
#556 = CARTESIAN_POINT('',(21.7,-2.944486372867));
#557 = CARTESIAN_POINT('',(19.15,-1.472243186434));
#558 = CARTESIAN_POINT('',(16.6,-2.372837833868E-15));
#559 = CARTESIAN_POINT('',(19.15,1.472243186434));
#560 = CARTESIAN_POINT('',(21.7,2.944486372867));
#561 = CARTESIAN_POINT('',(21.7,-1.956457922158E-15));
#562 = ( GEOMETRIC_REPRESENTATION_CONTEXT(2) 
PARAMETRIC_REPRESENTATION_CONTEXT() REPRESENTATION_CONTEXT('2D SPACE',''
  ) );
#563 = ORIENTED_EDGE('',*,*,#564,.T.);
#564 = EDGE_CURVE('',#537,#183,#565,.T.);
#565 = SEAM_CURVE('',#566,(#570,#577),.PCURVE_S1.);
#566 = LINE('',#567,#568);
#567 = CARTESIAN_POINT('',(21.7,0.,-16.));
#568 = VECTOR('',#569,1.);
#569 = DIRECTION('',(0.,0.,1.));
#570 = PCURVE('',#203,#571);
#571 = DEFINITIONAL_REPRESENTATION('',(#572),#576);
#572 = LINE('',#573,#574);
#573 = CARTESIAN_POINT('',(-6.28318530718,0.));
#574 = VECTOR('',#575,1.);
#575 = DIRECTION('',(-0.,-1.));
#576 = ( GEOMETRIC_REPRESENTATION_CONTEXT(2) 
PARAMETRIC_REPRESENTATION_CONTEXT() REPRESENTATION_CONTEXT('2D SPACE',''
  ) );
#577 = PCURVE('',#203,#578);
#578 = DEFINITIONAL_REPRESENTATION('',(#579),#583);
#579 = LINE('',#580,#581);
#580 = CARTESIAN_POINT('',(-0.,0.));
#581 = VECTOR('',#582,1.);
#582 = DIRECTION('',(-0.,-1.));
#583 = ( GEOMETRIC_REPRESENTATION_CONTEXT(2) 
PARAMETRIC_REPRESENTATION_CONTEXT() REPRESENTATION_CONTEXT('2D SPACE',''
  ) );
#584 = ORIENTED_EDGE('',*,*,#182,.F.);
#585 = ORIENTED_EDGE('',*,*,#564,.F.);
#586 = ADVANCED_FACE('',(#587),#238,.F.);
#587 = FACE_BOUND('',#588,.T.);
#588 = EDGE_LOOP('',(#589,#617,#638,#639));
#589 = ORIENTED_EDGE('',*,*,#590,.T.);
#590 = EDGE_CURVE('',#591,#591,#593,.T.);
#591 = VERTEX_POINT('',#592);
#592 = CARTESIAN_POINT('',(-8.3,17.320508075689,-15.));
#593 = SURFACE_CURVE('',#594,(#599,#606),.PCURVE_S1.);
#594 = CIRCLE('',#595,1.7);
#595 = AXIS2_PLACEMENT_3D('',#596,#597,#598);
#596 = CARTESIAN_POINT('',(-10.,17.320508075689,-15.));
#597 = DIRECTION('',(0.,0.,-1.));
#598 = DIRECTION('',(1.,0.,0.));
#599 = PCURVE('',#238,#600);
#600 = DEFINITIONAL_REPRESENTATION('',(#601),#605);
#601 = LINE('',#602,#603);
#602 = CARTESIAN_POINT('',(-6.28318530718,-1.));
#603 = VECTOR('',#604,1.);
#604 = DIRECTION('',(1.,-0.));
#605 = ( GEOMETRIC_REPRESENTATION_CONTEXT(2) 
PARAMETRIC_REPRESENTATION_CONTEXT() REPRESENTATION_CONTEXT('2D SPACE',''
  ) );
#606 = PCURVE('',#270,#607);
#607 = DEFINITIONAL_REPRESENTATION('',(#608),#616);
#608 = ( BOUNDED_CURVE() B_SPLINE_CURVE(2,(#609,#610,#611,#612,#613,#614
,#615),.UNSPECIFIED.,.T.,.F.) B_SPLINE_CURVE_WITH_KNOTS((1,2,2,2,2,1),(
    -2.094395102393,0.,2.094395102393,4.188790204786,6.28318530718,
8.377580409573),.UNSPECIFIED.) CURVE() GEOMETRIC_REPRESENTATION_ITEM() 
RATIONAL_B_SPLINE_CURVE((1.,0.5,1.,0.5,1.,0.5,1.)) REPRESENTATION_ITEM(
  '') );
#609 = CARTESIAN_POINT('',(-8.3,17.320508075689));
#610 = CARTESIAN_POINT('',(-8.3,14.376021702822));
#611 = CARTESIAN_POINT('',(-10.85,15.848264889255));
#612 = CARTESIAN_POINT('',(-13.4,17.320508075689));
#613 = CARTESIAN_POINT('',(-10.85,18.792751262122));
#614 = CARTESIAN_POINT('',(-8.3,20.264994448556));
#615 = CARTESIAN_POINT('',(-8.3,17.320508075689));
#616 = ( GEOMETRIC_REPRESENTATION_CONTEXT(2) 
PARAMETRIC_REPRESENTATION_CONTEXT() REPRESENTATION_CONTEXT('2D SPACE',''
  ) );
#617 = ORIENTED_EDGE('',*,*,#618,.T.);
#618 = EDGE_CURVE('',#591,#218,#619,.T.);
#619 = SEAM_CURVE('',#620,(#624,#631),.PCURVE_S1.);
#620 = LINE('',#621,#622);
#621 = CARTESIAN_POINT('',(-8.3,17.320508075689,-16.));
#622 = VECTOR('',#623,1.);
#623 = DIRECTION('',(0.,0.,1.));
#624 = PCURVE('',#238,#625);
#625 = DEFINITIONAL_REPRESENTATION('',(#626),#630);
#626 = LINE('',#627,#628);
#627 = CARTESIAN_POINT('',(-6.28318530718,0.));
#628 = VECTOR('',#629,1.);
#629 = DIRECTION('',(-0.,-1.));
#630 = ( GEOMETRIC_REPRESENTATION_CONTEXT(2) 
PARAMETRIC_REPRESENTATION_CONTEXT() REPRESENTATION_CONTEXT('2D SPACE',''
  ) );
#631 = PCURVE('',#238,#632);
#632 = DEFINITIONAL_REPRESENTATION('',(#633),#637);
#633 = LINE('',#634,#635);
#634 = CARTESIAN_POINT('',(-0.,0.));
#635 = VECTOR('',#636,1.);
#636 = DIRECTION('',(-0.,-1.));
#637 = ( GEOMETRIC_REPRESENTATION_CONTEXT(2) 
PARAMETRIC_REPRESENTATION_CONTEXT() REPRESENTATION_CONTEXT('2D SPACE',''
  ) );
#638 = ORIENTED_EDGE('',*,*,#217,.F.);
#639 = ORIENTED_EDGE('',*,*,#618,.F.);
#640 = ADVANCED_FACE('',(#641,#644,#647,#678,#681),#270,.F.);
#641 = FACE_BOUND('',#642,.F.);
#642 = EDGE_LOOP('',(#643));
#643 = ORIENTED_EDGE('',*,*,#253,.T.);
#644 = FACE_BOUND('',#645,.F.);
#645 = EDGE_LOOP('',(#646));
#646 = ORIENTED_EDGE('',*,*,#482,.T.);
#647 = FACE_BOUND('',#648,.F.);
#648 = EDGE_LOOP('',(#649));
#649 = ORIENTED_EDGE('',*,*,#650,.F.);
#650 = EDGE_CURVE('',#651,#651,#653,.T.);
#651 = VERTEX_POINT('',#652);
#652 = CARTESIAN_POINT('',(18.,0.,-15.));
#653 = SURFACE_CURVE('',#654,(#659,#666),.PCURVE_S1.);
#654 = CIRCLE('',#655,18.);
#655 = AXIS2_PLACEMENT_3D('',#656,#657,#658);
#656 = CARTESIAN_POINT('',(1.0931426704E-13,0.,-15.));
#657 = DIRECTION('',(0.,0.,1.));
#658 = DIRECTION('',(1.,0.,0.));
#659 = PCURVE('',#270,#660);
#660 = DEFINITIONAL_REPRESENTATION('',(#661),#665);
#661 = CIRCLE('',#662,18.);
#662 = AXIS2_PLACEMENT_2D('',#663,#664);
#663 = CARTESIAN_POINT('',(1.102759831772E-13,-1.956457922158E-15));
#664 = DIRECTION('',(1.,0.));
#665 = ( GEOMETRIC_REPRESENTATION_CONTEXT(2) 
PARAMETRIC_REPRESENTATION_CONTEXT() REPRESENTATION_CONTEXT('2D SPACE',''
  ) );
#666 = PCURVE('',#667,#672);
#667 = CYLINDRICAL_SURFACE('',#668,18.);
#668 = AXIS2_PLACEMENT_3D('',#669,#670,#671);
#669 = CARTESIAN_POINT('',(1.0931426704E-13,0.,-15.));
#670 = DIRECTION('',(-0.,-0.,-1.));
#671 = DIRECTION('',(1.,0.,0.));
#672 = DEFINITIONAL_REPRESENTATION('',(#673),#677);
#673 = LINE('',#674,#675);
#674 = CARTESIAN_POINT('',(-0.,0.));
#675 = VECTOR('',#676,1.);
#676 = DIRECTION('',(-1.,0.));
#677 = ( GEOMETRIC_REPRESENTATION_CONTEXT(2) 
PARAMETRIC_REPRESENTATION_CONTEXT() REPRESENTATION_CONTEXT('2D SPACE',''
  ) );
#678 = FACE_BOUND('',#679,.F.);
#679 = EDGE_LOOP('',(#680));
#680 = ORIENTED_EDGE('',*,*,#536,.T.);
#681 = FACE_BOUND('',#682,.F.);
#682 = EDGE_LOOP('',(#683));
#683 = ORIENTED_EDGE('',*,*,#590,.T.);
#684 = ADVANCED_FACE('',(#685),#419,.F.);
#685 = FACE_BOUND('',#686,.F.);
#686 = EDGE_LOOP('',(#687,#854,#875,#876));
#687 = ORIENTED_EDGE('',*,*,#688,.F.);
#688 = EDGE_CURVE('',#689,#689,#691,.T.);
#689 = VERTEX_POINT('',#690);
#690 = CARTESIAN_POINT('',(-3.061616997868E-16,-18.,-6.75));
#691 = SURFACE_CURVE('',#692,(#744,#799),.PCURVE_S1.);
#692 = B_SPLINE_CURVE_WITH_KNOTS('',8,(#693,#694,#695,#696,#697,#698,
    #699,#700,#701,#702,#703,#704,#705,#706,#707,#708,#709,#710,#711,
    #712,#713,#714,#715,#716,#717,#718,#719,#720,#721,#722,#723,#724,
    #725,#726,#727,#728,#729,#730,#731,#732,#733,#734,#735,#736,#737,
    #738,#739,#740,#741,#742,#743),.UNSPECIFIED.,.T.,.F.,(9,7,7,7,7,7,7,
    9),(0.,0.135309154778,0.250130193247,0.400392520011,0.535356555472,
    0.749890531326,0.864721810688,1.),.UNSPECIFIED.);
#693 = CARTESIAN_POINT('',(-3.10862446895E-15,-18.,-6.75));
#694 = CARTESIAN_POINT('',(0.153919765635,-18.,-6.75));
#695 = CARTESIAN_POINT('',(0.304821501774,-17.99849576055,
    -6.771660462131));
#696 = CARTESIAN_POINT('',(0.449242990425,-17.99559070642,
    -6.813495763054));
#697 = CARTESIAN_POINT('',(0.584133885876,-17.99157343512,
    -6.873431408468));
#698 = CARTESIAN_POINT('',(0.706943353287,-17.98686884057,
    -6.948832722863));
#699 = CARTESIAN_POINT('',(0.815742640129,-17.98193963722,
    -7.036539698516));
#700 = CARTESIAN_POINT('',(0.909383547146,-17.97718477889,
    -7.132909257801));
#701 = CARTESIAN_POINT('',(1.054146479666,-17.96922937966,
    -7.319536505857));
#702 = CARTESIAN_POINT('',(1.110660124293,-17.96584198545,
    -7.409928540453));
#703 = CARTESIAN_POINT('',(1.157410663762,-17.9628568792,-7.503935956933
    ));
#704 = CARTESIAN_POINT('',(1.194578030155,-17.96037616032,
    -7.600638359376));
#705 = CARTESIAN_POINT('',(1.22232446494,-17.95847125234,-7.69925501718)
  );
#706 = CARTESIAN_POINT('',(1.240774988862,-17.95718698916,
    -7.799101933764));
#707 = CARTESIAN_POINT('',(1.25,-17.95654476785,-7.899552252517));
#708 = CARTESIAN_POINT('',(1.25,-17.95654476785,-8.131452497351));
#709 = CARTESIAN_POINT('',(1.234201720884,-17.95764448077,
    -8.262961974867));
#710 = CARTESIAN_POINT('',(1.202579066099,-17.95984599119,
    -8.393182187552));
#711 = CARTESIAN_POINT('',(1.154901412246,-17.96308645526,
    -8.520656645415));
#712 = CARTESIAN_POINT('',(1.09082159816,-17.96723385217,-8.643698989092
    ));
#713 = CARTESIAN_POINT('',(1.009949681018,-17.97206621242,
    -8.760277642117));
#714 = CARTESIAN_POINT('',(0.911960112393,-17.97725288414,
    -8.867856267153));
#715 = CARTESIAN_POINT('',(0.693326414773,-17.9869403217,-9.048725791638
    ));
#716 = CARTESIAN_POINT('',(0.573696230403,-17.99155917042,
    -9.126302669981));
#717 = CARTESIAN_POINT('',(0.43967854275,-17.99576323562,-9.190279382285
    ));
#718 = CARTESIAN_POINT('',(0.294456076144,-17.99901947606,
    -9.236463062396));
#719 = CARTESIAN_POINT('',(0.142152524994,-18.00087517862,
    -9.262099640074));
#720 = CARTESIAN_POINT('',(-1.258756137415E-02,-18.00111630624,
    -9.265915861541));
#721 = CARTESIAN_POINT('',(-0.165033177588,-17.99983434771,
    -9.248171521254));
#722 = CARTESIAN_POINT('',(-0.542667179902,-17.99331158619,
    -9.151211589269));
#723 = CARTESIAN_POINT('',(-0.746576321715,-17.98637612977,
    -9.044793195231));
#724 = CARTESIAN_POINT('',(-0.916955271813,-17.97804275087,
    -8.905046940047));
#725 = CARTESIAN_POINT('',(-1.052260510391,-17.96998774657,
    -8.741986401325));
#726 = CARTESIAN_POINT('',(-1.152282104282,-17.96334608484,
    -8.563810984889));
#727 = CARTESIAN_POINT('',(-1.217802609712,-17.95878633172,
    -8.377190158621));
#728 = CARTESIAN_POINT('',(-1.25,-17.95654476785,-8.187659583323));
#729 = CARTESIAN_POINT('',(-1.25,-17.95654476785,-7.899553485867));
#730 = CARTESIAN_POINT('',(-1.240775203713,-17.95718698007,
    -7.799103813912));
#731 = CARTESIAN_POINT('',(-1.22232494094,-17.95847121838,
    -7.699256674575));
#732 = CARTESIAN_POINT('',(-1.194578518297,-17.96037612324,
    -7.600639029742));
#733 = CARTESIAN_POINT('',(-1.157410693627,-17.96285688073,
    -7.503935292219));
#734 = CARTESIAN_POINT('',(-1.11065931643,-17.96584204354,
    -7.409926826593));
#735 = CARTESIAN_POINT('',(-1.054145134315,-17.96922945359,
    -7.319534771441));
#736 = CARTESIAN_POINT('',(-0.909410035595,-17.97718332323,
    -7.132943406504));
#737 = CARTESIAN_POINT('',(-0.815773213279,-17.98193822107,
    -7.036562616649));
#738 = CARTESIAN_POINT('',(-0.706954250481,-17.98686873531,
    -6.948829211206));
#739 = CARTESIAN_POINT('',(-0.584109669449,-17.99157489513,
    -6.87340690425));
#740 = CARTESIAN_POINT('',(-0.449182949809,-17.99559274587,
    -6.813466447077));
#741 = CARTESIAN_POINT('',(-0.304742925203,-17.99849697917,
    -6.771642906046));
#742 = CARTESIAN_POINT('',(-0.153857375427,-18.,-6.75));
#743 = CARTESIAN_POINT('',(-3.10862446895E-15,-18.,-6.75));
#744 = PCURVE('',#419,#745);
#745 = DEFINITIONAL_REPRESENTATION('',(#746),#798);
#746 = B_SPLINE_CURVE_WITH_KNOTS('',8,(#747,#748,#749,#750,#751,#752,
    #753,#754,#755,#756,#757,#758,#759,#760,#761,#762,#763,#764,#765,
    #766,#767,#768,#769,#770,#771,#772,#773,#774,#775,#776,#777,#778,
    #779,#780,#781,#782,#783,#784,#785,#786,#787,#788,#789,#790,#791,
    #792,#793,#794,#795,#796,#797),.UNSPECIFIED.,.F.,.F.,(9,7,7,7,7,7,7,
    9),(0.,0.135309154778,0.250130193247,0.400392520011,0.535356555472,
    0.749890531326,0.864721810688,1.),.UNSPECIFIED.);
#747 = CARTESIAN_POINT('',(0.,5.75));
#748 = CARTESIAN_POINT('',(0.123135812508,5.75));
#749 = CARTESIAN_POINT('',(0.243857186642,5.751504239442));
#750 = CARTESIAN_POINT('',(0.362239334578,5.754409293576));
#751 = CARTESIAN_POINT('',(0.478219049028,5.758426564876));
#752 = CARTESIAN_POINT('',(0.59159912095,5.763131159425));
#753 = CARTESIAN_POINT('',(0.702015000092,5.76806036278));
#754 = CARTESIAN_POINT('',(0.808847065052,5.772815221101));
#755 = CARTESIAN_POINT('',(0.997799607409,5.780770620338));
#756 = CARTESIAN_POINT('',(1.082649282975,5.784158014546));
#757 = CARTESIAN_POINT('',(1.165989317059,5.787143120798));
#758 = CARTESIAN_POINT('',(1.24814409384,5.789623839675));
#759 = CARTESIAN_POINT('',(1.329410479691,5.791528747659));
#760 = CARTESIAN_POINT('',(1.41007735069,5.792813010838));
#761 = CARTESIAN_POINT('',(1.490438128808,5.793455232144));
#762 = CARTESIAN_POINT('',(1.675958324676,5.793455232144));
#763 = CARTESIAN_POINT('',(1.781165547718,5.792355519229));
#764 = CARTESIAN_POINT('',(1.887115146795,5.790154008801));
#765 = CARTESIAN_POINT('',(1.994416404669,5.786913544731));
#766 = CARTESIAN_POINT('',(2.103690959831,5.782766147827));
#767 = CARTESIAN_POINT('',(2.215593602031,5.777933787578));
#768 = CARTESIAN_POINT('',(2.330854318484,5.772747115855));
#769 = CARTESIAN_POINT('',(2.557854905088,5.763059678295));
#770 = CARTESIAN_POINT('',(2.671156241762,5.758440829575));
#771 = CARTESIAN_POINT('',(2.788276168415,5.754236764378));
#772 = CARTESIAN_POINT('',(2.907885376788,5.750980523931));
#773 = CARTESIAN_POINT('',(3.029009461526,5.749124821374));
#774 = CARTESIAN_POINT('',(3.150817935191,5.748883693757));
#775 = CARTESIAN_POINT('',(3.272472643522,5.750165652287));
#776 = CARTESIAN_POINT('',(3.584378955726,5.756688413801));
#777 = CARTESIAN_POINT('',(3.763555881221,5.763623870222));
#778 = CARTESIAN_POINT('',(3.934057690939,5.771957249121));
#779 = CARTESIAN_POINT('',(4.097724697348,5.780012253421));
#780 = CARTESIAN_POINT('',(4.256192599283,5.786653915152));
#781 = CARTESIAN_POINT('',(4.4106349857,5.791213668275));
#782 = CARTESIAN_POINT('',(4.562261313726,5.793455232144));
#783 = CARTESIAN_POINT('',(4.792746191691,5.793455232144));
#784 = CARTESIAN_POINT('',(4.873106510937,5.792813019927));
#785 = CARTESIAN_POINT('',(4.953773484476,5.791528781613));
#786 = CARTESIAN_POINT('',(5.035040552693,5.789623876759));
#787 = CARTESIAN_POINT('',(5.117196432067,5.787143119263));
#788 = CARTESIAN_POINT('',(5.200537539056,5.78415795646));
#789 = CARTESIAN_POINT('',(5.285387455796,5.780770546405));
#790 = CARTESIAN_POINT('',(5.474303667947,5.772816676765));
#791 = CARTESIAN_POINT('',(5.581140838784,5.768061778922));
#792 = CARTESIAN_POINT('',(5.691581377817,5.763131264682));
#793 = CARTESIAN_POINT('',(5.804991967718,5.758425104867));
#794 = CARTESIAN_POINT('',(5.920997428037,5.754407254121));
#795 = CARTESIAN_POINT('',(6.039390991252,5.751503020828));
#796 = CARTESIAN_POINT('',(6.160099406838,5.75));
#797 = CARTESIAN_POINT('',(6.28318530718,5.75));
#798 = ( GEOMETRIC_REPRESENTATION_CONTEXT(2) 
PARAMETRIC_REPRESENTATION_CONTEXT() REPRESENTATION_CONTEXT('2D SPACE',''
  ) );
#799 = PCURVE('',#667,#800);
#800 = DEFINITIONAL_REPRESENTATION('',(#801),#853);
#801 = B_SPLINE_CURVE_WITH_KNOTS('',8,(#802,#803,#804,#805,#806,#807,
    #808,#809,#810,#811,#812,#813,#814,#815,#816,#817,#818,#819,#820,
    #821,#822,#823,#824,#825,#826,#827,#828,#829,#830,#831,#832,#833,
    #834,#835,#836,#837,#838,#839,#840,#841,#842,#843,#844,#845,#846,
    #847,#848,#849,#850,#851,#852),.UNSPECIFIED.,.T.,.F.,(9,7,7,7,7,7,7,
    9),(0.,0.135309154778,0.250130193247,0.400392520011,0.535356555472,
    0.749890531326,0.864721810688,1.),.UNSPECIFIED.);
#802 = CARTESIAN_POINT('',(-4.712388980385,-8.25));
#803 = CARTESIAN_POINT('',(-4.720940078476,-8.25));
#804 = CARTESIAN_POINT('',(-4.729323510084,-8.228339537869));
#805 = CARTESIAN_POINT('',(-4.737347871029,-8.186504236946));
#806 = CARTESIAN_POINT('',(-4.744844526242,-8.126568591532));
#807 = CARTESIAN_POINT('',(-4.751671912145,-8.051167277137));
#808 = CARTESIAN_POINT('',(-4.757722369108,-7.963460301484));
#809 = CARTESIAN_POINT('',(-4.762931297326,-7.867090742199));
#810 = CARTESIAN_POINT('',(-4.770985817376,-7.680463494143));
#811 = CARTESIAN_POINT('',(-4.774131060646,-7.590071459547));
#812 = CARTESIAN_POINT('',(-4.776733576082,-7.496064043067));
#813 = CARTESIAN_POINT('',(-4.778803016008,-7.399361640624));
#814 = CARTESIAN_POINT('',(-4.780348112665,-7.30074498282));
#815 = CARTESIAN_POINT('',(-4.781375621399,-7.200898066236));
#816 = CARTESIAN_POINT('',(-4.781889362637,-7.100447747483));
#817 = CARTESIAN_POINT('',(-4.781889362637,-6.868547502649));
#818 = CARTESIAN_POINT('',(-4.781009556405,-6.737038025133));
#819 = CARTESIAN_POINT('',(-4.779248490835,-6.606817812448));
#820 = CARTESIAN_POINT('',(-4.776593624113,-6.479343354585));
#821 = CARTESIAN_POINT('',(-4.773026227668,-6.356301010908));
#822 = CARTESIAN_POINT('',(-4.768525461731,-6.239722357883));
#823 = CARTESIAN_POINT('',(-4.763074178132,-6.132143732847));
#824 = CARTESIAN_POINT('',(-4.750915944095,-5.951274208362));
#825 = CARTESIAN_POINT('',(-4.744264982689,-5.873697330019));
#826 = CARTESIAN_POINT('',(-4.736816207221,-5.809720617715));
#827 = CARTESIAN_POINT('',(-4.728746975892,-5.763536937604));
#828 = CARTESIAN_POINT('',(-4.720285944427,-5.737900359926));
#829 = CARTESIAN_POINT('',(-4.711689992342,-5.734084138459));
#830 = CARTESIAN_POINT('',(-4.703220820367,-5.751828478746));
#831 = CARTESIAN_POINT('',(-4.682238024201,-5.848788410731));
#832 = CARTESIAN_POINT('',(-4.670904776583,-5.955206804769));
#833 = CARTESIAN_POINT('',(-4.661429422221,-6.094953059954));
#834 = CARTESIAN_POINT('',(-4.653899431386,-6.258013598674));
#835 = CARTESIAN_POINT('',(-4.648330518134,-6.436189015112));
#836 = CARTESIAN_POINT('',(-4.644681668678,-6.622809841379));
#837 = CARTESIAN_POINT('',(-4.642888598133,-6.812340416677));
#838 = CARTESIAN_POINT('',(-4.642888598133,-7.100446514133));
#839 = CARTESIAN_POINT('',(-4.643402327448,-7.200896186088));
#840 = CARTESIAN_POINT('',(-4.644429821596,-7.300743325425));
#841 = CARTESIAN_POINT('',(-4.645974917549,-7.399360970258));
#842 = CARTESIAN_POINT('',(-4.648044383029,-7.496064707781));
#843 = CARTESIAN_POINT('',(-4.650646945131,-7.590073173407));
#844 = CARTESIAN_POINT('',(-4.653792218248,-7.680465228559));
#845 = CARTESIAN_POINT('',(-4.661845189642,-7.867056593496));
#846 = CARTESIAN_POINT('',(-4.66705389135,-7.963437383351));
#847 = CARTESIAN_POINT('',(-4.673105443816,-8.051170788794));
#848 = CARTESIAN_POINT('',(-4.679934781822,-8.12659309575));
#849 = CARTESIAN_POINT('',(-4.687433426576,-8.186533552923));
#850 = CARTESIAN_POINT('',(-4.695458816048,-8.228357093954));
#851 = CARTESIAN_POINT('',(-4.703841348417,-8.25));
#852 = CARTESIAN_POINT('',(-4.712388980385,-8.25));
#853 = ( GEOMETRIC_REPRESENTATION_CONTEXT(2) 
PARAMETRIC_REPRESENTATION_CONTEXT() REPRESENTATION_CONTEXT('2D SPACE',''
  ) );
#854 = ORIENTED_EDGE('',*,*,#855,.F.);
#855 = EDGE_CURVE('',#308,#689,#856,.T.);
#856 = SEAM_CURVE('',#857,(#861,#868),.PCURVE_S1.);
#857 = LINE('',#858,#859);
#858 = CARTESIAN_POINT('',(-3.061616997868E-16,-23.75,-6.75));
#859 = VECTOR('',#860,1.);
#860 = DIRECTION('',(0.,1.,0.));
#861 = PCURVE('',#419,#862);
#862 = DEFINITIONAL_REPRESENTATION('',(#863),#867);
#863 = LINE('',#864,#865);
#864 = CARTESIAN_POINT('',(6.28318530718,-0.));
#865 = VECTOR('',#866,1.);
#866 = DIRECTION('',(0.,1.));
#867 = ( GEOMETRIC_REPRESENTATION_CONTEXT(2) 
PARAMETRIC_REPRESENTATION_CONTEXT() REPRESENTATION_CONTEXT('2D SPACE',''
  ) );
#868 = PCURVE('',#419,#869);
#869 = DEFINITIONAL_REPRESENTATION('',(#870),#874);
#870 = LINE('',#871,#872);
#871 = CARTESIAN_POINT('',(0.,-0.));
#872 = VECTOR('',#873,1.);
#873 = DIRECTION('',(0.,1.));
#874 = ( GEOMETRIC_REPRESENTATION_CONTEXT(2) 
PARAMETRIC_REPRESENTATION_CONTEXT() REPRESENTATION_CONTEXT('2D SPACE',''
  ) );
#875 = ORIENTED_EDGE('',*,*,#307,.T.);
#876 = ORIENTED_EDGE('',*,*,#855,.T.);
#877 = ADVANCED_FACE('',(#878,#932),#667,.F.);
#878 = FACE_BOUND('',#879,.T.);
#879 = EDGE_LOOP('',(#880,#881,#904,#931));
#880 = ORIENTED_EDGE('',*,*,#650,.F.);
#881 = ORIENTED_EDGE('',*,*,#882,.T.);
#882 = EDGE_CURVE('',#651,#883,#885,.T.);
#883 = VERTEX_POINT('',#884);
#884 = CARTESIAN_POINT('',(18.,0.,0.));
#885 = SEAM_CURVE('',#886,(#890,#897),.PCURVE_S1.);
#886 = LINE('',#887,#888);
#887 = CARTESIAN_POINT('',(18.,0.,-15.));
#888 = VECTOR('',#889,1.);
#889 = DIRECTION('',(0.,0.,1.));
#890 = PCURVE('',#667,#891);
#891 = DEFINITIONAL_REPRESENTATION('',(#892),#896);
#892 = LINE('',#893,#894);
#893 = CARTESIAN_POINT('',(-6.28318530718,0.));
#894 = VECTOR('',#895,1.);
#895 = DIRECTION('',(-0.,-1.));
#896 = ( GEOMETRIC_REPRESENTATION_CONTEXT(2) 
PARAMETRIC_REPRESENTATION_CONTEXT() REPRESENTATION_CONTEXT('2D SPACE',''
  ) );
#897 = PCURVE('',#667,#898);
#898 = DEFINITIONAL_REPRESENTATION('',(#899),#903);
#899 = LINE('',#900,#901);
#900 = CARTESIAN_POINT('',(-0.,0.));
#901 = VECTOR('',#902,1.);
#902 = DIRECTION('',(-0.,-1.));
#903 = ( GEOMETRIC_REPRESENTATION_CONTEXT(2) 
PARAMETRIC_REPRESENTATION_CONTEXT() REPRESENTATION_CONTEXT('2D SPACE',''
  ) );
#904 = ORIENTED_EDGE('',*,*,#905,.T.);
#905 = EDGE_CURVE('',#883,#883,#906,.T.);
#906 = SURFACE_CURVE('',#907,(#912,#919),.PCURVE_S1.);
#907 = CIRCLE('',#908,18.);
#908 = AXIS2_PLACEMENT_3D('',#909,#910,#911);
#909 = CARTESIAN_POINT('',(1.0931426704E-13,0.,0.));
#910 = DIRECTION('',(0.,0.,1.));
#911 = DIRECTION('',(1.,0.,0.));
#912 = PCURVE('',#667,#913);
#913 = DEFINITIONAL_REPRESENTATION('',(#914),#918);
#914 = LINE('',#915,#916);
#915 = CARTESIAN_POINT('',(-0.,-15.));
#916 = VECTOR('',#917,1.);
#917 = DIRECTION('',(-1.,0.));
#918 = ( GEOMETRIC_REPRESENTATION_CONTEXT(2) 
PARAMETRIC_REPRESENTATION_CONTEXT() REPRESENTATION_CONTEXT('2D SPACE',''
  ) );
#919 = PCURVE('',#920,#925);
#920 = PLANE('',#921);
#921 = AXIS2_PLACEMENT_3D('',#922,#923,#924);
#922 = CARTESIAN_POINT('',(-1.411551104557E-15,1.557633849995E-15,0.));
#923 = DIRECTION('',(0.,0.,1.));
#924 = DIRECTION('',(1.,0.,-0.));
#925 = DEFINITIONAL_REPRESENTATION('',(#926),#930);
#926 = CIRCLE('',#927,18.);
#927 = AXIS2_PLACEMENT_2D('',#928,#929);
#928 = CARTESIAN_POINT('',(1.107258181446E-13,-1.557633849995E-15));
#929 = DIRECTION('',(1.,0.));
#930 = ( GEOMETRIC_REPRESENTATION_CONTEXT(2) 
PARAMETRIC_REPRESENTATION_CONTEXT() REPRESENTATION_CONTEXT('2D SPACE',''
  ) );
#931 = ORIENTED_EDGE('',*,*,#882,.F.);
#932 = FACE_BOUND('',#933,.T.);
#933 = EDGE_LOOP('',(#934));
#934 = ORIENTED_EDGE('',*,*,#688,.F.);
#935 = ADVANCED_FACE('',(#936),#920,.F.);
#936 = FACE_BOUND('',#937,.F.);
#937 = EDGE_LOOP('',(#938));
#938 = ORIENTED_EDGE('',*,*,#905,.T.);
#939 = ( GEOMETRIC_REPRESENTATION_CONTEXT(3) 
GLOBAL_UNCERTAINTY_ASSIGNED_CONTEXT((#943)) GLOBAL_UNIT_ASSIGNED_CONTEXT
((#940,#941,#942)) REPRESENTATION_CONTEXT('Context #1',
  '3D Context with UNIT and UNCERTAINTY') );
#940 = ( LENGTH_UNIT() NAMED_UNIT(*) SI_UNIT(.MILLI.,.METRE.) );
#941 = ( NAMED_UNIT(*) PLANE_ANGLE_UNIT() SI_UNIT($,.RADIAN.) );
#942 = ( NAMED_UNIT(*) SI_UNIT($,.STERADIAN.) SOLID_ANGLE_UNIT() );
#943 = UNCERTAINTY_MEASURE_WITH_UNIT(LENGTH_MEASURE(1.E-07),#940,
  'distance_accuracy_value','confusion accuracy');
#944 = PRODUCT_RELATED_PRODUCT_CATEGORY('part',$,(#7));
ENDSEC;
END-ISO-10303-21;
