ISO-10303-21;
HEADER;
FILE_DESCRIPTION(('Open CASCADE Model'),'2;1');
FILE_NAME('Open CASCADE Shape Model','2026-10-03T03:23:59',('Author'),(
    'Open CASCADE'),'Open CASCADE STEP processor 7.9','Open CASCADE 7.9'
  ,'Unknown');
FILE_SCHEMA(('AUTOMOTIVE_DESIGN { 1 0 10303 214 1 1 1 1 }'));
ENDSEC;
DATA;
#1 = APPLICATION_PROTOCOL_DEFINITION('international standard',
  'automotive_design',2000,#2);
#2 = APPLICATION_CONTEXT(
  'core data for automotive mechanical design processes');
#3 = SHAPE_DEFINITION_REPRESENTATION(#4,#10);
#4 = PRODUCT_DEFINITION_SHAPE('','',#5);
#5 = PRODUCT_DEFINITION('design','',#6,#9);
#6 = PRODUCT_DEFINITION_FORMATION('','',#7);
#7 = PRODUCT('Open CASCADE STEP translator 7.9 15',
  'Open CASCADE STEP translator 7.9 15','',(#8));
#8 = PRODUCT_CONTEXT('',#2,'mechanical');
#9 = PRODUCT_DEFINITION_CONTEXT('part definition',#2,'design');
#10 = ADVANCED_BREP_SHAPE_REPRESENTATION('',(#11,#15),#459);
#11 = AXIS2_PLACEMENT_3D('',#12,#13,#14);
#12 = CARTESIAN_POINT('',(0.,0.,0.));
#13 = DIRECTION('',(0.,0.,1.));
#14 = DIRECTION('',(1.,0.,-0.));
#15 = MANIFOLD_SOLID_BREP('',#16);
#16 = CLOSED_SHELL('',(#17,#300,#339,#373,#428,#455));
#17 = ADVANCED_FACE('',(#18,#105),#31,.T.);
#18 = FACE_BOUND('',#19,.F.);
#19 = EDGE_LOOP('',(#20,#54,#77,#104));
#20 = ORIENTED_EDGE('',*,*,#21,.F.);
#21 = EDGE_CURVE('',#22,#22,#24,.T.);
#22 = VERTEX_POINT('',#23);
#23 = CARTESIAN_POINT('',(55.5,7.,0.));
#24 = SURFACE_CURVE('',#25,(#30,#42),.PCURVE_S1.);
#25 = CIRCLE('',#26,7.);
#26 = AXIS2_PLACEMENT_3D('',#27,#28,#29);
#27 = CARTESIAN_POINT('',(55.5,0.,0.));
#28 = DIRECTION('',(1.,0.,0.));
#29 = DIRECTION('',(0.,1.,0.));
#30 = PCURVE('',#31,#36);
#31 = CYLINDRICAL_SURFACE('',#32,7.);
#32 = AXIS2_PLACEMENT_3D('',#33,#34,#35);
#33 = CARTESIAN_POINT('',(55.5,0.,0.));
#34 = DIRECTION('',(-1.,-0.,-0.));
#35 = DIRECTION('',(0.,1.,0.));
#36 = DEFINITIONAL_REPRESENTATION('',(#37),#41);
#37 = LINE('',#38,#39);
#38 = CARTESIAN_POINT('',(-0.,0.));
#39 = VECTOR('',#40,1.);
#40 = DIRECTION('',(-1.,0.));
#41 = ( GEOMETRIC_REPRESENTATION_CONTEXT(2) 
PARAMETRIC_REPRESENTATION_CONTEXT() REPRESENTATION_CONTEXT('2D SPACE',''
  ) );
#42 = PCURVE('',#43,#48);
#43 = PLANE('',#44);
#44 = AXIS2_PLACEMENT_3D('',#45,#46,#47);
#45 = CARTESIAN_POINT('',(55.5,-1.953485903628E-16,4.9564344165E-16));
#46 = DIRECTION('',(1.,0.,0.));
#47 = DIRECTION('',(-0.,0.,1.));
#48 = DEFINITIONAL_REPRESENTATION('',(#49),#53);
#49 = CIRCLE('',#50,7.);
#50 = AXIS2_PLACEMENT_2D('',#51,#52);
#51 = CARTESIAN_POINT('',(-4.9564344165E-16,-1.953485903628E-16));
#52 = DIRECTION('',(0.,-1.));
#53 = ( GEOMETRIC_REPRESENTATION_CONTEXT(2) 
PARAMETRIC_REPRESENTATION_CONTEXT() REPRESENTATION_CONTEXT('2D SPACE',''
  ) );
#54 = ORIENTED_EDGE('',*,*,#55,.T.);
#55 = EDGE_CURVE('',#22,#56,#58,.T.);
#56 = VERTEX_POINT('',#57);
#57 = CARTESIAN_POINT('',(60.,7.,0.));
#58 = SEAM_CURVE('',#59,(#63,#70),.PCURVE_S1.);
#59 = LINE('',#60,#61);
#60 = CARTESIAN_POINT('',(55.5,7.,0.));
#61 = VECTOR('',#62,1.);
#62 = DIRECTION('',(1.,0.,0.));
#63 = PCURVE('',#31,#64);
#64 = DEFINITIONAL_REPRESENTATION('',(#65),#69);
#65 = LINE('',#66,#67);
#66 = CARTESIAN_POINT('',(-6.28318530718,0.));
#67 = VECTOR('',#68,1.);
#68 = DIRECTION('',(-0.,-1.));
#69 = ( GEOMETRIC_REPRESENTATION_CONTEXT(2) 
PARAMETRIC_REPRESENTATION_CONTEXT() REPRESENTATION_CONTEXT('2D SPACE',''
  ) );
#70 = PCURVE('',#31,#71);
#71 = DEFINITIONAL_REPRESENTATION('',(#72),#76);
#72 = LINE('',#73,#74);
#73 = CARTESIAN_POINT('',(-0.,0.));
#74 = VECTOR('',#75,1.);
#75 = DIRECTION('',(-0.,-1.));
#76 = ( GEOMETRIC_REPRESENTATION_CONTEXT(2) 
PARAMETRIC_REPRESENTATION_CONTEXT() REPRESENTATION_CONTEXT('2D SPACE',''
  ) );
#77 = ORIENTED_EDGE('',*,*,#78,.T.);
#78 = EDGE_CURVE('',#56,#56,#79,.T.);
#79 = SURFACE_CURVE('',#80,(#85,#92),.PCURVE_S1.);
#80 = CIRCLE('',#81,7.);
#81 = AXIS2_PLACEMENT_3D('',#82,#83,#84);
#82 = CARTESIAN_POINT('',(60.,0.,0.));
#83 = DIRECTION('',(1.,0.,0.));
#84 = DIRECTION('',(0.,1.,0.));
#85 = PCURVE('',#31,#86);
#86 = DEFINITIONAL_REPRESENTATION('',(#87),#91);
#87 = LINE('',#88,#89);
#88 = CARTESIAN_POINT('',(-0.,-4.5));
#89 = VECTOR('',#90,1.);
#90 = DIRECTION('',(-1.,0.));
#91 = ( GEOMETRIC_REPRESENTATION_CONTEXT(2) 
PARAMETRIC_REPRESENTATION_CONTEXT() REPRESENTATION_CONTEXT('2D SPACE',''
  ) );
#92 = PCURVE('',#93,#98);
#93 = PLANE('',#94);
#94 = AXIS2_PLACEMENT_3D('',#95,#96,#97);
#95 = CARTESIAN_POINT('',(60.,-1.953485903628E-16,4.9564344165E-16));
#96 = DIRECTION('',(1.,0.,0.));
#97 = DIRECTION('',(-0.,0.,1.));
#98 = DEFINITIONAL_REPRESENTATION('',(#99),#103);
#99 = CIRCLE('',#100,7.);
#100 = AXIS2_PLACEMENT_2D('',#101,#102);
#101 = CARTESIAN_POINT('',(-4.9564344165E-16,-1.953485903628E-16));
#102 = DIRECTION('',(0.,-1.));
#103 = ( GEOMETRIC_REPRESENTATION_CONTEXT(2) 
PARAMETRIC_REPRESENTATION_CONTEXT() REPRESENTATION_CONTEXT('2D SPACE',''
  ) );
#104 = ORIENTED_EDGE('',*,*,#55,.F.);
#105 = FACE_BOUND('',#106,.F.);
#106 = EDGE_LOOP('',(#107));
#107 = ORIENTED_EDGE('',*,*,#108,.T.);
#108 = EDGE_CURVE('',#109,#109,#111,.T.);
#109 = VERTEX_POINT('',#110);
#110 = CARTESIAN_POINT('',(59.75,0.,7.));
#111 = SURFACE_CURVE('',#112,(#171,#233),.PCURVE_S1.);
#112 = B_SPLINE_CURVE_WITH_KNOTS('',8,(#113,#114,#115,#116,#117,#118,
    #119,#120,#121,#122,#123,#124,#125,#126,#127,#128,#129,#130,#131,
    #132,#133,#134,#135,#136,#137,#138,#139,#140,#141,#142,#143,#144,
    #145,#146,#147,#148,#149,#150,#151,#152,#153,#154,#155,#156,#157,
    #158,#159,#160,#161,#162,#163,#164,#165,#166,#167,#168,#169,#170),
  .UNSPECIFIED.,.T.,.F.,(9,7,7,7,7,7,7,7,9),(0.,0.126338597316,
    0.279141834988,0.448820178953,0.594901197683,0.689077979439,
    0.79264333914,0.906171398475,1.),.UNSPECIFIED.);
#113 = CARTESIAN_POINT('',(59.75,0.,7.));
#114 = CARTESIAN_POINT('',(59.75,0.213707274868,7.));
#115 = CARTESIAN_POINT('',(59.723902648401,0.422909192717,6.992543235119
    ));
#116 = CARTESIAN_POINT('',(59.673632130272,0.623983008949,6.978181759631
    ));
#117 = CARTESIAN_POINT('',(59.601631402146,0.813725214833,6.958107996308
    ));
#118 = CARTESIAN_POINT('',(59.510875381518,0.989403313532,6.933996261584
    ));
#119 = CARTESIAN_POINT('',(59.40489160273,1.148858684825,6.907739196394)
  );
#120 = CARTESIAN_POINT('',(59.287778760499,1.290648364247,6.88114415453)
  );
#121 = CARTESIAN_POINT('',(59.014764678672,1.563662446074,6.824825649625
    ));
#122 = CARTESIAN_POINT('',(58.852124365078,1.690204939855,6.794840134393
    ));
#123 = CARTESIAN_POINT('',(58.679796991727,1.794437174242,6.767587949032
    ));
#124 = CARTESIAN_POINT('',(58.500439183473,1.877027262694,6.744484942186
    ));
#125 = CARTESIAN_POINT('',(58.316143894093,1.938568416855,6.726519349493
    ));
#126 = CARTESIAN_POINT('',(58.128641714986,1.979491157254,6.714318468768
    ));
#127 = CARTESIAN_POINT('',(57.939449951504,2.,6.708203932499));
#128 = CARTESIAN_POINT('',(57.53962779503,2.,6.708203932499));
#129 = CARTESIAN_POINT('',(57.329698869324,1.974710356726,6.715743627689
    ));
#130 = CARTESIAN_POINT('',(57.122097285015,1.924319102674,6.730768203983
    ));
#131 = CARTESIAN_POINT('',(56.918818480483,1.848485334142,6.752795100615
    ));
#132 = CARTESIAN_POINT('',(56.722278629529,1.746528340455,6.780888448642
    ));
#133 = CARTESIAN_POINT('',(56.535529519769,1.617531919994,6.813540467542
    ));
#134 = CARTESIAN_POINT('',(56.362573558522,1.460518537797,6.848543042567
    ));
#135 = CARTESIAN_POINT('',(56.076734771478,1.114998798566,6.912539766097
    ));
#136 = CARTESIAN_POINT('',(55.953201503007,0.927091427205,6.94295520688)
  );
#137 = CARTESIAN_POINT('',(55.849488458945,0.714087819421,6.97101236116)
  );
#138 = CARTESIAN_POINT('',(55.773661162088,0.481297832657,6.992985086657
    ));
#139 = CARTESIAN_POINT('',(55.730943345439,0.235808135447,7.00565062453)
  );
#140 = CARTESIAN_POINT('',(55.723871983608,-1.445540837097E-02,
    7.007543932002));
#141 = CARTESIAN_POINT('',(55.752233122818,-0.26135619603,6.999120140734
    ));
#142 = CARTESIAN_POINT('',(55.851902170591,-0.649541507703,
    6.971468031177));
#143 = CARTESIAN_POINT('',(55.904625945553,-0.798177286104,
    6.957071035001));
#144 = CARTESIAN_POINT('',(55.970629917111,-0.941860963816,
    6.939503586779));
#145 = CARTESIAN_POINT('',(56.049372053285,-1.079228993806,
    6.919329580726));
#146 = CARTESIAN_POINT('',(56.14014375083,-1.208984493464,6.897267421593
    ));
#147 = CARTESIAN_POINT('',(56.242073515116,-1.329913244423,6.87414930937
    ));
#148 = CARTESIAN_POINT('',(56.354133944687,-1.440911626474,
    6.850861783037));
#149 = CARTESIAN_POINT('',(56.608234509821,-1.651121895465,
    6.803420819287));
#150 = CARTESIAN_POINT('',(56.752281617136,-1.748163825211,6.77938806123
    ));
#151 = CARTESIAN_POINT('',(56.905707560008,-1.830784412929,6.75733149694
    ));
#152 = CARTESIAN_POINT('',(57.06676790009,-1.897925547556,6.738371981393
    ));
#153 = CARTESIAN_POINT('',(57.233623200644,-1.948812358454,
    6.723464992949));
#154 = CARTESIAN_POINT('',(57.404387624556,-1.982928301457,6.71329377072
    ));
#155 = CARTESIAN_POINT('',(57.577155639891,-2.,6.708203932499));
#156 = CARTESIAN_POINT('',(57.939471506948,-2.,6.708203932499));
#157 = CARTESIAN_POINT('',(58.128666701295,-1.97948654223,6.714319839289
    ));
#158 = CARTESIAN_POINT('',(58.316161129194,-1.938561231381,
    6.726521504243));
#159 = CARTESIAN_POINT('',(58.500444366295,-1.877022099463,
    6.744486298453));
#160 = CARTESIAN_POINT('',(58.679791906192,-1.794437647254,
    6.767587571941));
#161 = CARTESIAN_POINT('',(58.852114902333,-1.690211015247,
    6.794838520653));
#162 = CARTESIAN_POINT('',(59.014757758424,-1.563669366322,
    6.824824222087));
#163 = CARTESIAN_POINT('',(59.287735704444,-1.290691420302,
    6.881135272744));
#164 = CARTESIAN_POINT('',(59.404864909911,-1.148902594541,
    6.907731983893));
#165 = CARTESIAN_POINT('',(59.510882707692,-0.98941341934,6.933997000759
    ));
#166 = CARTESIAN_POINT('',(59.6016641254,-0.813683000356,6.958116501746)
  );
#167 = CARTESIAN_POINT('',(59.673669409389,-0.623891372663,
    6.978192425137));
#168 = CARTESIAN_POINT('',(59.723924441936,-0.422794567172,
    6.992549455732));
#169 = CARTESIAN_POINT('',(59.75,-0.213618050076,7.));
#170 = CARTESIAN_POINT('',(59.75,0.,7.));
#171 = PCURVE('',#31,#172);
#172 = DEFINITIONAL_REPRESENTATION('',(#173),#232);
#173 = B_SPLINE_CURVE_WITH_KNOTS('',8,(#174,#175,#176,#177,#178,#179,
    #180,#181,#182,#183,#184,#185,#186,#187,#188,#189,#190,#191,#192,
    #193,#194,#195,#196,#197,#198,#199,#200,#201,#202,#203,#204,#205,
    #206,#207,#208,#209,#210,#211,#212,#213,#214,#215,#216,#217,#218,
    #219,#220,#221,#222,#223,#224,#225,#226,#227,#228,#229,#230,#231),
  .UNSPECIFIED.,.T.,.F.,(9,7,7,7,7,7,7,7,9),(0.,0.126338597316,
    0.279141834988,0.448820178953,0.594901197683,0.689077979439,
    0.79264333914,0.906171398475,1.),.UNSPECIFIED.);
#174 = CARTESIAN_POINT('',(-1.570796326795,-4.25));
#175 = CARTESIAN_POINT('',(-1.540266716099,-4.25));
#176 = CARTESIAN_POINT('',(-1.510380692646,-4.223902648401));
#177 = CARTESIAN_POINT('',(-1.481612647249,-4.173632130272));
#178 = CARTESIAN_POINT('',(-1.454383958307,-4.101631402146));
#179 = CARTESIAN_POINT('',(-1.429071420888,-4.010875381518));
#180 = CARTESIAN_POINT('',(-1.405994947872,-3.90489160273));
#181 = CARTESIAN_POINT('',(-1.385389423098,-3.787778760499));
#182 = CARTESIAN_POINT('',(-1.345566226373,-3.514764678672));
#183 = CARTESIAN_POINT('',(-1.326996073312,-3.352124365078));
#184 = CARTESIAN_POINT('',(-1.311610473115,-3.179796991727));
#185 = CARTESIAN_POINT('',(-1.299360702123,-3.000439183473));
#186 = CARTESIAN_POINT('',(-1.290202310016,-2.816143894093));
#187 = CARTESIAN_POINT('',(-1.284101901998,-2.628641714986));
#188 = CARTESIAN_POINT('',(-1.281044625359,-2.439449951504));
#189 = CARTESIAN_POINT('',(-1.281044625359,-2.03962779503));
#190 = CARTESIAN_POINT('',(-1.28481458068,-1.829698869324));
#191 = CARTESIAN_POINT('',(-1.2923264763,-1.622097285015));
#192 = CARTESIAN_POINT('',(-1.303607349864,-1.418818480483));
#193 = CARTESIAN_POINT('',(-1.31871221347,-1.222278629529));
#194 = CARTESIAN_POINT('',(-1.337711566446,-1.035529519769));
#195 = CARTESIAN_POINT('',(-1.360677586631,-0.862573558522));
#196 = CARTESIAN_POINT('',(-1.410877080656,-0.576734771478));
#197 = CARTESIAN_POINT('',(-1.438063355127,-0.453201503007));
#198 = CARTESIAN_POINT('',(-1.468732774271,-0.349488458945));
#199 = CARTESIAN_POINT('',(-1.502088125297,-0.273661162087));
#200 = CARTESIAN_POINT('',(-1.537138096429,-0.23094334544));
#201 = CARTESIAN_POINT('',(-1.572839556835,-0.223871983608));
#202 = CARTESIAN_POINT('',(-1.608107412226,-0.252233122818));
#203 = CARTESIAN_POINT('',(-1.663702977194,-0.351902170591));
#204 = CARTESIAN_POINT('',(-1.685029144937,-0.404625945553));
#205 = CARTESIAN_POINT('',(-1.705697549618,-0.470629917111));
#206 = CARTESIAN_POINT('',(-1.725521245566,-0.549372053285));
#207 = CARTESIAN_POINT('',(-1.744315470831,-0.64014375083));
#208 = CARTESIAN_POINT('',(-1.761899017138,-0.742073515116));
#209 = CARTESIAN_POINT('',(-1.778099299229,-0.854133944687));
#210 = CARTESIAN_POINT('',(-1.808884599933,-1.108234509821));
#211 = CARTESIAN_POINT('',(-1.823163440938,-1.252281617136));
#212 = CARTESIAN_POINT('',(-1.835376885804,-1.405707560008));
#213 = CARTESIAN_POINT('',(-1.845342440095,-1.56676790009));
#214 = CARTESIAN_POINT('',(-1.852917448567,-1.733623200644));
#215 = CARTESIAN_POINT('',(-1.858003123048,-1.904387624556));
#216 = CARTESIAN_POINT('',(-1.860548028231,-2.077155639891));
#217 = CARTESIAN_POINT('',(-1.860548028231,-2.439471506948));
#218 = CARTESIAN_POINT('',(-1.857490063801,-2.628666701295));
#219 = CARTESIAN_POINT('',(-1.8513892719,-2.816161129194));
#220 = CARTESIAN_POINT('',(-1.842231189533,-3.000444366295));
#221 = CARTESIAN_POINT('',(-1.82998225991,-3.179791906192));
#222 = CARTESIAN_POINT('',(-1.814597476831,-3.352114902333));
#223 = CARTESIAN_POINT('',(-1.796027436638,-3.514757758424));
#224 = CARTESIAN_POINT('',(-1.756209510863,-3.787735704444));
#225 = CARTESIAN_POINT('',(-1.735604058153,-3.904864909911));
#226 = CARTESIAN_POINT('',(-1.712522632047,-4.010882707692));
#227 = CARTESIAN_POINT('',(-1.687202566061,-4.1016641254));
#228 = CARTESIAN_POINT('',(-1.659966858362,-4.173669409389));
#229 = CARTESIAN_POINT('',(-1.631195586862,-4.223924441936));
#230 = CARTESIAN_POINT('',(-1.601313191091,-4.25));
#231 = CARTESIAN_POINT('',(-1.570796326795,-4.25));
#232 = ( GEOMETRIC_REPRESENTATION_CONTEXT(2) 
PARAMETRIC_REPRESENTATION_CONTEXT() REPRESENTATION_CONTEXT('2D SPACE',''
  ) );
#233 = PCURVE('',#234,#239);
#234 = CYLINDRICAL_SURFACE('',#235,2.);
#235 = AXIS2_PLACEMENT_3D('',#236,#237,#238);
#236 = CARTESIAN_POINT('',(57.75,0.,6.));
#237 = DIRECTION('',(-0.,-0.,-1.));
#238 = DIRECTION('',(1.,0.,0.));
#239 = DEFINITIONAL_REPRESENTATION('',(#240),#299);
#240 = B_SPLINE_CURVE_WITH_KNOTS('',8,(#241,#242,#243,#244,#245,#246,
    #247,#248,#249,#250,#251,#252,#253,#254,#255,#256,#257,#258,#259,
    #260,#261,#262,#263,#264,#265,#266,#267,#268,#269,#270,#271,#272,
    #273,#274,#275,#276,#277,#278,#279,#280,#281,#282,#283,#284,#285,
    #286,#287,#288,#289,#290,#291,#292,#293,#294,#295,#296,#297,#298),
  .UNSPECIFIED.,.F.,.F.,(9,7,7,7,7,7,7,7,9),(0.,0.126338597316,
    0.279141834988,0.448820178953,0.594901197683,0.689077979439,
    0.79264333914,0.906171398475,1.),.UNSPECIFIED.);
#241 = CARTESIAN_POINT('',(0.,-1.));
#242 = CARTESIAN_POINT('',(-0.106853637434,-1.));
#243 = CARTESIAN_POINT('',(-0.211454527257,-0.992543235119));
#244 = CARTESIAN_POINT('',(-0.313850725765,-0.978181759631));
#245 = CARTESIAN_POINT('',(-0.413969808016,-0.958107996308));
#246 = CARTESIAN_POINT('',(-0.511625422323,-0.933996261584));
#247 = CARTESIAN_POINT('',(-0.606488460563,-0.907739196394));
#248 = CARTESIAN_POINT('',(-0.698024373884,-0.88114415453));
#249 = CARTESIAN_POINT('',(-0.891074482503,-0.824825649625));
#250 = CARTESIAN_POINT('',(-0.993316200763,-0.794840134393));
#251 = CARTESIAN_POINT('',(-1.092892264344,-0.767587949032));
#252 = CARTESIAN_POINT('',(-1.190411103421,-0.744484942186));
#253 = CARTESIAN_POINT('',(-1.286428749495,-0.726519349493));
#254 = CARTESIAN_POINT('',(-1.381475646154,-0.714318468768));
#255 = CARTESIAN_POINT('',(-1.476071351043,-0.708203932499));
#256 = CARTESIAN_POINT('',(-1.67598242928,-0.708203932499));
#257 = CARTESIAN_POINT('',(-1.780946589753,-0.715743627689));
#258 = CARTESIAN_POINT('',(-1.88652186198,-0.730768203983));
#259 = CARTESIAN_POINT('',(-1.993448789894,-0.752795100615));
#260 = CARTESIAN_POINT('',(-2.102464711809,-0.780888448642));
#261 = CARTESIAN_POINT('',(-2.214343121966,-0.813540467542));
#262 = CARTESIAN_POINT('',(-2.329957281359,-0.848543042567));
#263 = CARTESIAN_POINT('',(-2.554171298749,-0.912539766097));
#264 = CARTESIAN_POINT('',(-2.665935652638,-0.94295520688));
#265 = CARTESIAN_POINT('',(-2.782750228192,-0.97101236116));
#266 = CARTESIAN_POINT('',(-2.90281681592,-0.992985086658));
#267 = CARTESIAN_POINT('',(-3.024906123042,-1.00565062453));
#268 = CARTESIAN_POINT('',(-3.147981576985,-1.007543932002));
#269 = CARTESIAN_POINT('',(-3.271080461509,-0.999120140734));
#270 = CARTESIAN_POINT('',(-3.471468681773,-0.971468031177));
#271 = CARTESIAN_POINT('',(-3.550007605951,-0.957071035001));
#272 = CARTESIAN_POINT('',(-3.628538374869,-0.939503586779));
#273 = CARTESIAN_POINT('',(-3.707070162549,-0.919329580726));
#274 = CARTESIAN_POINT('',(-3.785610460312,-0.897267421593));
#275 = CARTESIAN_POINT('',(-3.864159407779,-0.87414930937));
#276 = CARTESIAN_POINT('',(-3.942707775126,-0.850861783037));
#277 = CARTESIAN_POINT('',(-4.107598234516,-0.803420819287));
#278 = CARTESIAN_POINT('',(-4.194021782351,-0.77938806123));
#279 = CARTESIAN_POINT('',(-4.280443698062,-0.75733149694));
#280 = CARTESIAN_POINT('',(-4.366842361088,-0.738371981393));
#281 = CARTESIAN_POINT('',(-4.453217022252,-0.723464992949));
#282 = CARTESIAN_POINT('',(-4.539582780622,-0.71329377072));
#283 = CARTESIAN_POINT('',(-4.62596680033,-0.708203932499));
#284 = CARTESIAN_POINT('',(-4.807124733858,-0.708203932499));
#285 = CARTESIAN_POINT('',(-4.901722133192,-0.714319839289));
#286 = CARTESIAN_POINT('',(-4.996765630522,-0.726521504243));
#287 = CARTESIAN_POINT('',(-5.092777549674,-0.744486298453));
#288 = CARTESIAN_POINT('',(-5.190290804982,-0.767587571941));
#289 = CARTESIAN_POINT('',(-5.289863620676,-0.794838520653));
#290 = CARTESIAN_POINT('',(-5.392105931322,-0.824824222087));
#291 = CARTESIAN_POINT('',(-5.585130488067,-0.881135272744));
#292 = CARTESIAN_POINT('',(-5.676671891761,-0.907731983893));
#293 = CARTESIAN_POINT('',(-5.77155781583,-0.933997000759));
#294 = CARTESIAN_POINT('',(-5.869241013844,-0.958116501746));
#295 = CARTESIAN_POINT('',(-5.969382702665,-0.978192425137));
#296 = CARTESIAN_POINT('',(-6.071788100287,-0.992549455732));
#297 = CARTESIAN_POINT('',(-6.176376282141,-1.));
#298 = CARTESIAN_POINT('',(-6.28318530718,-1.));
#299 = ( GEOMETRIC_REPRESENTATION_CONTEXT(2) 
PARAMETRIC_REPRESENTATION_CONTEXT() REPRESENTATION_CONTEXT('2D SPACE',''
  ) );
#300 = ADVANCED_FACE('',(#301,#304),#43,.F.);
#301 = FACE_BOUND('',#302,.F.);
#302 = EDGE_LOOP('',(#303));
#303 = ORIENTED_EDGE('',*,*,#21,.T.);
#304 = FACE_BOUND('',#305,.F.);
#305 = EDGE_LOOP('',(#306));
#306 = ORIENTED_EDGE('',*,*,#307,.T.);
#307 = EDGE_CURVE('',#308,#308,#310,.T.);
#308 = VERTEX_POINT('',#309);
#309 = CARTESIAN_POINT('',(55.5,4.,0.));
#310 = SURFACE_CURVE('',#311,(#316,#327),.PCURVE_S1.);
#311 = CIRCLE('',#312,4.);
#312 = AXIS2_PLACEMENT_3D('',#313,#314,#315);
#313 = CARTESIAN_POINT('',(55.5,0.,0.));
#314 = DIRECTION('',(-1.,0.,0.));
#315 = DIRECTION('',(0.,1.,0.));
#316 = PCURVE('',#43,#317);
#317 = DEFINITIONAL_REPRESENTATION('',(#318),#326);
#318 = ( BOUNDED_CURVE() B_SPLINE_CURVE(2,(#319,#320,#321,#322,#323,#324
,#325),.UNSPECIFIED.,.T.,.F.) B_SPLINE_CURVE_WITH_KNOTS((1,2,2,2,2,1),(
    -2.094395102393,0.,2.094395102393,4.188790204786,6.28318530718,
8.377580409573),.UNSPECIFIED.) CURVE() GEOMETRIC_REPRESENTATION_ITEM() 
RATIONAL_B_SPLINE_CURVE((1.,0.5,1.,0.5,1.,0.5,1.)) REPRESENTATION_ITEM(
  '') );
#319 = CARTESIAN_POINT('',(-4.9564344165E-16,-4.));
#320 = CARTESIAN_POINT('',(-6.928203230276,-4.));
#321 = CARTESIAN_POINT('',(-3.464101615138,2.));
#322 = CARTESIAN_POINT('',(-1.475360880968E-15,8.));
#323 = CARTESIAN_POINT('',(3.464101615138,2.));
#324 = CARTESIAN_POINT('',(6.928203230276,-4.));
#325 = CARTESIAN_POINT('',(-4.9564344165E-16,-4.));
#326 = ( GEOMETRIC_REPRESENTATION_CONTEXT(2) 
PARAMETRIC_REPRESENTATION_CONTEXT() REPRESENTATION_CONTEXT('2D SPACE',''
  ) );
#327 = PCURVE('',#328,#333);
#328 = CYLINDRICAL_SURFACE('',#329,4.);
#329 = AXIS2_PLACEMENT_3D('',#330,#331,#332);
#330 = CARTESIAN_POINT('',(55.,0.,0.));
#331 = DIRECTION('',(-1.,-0.,-0.));
#332 = DIRECTION('',(0.,1.,0.));
#333 = DEFINITIONAL_REPRESENTATION('',(#334),#338);
#334 = LINE('',#335,#336);
#335 = CARTESIAN_POINT('',(-6.28318530718,-0.5));
#336 = VECTOR('',#337,1.);
#337 = DIRECTION('',(1.,-0.));
#338 = ( GEOMETRIC_REPRESENTATION_CONTEXT(2) 
PARAMETRIC_REPRESENTATION_CONTEXT() REPRESENTATION_CONTEXT('2D SPACE',''
  ) );
#339 = ADVANCED_FACE('',(#340,#343),#93,.T.);
#340 = FACE_BOUND('',#341,.T.);
#341 = EDGE_LOOP('',(#342));
#342 = ORIENTED_EDGE('',*,*,#78,.T.);
#343 = FACE_BOUND('',#344,.T.);
#344 = EDGE_LOOP('',(#345));
#345 = ORIENTED_EDGE('',*,*,#346,.T.);
#346 = EDGE_CURVE('',#347,#347,#349,.T.);
#347 = VERTEX_POINT('',#348);
#348 = CARTESIAN_POINT('',(60.,4.,0.));
#349 = SURFACE_CURVE('',#350,(#355,#366),.PCURVE_S1.);
#350 = CIRCLE('',#351,4.);
#351 = AXIS2_PLACEMENT_3D('',#352,#353,#354);
#352 = CARTESIAN_POINT('',(60.,0.,0.));
#353 = DIRECTION('',(-1.,0.,0.));
#354 = DIRECTION('',(0.,1.,0.));
#355 = PCURVE('',#93,#356);
#356 = DEFINITIONAL_REPRESENTATION('',(#357),#365);
#357 = ( BOUNDED_CURVE() B_SPLINE_CURVE(2,(#358,#359,#360,#361,#362,#363
,#364),.UNSPECIFIED.,.T.,.F.) B_SPLINE_CURVE_WITH_KNOTS((1,2,2,2,2,1),(
    -2.094395102393,0.,2.094395102393,4.188790204786,6.28318530718,
8.377580409573),.UNSPECIFIED.) CURVE() GEOMETRIC_REPRESENTATION_ITEM() 
RATIONAL_B_SPLINE_CURVE((1.,0.5,1.,0.5,1.,0.5,1.)) REPRESENTATION_ITEM(
  '') );
#358 = CARTESIAN_POINT('',(-4.9564344165E-16,-4.));
#359 = CARTESIAN_POINT('',(-6.928203230276,-4.));
#360 = CARTESIAN_POINT('',(-3.464101615138,2.));
#361 = CARTESIAN_POINT('',(-1.475360880968E-15,8.));
#362 = CARTESIAN_POINT('',(3.464101615138,2.));
#363 = CARTESIAN_POINT('',(6.928203230276,-4.));
#364 = CARTESIAN_POINT('',(-4.9564344165E-16,-4.));
#365 = ( GEOMETRIC_REPRESENTATION_CONTEXT(2) 
PARAMETRIC_REPRESENTATION_CONTEXT() REPRESENTATION_CONTEXT('2D SPACE',''
  ) );
#366 = PCURVE('',#328,#367);
#367 = DEFINITIONAL_REPRESENTATION('',(#368),#372);
#368 = LINE('',#369,#370);
#369 = CARTESIAN_POINT('',(-6.28318530718,-5.));
#370 = VECTOR('',#371,1.);
#371 = DIRECTION('',(1.,-0.));
#372 = ( GEOMETRIC_REPRESENTATION_CONTEXT(2) 
PARAMETRIC_REPRESENTATION_CONTEXT() REPRESENTATION_CONTEXT('2D SPACE',''
  ) );
#373 = ADVANCED_FACE('',(#374),#234,.T.);
#374 = FACE_BOUND('',#375,.F.);
#375 = EDGE_LOOP('',(#376,#377,#400,#427));
#376 = ORIENTED_EDGE('',*,*,#108,.F.);
#377 = ORIENTED_EDGE('',*,*,#378,.T.);
#378 = EDGE_CURVE('',#109,#379,#381,.T.);
#379 = VERTEX_POINT('',#380);
#380 = CARTESIAN_POINT('',(59.75,0.,9.));
#381 = SEAM_CURVE('',#382,(#386,#393),.PCURVE_S1.);
#382 = LINE('',#383,#384);
#383 = CARTESIAN_POINT('',(59.75,0.,6.));
#384 = VECTOR('',#385,1.);
#385 = DIRECTION('',(0.,0.,1.));
#386 = PCURVE('',#234,#387);
#387 = DEFINITIONAL_REPRESENTATION('',(#388),#392);
#388 = LINE('',#389,#390);
#389 = CARTESIAN_POINT('',(-6.28318530718,0.));
#390 = VECTOR('',#391,1.);
#391 = DIRECTION('',(-0.,-1.));
#392 = ( GEOMETRIC_REPRESENTATION_CONTEXT(2) 
PARAMETRIC_REPRESENTATION_CONTEXT() REPRESENTATION_CONTEXT('2D SPACE',''
  ) );
#393 = PCURVE('',#234,#394);
#394 = DEFINITIONAL_REPRESENTATION('',(#395),#399);
#395 = LINE('',#396,#397);
#396 = CARTESIAN_POINT('',(-0.,0.));
#397 = VECTOR('',#398,1.);
#398 = DIRECTION('',(-0.,-1.));
#399 = ( GEOMETRIC_REPRESENTATION_CONTEXT(2) 
PARAMETRIC_REPRESENTATION_CONTEXT() REPRESENTATION_CONTEXT('2D SPACE',''
  ) );
#400 = ORIENTED_EDGE('',*,*,#401,.T.);
#401 = EDGE_CURVE('',#379,#379,#402,.T.);
#402 = SURFACE_CURVE('',#403,(#408,#415),.PCURVE_S1.);
#403 = CIRCLE('',#404,2.);
#404 = AXIS2_PLACEMENT_3D('',#405,#406,#407);
#405 = CARTESIAN_POINT('',(57.75,0.,9.));
#406 = DIRECTION('',(0.,0.,1.));
#407 = DIRECTION('',(1.,0.,0.));
#408 = PCURVE('',#234,#409);
#409 = DEFINITIONAL_REPRESENTATION('',(#410),#414);
#410 = LINE('',#411,#412);
#411 = CARTESIAN_POINT('',(-0.,-3.));
#412 = VECTOR('',#413,1.);
#413 = DIRECTION('',(-1.,0.));
#414 = ( GEOMETRIC_REPRESENTATION_CONTEXT(2) 
PARAMETRIC_REPRESENTATION_CONTEXT() REPRESENTATION_CONTEXT('2D SPACE',''
  ) );
#415 = PCURVE('',#416,#421);
#416 = PLANE('',#417);
#417 = AXIS2_PLACEMENT_3D('',#418,#419,#420);
#418 = CARTESIAN_POINT('',(57.75,1.74751904908E-16,9.));
#419 = DIRECTION('',(0.,0.,1.));
#420 = DIRECTION('',(1.,0.,-0.));
#421 = DEFINITIONAL_REPRESENTATION('',(#422),#426);
#422 = CIRCLE('',#423,2.);
#423 = AXIS2_PLACEMENT_2D('',#424,#425);
#424 = CARTESIAN_POINT('',(0.,-1.74751904908E-16));
#425 = DIRECTION('',(1.,0.));
#426 = ( GEOMETRIC_REPRESENTATION_CONTEXT(2) 
PARAMETRIC_REPRESENTATION_CONTEXT() REPRESENTATION_CONTEXT('2D SPACE',''
  ) );
#427 = ORIENTED_EDGE('',*,*,#378,.F.);
#428 = ADVANCED_FACE('',(#429),#328,.F.);
#429 = FACE_BOUND('',#430,.T.);
#430 = EDGE_LOOP('',(#431,#432,#453,#454));
#431 = ORIENTED_EDGE('',*,*,#307,.T.);
#432 = ORIENTED_EDGE('',*,*,#433,.T.);
#433 = EDGE_CURVE('',#308,#347,#434,.T.);
#434 = SEAM_CURVE('',#435,(#439,#446),.PCURVE_S1.);
#435 = LINE('',#436,#437);
#436 = CARTESIAN_POINT('',(55.,4.,0.));
#437 = VECTOR('',#438,1.);
#438 = DIRECTION('',(1.,0.,0.));
#439 = PCURVE('',#328,#440);
#440 = DEFINITIONAL_REPRESENTATION('',(#441),#445);
#441 = LINE('',#442,#443);
#442 = CARTESIAN_POINT('',(-6.28318530718,0.));
#443 = VECTOR('',#444,1.);
#444 = DIRECTION('',(-0.,-1.));
#445 = ( GEOMETRIC_REPRESENTATION_CONTEXT(2) 
PARAMETRIC_REPRESENTATION_CONTEXT() REPRESENTATION_CONTEXT('2D SPACE',''
  ) );
#446 = PCURVE('',#328,#447);
#447 = DEFINITIONAL_REPRESENTATION('',(#448),#452);
#448 = LINE('',#449,#450);
#449 = CARTESIAN_POINT('',(-0.,0.));
#450 = VECTOR('',#451,1.);
#451 = DIRECTION('',(-0.,-1.));
#452 = ( GEOMETRIC_REPRESENTATION_CONTEXT(2) 
PARAMETRIC_REPRESENTATION_CONTEXT() REPRESENTATION_CONTEXT('2D SPACE',''
  ) );
#453 = ORIENTED_EDGE('',*,*,#346,.F.);
#454 = ORIENTED_EDGE('',*,*,#433,.F.);
#455 = ADVANCED_FACE('',(#456),#416,.T.);
#456 = FACE_BOUND('',#457,.T.);
#457 = EDGE_LOOP('',(#458));
#458 = ORIENTED_EDGE('',*,*,#401,.T.);
#459 = ( GEOMETRIC_REPRESENTATION_CONTEXT(3) 
GLOBAL_UNCERTAINTY_ASSIGNED_CONTEXT((#463)) GLOBAL_UNIT_ASSIGNED_CONTEXT
((#460,#461,#462)) REPRESENTATION_CONTEXT('Context #1',
  '3D Context with UNIT and UNCERTAINTY') );
#460 = ( LENGTH_UNIT() NAMED_UNIT(*) SI_UNIT(.MILLI.,.METRE.) );
#461 = ( NAMED_UNIT(*) PLANE_ANGLE_UNIT() SI_UNIT($,.RADIAN.) );
#462 = ( NAMED_UNIT(*) SI_UNIT($,.STERADIAN.) SOLID_ANGLE_UNIT() );
#463 = UNCERTAINTY_MEASURE_WITH_UNIT(LENGTH_MEASURE(1.E-07),#460,
  'distance_accuracy_value','confusion accuracy');
#464 = PRODUCT_RELATED_PRODUCT_CATEGORY('part',$,(#7));
ENDSEC;
END-ISO-10303-21;
