ISO-10303-21;
HEADER;
FILE_DESCRIPTION(('Open CASCADE Model'),'2;1');
FILE_NAME('Open CASCADE Shape Model','2026-10-03T03:23:59',('Author'),(
    'Open CASCADE'),'Open CASCADE STEP processor 7.9','Open CASCADE 7.9'
  ,'Unknown');
FILE_SCHEMA(('AUTOMOTIVE_DESIGN { 1 0 10303 214 1 1 1 1 }'));
ENDSEC;
DATA;
#1 = APPLICATION_PROTOCOL_DEFINITION('international standard',
  'automotive_design',2000,#2);
#2 = APPLICATION_CONTEXT(
  'core data for automotive mechanical design processes');
#3 = SHAPE_DEFINITION_REPRESENTATION(#4,#10);
#4 = PRODUCT_DEFINITION_SHAPE('','',#5);
#5 = PRODUCT_DEFINITION('design','',#6,#9);
#6 = PRODUCT_DEFINITION_FORMATION('','',#7);
#7 = PRODUCT('Open CASCADE STEP translator 7.9 17',
  'Open CASCADE STEP translator 7.9 17','',(#8));
#8 = PRODUCT_CONTEXT('',#2,'mechanical');
#9 = PRODUCT_DEFINITION_CONTEXT('part definition',#2,'design');
#10 = ADVANCED_BREP_SHAPE_REPRESENTATION('',(#11,#15),#994);
#11 = AXIS2_PLACEMENT_3D('',#12,#13,#14);
#12 = CARTESIAN_POINT('',(0.,0.,0.));
#13 = DIRECTION('',(0.,0.,1.));
#14 = DIRECTION('',(1.,0.,-0.));
#15 = MANIFOLD_SOLID_BREP('',#16);
#16 = CLOSED_SHELL('',(#17,#305,#364,#389,#429,#781,#843,#898,#933,#967)
  );
#17 = ADVANCED_FACE('',(#18,#134),#33,.T.);
#18 = FACE_BOUND('',#19,.F.);
#19 = EDGE_LOOP('',(#20,#56,#82,#115));
#20 = ORIENTED_EDGE('',*,*,#21,.F.);
#21 = EDGE_CURVE('',#22,#24,#26,.T.);
#22 = VERTEX_POINT('',#23);
#23 = CARTESIAN_POINT('',(16.,-9.041570660013,26.5));
#24 = VERTEX_POINT('',#25);
#25 = CARTESIAN_POINT('',(16.,9.041570660013,26.5));
#26 = SURFACE_CURVE('',#27,(#32,#44),.PCURVE_S1.);
#27 = CIRCLE('',#28,28.);
#28 = AXIS2_PLACEMENT_3D('',#29,#30,#31);
#29 = CARTESIAN_POINT('',(16.,0.,0.));
#30 = DIRECTION('',(1.,0.,0.));
#31 = DIRECTION('',(0.,-0.322913237858,0.946428571429));
#32 = PCURVE('',#33,#38);
#33 = CYLINDRICAL_SURFACE('',#34,28.);
#34 = AXIS2_PLACEMENT_3D('',#35,#36,#37);
#35 = CARTESIAN_POINT('',(16.,0.,0.));
#36 = DIRECTION('',(-1.,-0.,-0.));
#37 = DIRECTION('',(0.,1.,0.));
#38 = DEFINITIONAL_REPRESENTATION('',(#39),#43);
#39 = LINE('',#40,#41);
#40 = CARTESIAN_POINT('',(-1.899602342365,0.));
#41 = VECTOR('',#42,1.);
#42 = DIRECTION('',(-1.,0.));
#43 = ( GEOMETRIC_REPRESENTATION_CONTEXT(2) 
PARAMETRIC_REPRESENTATION_CONTEXT() REPRESENTATION_CONTEXT('2D SPACE',''
  ) );
#44 = PCURVE('',#45,#50);
#45 = PLANE('',#46);
#46 = AXIS2_PLACEMENT_3D('',#47,#48,#49);
#47 = CARTESIAN_POINT('',(16.,-7.813943614511E-16,1.9825737666E-15));
#48 = DIRECTION('',(1.,0.,0.));
#49 = DIRECTION('',(-0.,0.,1.));
#50 = DEFINITIONAL_REPRESENTATION('',(#51),#55);
#51 = CIRCLE('',#52,28.);
#52 = AXIS2_PLACEMENT_2D('',#53,#54);
#53 = CARTESIAN_POINT('',(-1.9825737666E-15,-7.813943614511E-16));
#54 = DIRECTION('',(0.946428571429,0.322913237858));
#55 = ( GEOMETRIC_REPRESENTATION_CONTEXT(2) 
PARAMETRIC_REPRESENTATION_CONTEXT() REPRESENTATION_CONTEXT('2D SPACE',''
  ) );
#56 = ORIENTED_EDGE('',*,*,#57,.F.);
#57 = EDGE_CURVE('',#58,#22,#60,.T.);
#58 = VERTEX_POINT('',#59);
#59 = CARTESIAN_POINT('',(42.,-9.041570660013,26.5));
#60 = SURFACE_CURVE('',#61,(#65,#71),.PCURVE_S1.);
#61 = LINE('',#62,#63);
#62 = CARTESIAN_POINT('',(16.,-9.041570660013,26.5));
#63 = VECTOR('',#64,1.);
#64 = DIRECTION('',(-1.,-0.,-0.));
#65 = PCURVE('',#33,#66);
#66 = DEFINITIONAL_REPRESENTATION('',(#67),#70);
#67 = B_SPLINE_CURVE_WITH_KNOTS('',1,(#68,#69),.UNSPECIFIED.,.F.,.F.,(2,
    2),(-26.,-0.),.PIECEWISE_BEZIER_KNOTS.);
#68 = CARTESIAN_POINT('',(-1.899602342365,-26.));
#69 = CARTESIAN_POINT('',(-1.899602342365,0.));
#70 = ( GEOMETRIC_REPRESENTATION_CONTEXT(2) 
PARAMETRIC_REPRESENTATION_CONTEXT() REPRESENTATION_CONTEXT('2D SPACE',''
  ) );
#71 = PCURVE('',#72,#77);
#72 = PLANE('',#73);
#73 = AXIS2_PLACEMENT_3D('',#74,#75,#76);
#74 = CARTESIAN_POINT('',(10.,-30.,26.5));
#75 = DIRECTION('',(0.,0.,1.));
#76 = DIRECTION('',(1.,0.,0.));
#77 = DEFINITIONAL_REPRESENTATION('',(#78),#81);
#78 = B_SPLINE_CURVE_WITH_KNOTS('',1,(#79,#80),.UNSPECIFIED.,.F.,.F.,(2,
    2),(-26.0000006,5.999999999062E-07),.PIECEWISE_BEZIER_KNOTS.);
#79 = CARTESIAN_POINT('',(32.0000006,20.958429339987));
#80 = CARTESIAN_POINT('',(5.9999994,20.958429339987));
#81 = ( GEOMETRIC_REPRESENTATION_CONTEXT(2) 
PARAMETRIC_REPRESENTATION_CONTEXT() REPRESENTATION_CONTEXT('2D SPACE',''
  ) );
#82 = ORIENTED_EDGE('',*,*,#83,.F.);
#83 = EDGE_CURVE('',#84,#58,#86,.T.);
#84 = VERTEX_POINT('',#85);
#85 = CARTESIAN_POINT('',(42.,9.041570660013,26.5));
#86 = SURFACE_CURVE('',#87,(#92,#99),.PCURVE_S1.);
#87 = CIRCLE('',#88,28.);
#88 = AXIS2_PLACEMENT_3D('',#89,#90,#91);
#89 = CARTESIAN_POINT('',(42.,0.,0.));
#90 = DIRECTION('',(-1.,0.,0.));
#91 = DIRECTION('',(0.,0.322913237858,0.946428571429));
#92 = PCURVE('',#33,#93);
#93 = DEFINITIONAL_REPRESENTATION('',(#94),#98);
#94 = LINE('',#95,#96);
#95 = CARTESIAN_POINT('',(-7.525175618404,-26.));
#96 = VECTOR('',#97,1.);
#97 = DIRECTION('',(1.,-0.));
#98 = ( GEOMETRIC_REPRESENTATION_CONTEXT(2) 
PARAMETRIC_REPRESENTATION_CONTEXT() REPRESENTATION_CONTEXT('2D SPACE',''
  ) );
#99 = PCURVE('',#100,#105);
#100 = PLANE('',#101);
#101 = AXIS2_PLACEMENT_3D('',#102,#103,#104);
#102 = CARTESIAN_POINT('',(42.,-7.813943614511E-16,1.9825737666E-15));
#103 = DIRECTION('',(1.,0.,0.));
#104 = DIRECTION('',(-0.,0.,1.));
#105 = DEFINITIONAL_REPRESENTATION('',(#106),#114);
#106 = ( BOUNDED_CURVE() B_SPLINE_CURVE(2,(#107,#108,#109,#110,#111,#112
,#113),.UNSPECIFIED.,.T.,.F.) B_SPLINE_CURVE_WITH_KNOTS((1,2,2,2,2,1),(
    -2.094395102393,0.,2.094395102393,4.188790204786,6.28318530718,
8.377580409573),.UNSPECIFIED.) CURVE() GEOMETRIC_REPRESENTATION_ITEM() 
RATIONAL_B_SPLINE_CURVE((1.,0.5,1.,0.5,1.,0.5,1.)) REPRESENTATION_ITEM(
  '') );
#107 = CARTESIAN_POINT('',(26.5,-9.041570660013));
#108 = CARTESIAN_POINT('',(10.839540236634,-54.94091706058));
#109 = CARTESIAN_POINT('',(-21.08022988168,-18.42888787028));
#110 = CARTESIAN_POINT('',(-53.,18.083141320025));
#111 = CARTESIAN_POINT('',(-5.419770118317,27.470458530294));
#112 = CARTESIAN_POINT('',(42.160459763366,36.857775740563));
#113 = CARTESIAN_POINT('',(26.5,-9.041570660013));
#114 = ( GEOMETRIC_REPRESENTATION_CONTEXT(2) 
PARAMETRIC_REPRESENTATION_CONTEXT() REPRESENTATION_CONTEXT('2D SPACE',''
  ) );
#115 = ORIENTED_EDGE('',*,*,#116,.T.);
#116 = EDGE_CURVE('',#84,#24,#117,.T.);
#117 = SURFACE_CURVE('',#118,(#122,#128),.PCURVE_S1.);
#118 = LINE('',#119,#120);
#119 = CARTESIAN_POINT('',(16.,9.041570660013,26.5));
#120 = VECTOR('',#121,1.);
#121 = DIRECTION('',(-1.,-0.,-0.));
#122 = PCURVE('',#33,#123);
#123 = DEFINITIONAL_REPRESENTATION('',(#124),#127);
#124 = B_SPLINE_CURVE_WITH_KNOTS('',1,(#125,#126),.UNSPECIFIED.,.F.,.F.,
  (2,2),(-26.,-0.),.PIECEWISE_BEZIER_KNOTS.);
#125 = CARTESIAN_POINT('',(-7.525175618404,-26.));
#126 = CARTESIAN_POINT('',(-7.525175618404,0.));
#127 = ( GEOMETRIC_REPRESENTATION_CONTEXT(2) 
PARAMETRIC_REPRESENTATION_CONTEXT() REPRESENTATION_CONTEXT('2D SPACE',''
  ) );
#128 = PCURVE('',#72,#129);
#129 = DEFINITIONAL_REPRESENTATION('',(#130),#133);
#130 = B_SPLINE_CURVE_WITH_KNOTS('',1,(#131,#132),.UNSPECIFIED.,.F.,.F.,
  (2,2),(-26.0000006,5.999999999062E-07),.PIECEWISE_BEZIER_KNOTS.);
#131 = CARTESIAN_POINT('',(32.0000006,39.041570660013));
#132 = CARTESIAN_POINT('',(5.9999994,39.041570660013));
#133 = ( GEOMETRIC_REPRESENTATION_CONTEXT(2) 
PARAMETRIC_REPRESENTATION_CONTEXT() REPRESENTATION_CONTEXT('2D SPACE',''
  ) );
#134 = FACE_BOUND('',#135,.F.);
#135 = EDGE_LOOP('',(#136));
#136 = ORIENTED_EDGE('',*,*,#137,.F.);
#137 = EDGE_CURVE('',#138,#138,#140,.T.);
#138 = VERTEX_POINT('',#139);
#139 = CARTESIAN_POINT('',(19.5,0.,-28.));
#140 = SURFACE_CURVE('',#141,(#192,#246),.PCURVE_S1.);
#141 = B_SPLINE_CURVE_WITH_KNOTS('',7,(#142,#143,#144,#145,#146,#147,
    #148,#149,#150,#151,#152,#153,#154,#155,#156,#157,#158,#159,#160,
    #161,#162,#163,#164,#165,#166,#167,#168,#169,#170,#171,#172,#173,
    #174,#175,#176,#177,#178,#179,#180,#181,#182,#183,#184,#185,#186,
    #187,#188,#189,#190,#191),.UNSPECIFIED.,.T.,.F.,(8,6,6,6,6,6,6,6,8),
  (0.,0.142338411629,0.275614491927,0.442295505658,0.589105589791,
    0.684531329125,0.78950807651,0.891311304971,1.),.UNSPECIFIED.);
#142 = CARTESIAN_POINT('',(19.5,-2.6645352591E-15,-28.));
#143 = CARTESIAN_POINT('',(19.5,0.204783954635,-28.));
#144 = CARTESIAN_POINT('',(19.467382982711,0.40467385029,-27.9982526247)
  );
#145 = CARTESIAN_POINT('',(19.404953516319,0.593553190004,
    -27.99490838609));
#146 = CARTESIAN_POINT('',(19.31679977913,0.766245138195,-27.99042395129
    ));
#147 = CARTESIAN_POINT('',(19.208208303061,0.918763140052,
    -27.98544878254));
#148 = CARTESIAN_POINT('',(19.085547769416,1.048711125126,
    -27.98055907432));
#149 = CARTESIAN_POINT('',(18.8349635251,1.256012440551,-27.97199489621)
  );
#150 = CARTESIAN_POINT('',(18.705190644287,1.338405675022,
    -27.96817123775));
#151 = CARTESIAN_POINT('',(18.569423982306,1.403506032459,
    -27.96491110088));
#152 = CARTESIAN_POINT('',(18.429592959454,1.451876169955,
    -27.96237435256));
#153 = CARTESIAN_POINT('',(18.287225903962,1.48395691418,-27.96065324175
    ));
#154 = CARTESIAN_POINT('',(18.143621096472,1.5,-27.95979256003));
#155 = CARTESIAN_POINT('',(17.820381047375,1.5,-27.95979256003));
#156 = CARTESIAN_POINT('',(17.640779872594,1.474907462385,
    -27.96113867177));
#157 = CARTESIAN_POINT('',(17.463514776305,1.424725041811,
    -27.96383121565));
#158 = CARTESIAN_POINT('',(17.291193992048,1.348782034024,
    -27.96776229884));
#159 = CARTESIAN_POINT('',(17.127160126107,1.246040110583,
    -27.97270677458));
#160 = CARTESIAN_POINT('',(16.975946517813,1.115353739579,
    -27.97823021428));
#161 = CARTESIAN_POINT('',(16.72821636386,0.815899424516,-27.98846186164
    ));
#162 = CARTESIAN_POINT('',(16.623671438301,0.649108391503,
    -27.99333938377));
#163 = CARTESIAN_POINT('',(16.542088024054,0.45912851727,-27.99763227405
    ));
#164 = CARTESIAN_POINT('',(16.491376938132,0.25278172859,-28.00049698664
    ));
#165 = CARTESIAN_POINT('',(16.475769878936,3.907599261469E-02,
    -28.001327585));
#166 = CARTESIAN_POINT('',(16.495610384835,-0.17239764537,
    -28.00018824005));
#167 = CARTESIAN_POINT('',(16.580609639961,-0.503447886945,
    -27.99577737462));
#168 = CARTESIAN_POINT('',(16.627751327907,-0.630353226208,
    -27.99337771111));
#169 = CARTESIAN_POINT('',(16.688104449449,-0.752025329117,
    -27.99040720633));
#170 = CARTESIAN_POINT('',(16.760961674789,-0.866833117589,
    -27.98700997253));
#171 = CARTESIAN_POINT('',(16.84536526598,-0.973261139415,
    -27.98336842003));
#172 = CARTESIAN_POINT('',(16.940128007062,-1.069951974697,
    -27.97968155736));
#173 = CARTESIAN_POINT('',(17.157982793137,-1.250177127513,
    -27.97223596877));
#174 = CARTESIAN_POINT('',(17.282978489247,-1.331439189727,
    -27.96850659545));
#175 = CARTESIAN_POINT('',(17.417017802665,-1.398042591095,
    -27.96519646266));
#176 = CARTESIAN_POINT('',(17.558037169537,-1.448814818868,
    -27.96253879077));
#177 = CARTESIAN_POINT('',(17.70378760999,-1.482941948947,
    -27.96070760739));
#178 = CARTESIAN_POINT('',(17.851904175953,-1.5,-27.95979256003));
#179 = CARTESIAN_POINT('',(18.143618785923,-1.5,-27.95979256003));
#180 = CARTESIAN_POINT('',(18.287223219996,-1.483957444434,
    -27.96065321266));
#181 = CARTESIAN_POINT('',(18.429591512664,-1.451876907628,
    -27.96237431478));
#182 = CARTESIAN_POINT('',(18.569424451609,-1.403506314399,
    -27.96491108717));
#183 = CARTESIAN_POINT('',(18.705192720341,-1.338404846156,
    -27.96817128747));
#184 = CARTESIAN_POINT('',(18.834965717542,-1.256010626806,
    -27.97199497114));
#185 = CARTESIAN_POINT('',(19.085501608921,-1.048749312409,
    -27.9805574967));
#186 = CARTESIAN_POINT('',(19.208188018699,-0.918800261081,
    -27.98544758996));
#187 = CARTESIAN_POINT('',(19.316819352142,-0.766242643165,
    -27.99042457976));
#188 = CARTESIAN_POINT('',(19.40499250627,-0.593494179729,
    -27.99491048103));
#189 = CARTESIAN_POINT('',(19.467410530042,-0.404574939732,
    -27.99825409937));
#190 = CARTESIAN_POINT('',(19.5,-0.204697464083,-28.));
#191 = CARTESIAN_POINT('',(19.5,-2.6645352591E-15,-28.));
#192 = PCURVE('',#33,#193);
#193 = DEFINITIONAL_REPRESENTATION('',(#194),#245);
#194 = B_SPLINE_CURVE_WITH_KNOTS('',7,(#195,#196,#197,#198,#199,#200,
    #201,#202,#203,#204,#205,#206,#207,#208,#209,#210,#211,#212,#213,
    #214,#215,#216,#217,#218,#219,#220,#221,#222,#223,#224,#225,#226,
    #227,#228,#229,#230,#231,#232,#233,#234,#235,#236,#237,#238,#239,
    #240,#241,#242,#243,#244),.UNSPECIFIED.,.T.,.F.,(8,6,6,6,6,6,6,6,8),
  (0.,0.142338411629,0.275614491927,0.442295505658,0.589105589791,
    0.684531329125,0.78950807651,0.891311304971,1.),.UNSPECIFIED.);
#195 = CARTESIAN_POINT('',(-4.712388980385,-3.5));
#196 = CARTESIAN_POINT('',(-4.71970269305,-3.5));
#197 = CARTESIAN_POINT('',(-4.726841618796,-3.467382982711));
#198 = CARTESIAN_POINT('',(-4.733587943431,-3.404953516319));
#199 = CARTESIAN_POINT('',(-4.739757307656,-3.31679977913));
#200 = CARTESIAN_POINT('',(-4.745207166641,-3.208208303061));
#201 = CARTESIAN_POINT('',(-4.749851418295,-3.085547769416));
#202 = CARTESIAN_POINT('',(-4.757261352034,-2.8349635251));
#203 = CARTESIAN_POINT('',(-4.760207096454,-2.705190644287));
#204 = CARTESIAN_POINT('',(-4.762535008836,-2.569423982306));
#205 = CARTESIAN_POINT('',(-4.764264886288,-2.429592959454));
#206 = CARTESIAN_POINT('',(-4.765412274914,-2.287225903963));
#207 = CARTESIAN_POINT('',(-4.765986066194,-2.143621096472));
#208 = CARTESIAN_POINT('',(-4.765986066194,-1.820381047375));
#209 = CARTESIAN_POINT('',(-4.765088615453,-1.640779872594));
#210 = CARTESIAN_POINT('',(-4.763293808563,-1.463514776305));
#211 = CARTESIAN_POINT('',(-4.760577931296,-1.291193992048));
#212 = CARTESIAN_POINT('',(-4.756904385049,-1.127160126107));
#213 = CARTESIAN_POINT('',(-4.752233000646,-0.975946517813));
#214 = CARTESIAN_POINT('',(-4.741531962799,-0.72821636386));
#215 = CARTESIAN_POINT('',(-4.735572668581,-0.623671438301));
#216 = CARTESIAN_POINT('',(-4.728786173568,-0.542088024054));
#217 = CARTESIAN_POINT('',(-4.721416529237,-0.491376938132));
#218 = CARTESIAN_POINT('',(-4.713784668166,-0.475769878936));
#219 = CARTESIAN_POINT('',(-4.706232163485,-0.495610384835));
#220 = CARTESIAN_POINT('',(-4.694407891159,-0.580609639961));
#221 = CARTESIAN_POINT('',(-4.689874818049,-0.627751327907));
#222 = CARTESIAN_POINT('',(-4.685528193164,-0.688104449449));
#223 = CARTESIAN_POINT('',(-4.681426206587,-0.760961674789));
#224 = CARTESIAN_POINT('',(-4.677623029767,-0.84536526598));
#225 = CARTESIAN_POINT('',(-4.674167293612,-0.940128007062));
#226 = CARTESIAN_POINT('',(-4.667725190543,-1.157982793137));
#227 = CARTESIAN_POINT('',(-4.664819950366,-1.282978489247));
#228 = CARTESIAN_POINT('',(-4.662438339847,-1.417017802665));
#229 = CARTESIAN_POINT('',(-4.6606225673,-1.558037169537));
#230 = CARTESIAN_POINT('',(-4.659401986039,-1.70378760999));
#231 = CARTESIAN_POINT('',(-4.658791894575,-1.851904175953));
#232 = CARTESIAN_POINT('',(-4.658791894575,-2.143618785923));
#233 = CARTESIAN_POINT('',(-4.659365666889,-2.287223219996));
#234 = CARTESIAN_POINT('',(-4.660513048102,-2.429591512664));
#235 = CARTESIAN_POINT('',(-4.662242941852,-2.569424451609));
#236 = CARTESIAN_POINT('',(-4.664570893967,-2.705192720341));
#237 = CARTESIAN_POINT('',(-4.667516673568,-2.834965717542));
#238 = CARTESIAN_POINT('',(-4.67492517748,-3.085501608921));
#239 = CARTESIAN_POINT('',(-4.679569467728,-3.208188018699));
#240 = CARTESIAN_POINT('',(-4.685020743065,-3.316819352142));
#241 = CARTESIAN_POINT('',(-4.691192125725,-3.40499250627));
#242 = CARTESIAN_POINT('',(-4.697939874486,-3.467410530042));
#243 = CARTESIAN_POINT('',(-4.705078356667,-3.5));
#244 = CARTESIAN_POINT('',(-4.712388980385,-3.5));
#245 = ( GEOMETRIC_REPRESENTATION_CONTEXT(2) 
PARAMETRIC_REPRESENTATION_CONTEXT() REPRESENTATION_CONTEXT('2D SPACE',''
  ) );
#246 = PCURVE('',#247,#252);
#247 = CYLINDRICAL_SURFACE('',#248,1.5);
#248 = AXIS2_PLACEMENT_3D('',#249,#250,#251);
#249 = CARTESIAN_POINT('',(18.,0.,-30.));
#250 = DIRECTION('',(-0.,-0.,-1.));
#251 = DIRECTION('',(1.,0.,0.));
#252 = DEFINITIONAL_REPRESENTATION('',(#253),#304);
#253 = B_SPLINE_CURVE_WITH_KNOTS('',7,(#254,#255,#256,#257,#258,#259,
    #260,#261,#262,#263,#264,#265,#266,#267,#268,#269,#270,#271,#272,
    #273,#274,#275,#276,#277,#278,#279,#280,#281,#282,#283,#284,#285,
    #286,#287,#288,#289,#290,#291,#292,#293,#294,#295,#296,#297,#298,
    #299,#300,#301,#302,#303),.UNSPECIFIED.,.F.,.F.,(8,6,6,6,6,6,6,6,8),
  (0.,0.142338411629,0.275614491927,0.442295505658,0.589105589791,
    0.684531329125,0.78950807651,0.891311304971,1.),.UNSPECIFIED.);
#254 = CARTESIAN_POINT('',(0.,-2.));
#255 = CARTESIAN_POINT('',(-0.136522636424,-2.));
#256 = CARTESIAN_POINT('',(-0.269782498163,-2.001747375295));
#257 = CARTESIAN_POINT('',(-0.399858384158,-2.00509161391));
#258 = CARTESIAN_POINT('',(-0.526561132857,-2.009576048701));
#259 = CARTESIAN_POINT('',(-0.649446656849,-2.014551217459));
#260 = CARTESIAN_POINT('',(-0.767675741319,-2.019440925679));
#261 = CARTESIAN_POINT('',(-0.984487281476,-2.02800510379));
#262 = CARTESIAN_POINT('',(-1.086161457124,-2.031828762241));
#263 = CARTESIAN_POINT('',(-1.185447546578,-2.035088899113));
#264 = CARTESIAN_POINT('',(-1.282967012752,-2.037625647439));
#265 = CARTESIAN_POINT('',(-1.379312473179,-2.039346758244));
#266 = CARTESIAN_POINT('',(-1.475048929147,-2.040207439968));
#267 = CARTESIAN_POINT('',(-1.690542295212,-2.040207439968));
#268 = CARTESIAN_POINT('',(-1.81027576161,-2.038861328228));
#269 = CARTESIAN_POINT('',(-1.931259986584,-2.036168784345));
#270 = CARTESIAN_POINT('',(-2.054545781359,-2.03223770116));
#271 = CARTESIAN_POINT('',(-2.181294144314,-2.027293225418));
#272 = CARTESIAN_POINT('',(-2.312683222871,-2.021769785711));
#273 = CARTESIAN_POINT('',(-2.571778328521,-2.011538138354));
#274 = CARTESIAN_POINT('',(-2.701882266977,-2.006660616227));
#275 = CARTESIAN_POINT('',(-2.837049884299,-2.002367725942));
#276 = CARTESIAN_POINT('',(-2.975269051305,-1.999503013356));
#277 = CARTESIAN_POINT('',(-3.114981549138,-1.998672414992));
#278 = CARTESIAN_POINT('',(-3.254823380994,-1.999811759948));
#279 = CARTESIAN_POINT('',(-3.48268214409,-2.004222625374));
#280 = CARTESIAN_POINT('',(-3.572443445275,-2.006622288889));
#281 = CARTESIAN_POINT('',(-3.6621974925,-2.00959279367));
#282 = CARTESIAN_POINT('',(-3.751953784027,-2.012990027466));
#283 = CARTESIAN_POINT('',(-3.841717852031,-2.016631579965));
#284 = CARTESIAN_POINT('',(-3.931483696825,-2.020318442633));
#285 = CARTESIAN_POINT('',(-4.119976919248,-2.027764031223));
#286 = CARTESIAN_POINT('',(-4.218716275754,-2.03149340455));
#287 = CARTESIAN_POINT('',(-4.317444884945,-2.034803537334));
#288 = CARTESIAN_POINT('',(-4.416174568388,-2.037461209225));
#289 = CARTESIAN_POINT('',(-4.514914329046,-2.039292392609));
#290 = CARTESIAN_POINT('',(-4.61365843102,-2.040207439968));
#291 = CARTESIAN_POINT('',(-4.808134837667,-2.040207439968));
#292 = CARTESIAN_POINT('',(-4.903871036366,-2.039346787338));
#293 = CARTESIAN_POINT('',(-5.000217275846,-2.037625685219));
#294 = CARTESIAN_POINT('',(-5.097737969264,-2.035088912827));
#295 = CARTESIAN_POINT('',(-5.197025272572,-2.031828712526));
#296 = CARTESIAN_POINT('',(-5.298699922658,-2.028005028859));
#297 = CARTESIAN_POINT('',(-5.515469626685,-2.019442503299));
#298 = CARTESIAN_POINT('',(-5.633712468973,-2.014552410031));
#299 = CARTESIAN_POINT('',(-5.756632774423,-2.009575420235));
#300 = CARTESIAN_POINT('',(-5.883371467204,-2.005089518964));
#301 = CARTESIAN_POINT('',(-6.013468760952,-2.001745900625));
#302 = CARTESIAN_POINT('',(-6.146720331124,-2.));
#303 = CARTESIAN_POINT('',(-6.28318530718,-2.));
#304 = ( GEOMETRIC_REPRESENTATION_CONTEXT(2) 
PARAMETRIC_REPRESENTATION_CONTEXT() REPRESENTATION_CONTEXT('2D SPACE',''
  ) );
#305 = ADVANCED_FACE('',(#306,#329),#45,.F.);
#306 = FACE_BOUND('',#307,.F.);
#307 = EDGE_LOOP('',(#308,#309));
#308 = ORIENTED_EDGE('',*,*,#21,.T.);
#309 = ORIENTED_EDGE('',*,*,#310,.T.);
#310 = EDGE_CURVE('',#24,#22,#311,.T.);
#311 = SURFACE_CURVE('',#312,(#316,#323),.PCURVE_S1.);
#312 = LINE('',#313,#314);
#313 = CARTESIAN_POINT('',(16.,-15.,26.5));
#314 = VECTOR('',#315,1.);
#315 = DIRECTION('',(0.,-1.,0.));
#316 = PCURVE('',#45,#317);
#317 = DEFINITIONAL_REPRESENTATION('',(#318),#322);
#318 = LINE('',#319,#320);
#319 = CARTESIAN_POINT('',(26.5,15.));
#320 = VECTOR('',#321,1.);
#321 = DIRECTION('',(0.,1.));
#322 = ( GEOMETRIC_REPRESENTATION_CONTEXT(2) 
PARAMETRIC_REPRESENTATION_CONTEXT() REPRESENTATION_CONTEXT('2D SPACE',''
  ) );
#323 = PCURVE('',#72,#324);
#324 = DEFINITIONAL_REPRESENTATION('',(#325),#328);
#325 = B_SPLINE_CURVE_WITH_KNOTS('',1,(#326,#327),.UNSPECIFIED.,.F.,.F.,
  (2,2),(-43.,13.),.PIECEWISE_BEZIER_KNOTS.);
#326 = CARTESIAN_POINT('',(6.,58.));
#327 = CARTESIAN_POINT('',(6.,2.));
#328 = ( GEOMETRIC_REPRESENTATION_CONTEXT(2) 
PARAMETRIC_REPRESENTATION_CONTEXT() REPRESENTATION_CONTEXT('2D SPACE',''
  ) );
#329 = FACE_BOUND('',#330,.F.);
#330 = EDGE_LOOP('',(#331));
#331 = ORIENTED_EDGE('',*,*,#332,.T.);
#332 = EDGE_CURVE('',#333,#333,#335,.T.);
#333 = VERTEX_POINT('',#334);
#334 = CARTESIAN_POINT('',(16.,4.,0.));
#335 = SURFACE_CURVE('',#336,(#341,#352),.PCURVE_S1.);
#336 = CIRCLE('',#337,4.);
#337 = AXIS2_PLACEMENT_3D('',#338,#339,#340);
#338 = CARTESIAN_POINT('',(16.,0.,0.));
#339 = DIRECTION('',(-1.,0.,0.));
#340 = DIRECTION('',(0.,1.,0.));
#341 = PCURVE('',#45,#342);
#342 = DEFINITIONAL_REPRESENTATION('',(#343),#351);
#343 = ( BOUNDED_CURVE() B_SPLINE_CURVE(2,(#344,#345,#346,#347,#348,#349
,#350),.UNSPECIFIED.,.T.,.F.) B_SPLINE_CURVE_WITH_KNOTS((1,2,2,2,2,1),(
    -2.094395102393,0.,2.094395102393,4.188790204786,6.28318530718,
8.377580409573),.UNSPECIFIED.) CURVE() GEOMETRIC_REPRESENTATION_ITEM() 
RATIONAL_B_SPLINE_CURVE((1.,0.5,1.,0.5,1.,0.5,1.)) REPRESENTATION_ITEM(
  '') );
#344 = CARTESIAN_POINT('',(-1.9825737666E-15,-4.));
#345 = CARTESIAN_POINT('',(-6.928203230276,-4.));
#346 = CARTESIAN_POINT('',(-3.464101615138,2.));
#347 = CARTESIAN_POINT('',(-2.962291205918E-15,8.));
#348 = CARTESIAN_POINT('',(3.464101615138,2.));
#349 = CARTESIAN_POINT('',(6.928203230276,-4.));
#350 = CARTESIAN_POINT('',(-1.9825737666E-15,-4.));
#351 = ( GEOMETRIC_REPRESENTATION_CONTEXT(2) 
PARAMETRIC_REPRESENTATION_CONTEXT() REPRESENTATION_CONTEXT('2D SPACE',''
  ) );
#352 = PCURVE('',#353,#358);
#353 = CYLINDRICAL_SURFACE('',#354,4.);
#354 = AXIS2_PLACEMENT_3D('',#355,#356,#357);
#355 = CARTESIAN_POINT('',(14.,0.,0.));
#356 = DIRECTION('',(-1.,-0.,-0.));
#357 = DIRECTION('',(0.,1.,0.));
#358 = DEFINITIONAL_REPRESENTATION('',(#359),#363);
#359 = LINE('',#360,#361);
#360 = CARTESIAN_POINT('',(-6.28318530718,-2.));
#361 = VECTOR('',#362,1.);
#362 = DIRECTION('',(1.,-0.));
#363 = ( GEOMETRIC_REPRESENTATION_CONTEXT(2) 
PARAMETRIC_REPRESENTATION_CONTEXT() REPRESENTATION_CONTEXT('2D SPACE',''
  ) );
#364 = ADVANCED_FACE('',(#365),#72,.T.);
#365 = FACE_BOUND('',#366,.T.);
#366 = EDGE_LOOP('',(#367,#368,#387,#388));
#367 = ORIENTED_EDGE('',*,*,#57,.F.);
#368 = ORIENTED_EDGE('',*,*,#369,.F.);
#369 = EDGE_CURVE('',#84,#58,#370,.T.);
#370 = SURFACE_CURVE('',#371,(#375,#381),.PCURVE_S1.);
#371 = LINE('',#372,#373);
#372 = CARTESIAN_POINT('',(42.,-15.,26.5));
#373 = VECTOR('',#374,1.);
#374 = DIRECTION('',(0.,-1.,0.));
#375 = PCURVE('',#72,#376);
#376 = DEFINITIONAL_REPRESENTATION('',(#377),#380);
#377 = B_SPLINE_CURVE_WITH_KNOTS('',1,(#378,#379),.UNSPECIFIED.,.F.,.F.,
  (2,2),(-43.,13.),.PIECEWISE_BEZIER_KNOTS.);
#378 = CARTESIAN_POINT('',(32.,58.));
#379 = CARTESIAN_POINT('',(32.,2.));
#380 = ( GEOMETRIC_REPRESENTATION_CONTEXT(2) 
PARAMETRIC_REPRESENTATION_CONTEXT() REPRESENTATION_CONTEXT('2D SPACE',''
  ) );
#381 = PCURVE('',#100,#382);
#382 = DEFINITIONAL_REPRESENTATION('',(#383),#386);
#383 = B_SPLINE_CURVE_WITH_KNOTS('',1,(#384,#385),.UNSPECIFIED.,.F.,.F.,
  (2,2),(-43.,13.),.PIECEWISE_BEZIER_KNOTS.);
#384 = CARTESIAN_POINT('',(26.5,-28.));
#385 = CARTESIAN_POINT('',(26.5,28.));
#386 = ( GEOMETRIC_REPRESENTATION_CONTEXT(2) 
PARAMETRIC_REPRESENTATION_CONTEXT() REPRESENTATION_CONTEXT('2D SPACE',''
  ) );
#387 = ORIENTED_EDGE('',*,*,#116,.T.);
#388 = ORIENTED_EDGE('',*,*,#310,.T.);
#389 = ADVANCED_FACE('',(#390,#394),#100,.T.);
#390 = FACE_BOUND('',#391,.T.);
#391 = EDGE_LOOP('',(#392,#393));
#392 = ORIENTED_EDGE('',*,*,#369,.T.);
#393 = ORIENTED_EDGE('',*,*,#83,.F.);
#394 = FACE_BOUND('',#395,.T.);
#395 = EDGE_LOOP('',(#396));
#396 = ORIENTED_EDGE('',*,*,#397,.T.);
#397 = EDGE_CURVE('',#398,#398,#400,.T.);
#398 = VERTEX_POINT('',#399);
#399 = CARTESIAN_POINT('',(42.,24.,0.));
#400 = SURFACE_CURVE('',#401,(#406,#417),.PCURVE_S1.);
#401 = CIRCLE('',#402,24.);
#402 = AXIS2_PLACEMENT_3D('',#403,#404,#405);
#403 = CARTESIAN_POINT('',(42.,0.,0.));
#404 = DIRECTION('',(-1.,0.,0.));
#405 = DIRECTION('',(0.,1.,0.));
#406 = PCURVE('',#100,#407);
#407 = DEFINITIONAL_REPRESENTATION('',(#408),#416);
#408 = ( BOUNDED_CURVE() B_SPLINE_CURVE(2,(#409,#410,#411,#412,#413,#414
,#415),.UNSPECIFIED.,.T.,.F.) B_SPLINE_CURVE_WITH_KNOTS((1,2,2,2,2,1),(
    -2.094395102393,0.,2.094395102393,4.188790204786,6.28318530718,
8.377580409573),.UNSPECIFIED.) CURVE() GEOMETRIC_REPRESENTATION_ITEM() 
RATIONAL_B_SPLINE_CURVE((1.,0.5,1.,0.5,1.,0.5,1.)) REPRESENTATION_ITEM(
  '') );
#409 = CARTESIAN_POINT('',(-1.9825737666E-15,-24.));
#410 = CARTESIAN_POINT('',(-41.56921938165,-24.));
#411 = CARTESIAN_POINT('',(-20.78460969082,12.));
#412 = CARTESIAN_POINT('',(-7.860878402507E-15,48.));
#413 = CARTESIAN_POINT('',(20.784609690827,12.));
#414 = CARTESIAN_POINT('',(41.569219381653,-24.));
#415 = CARTESIAN_POINT('',(-1.9825737666E-15,-24.));
#416 = ( GEOMETRIC_REPRESENTATION_CONTEXT(2) 
PARAMETRIC_REPRESENTATION_CONTEXT() REPRESENTATION_CONTEXT('2D SPACE',''
  ) );
#417 = PCURVE('',#418,#423);
#418 = CYLINDRICAL_SURFACE('',#419,24.);
#419 = AXIS2_PLACEMENT_3D('',#420,#421,#422);
#420 = CARTESIAN_POINT('',(20.,0.,0.));
#421 = DIRECTION('',(-1.,-0.,-0.));
#422 = DIRECTION('',(0.,1.,0.));
#423 = DEFINITIONAL_REPRESENTATION('',(#424),#428);
#424 = LINE('',#425,#426);
#425 = CARTESIAN_POINT('',(-6.28318530718,-22.));
#426 = VECTOR('',#427,1.);
#427 = DIRECTION('',(1.,-0.));
#428 = ( GEOMETRIC_REPRESENTATION_CONTEXT(2) 
PARAMETRIC_REPRESENTATION_CONTEXT() REPRESENTATION_CONTEXT('2D SPACE',''
  ) );
#429 = ADVANCED_FACE('',(#430),#247,.F.);
#430 = FACE_BOUND('',#431,.T.);
#431 = EDGE_LOOP('',(#432,#433,#456,#780));
#432 = ORIENTED_EDGE('',*,*,#137,.F.);
#433 = ORIENTED_EDGE('',*,*,#434,.T.);
#434 = EDGE_CURVE('',#138,#435,#437,.T.);
#435 = VERTEX_POINT('',#436);
#436 = CARTESIAN_POINT('',(19.5,0.,-4.));
#437 = SEAM_CURVE('',#438,(#442,#449),.PCURVE_S1.);
#438 = LINE('',#439,#440);
#439 = CARTESIAN_POINT('',(19.5,0.,-30.));
#440 = VECTOR('',#441,1.);
#441 = DIRECTION('',(0.,0.,1.));
#442 = PCURVE('',#247,#443);
#443 = DEFINITIONAL_REPRESENTATION('',(#444),#448);
#444 = LINE('',#445,#446);
#445 = CARTESIAN_POINT('',(-6.28318530718,0.));
#446 = VECTOR('',#447,1.);
#447 = DIRECTION('',(-0.,-1.));
#448 = ( GEOMETRIC_REPRESENTATION_CONTEXT(2) 
PARAMETRIC_REPRESENTATION_CONTEXT() REPRESENTATION_CONTEXT('2D SPACE',''
  ) );
#449 = PCURVE('',#247,#450);
#450 = DEFINITIONAL_REPRESENTATION('',(#451),#455);
#451 = LINE('',#452,#453);
#452 = CARTESIAN_POINT('',(-0.,0.));
#453 = VECTOR('',#454,1.);
#454 = DIRECTION('',(-0.,-1.));
#455 = ( GEOMETRIC_REPRESENTATION_CONTEXT(2) 
PARAMETRIC_REPRESENTATION_CONTEXT() REPRESENTATION_CONTEXT('2D SPACE',''
  ) );
#456 = ORIENTED_EDGE('',*,*,#457,.T.);
#457 = EDGE_CURVE('',#435,#435,#458,.T.);
#458 = SURFACE_CURVE('',#459,(#564,#672),.PCURVE_S1.);
#459 = B_SPLINE_CURVE_WITH_KNOTS('',7,(#460,#461,#462,#463,#464,#465,
    #466,#467,#468,#469,#470,#471,#472,#473,#474,#475,#476,#477,#478,
    #479,#480,#481,#482,#483,#484,#485,#486,#487,#488,#489,#490,#491,
    #492,#493,#494,#495,#496,#497,#498,#499,#500,#501,#502,#503,#504,
    #505,#506,#507,#508,#509,#510,#511,#512,#513,#514,#515,#516,#517,
    #518,#519,#520,#521,#522,#523,#524,#525,#526,#527,#528,#529,#530,
    #531,#532,#533,#534,#535,#536,#537,#538,#539,#540,#541,#542,#543,
    #544,#545,#546,#547,#548,#549,#550,#551,#552,#553,#554,#555,#556,
    #557,#558,#559,#560,#561,#562,#563),.UNSPECIFIED.,.T.,.F.,(8,6,6,6,6
    ,6,6,6,6,6,6,6,6,6,6,6,6,8),(0.,7.142191469455E-02,0.103413425185,
    0.128691331211,0.233082835587,0.267678472456,0.371632697082,
    0.427919255673,0.46969173235,0.530782730884,0.571791924511,
    0.603762797157,0.733317597778,0.766986927494,0.870620873836,
    0.895386844413,0.927917305165,1.),.UNSPECIFIED.);
#460 = CARTESIAN_POINT('',(19.5,-4.440892098501E-16,-4.));
#461 = CARTESIAN_POINT('',(19.5,0.111395114383,-4.));
#462 = CARTESIAN_POINT('',(19.490348626784,0.222167016384,
    -3.996380764809));
#463 = CARTESIAN_POINT('',(19.471240423221,0.330992497586,
    -3.989215098843));
#464 = CARTESIAN_POINT('',(19.443164371377,0.436582754643,
    -3.978812744238));
#465 = CARTESIAN_POINT('',(19.406900392153,0.537732374276,
    -3.965703933283));
#466 = CARTESIAN_POINT('',(19.363529843908,0.633372832938,-3.95057901812
    ));
#467 = CARTESIAN_POINT('',(19.292480522723,0.762611068397,
    -3.926840553439));
#468 = CARTESIAN_POINT('',(19.269292820773,0.801428762118,
    -3.919220515236));
#469 = CARTESIAN_POINT('',(19.244971034897,0.839064583875,
    -3.911375034844));
#470 = CARTESIAN_POINT('',(19.219586819995,0.875502767951,
    -3.903354187751));
#471 = CARTESIAN_POINT('',(19.193209489994,0.910730631508,
    -3.895206754868));
#472 = CARTESIAN_POINT('',(19.165906142655,0.944738414749,-3.88697982419
    ));
#473 = CARTESIAN_POINT('',(19.115487880436,1.0034206056,-3.872190670191)
  );
#474 = CARTESIAN_POINT('',(19.092693028214,1.02855984514,-3.865640405458
    ));
#475 = CARTESIAN_POINT('',(19.069386128896,1.052936521423,
    -3.859088979144));
#476 = CARTESIAN_POINT('',(19.045594440401,1.076551021707,
    -3.852556813308));
#477 = CARTESIAN_POINT('',(19.021343577393,1.099404438775,
    -3.846063371176));
#478 = CARTESIAN_POINT('',(18.996657511278,1.121498570934,
    -3.839627157143));
#479 = CARTESIAN_POINT('',(18.867906146869,1.230953908404,
    -3.806994540267));
#480 = CARTESIAN_POINT('',(18.757112504148,1.306248518215,
    -3.781973132417));
#481 = CARTESIAN_POINT('',(18.640799427027,1.36877206971,-3.75946022646)
  );
#482 = CARTESIAN_POINT('',(18.520306469446,1.418636297583,
    -3.740475109626));
#483 = CARTESIAN_POINT('',(18.396769995098,1.455948205494,
    -3.725775474055));
#484 = CARTESIAN_POINT('',(18.271197738728,1.480758117662,
    -3.715848501573));
#485 = CARTESIAN_POINT('',(18.102563790109,1.497083528275,
    -3.709280266461));
#486 = CARTESIAN_POINT('',(18.060488303094,1.499767174575,
    -3.708194513814));
#487 = CARTESIAN_POINT('',(18.018353283642,1.50107079321,-3.707665333784
    ));
#488 = CARTESIAN_POINT('',(17.97619962788,1.500994346865,-3.70769636162)
  );
#489 = CARTESIAN_POINT('',(17.934068271299,1.499537836107,-3.70828745838
    ));
#490 = CARTESIAN_POINT('',(17.892000188762,1.496701299378,
    -3.709434710932));
#491 = CARTESIAN_POINT('',(17.723942063267,1.479814961766,
    -3.716225795992));
#492 = CARTESIAN_POINT('',(17.598958415661,1.454702461775,-3.72626659592
    ));
#493 = CARTESIAN_POINT('',(17.476022290454,1.417191832092,
    -3.741027581949));
#494 = CARTESIAN_POINT('',(17.356129515313,1.367232397427,
    -3.760022194163));
#495 = CARTESIAN_POINT('',(17.240403756012,1.30471761597,-3.782498335916
    ));
#496 = CARTESIAN_POINT('',(17.130169815003,1.229536295305,
    -3.807446942215));
#497 = CARTESIAN_POINT('',(16.97118653395,1.094041457358,-3.847796692264
    ));
#498 = CARTESIAN_POINT('',(16.917361196889,1.042666751908,
    -3.862345250804));
#499 = CARTESIAN_POINT('',(16.865833088993,0.987500177619,
    -3.877069856913));
#500 = CARTESIAN_POINT('',(16.816906765519,0.928545708382,
    -3.891746339586));
#501 = CARTESIAN_POINT('',(16.770915399962,0.865825854775,-3.90612954835
    ));
#502 = CARTESIAN_POINT('',(16.728222567878,0.799384824464,
    -3.919957382984));
#503 = CARTESIAN_POINT('',(16.660281677045,0.677272795545,
    -3.942600736655));
#504 = CARTESIAN_POINT('',(16.633359342587,0.623215563161,
    -3.951794356874));
#505 = CARTESIAN_POINT('',(16.608677780545,0.567243414616,-3.96040411136
    ));
#506 = CARTESIAN_POINT('',(16.586438590006,0.509495786187,
    -3.968302408556));
#507 = CARTESIAN_POINT('',(16.566825212627,0.45012718655,-3.975369518036
    ));
#508 = CARTESIAN_POINT('',(16.550003929347,0.389306262071,
    -3.981497450638));
#509 = CARTESIAN_POINT('',(16.515827128774,0.236408045583,
    -3.994047153679));
#510 = CARTESIAN_POINT('',(16.501834207331,0.142938139438,
    -3.999289657879));
#511 = CARTESIAN_POINT('',(16.494701910585,4.783027060622E-02,
    -4.001999807787));
#512 = CARTESIAN_POINT('',(16.494701910585,-4.783027060634E-02,
    -4.001999807787));
#513 = CARTESIAN_POINT('',(16.501834207331,-0.142938139438,
    -3.999289657879));
#514 = CARTESIAN_POINT('',(16.515827128774,-0.236408045583,
    -3.994047153679));
#515 = CARTESIAN_POINT('',(16.549750325504,-0.388171703697,
    -3.981590573834));
#516 = CARTESIAN_POINT('',(16.566211976002,-0.447906380952,
    -3.975592927792));
#517 = CARTESIAN_POINT('',(16.585367939616,-0.506245634715,
    -3.968688246662));
#518 = CARTESIAN_POINT('',(16.607060961895,-0.563028451212,
    -3.960978527427));
#519 = CARTESIAN_POINT('',(16.63111749462,-0.618106952098,
    -3.952576860954));
#520 = CARTESIAN_POINT('',(16.65734678751,-0.671347284514,
    -3.943603875088));
#521 = CARTESIAN_POINT('',(16.707519465136,-0.762611046313,
    -3.926840557495));
#522 = CARTESIAN_POINT('',(16.730707152476,-0.801428717013,
    -3.91922052404));
#523 = CARTESIAN_POINT('',(16.755028922979,-0.839064518988,
    -3.911375048427));
#524 = CARTESIAN_POINT('',(16.780413126183,-0.875502692372,
    -3.903354204664));
#525 = CARTESIAN_POINT('',(16.806790454452,-0.910730560402,
    -3.895206771788));
#526 = CARTESIAN_POINT('',(16.834093817282,-0.94473836812,
    -3.886979835941));
#527 = CARTESIAN_POINT('',(16.976388131652,-1.110355780249,
    -3.845240743087));
#528 = CARTESIAN_POINT('',(17.104824857409,-1.22323867548,
    -3.811147153942));
#529 = CARTESIAN_POINT('',(17.243791698935,-1.316141461732,
    -3.779292471808));
#530 = CARTESIAN_POINT('',(17.39043431113,-1.389355271471,
    -3.751980971299));
#531 = CARTESIAN_POINT('',(17.542487207873,-1.443181856539,
    -3.730881818206));
#532 = CARTESIAN_POINT('',(17.698066850769,-1.477782630218,
    -3.71704563539));
#533 = CARTESIAN_POINT('',(17.896365495799,-1.49697987271,
    -3.709321970411));
#534 = CARTESIAN_POINT('',(17.937365316057,-1.499629364584,
    -3.708250262908));
#535 = CARTESIAN_POINT('',(17.978422620921,-1.500968337434,
    -3.70770691624));
#536 = CARTESIAN_POINT('',(18.019499495047,-1.500996757538,
    -3.707695383079));
#537 = CARTESIAN_POINT('',(18.060558059667,-1.499714625137,
    -3.708215712307));
#538 = CARTESIAN_POINT('',(18.101560472588,-1.497121974438,
    -3.709264549017));
#539 = CARTESIAN_POINT('',(18.268384850156,-1.481205158297,
    -3.715669384965));
#540 = CARTESIAN_POINT('',(18.393242219649,-1.456792148912,
    -3.725440382762));
#541 = CARTESIAN_POINT('',(18.51610694482,-1.420024767372,
    -3.739934054693));
#542 = CARTESIAN_POINT('',(18.635988526147,-1.370854790844,
    -3.758675816172));
#543 = CARTESIAN_POINT('',(18.751772238256,-1.30917903396,
    -3.780926571388));
#544 = CARTESIAN_POINT('',(18.862147105238,-1.234889284882,
    -3.805691567491));
#545 = CARTESIAN_POINT('',(18.990235565881,-1.127153814392,
    -3.837967541643));
#546 = CARTESIAN_POINT('',(19.014547810713,-1.105645607096,
    -3.844267837603));
#547 = CARTESIAN_POINT('',(19.038445486374,-1.083407008017,
    -3.85062653924));
#548 = CARTESIAN_POINT('',(19.061906177032,-1.060436259323,
    -3.85702631151));
#549 = CARTESIAN_POINT('',(19.084905968619,-1.036732210671,
    -3.863448935793));
#550 = CARTESIAN_POINT('',(19.107419448818,-1.012294319205,
    -3.869875309894));
#551 = CARTESIAN_POINT('',(19.158317364668,-0.954059297209,
    -3.884705257271));
#552 = CARTESIAN_POINT('',(19.186335236733,-0.919723579741,
    -3.893098719909));
#553 = CARTESIAN_POINT('',(19.213405708137,-0.884122004952,
    -3.901418853061));
#554 = CARTESIAN_POINT('',(19.239458806227,-0.847263956361,
    -3.909616376448));
#555 = CARTESIAN_POINT('',(19.2644220674,-0.809161871486,-3.917640131397
    ));
#556 = CARTESIAN_POINT('',(19.288220403681,-0.769831420116,
    -3.92543749983));
#557 = CARTESIAN_POINT('',(19.360755770255,-0.639461613772,
    -3.949612101294));
#558 = CARTESIAN_POINT('',(19.404970474294,-0.543088399715,
    -3.96500662107));
#559 = CARTESIAN_POINT('',(19.441966345767,-0.441058862852,
    -3.978369002429));
#560 = CARTESIAN_POINT('',(19.470625372424,-0.334463338569,
    -3.988984453647));
#561 = CARTESIAN_POINT('',(19.490139593842,-0.224535156267,
    -3.996302378538));
#562 = CARTESIAN_POINT('',(19.5,-0.112594978761,-4.));
#563 = CARTESIAN_POINT('',(19.5,-4.440892098501E-16,-4.));
#564 = PCURVE('',#247,#565);
#565 = DEFINITIONAL_REPRESENTATION('',(#566),#671);
#566 = B_SPLINE_CURVE_WITH_KNOTS('',7,(#567,#568,#569,#570,#571,#572,
    #573,#574,#575,#576,#577,#578,#579,#580,#581,#582,#583,#584,#585,
    #586,#587,#588,#589,#590,#591,#592,#593,#594,#595,#596,#597,#598,
    #599,#600,#601,#602,#603,#604,#605,#606,#607,#608,#609,#610,#611,
    #612,#613,#614,#615,#616,#617,#618,#619,#620,#621,#622,#623,#624,
    #625,#626,#627,#628,#629,#630,#631,#632,#633,#634,#635,#636,#637,
    #638,#639,#640,#641,#642,#643,#644,#645,#646,#647,#648,#649,#650,
    #651,#652,#653,#654,#655,#656,#657,#658,#659,#660,#661,#662,#663,
    #664,#665,#666,#667,#668,#669,#670),.UNSPECIFIED.,.F.,.F.,(8,6,6,6,6
    ,6,6,6,6,6,6,6,6,6,6,6,6,8),(0.,7.142191469455E-02,0.103413425185,
    0.128691331211,0.233082835587,0.267678472456,0.371632697082,
    0.427919255673,0.46969173235,0.530782730884,0.571791924511,
    0.603762797157,0.733317597778,0.766986927494,0.870620873836,
    0.895386844413,0.927917305165,1.),.UNSPECIFIED.);
#567 = CARTESIAN_POINT('',(0.,-26.));
#568 = CARTESIAN_POINT('',(-7.426340958838E-02,-26.));
#569 = CARTESIAN_POINT('',(-0.148111225597,-26.00361923519));
#570 = CARTESIAN_POINT('',(-0.221330940364,-26.01078490115));
#571 = CARTESIAN_POINT('',(-0.293696947433,-26.02118725576));
#572 = CARTESIAN_POINT('',(-0.364947616659,-26.03429606671));
#573 = CARTESIAN_POINT('',(-0.434750379515,-26.04942098188));
#574 = CARTESIAN_POINT('',(-0.533070779898,-26.07315944656));
#575 = CARTESIAN_POINT('',(-0.563195430355,-26.08077948476));
#576 = CARTESIAN_POINT('',(-0.593039797418,-26.08862496515));
#577 = CARTESIAN_POINT('',(-0.622613693037,-26.09664581224));
#578 = CARTESIAN_POINT('',(-0.651925907728,-26.10479324513));
#579 = CARTESIAN_POINT('',(-0.680984398672,-26.11302017581));
#580 = CARTESIAN_POINT('',(-0.732562174628,-26.1278093298));
#581 = CARTESIAN_POINT('',(-0.755177516318,-26.13435959454));
#582 = CARTESIAN_POINT('',(-0.777648896202,-26.14091102085));
#583 = CARTESIAN_POINT('',(-0.799982833374,-26.14744318669));
#584 = CARTESIAN_POINT('',(-0.82218597269,-26.15393662882));
#585 = CARTESIAN_POINT('',(-0.844265084771,-26.16037284285));
#586 = CARTESIAN_POINT('',(-0.956924620518,-26.19300545973));
#587 = CARTESIAN_POINT('',(-1.045712571562,-26.21802686758));
#588 = CARTESIAN_POINT('',(-1.133006322366,-26.24053977354));
#589 = CARTESIAN_POINT('',(-1.219166553403,-26.25952489037));
#590 = CARTESIAN_POINT('',(-1.304533941158,-26.27422452594));
#591 = CARTESIAN_POINT('',(-1.389453325258,-26.28415149842));
#592 = CARTESIAN_POINT('',(-1.502401548713,-26.29071973353));
#593 = CARTESIAN_POINT('',(-1.530493818661,-26.29180548618));
#594 = CARTESIAN_POINT('',(-1.55857311721,-26.29233466621));
#595 = CARTESIAN_POINT('',(-1.586648401962,-26.29230363838));
#596 = CARTESIAN_POINT('',(-1.61472860474,-26.29171254162));
#597 = CARTESIAN_POINT('',(-1.642822631584,-26.29056528906));
#598 = CARTESIAN_POINT('',(-1.755425536506,-26.283774204));
#599 = CARTESIAN_POINT('',(-1.840004593744,-26.27373340408));
#600 = CARTESIAN_POINT('',(-1.925035383256,-26.25897241805));
#601 = CARTESIAN_POINT('',(-2.010859442207,-26.23997780583));
#602 = CARTESIAN_POINT('',(-2.097814316705,-26.21750166408));
#603 = CARTESIAN_POINT('',(-2.186257366346,-26.19255305778));
#604 = CARTESIAN_POINT('',(-2.325516572728,-26.15220330773));
#605 = CARTESIAN_POINT('',(-2.375043013086,-26.13765474919));
#606 = CARTESIAN_POINT('',(-2.4252352236,-26.12293014308));
#607 = CARTESIAN_POINT('',(-2.476148954586,-26.10825366041));
#608 = CARTESIAN_POINT('',(-2.52784403957,-26.09387045165));
#609 = CARTESIAN_POINT('',(-2.580388577987,-26.08004261701));
#610 = CARTESIAN_POINT('',(-2.673548684503,-26.05739926334));
#611 = CARTESIAN_POINT('',(-2.713766938087,-26.04820564312));
#612 = CARTESIAN_POINT('',(-2.754476661596,-26.03959588864));
#613 = CARTESIAN_POINT('',(-2.795645491342,-26.03169759144));
#614 = CARTESIAN_POINT('',(-2.837248268722,-26.02463048196));
#615 = CARTESIAN_POINT('',(-2.87926539196,-26.01850254936));
#616 = CARTESIAN_POINT('',(-2.983712972226,-26.00595284632));
#617 = CARTESIAN_POINT('',(-3.046560429105,-26.00071034212));
#618 = CARTESIAN_POINT('',(-3.109866069865,-25.99800019221));
#619 = CARTESIAN_POINT('',(-3.173319237315,-25.99800019221));
#620 = CARTESIAN_POINT('',(-3.236624878074,-26.00071034212));
#621 = CARTESIAN_POINT('',(-3.299472334954,-26.00595284632));
#622 = CARTESIAN_POINT('',(-3.403144877554,-26.01840942616));
#623 = CARTESIAN_POINT('',(-3.444402970379,-26.0244070722));
#624 = CARTESIAN_POINT('',(-3.485262824037,-26.03131175333));
#625 = CARTESIAN_POINT('',(-3.525705174566,-26.03902147257));
#626 = CARTESIAN_POINT('',(-3.565705562257,-26.04742313904));
#627 = CARTESIAN_POINT('',(-3.605232806089,-26.05639612491));
#628 = CARTESIAN_POINT('',(-3.674663416687,-26.0731594425));
#629 = CARTESIAN_POINT('',(-3.704788049002,-26.08077947596));
#630 = CARTESIAN_POINT('',(-3.734632399496,-26.08862495157));
#631 = CARTESIAN_POINT('',(-3.764206284862,-26.09664579533));
#632 = CARTESIAN_POINT('',(-3.793518501226,-26.10479322821));
#633 = CARTESIAN_POINT('',(-3.822577011278,-26.11302016405));
#634 = CARTESIAN_POINT('',(-3.968143794886,-26.15475925691));
#635 = CARTESIAN_POINT('',(-4.081024335719,-26.18885284605));
#636 = CARTESIAN_POINT('',(-4.190975140417,-26.22070752819));
#637 = CARTESIAN_POINT('',(-4.298731369146,-26.2480190287));
#638 = CARTESIAN_POINT('',(-4.405000180706,-26.26911818179));
#639 = CARTESIAN_POINT('',(-4.510459910373,-26.28295436461));
#640 = CARTESIAN_POINT('',(-4.643277055752,-26.29067802958));
#641 = CARTESIAN_POINT('',(-4.670653360696,-26.29174973709));
#642 = CARTESIAN_POINT('',(-4.698017105078,-26.29229308376));
#643 = CARTESIAN_POINT('',(-4.725376527874,-26.29230461692));
#644 = CARTESIAN_POINT('',(-4.752739894365,-26.29178428769));
#645 = CARTESIAN_POINT('',(-4.780115496132,-26.29073545098));
#646 = CARTESIAN_POINT('',(-4.891836812087,-26.28433061503));
#647 = CARTESIAN_POINT('',(-4.976244889639,-26.27455961723));
#648 = CARTESIAN_POINT('',(-5.061090806992,-26.2600659453));
#649 = CARTESIAN_POINT('',(-5.146712168131,-26.24132418382));
#650 = CARTESIAN_POINT('',(-5.233442580879,-26.21907342861));
#651 = CARTESIAN_POINT('',(-5.321634931037,-26.1943084325));
#652 = CARTESIAN_POINT('',(-5.433216660629,-26.16203245835));
#653 = CARTESIAN_POINT('',(-5.454850344178,-26.15573216239));
#654 = CARTESIAN_POINT('',(-5.476602151708,-26.14937346076));
#655 = CARTESIAN_POINT('',(-5.498478477774,-26.14297368849));
#656 = CARTESIAN_POINT('',(-5.520485617942,-26.1365510642));
#657 = CARTESIAN_POINT('',(-5.542629768786,-26.1301246901));
#658 = CARTESIAN_POINT('',(-5.594191665246,-26.11529474272));
#659 = CARTESIAN_POINT('',(-5.623718996314,-26.10690128009));
#660 = CARTESIAN_POINT('',(-5.653507096889,-26.09858114693));
#661 = CARTESIAN_POINT('',(-5.683564687077,-26.09038362355));
#662 = CARTESIAN_POINT('',(-5.713901346077,-26.0823598686));
#663 = CARTESIAN_POINT('',(-5.744527726965,-26.07456250017));
#664 = CARTESIAN_POINT('',(-5.843987748661,-26.0503878987));
#665 = CARTESIAN_POINT('',(-5.914462806531,-26.03499337893));
#666 = CARTESIAN_POINT('',(-5.98641937956,-26.02163099757));
#667 = CARTESIAN_POINT('',(-6.059518603525,-26.01101554635));
#668 = CARTESIAN_POINT('',(-6.133495329316,-26.00369762146));
#669 = CARTESIAN_POINT('',(-6.208121988006,-26.));
#670 = CARTESIAN_POINT('',(-6.28318530718,-26.));
#671 = ( GEOMETRIC_REPRESENTATION_CONTEXT(2) 
PARAMETRIC_REPRESENTATION_CONTEXT() REPRESENTATION_CONTEXT('2D SPACE',''
  ) );
#672 = PCURVE('',#353,#673);
#673 = DEFINITIONAL_REPRESENTATION('',(#674),#779);
#674 = B_SPLINE_CURVE_WITH_KNOTS('',7,(#675,#676,#677,#678,#679,#680,
    #681,#682,#683,#684,#685,#686,#687,#688,#689,#690,#691,#692,#693,
    #694,#695,#696,#697,#698,#699,#700,#701,#702,#703,#704,#705,#706,
    #707,#708,#709,#710,#711,#712,#713,#714,#715,#716,#717,#718,#719,
    #720,#721,#722,#723,#724,#725,#726,#727,#728,#729,#730,#731,#732,
    #733,#734,#735,#736,#737,#738,#739,#740,#741,#742,#743,#744,#745,
    #746,#747,#748,#749,#750,#751,#752,#753,#754,#755,#756,#757,#758,
    #759,#760,#761,#762,#763,#764,#765,#766,#767,#768,#769,#770,#771,
    #772,#773,#774,#775,#776,#777,#778),.UNSPECIFIED.,.T.,.F.,(8,6,6,6,6
    ,6,6,6,6,6,6,6,6,6,6,6,6,8),(0.,7.142191469455E-02,0.103413425185,
    0.128691331211,0.233082835587,0.267678472456,0.371632697082,
    0.427919255673,0.46969173235,0.530782730884,0.571791924511,
    0.603762797157,0.733317597778,0.766986927494,0.870620873836,
    0.895386844413,0.927917305165,1.),.UNSPECIFIED.);
#675 = CARTESIAN_POINT('',(-4.712388980385,-5.5));
#676 = CARTESIAN_POINT('',(-4.74023775898,-5.5));
#677 = CARTESIAN_POINT('',(-4.767930774923,-5.490348626784));
#678 = CARTESIAN_POINT('',(-4.795172275981,-5.471240423221));
#679 = CARTESIAN_POINT('',(-4.821674121252,-5.443164371377));
#680 = CARTESIAN_POINT('',(-4.847156456627,-5.406900392153));
#681 = CARTESIAN_POINT('',(-4.871356297685,-5.363529843908));
#682 = CARTESIAN_POINT('',(-4.904206370183,-5.292480522723));
#683 = CARTESIAN_POINT('',(-4.914095271285,-5.269292820773));
#684 = CARTESIAN_POINT('',(-4.923705464163,-5.244971034897));
#685 = CARTESIAN_POINT('',(-4.933032106172,-5.219586819995));
#686 = CARTESIAN_POINT('',(-4.942070793087,-5.193209489994));
#687 = CARTESIAN_POINT('',(-4.950817581007,-5.165906142655));
#688 = CARTESIAN_POINT('',(-4.965946854368,-5.115487880436));
#689 = CARTESIAN_POINT('',(-4.97244130178,-5.092693028214));
#690 = CARTESIAN_POINT('',(-4.978751435682,-5.069386128896));
#691 = CARTESIAN_POINT('',(-4.984876472858,-5.045594440401));
#692 = CARTESIAN_POINT('',(-4.990815761691,-5.021343577393));
#693 = CARTESIAN_POINT('',(-4.996568782162,-4.996657511278));
#694 = CARTESIAN_POINT('',(-5.025122852126,-4.867906146869));
#695 = CARTESIAN_POINT('',(-5.044949051432,-4.757112504148));
#696 = CARTESIAN_POINT('',(-5.061556358189,-4.640799427027));
#697 = CARTESIAN_POINT('',(-5.074893660697,-4.520306469446));
#698 = CARTESIAN_POINT('',(-5.084919312844,-4.396769995098));
#699 = CARTESIAN_POINT('',(-5.091599829397,-4.271197738728));
#700 = CARTESIAN_POINT('',(-5.095999124398,-4.102563790109));
#701 = CARTESIAN_POINT('',(-5.096722864793,-4.060488303094));
#702 = CARTESIAN_POINT('',(-5.097074596311,-4.018353283642));
#703 = CARTESIAN_POINT('',(-5.097053970623,-3.97619962788));
#704 = CARTESIAN_POINT('',(-5.096661000823,-3.934068271299));
#705 = CARTESIAN_POINT('',(-5.095896061429,-3.892000188762));
#706 = CARTESIAN_POINT('',(-5.091345874384,-3.723942063267));
#707 = CARTESIAN_POINT('',(-5.084584553554,-3.598958415661));
#708 = CARTESIAN_POINT('',(-5.074507072057,-3.476022290454));
#709 = CARTESIAN_POINT('',(-5.061146712091,-3.356129515313));
#710 = CARTESIAN_POINT('',(-5.044544576358,-3.240403756012));
#711 = CARTESIAN_POINT('',(-5.02475090894,-3.130169815003));
#712 = CARTESIAN_POINT('',(-4.989407103401,-2.97118653395));
#713 = CARTESIAN_POINT('',(-4.976059570554,-2.917361196889));
#714 = CARTESIAN_POINT('',(-4.96178782916,-2.865833088993));
#715 = CARTESIAN_POINT('',(-4.946603569899,-2.816906765519));
#716 = CARTESIAN_POINT('',(-4.930521566202,-2.770915399962));
#717 = CARTESIAN_POINT('',(-4.913559441437,-2.728222567878));
#718 = CARTESIAN_POINT('',(-4.882511022524,-2.660281677045));
#719 = CARTESIAN_POINT('',(-4.868804165881,-2.633359342587));
#720 = CARTESIAN_POINT('',(-4.854649479161,-2.608677780545));
#721 = CARTESIAN_POINT('',(-4.840081969548,-2.586438590006));
#722 = CARTESIAN_POINT('',(-4.825138834612,-2.566825212627));
#723 = CARTESIAN_POINT('',(-4.809859258491,-2.550003929347));
#724 = CARTESIAN_POINT('',(-4.77150616242,-2.515827128774));
#725 = CARTESIAN_POINT('',(-4.748109753529,-2.501834207331));
#726 = CARTESIAN_POINT('',(-4.724337871513,-2.494701910585));
#727 = CARTESIAN_POINT('',(-4.700440089256,-2.494701910585));
#728 = CARTESIAN_POINT('',(-4.67666820724,-2.501834207331));
#729 = CARTESIAN_POINT('',(-4.653271798349,-2.515827128774));
#730 = CARTESIAN_POINT('',(-4.615203295698,-2.549750325504));
#731 = CARTESIAN_POINT('',(-4.600197034309,-2.566211976002));
#732 = CARTESIAN_POINT('',(-4.58551403029,-2.585367939616));
#733 = CARTESIAN_POINT('',(-4.571191691422,-2.607060961895));
#734 = CARTESIAN_POINT('',(-4.557265581357,-2.63111749462));
#735 = CARTESIAN_POINT('',(-4.543769229476,-2.65734678751));
#736 = CARTESIAN_POINT('',(-4.520571596199,-2.707519465136));
#737 = CARTESIAN_POINT('',(-4.510682700972,-2.730707152476));
#738 = CARTESIAN_POINT('',(-4.501072513178,-2.755028922979));
#739 = CARTESIAN_POINT('',(-4.491745873957,-2.780413126183));
#740 = CARTESIAN_POINT('',(-4.482707185954,-2.806790454452));
#741 = CARTESIAN_POINT('',(-4.473960391785,-2.834093817282));
#742 = CARTESIAN_POINT('',(-4.431261387791,-2.976388131652));
#743 = CARTESIAN_POINT('',(-4.401813393564,-3.104824857409));
#744 = CARTESIAN_POINT('',(-4.377280074614,-3.243791698935));
#745 = CARTESIAN_POINT('',(-4.357749119748,-3.390434311129));
#746 = CARTESIAN_POINT('',(-4.343296101512,-3.542487207873));
#747 = CARTESIAN_POINT('',(-4.333979951759,-3.698066850769));
#748 = CARTESIAN_POINT('',(-4.328806768986,-3.896365495799));
#749 = CARTESIAN_POINT('',(-4.328092260692,-3.937365316057));
#750 = CARTESIAN_POINT('',(-4.327731007441,-3.978422620921));
#751 = CARTESIAN_POINT('',(-4.327723339701,-4.019499495047));
#752 = CARTESIAN_POINT('',(-4.328069261977,-4.060558059667));
#753 = CARTESIAN_POINT('',(-4.328768452813,-4.101560472588));
#754 = CARTESIAN_POINT('',(-4.333057734218,-4.268384850156));
#755 = CARTESIAN_POINT('',(-4.339631641907,-4.393242219649));
#756 = CARTESIAN_POINT('',(-4.349511771248,-4.51610694482));
#757 = CARTESIAN_POINT('',(-4.362665299047,-4.635988526147));
#758 = CARTESIAN_POINT('',(-4.379051228007,-4.751772238256));
#759 = CARTESIAN_POINT('',(-4.398619186434,-4.862147105238));
#760 = CARTESIAN_POINT('',(-4.426735763071,-4.990235565881));
#761 = CARTESIAN_POINT('',(-4.432338658609,-5.014547810713));
#762 = CARTESIAN_POINT('',(-4.438120913221,-5.038445486374));
#763 = CARTESIAN_POINT('',(-4.444082046116,-5.061906177032));
#764 = CARTESIAN_POINT('',(-4.45022146426,-5.084905968619));
#765 = CARTESIAN_POINT('',(-4.456538462382,-5.107419448818));
#766 = CARTESIAN_POINT('',(-4.471561871462,-5.158317364668));
#767 = CARTESIAN_POINT('',(-4.480398148326,-5.186335236733));
#768 = CARTESIAN_POINT('',(-4.489537589365,-5.213405708137));
#769 = CARTESIAN_POINT('',(-4.498976225329,-5.239458806227));
#770 = CARTESIAN_POINT('',(-4.508709605256,-5.2644220674));
#771 = CARTESIAN_POINT('',(-4.51873281982,-5.288220403681));
#772 = CARTESIAN_POINT('',(-4.551880875723,-5.360755770255));
#773 = CARTESIAN_POINT('',(-4.576272072874,-5.404970474294));
#774 = CARTESIAN_POINT('',(-4.601980327571,-5.441966345767));
#775 = CARTESIAN_POINT('',(-4.628736828264,-5.470625372424));
#776 = CARTESIAN_POINT('',(-4.656255148509,-5.490139593842));
#777 = CARTESIAN_POINT('',(-4.684240235695,-5.5));
#778 = CARTESIAN_POINT('',(-4.712388980385,-5.5));
#779 = ( GEOMETRIC_REPRESENTATION_CONTEXT(2) 
PARAMETRIC_REPRESENTATION_CONTEXT() REPRESENTATION_CONTEXT('2D SPACE',''
  ) );
#780 = ORIENTED_EDGE('',*,*,#434,.F.);
#781 = ADVANCED_FACE('',(#782,#840),#353,.F.);
#782 = FACE_BOUND('',#783,.T.);
#783 = EDGE_LOOP('',(#784,#807,#808,#809));
#784 = ORIENTED_EDGE('',*,*,#785,.F.);
#785 = EDGE_CURVE('',#333,#786,#788,.T.);
#786 = VERTEX_POINT('',#787);
#787 = CARTESIAN_POINT('',(42.,4.,0.));
#788 = SEAM_CURVE('',#789,(#793,#800),.PCURVE_S1.);
#789 = LINE('',#790,#791);
#790 = CARTESIAN_POINT('',(14.,4.,0.));
#791 = VECTOR('',#792,1.);
#792 = DIRECTION('',(1.,0.,0.));
#793 = PCURVE('',#353,#794);
#794 = DEFINITIONAL_REPRESENTATION('',(#795),#799);
#795 = LINE('',#796,#797);
#796 = CARTESIAN_POINT('',(-6.28318530718,0.));
#797 = VECTOR('',#798,1.);
#798 = DIRECTION('',(-0.,-1.));
#799 = ( GEOMETRIC_REPRESENTATION_CONTEXT(2) 
PARAMETRIC_REPRESENTATION_CONTEXT() REPRESENTATION_CONTEXT('2D SPACE',''
  ) );
#800 = PCURVE('',#353,#801);
#801 = DEFINITIONAL_REPRESENTATION('',(#802),#806);
#802 = LINE('',#803,#804);
#803 = CARTESIAN_POINT('',(-0.,0.));
#804 = VECTOR('',#805,1.);
#805 = DIRECTION('',(-0.,-1.));
#806 = ( GEOMETRIC_REPRESENTATION_CONTEXT(2) 
PARAMETRIC_REPRESENTATION_CONTEXT() REPRESENTATION_CONTEXT('2D SPACE',''
  ) );
#807 = ORIENTED_EDGE('',*,*,#332,.T.);
#808 = ORIENTED_EDGE('',*,*,#785,.T.);
#809 = ORIENTED_EDGE('',*,*,#810,.F.);
#810 = EDGE_CURVE('',#786,#786,#811,.T.);
#811 = SURFACE_CURVE('',#812,(#817,#824),.PCURVE_S1.);
#812 = CIRCLE('',#813,4.);
#813 = AXIS2_PLACEMENT_3D('',#814,#815,#816);
#814 = CARTESIAN_POINT('',(42.,0.,0.));
#815 = DIRECTION('',(-1.,0.,0.));
#816 = DIRECTION('',(0.,1.,0.));
#817 = PCURVE('',#353,#818);
#818 = DEFINITIONAL_REPRESENTATION('',(#819),#823);
#819 = LINE('',#820,#821);
#820 = CARTESIAN_POINT('',(-6.28318530718,-28.));
#821 = VECTOR('',#822,1.);
#822 = DIRECTION('',(1.,-0.));
#823 = ( GEOMETRIC_REPRESENTATION_CONTEXT(2) 
PARAMETRIC_REPRESENTATION_CONTEXT() REPRESENTATION_CONTEXT('2D SPACE',''
  ) );
#824 = PCURVE('',#825,#830);
#825 = PLANE('',#826);
#826 = AXIS2_PLACEMENT_3D('',#827,#828,#829);
#827 = CARTESIAN_POINT('',(42.,-5.127900497023E-16,6.990076196319E-16));
#828 = DIRECTION('',(1.,0.,0.));
#829 = DIRECTION('',(-0.,0.,1.));
#830 = DEFINITIONAL_REPRESENTATION('',(#831),#839);
#831 = ( BOUNDED_CURVE() B_SPLINE_CURVE(2,(#832,#833,#834,#835,#836,#837
,#838),.UNSPECIFIED.,.T.,.F.) B_SPLINE_CURVE_WITH_KNOTS((1,2,2,2,2,1),(
    -2.094395102393,0.,2.094395102393,4.188790204786,6.28318530718,
8.377580409573),.UNSPECIFIED.) CURVE() GEOMETRIC_REPRESENTATION_ITEM() 
RATIONAL_B_SPLINE_CURVE((1.,0.5,1.,0.5,1.,0.5,1.)) REPRESENTATION_ITEM(
  '') );
#832 = CARTESIAN_POINT('',(-6.990076196319E-16,-4.));
#833 = CARTESIAN_POINT('',(-6.928203230276,-4.));
#834 = CARTESIAN_POINT('',(-3.464101615138,2.));
#835 = CARTESIAN_POINT('',(-1.67872505895E-15,8.));
#836 = CARTESIAN_POINT('',(3.464101615138,2.));
#837 = CARTESIAN_POINT('',(6.928203230276,-4.));
#838 = CARTESIAN_POINT('',(-6.990076196319E-16,-4.));
#839 = ( GEOMETRIC_REPRESENTATION_CONTEXT(2) 
PARAMETRIC_REPRESENTATION_CONTEXT() REPRESENTATION_CONTEXT('2D SPACE',''
  ) );
#840 = FACE_BOUND('',#841,.T.);
#841 = EDGE_LOOP('',(#842));
#842 = ORIENTED_EDGE('',*,*,#457,.F.);
#843 = ADVANCED_FACE('',(#844),#418,.F.);
#844 = FACE_BOUND('',#845,.T.);
#845 = EDGE_LOOP('',(#846,#875,#896,#897));
#846 = ORIENTED_EDGE('',*,*,#847,.F.);
#847 = EDGE_CURVE('',#848,#848,#850,.T.);
#848 = VERTEX_POINT('',#849);
#849 = CARTESIAN_POINT('',(20.,24.,0.));
#850 = SURFACE_CURVE('',#851,(#856,#863),.PCURVE_S1.);
#851 = CIRCLE('',#852,24.);
#852 = AXIS2_PLACEMENT_3D('',#853,#854,#855);
#853 = CARTESIAN_POINT('',(20.,0.,0.));
#854 = DIRECTION('',(1.,0.,0.));
#855 = DIRECTION('',(0.,1.,0.));
#856 = PCURVE('',#418,#857);
#857 = DEFINITIONAL_REPRESENTATION('',(#858),#862);
#858 = LINE('',#859,#860);
#859 = CARTESIAN_POINT('',(-0.,0.));
#860 = VECTOR('',#861,1.);
#861 = DIRECTION('',(-1.,0.));
#862 = ( GEOMETRIC_REPRESENTATION_CONTEXT(2) 
PARAMETRIC_REPRESENTATION_CONTEXT() REPRESENTATION_CONTEXT('2D SPACE',''
  ) );
#863 = PCURVE('',#864,#869);
#864 = PLANE('',#865);
#865 = AXIS2_PLACEMENT_3D('',#866,#867,#868);
#866 = CARTESIAN_POINT('',(20.,-1.367440132539E-15,-6.80906842916E-17));
#867 = DIRECTION('',(1.,0.,0.));
#868 = DIRECTION('',(-0.,0.,1.));
#869 = DEFINITIONAL_REPRESENTATION('',(#870),#874);
#870 = CIRCLE('',#871,24.);
#871 = AXIS2_PLACEMENT_2D('',#872,#873);
#872 = CARTESIAN_POINT('',(6.80906842916E-17,-1.367440132539E-15));
#873 = DIRECTION('',(0.,-1.));
#874 = ( GEOMETRIC_REPRESENTATION_CONTEXT(2) 
PARAMETRIC_REPRESENTATION_CONTEXT() REPRESENTATION_CONTEXT('2D SPACE',''
  ) );
#875 = ORIENTED_EDGE('',*,*,#876,.T.);
#876 = EDGE_CURVE('',#848,#398,#877,.T.);
#877 = SEAM_CURVE('',#878,(#882,#889),.PCURVE_S1.);
#878 = LINE('',#879,#880);
#879 = CARTESIAN_POINT('',(20.,24.,0.));
#880 = VECTOR('',#881,1.);
#881 = DIRECTION('',(1.,0.,0.));
#882 = PCURVE('',#418,#883);
#883 = DEFINITIONAL_REPRESENTATION('',(#884),#888);
#884 = LINE('',#885,#886);
#885 = CARTESIAN_POINT('',(-6.28318530718,0.));
#886 = VECTOR('',#887,1.);
#887 = DIRECTION('',(-0.,-1.));
#888 = ( GEOMETRIC_REPRESENTATION_CONTEXT(2) 
PARAMETRIC_REPRESENTATION_CONTEXT() REPRESENTATION_CONTEXT('2D SPACE',''
  ) );
#889 = PCURVE('',#418,#890);
#890 = DEFINITIONAL_REPRESENTATION('',(#891),#895);
#891 = LINE('',#892,#893);
#892 = CARTESIAN_POINT('',(-0.,0.));
#893 = VECTOR('',#894,1.);
#894 = DIRECTION('',(-0.,-1.));
#895 = ( GEOMETRIC_REPRESENTATION_CONTEXT(2) 
PARAMETRIC_REPRESENTATION_CONTEXT() REPRESENTATION_CONTEXT('2D SPACE',''
  ) );
#896 = ORIENTED_EDGE('',*,*,#397,.F.);
#897 = ORIENTED_EDGE('',*,*,#876,.F.);
#898 = ADVANCED_FACE('',(#899,#930),#825,.T.);
#899 = FACE_BOUND('',#900,.T.);
#900 = EDGE_LOOP('',(#901));
#901 = ORIENTED_EDGE('',*,*,#902,.T.);
#902 = EDGE_CURVE('',#903,#903,#905,.T.);
#903 = VERTEX_POINT('',#904);
#904 = CARTESIAN_POINT('',(42.,8.,0.));
#905 = SURFACE_CURVE('',#906,(#911,#918),.PCURVE_S1.);
#906 = CIRCLE('',#907,8.);
#907 = AXIS2_PLACEMENT_3D('',#908,#909,#910);
#908 = CARTESIAN_POINT('',(42.,0.,0.));
#909 = DIRECTION('',(1.,0.,0.));
#910 = DIRECTION('',(0.,1.,0.));
#911 = PCURVE('',#825,#912);
#912 = DEFINITIONAL_REPRESENTATION('',(#913),#917);
#913 = CIRCLE('',#914,8.);
#914 = AXIS2_PLACEMENT_2D('',#915,#916);
#915 = CARTESIAN_POINT('',(-6.990076196319E-16,-5.127900497023E-16));
#916 = DIRECTION('',(0.,-1.));
#917 = ( GEOMETRIC_REPRESENTATION_CONTEXT(2) 
PARAMETRIC_REPRESENTATION_CONTEXT() REPRESENTATION_CONTEXT('2D SPACE',''
  ) );
#918 = PCURVE('',#919,#924);
#919 = CYLINDRICAL_SURFACE('',#920,8.);
#920 = AXIS2_PLACEMENT_3D('',#921,#922,#923);
#921 = CARTESIAN_POINT('',(16.,0.,0.));
#922 = DIRECTION('',(-1.,-0.,-0.));
#923 = DIRECTION('',(0.,1.,0.));
#924 = DEFINITIONAL_REPRESENTATION('',(#925),#929);
#925 = LINE('',#926,#927);
#926 = CARTESIAN_POINT('',(-0.,-26.));
#927 = VECTOR('',#928,1.);
#928 = DIRECTION('',(-1.,0.));
#929 = ( GEOMETRIC_REPRESENTATION_CONTEXT(2) 
PARAMETRIC_REPRESENTATION_CONTEXT() REPRESENTATION_CONTEXT('2D SPACE',''
  ) );
#930 = FACE_BOUND('',#931,.T.);
#931 = EDGE_LOOP('',(#932));
#932 = ORIENTED_EDGE('',*,*,#810,.T.);
#933 = ADVANCED_FACE('',(#934,#937),#864,.T.);
#934 = FACE_BOUND('',#935,.T.);
#935 = EDGE_LOOP('',(#936));
#936 = ORIENTED_EDGE('',*,*,#847,.T.);
#937 = FACE_BOUND('',#938,.T.);
#938 = EDGE_LOOP('',(#939));
#939 = ORIENTED_EDGE('',*,*,#940,.T.);
#940 = EDGE_CURVE('',#941,#941,#943,.T.);
#941 = VERTEX_POINT('',#942);
#942 = CARTESIAN_POINT('',(20.,8.,0.));
#943 = SURFACE_CURVE('',#944,(#949,#960),.PCURVE_S1.);
#944 = CIRCLE('',#945,8.);
#945 = AXIS2_PLACEMENT_3D('',#946,#947,#948);
#946 = CARTESIAN_POINT('',(20.,0.,0.));
#947 = DIRECTION('',(-1.,0.,0.));
#948 = DIRECTION('',(0.,1.,0.));
#949 = PCURVE('',#864,#950);
#950 = DEFINITIONAL_REPRESENTATION('',(#951),#959);
#951 = ( BOUNDED_CURVE() B_SPLINE_CURVE(2,(#952,#953,#954,#955,#956,#957
,#958),.UNSPECIFIED.,.T.,.F.) B_SPLINE_CURVE_WITH_KNOTS((1,2,2,2,2,1),(
    -2.094395102393,0.,2.094395102393,4.188790204786,6.28318530718,
8.377580409573),.UNSPECIFIED.) CURVE() GEOMETRIC_REPRESENTATION_ITEM() 
RATIONAL_B_SPLINE_CURVE((1.,0.5,1.,0.5,1.,0.5,1.)) REPRESENTATION_ITEM(
  '') );
#952 = CARTESIAN_POINT('',(6.80906842916E-17,-8.));
#953 = CARTESIAN_POINT('',(-13.85640646055,-8.));
#954 = CARTESIAN_POINT('',(-6.928203230276,4.));
#955 = CARTESIAN_POINT('',(-1.891344194344E-15,16.));
#956 = CARTESIAN_POINT('',(6.928203230276,4.));
#957 = CARTESIAN_POINT('',(13.856406460551,-8.));
#958 = CARTESIAN_POINT('',(6.80906842916E-17,-8.));
#959 = ( GEOMETRIC_REPRESENTATION_CONTEXT(2) 
PARAMETRIC_REPRESENTATION_CONTEXT() REPRESENTATION_CONTEXT('2D SPACE',''
  ) );
#960 = PCURVE('',#919,#961);
#961 = DEFINITIONAL_REPRESENTATION('',(#962),#966);
#962 = LINE('',#963,#964);
#963 = CARTESIAN_POINT('',(-6.28318530718,-4.));
#964 = VECTOR('',#965,1.);
#965 = DIRECTION('',(1.,-0.));
#966 = ( GEOMETRIC_REPRESENTATION_CONTEXT(2) 
PARAMETRIC_REPRESENTATION_CONTEXT() REPRESENTATION_CONTEXT('2D SPACE',''
  ) );
#967 = ADVANCED_FACE('',(#968),#919,.T.);
#968 = FACE_BOUND('',#969,.F.);
#969 = EDGE_LOOP('',(#970,#971,#992,#993));
#970 = ORIENTED_EDGE('',*,*,#940,.T.);
#971 = ORIENTED_EDGE('',*,*,#972,.T.);
#972 = EDGE_CURVE('',#941,#903,#973,.T.);
#973 = SEAM_CURVE('',#974,(#978,#985),.PCURVE_S1.);
#974 = LINE('',#975,#976);
#975 = CARTESIAN_POINT('',(16.,8.,0.));
#976 = VECTOR('',#977,1.);
#977 = DIRECTION('',(1.,0.,0.));
#978 = PCURVE('',#919,#979);
#979 = DEFINITIONAL_REPRESENTATION('',(#980),#984);
#980 = LINE('',#981,#982);
#981 = CARTESIAN_POINT('',(-6.28318530718,0.));
#982 = VECTOR('',#983,1.);
#983 = DIRECTION('',(-0.,-1.));
#984 = ( GEOMETRIC_REPRESENTATION_CONTEXT(2) 
PARAMETRIC_REPRESENTATION_CONTEXT() REPRESENTATION_CONTEXT('2D SPACE',''
  ) );
#985 = PCURVE('',#919,#986);
#986 = DEFINITIONAL_REPRESENTATION('',(#987),#991);
#987 = LINE('',#988,#989);
#988 = CARTESIAN_POINT('',(-0.,0.));
#989 = VECTOR('',#990,1.);
#990 = DIRECTION('',(-0.,-1.));
#991 = ( GEOMETRIC_REPRESENTATION_CONTEXT(2) 
PARAMETRIC_REPRESENTATION_CONTEXT() REPRESENTATION_CONTEXT('2D SPACE',''
  ) );
#992 = ORIENTED_EDGE('',*,*,#902,.T.);
#993 = ORIENTED_EDGE('',*,*,#972,.F.);
#994 = ( GEOMETRIC_REPRESENTATION_CONTEXT(3) 
GLOBAL_UNCERTAINTY_ASSIGNED_CONTEXT((#998)) GLOBAL_UNIT_ASSIGNED_CONTEXT
((#995,#996,#997)) REPRESENTATION_CONTEXT('Context #1',
  '3D Context with UNIT and UNCERTAINTY') );
#995 = ( LENGTH_UNIT() NAMED_UNIT(*) SI_UNIT(.MILLI.,.METRE.) );
#996 = ( NAMED_UNIT(*) PLANE_ANGLE_UNIT() SI_UNIT($,.RADIAN.) );
#997 = ( NAMED_UNIT(*) SI_UNIT($,.STERADIAN.) SOLID_ANGLE_UNIT() );
#998 = UNCERTAINTY_MEASURE_WITH_UNIT(LENGTH_MEASURE(1.E-07),#995,
  'distance_accuracy_value','confusion accuracy');
#999 = PRODUCT_RELATED_PRODUCT_CATEGORY('part',$,(#7));
ENDSEC;
END-ISO-10303-21;
