ISO-10303-21;
HEADER;
FILE_DESCRIPTION(('Open CASCADE Model'),'2;1');
FILE_NAME('Open CASCADE Shape Model','2026-10-03T03:45:16',('Author'),(
    'Open CASCADE'),'Open CASCADE STEP processor 7.9','Open CASCADE 7.9'
  ,'Unknown');
FILE_SCHEMA(('AUTOMOTIVE_DESIGN { 1 0 10303 214 1 1 1 1 }'));
ENDSEC;
DATA;
#1 = APPLICATION_PROTOCOL_DEFINITION('international standard',
  'automotive_design',2000,#2);
#2 = APPLICATION_CONTEXT(
  'core data for automotive mechanical design processes');
#3 = SHAPE_DEFINITION_REPRESENTATION(#4,#10);
#4 = PRODUCT_DEFINITION_SHAPE('','',#5);
#5 = PRODUCT_DEFINITION('design','',#6,#9);
#6 = PRODUCT_DEFINITION_FORMATION('','',#7);
#7 = PRODUCT('Open CASCADE STEP translator 7.9 4',
  'Open CASCADE STEP translator 7.9 4','',(#8));
#8 = PRODUCT_CONTEXT('',#2,'mechanical');
#9 = PRODUCT_DEFINITION_CONTEXT('part definition',#2,'design');
#10 = ADVANCED_BREP_SHAPE_REPRESENTATION('',(#11,#15),#1694);
#11 = AXIS2_PLACEMENT_3D('',#12,#13,#14);
#12 = CARTESIAN_POINT('',(0.,0.,0.));
#13 = DIRECTION('',(0.,0.,1.));
#14 = DIRECTION('',(1.,0.,-0.));
#15 = MANIFOLD_SOLID_BREP('',#16);
#16 = CLOSED_SHELL('',(#17,#279,#318,#601,#794,#848,#903,#1205,#1233,
    #1265,#1297,#1347,#1397,#1432,#1440,#1448,#1457,#1492,#1547,#1602,
    #1637,#1667));
#17 = ADVANCED_FACE('',(#18,#105),#32,.T.);
#18 = FACE_BOUND('',#19,.F.);
#19 = EDGE_LOOP('',(#20,#50,#77,#78));
#20 = ORIENTED_EDGE('',*,*,#21,.T.);
#21 = EDGE_CURVE('',#22,#24,#26,.T.);
#22 = VERTEX_POINT('',#23);
#23 = CARTESIAN_POINT('',(31.,0.,65.));
#24 = VERTEX_POINT('',#25);
#25 = CARTESIAN_POINT('',(31.,0.,5.));
#26 = SEAM_CURVE('',#27,(#31,#43),.PCURVE_S1.);
#27 = LINE('',#28,#29);
#28 = CARTESIAN_POINT('',(31.,0.,65.));
#29 = VECTOR('',#30,1.);
#30 = DIRECTION('',(0.,0.,-1.));
#31 = PCURVE('',#32,#37);
#32 = CYLINDRICAL_SURFACE('',#33,31.);
#33 = AXIS2_PLACEMENT_3D('',#34,#35,#36);
#34 = CARTESIAN_POINT('',(0.,0.,5.));
#35 = DIRECTION('',(-0.,-0.,-1.));
#36 = DIRECTION('',(1.,0.,0.));
#37 = DEFINITIONAL_REPRESENTATION('',(#38),#42);
#38 = LINE('',#39,#40);
#39 = CARTESIAN_POINT('',(-6.28318530718,-60.));
#40 = VECTOR('',#41,1.);
#41 = DIRECTION('',(0.,1.));
#42 = ( GEOMETRIC_REPRESENTATION_CONTEXT(2) 
PARAMETRIC_REPRESENTATION_CONTEXT() REPRESENTATION_CONTEXT('2D SPACE',''
  ) );
#43 = PCURVE('',#32,#44);
#44 = DEFINITIONAL_REPRESENTATION('',(#45),#49);
#45 = LINE('',#46,#47);
#46 = CARTESIAN_POINT('',(-0.,-60.));
#47 = VECTOR('',#48,1.);
#48 = DIRECTION('',(0.,1.));
#49 = ( GEOMETRIC_REPRESENTATION_CONTEXT(2) 
PARAMETRIC_REPRESENTATION_CONTEXT() REPRESENTATION_CONTEXT('2D SPACE',''
  ) );
#50 = ORIENTED_EDGE('',*,*,#51,.F.);
#51 = EDGE_CURVE('',#24,#24,#52,.T.);
#52 = SURFACE_CURVE('',#53,(#58,#65),.PCURVE_S1.);
#53 = CIRCLE('',#54,31.);
#54 = AXIS2_PLACEMENT_3D('',#55,#56,#57);
#55 = CARTESIAN_POINT('',(0.,0.,5.));
#56 = DIRECTION('',(0.,0.,1.));
#57 = DIRECTION('',(1.,0.,0.));
#58 = PCURVE('',#32,#59);
#59 = DEFINITIONAL_REPRESENTATION('',(#60),#64);
#60 = LINE('',#61,#62);
#61 = CARTESIAN_POINT('',(-0.,0.));
#62 = VECTOR('',#63,1.);
#63 = DIRECTION('',(-1.,0.));
#64 = ( GEOMETRIC_REPRESENTATION_CONTEXT(2) 
PARAMETRIC_REPRESENTATION_CONTEXT() REPRESENTATION_CONTEXT('2D SPACE',''
  ) );
#65 = PCURVE('',#66,#71);
#66 = PLANE('',#67);
#67 = AXIS2_PLACEMENT_3D('',#68,#69,#70);
#68 = CARTESIAN_POINT('',(-1.411551104557E-15,1.557633849995E-15,5.));
#69 = DIRECTION('',(0.,0.,1.));
#70 = DIRECTION('',(1.,0.,-0.));
#71 = DEFINITIONAL_REPRESENTATION('',(#72),#76);
#72 = CIRCLE('',#73,31.);
#73 = AXIS2_PLACEMENT_2D('',#74,#75);
#74 = CARTESIAN_POINT('',(1.411551104557E-15,-1.557633849995E-15));
#75 = DIRECTION('',(1.,0.));
#76 = ( GEOMETRIC_REPRESENTATION_CONTEXT(2) 
PARAMETRIC_REPRESENTATION_CONTEXT() REPRESENTATION_CONTEXT('2D SPACE',''
  ) );
#77 = ORIENTED_EDGE('',*,*,#21,.F.);
#78 = ORIENTED_EDGE('',*,*,#79,.T.);
#79 = EDGE_CURVE('',#22,#22,#80,.T.);
#80 = SURFACE_CURVE('',#81,(#86,#93),.PCURVE_S1.);
#81 = CIRCLE('',#82,31.);
#82 = AXIS2_PLACEMENT_3D('',#83,#84,#85);
#83 = CARTESIAN_POINT('',(0.,0.,65.));
#84 = DIRECTION('',(0.,0.,1.));
#85 = DIRECTION('',(1.,0.,0.));
#86 = PCURVE('',#32,#87);
#87 = DEFINITIONAL_REPRESENTATION('',(#88),#92);
#88 = LINE('',#89,#90);
#89 = CARTESIAN_POINT('',(-0.,-60.));
#90 = VECTOR('',#91,1.);
#91 = DIRECTION('',(-1.,0.));
#92 = ( GEOMETRIC_REPRESENTATION_CONTEXT(2) 
PARAMETRIC_REPRESENTATION_CONTEXT() REPRESENTATION_CONTEXT('2D SPACE',''
  ) );
#93 = PCURVE('',#94,#99);
#94 = PLANE('',#95);
#95 = AXIS2_PLACEMENT_3D('',#96,#97,#98);
#96 = CARTESIAN_POINT('',(-1.411551104557E-15,1.557633849995E-15,65.));
#97 = DIRECTION('',(0.,0.,1.));
#98 = DIRECTION('',(1.,0.,-0.));
#99 = DEFINITIONAL_REPRESENTATION('',(#100),#104);
#100 = CIRCLE('',#101,31.);
#101 = AXIS2_PLACEMENT_2D('',#102,#103);
#102 = CARTESIAN_POINT('',(1.411551104557E-15,-1.557633849995E-15));
#103 = DIRECTION('',(1.,0.));
#104 = ( GEOMETRIC_REPRESENTATION_CONTEXT(2) 
PARAMETRIC_REPRESENTATION_CONTEXT() REPRESENTATION_CONTEXT('2D SPACE',''
  ) );
#105 = FACE_BOUND('',#106,.F.);
#106 = EDGE_LOOP('',(#107));
#107 = ORIENTED_EDGE('',*,*,#108,.F.);
#108 = EDGE_CURVE('',#109,#109,#111,.T.);
#109 = VERTEX_POINT('',#110);
#110 = CARTESIAN_POINT('',(-4.5,-30.67164814613,14.));
#111 = SURFACE_CURVE('',#112,(#164,#219),.PCURVE_S1.);
#112 = B_SPLINE_CURVE_WITH_KNOTS('',8,(#113,#114,#115,#116,#117,#118,
    #119,#120,#121,#122,#123,#124,#125,#126,#127,#128,#129,#130,#131,
    #132,#133,#134,#135,#136,#137,#138,#139,#140,#141,#142,#143,#144,
    #145,#146,#147,#148,#149,#150,#151,#152,#153,#154,#155,#156,#157,
    #158,#159,#160,#161,#162,#163),.UNSPECIFIED.,.T.,.F.,(9,7,7,7,7,7,7,
    9),(0.,0.175233689289,0.298183725734,0.430934791318,0.594794333691,
    0.717169372359,0.825650070073,1.),.UNSPECIFIED.);
#113 = CARTESIAN_POINT('',(-4.5,-30.67164814613,14.));
#114 = CARTESIAN_POINT('',(-4.5,-30.67164814613,14.530188541141));
#115 = CARTESIAN_POINT('',(-4.428610225527,-30.68212265127,
    15.05854934323));
#116 = CARTESIAN_POINT('',(-4.286685897317,-30.70294201606,
    15.581000413589));
#117 = CARTESIAN_POINT('',(-4.071848988785,-30.73352050926,
    16.09265262319));
#118 = CARTESIAN_POINT('',(-3.779608949047,-30.77263199549,
    16.586200368492));
#119 = CARTESIAN_POINT('',(-3.404384755987,-30.81798349989,
    17.050419992928));
#120 = CARTESIAN_POINT('',(-2.940337348561,-30.86527268058,
    17.468976121739));
#121 = CARTESIAN_POINT('',(-1.994737825328,-30.93822792333,
    18.059852282988));
#122 = CARTESIAN_POINT('',(-1.546861628479,-30.96712820603,
    18.27641583595));
#123 = CARTESIAN_POINT('',(-1.051453910352,-30.99111901559,
    18.442581088136));
#124 = CARTESIAN_POINT('',(-0.523529067499,-31.00638437217,
    18.542620251144));
#125 = CARTESIAN_POINT('',(1.841403446187E-02,-31.01019238402,
    18.568257919495));
#126 = CARTESIAN_POINT('',(0.554737314371,-31.00244865193,
    18.518627964892));
#127 = CARTESIAN_POINT('',(1.06682751258,-30.98524588643,18.400506516466
    ));
#128 = CARTESIAN_POINT('',(2.049000490239,-30.93642266855,
    18.043024787698));
#129 = CARTESIAN_POINT('',(2.507179758314,-30.90402567215,
    17.796680865805));
#130 = CARTESIAN_POINT('',(2.911539459591,-30.8680682171,17.504626630014
    ));
#131 = CARTESIAN_POINT('',(3.262579292797,-30.83165303637,
    17.178394887811));
#132 = CARTESIAN_POINT('',(3.561957626008,-30.79707529328,
    16.827077260792));
#133 = CARTESIAN_POINT('',(3.811877437309,-30.76595456586,
    16.457783766636));
#134 = CARTESIAN_POINT('',(4.014665518146,-30.7393522479,16.075956386666
    ));
#135 = CARTESIAN_POINT('',(4.366935161123,-30.69150449561,
    15.204058424475));
#136 = CARTESIAN_POINT('',(4.493404260115,-30.67289179736,
    14.708069217762));
#137 = CARTESIAN_POINT('',(4.555074983559,-30.66339771665,14.20459253156
    ));
#138 = CARTESIAN_POINT('',(4.553603285321,-30.66356983958,
    13.698561690812));
#139 = CARTESIAN_POINT('',(4.489110842221,-30.67346350192,
    13.194479666498));
#140 = CARTESIAN_POINT('',(4.360252908295,-30.69268174825,
    12.697192324274));
#141 = CARTESIAN_POINT('',(4.164273102228,-30.7202107649,12.212732589652
    ));
#142 = CARTESIAN_POINT('',(3.697592420436,-30.77934792222,
    11.404417937877));
#143 = CARTESIAN_POINT('',(3.456776544391,-30.80836022019,
    11.068195152648));
#144 = CARTESIAN_POINT('',(3.172778811728,-30.84025984334,
    10.746953137707));
#145 = CARTESIAN_POINT('',(2.844207842796,-30.87374486658,
    10.447206614088));
#146 = CARTESIAN_POINT('',(2.470416613404,-30.90701781066,
    10.176516424632));
#147 = CARTESIAN_POINT('',(2.051710132168,-30.93776125474,9.943606039916
    ));
#148 = CARTESIAN_POINT('',(1.589781951965,-30.96326917731,9.758615826965
    ));
#149 = CARTESIAN_POINT('',(0.644413301899,-30.9964888352,9.522908949493)
  );
#150 = CARTESIAN_POINT('',(0.179232515266,-31.00554609598,9.461791394709
    ));
#151 = CARTESIAN_POINT('',(-0.295313674436,-31.00645562345,
    9.456688423446));
#152 = CARTESIAN_POINT('',(-0.766517797041,-30.99856280107,9.50941115083
    ));
#153 = CARTESIAN_POINT('',(-1.221626820301,-30.98256089199,
    9.617397024799));
#154 = CARTESIAN_POINT('',(-1.648929531607,-30.9604611995,9.773842613225
    ));
#155 = CARTESIAN_POINT('',(-2.038879192687,-30.93482231229,
    9.967730304626));
#156 = CARTESIAN_POINT('',(-2.940337348547,-30.86527268059,
    10.531023878252));
#157 = CARTESIAN_POINT('',(-3.404384756032,-30.81798349989,
    10.949580007096));
#158 = CARTESIAN_POINT('',(-3.779608948982,-30.77263199549,
    11.413799631493));
#159 = CARTESIAN_POINT('',(-4.071848988834,-30.73352050925,
    11.907347376778));
#160 = CARTESIAN_POINT('',(-4.286685897298,-30.70294201606,
    12.418999586477));
#161 = CARTESIAN_POINT('',(-4.42861022553,-30.68212265127,
    12.941450656721));
#162 = CARTESIAN_POINT('',(-4.5,-30.67164814613,13.469811458874));
#163 = CARTESIAN_POINT('',(-4.5,-30.67164814613,14.));
#164 = PCURVE('',#32,#165);
#165 = DEFINITIONAL_REPRESENTATION('',(#166),#218);
#166 = B_SPLINE_CURVE_WITH_KNOTS('',8,(#167,#168,#169,#170,#171,#172,
    #173,#174,#175,#176,#177,#178,#179,#180,#181,#182,#183,#184,#185,
    #186,#187,#188,#189,#190,#191,#192,#193,#194,#195,#196,#197,#198,
    #199,#200,#201,#202,#203,#204,#205,#206,#207,#208,#209,#210,#211,
    #212,#213,#214,#215,#216,#217),.UNSPECIFIED.,.F.,.F.,(9,7,7,7,7,7,7,
    9),(0.,0.175233689289,0.298183725734,0.430934791318,0.594794333691,
    0.717169372359,0.825650070073,1.),.UNSPECIFIED.);
#167 = CARTESIAN_POINT('',(-4.566712992831,-9.));
#168 = CARTESIAN_POINT('',(-4.566712992831,-9.530188541141));
#169 = CARTESIAN_POINT('',(-4.569040540277,-10.05854934322));
#170 = CARTESIAN_POINT('',(-4.573667766283,-10.58100041359));
#171 = CARTESIAN_POINT('',(-4.580667700987,-11.09265262318));
#172 = CARTESIAN_POINT('',(-4.590178231163,-11.58620036849));
#173 = CARTESIAN_POINT('',(-4.602367793894,-12.05041999292));
#174 = CARTESIAN_POINT('',(-4.617410050241,-12.46897612173));
#175 = CARTESIAN_POINT('',(-4.648003910966,-13.05985228298));
#176 = CARTESIAN_POINT('',(-4.662480426061,-13.27641583595));
#177 = CARTESIAN_POINT('',(-4.678476610518,-13.44258108813));
#178 = CARTESIAN_POINT('',(-4.695506683123,-13.54262025114));
#179 = CARTESIAN_POINT('',(-4.712980887176,-13.56825791949));
#180 = CARTESIAN_POINT('',(-4.730278171522,-13.51862796489));
#181 = CARTESIAN_POINT('',(-4.746804379764,-13.40050651646));
#182 = CARTESIAN_POINT('',(-4.778526499606,-13.04302478769));
#183 = CARTESIAN_POINT('',(-4.793340132978,-12.7966808658));
#184 = CARTESIAN_POINT('',(-4.806432311428,-12.50462663001));
#185 = CARTESIAN_POINT('',(-4.8178151767,-12.1783948878));
#186 = CARTESIAN_POINT('',(-4.827535883997,-11.82707726079));
#187 = CARTESIAN_POINT('',(-4.835659789405,-11.45778376663));
#188 = CARTESIAN_POINT('',(-4.842257316742,-11.07595638666));
#189 = CARTESIAN_POINT('',(-4.853725197452,-10.20405842447));
#190 = CARTESIAN_POINT('',(-4.857848543393,-9.708069217762));
#191 = CARTESIAN_POINT('',(-4.859861395899,-9.20459253156));
#192 = CARTESIAN_POINT('',(-4.859813692824,-8.698561690812));
#193 = CARTESIAN_POINT('',(-4.85770884407,-8.194479666498));
#194 = CARTESIAN_POINT('',(-4.853506210758,-7.697192324274));
#195 = CARTESIAN_POINT('',(-4.847122790855,-7.212732589652));
#196 = CARTESIAN_POINT('',(-4.831948189213,-6.404417937877));
#197 = CARTESIAN_POINT('',(-4.824123904063,-6.068195152648));
#198 = CARTESIAN_POINT('',(-4.814905616785,-5.746953137707));
#199 = CARTESIAN_POINT('',(-4.80425283438,-5.447206614088));
#200 = CARTESIAN_POINT('',(-4.792149710682,-5.176516424632));
#201 = CARTESIAN_POINT('',(-4.778610076261,-4.943606039916));
#202 = CARTESIAN_POINT('',(-4.763689468689,-4.758615826965));
#203 = CARTESIAN_POINT('',(-4.733174883886,-4.522908949493));
#204 = CARTESIAN_POINT('',(-4.718168050142,-4.461791394709));
#205 = CARTESIAN_POINT('',(-4.702864012068,-4.456688423446));
#206 = CARTESIAN_POINT('',(-4.687667012019,-4.509411150831));
#207 = CARTESIAN_POINT('',(-4.672981232867,-4.617397024799));
#208 = CARTESIAN_POINT('',(-4.659181132016,-4.773842613226));
#209 = CARTESIAN_POINT('',(-4.646575764259,-4.967730304626));
#210 = CARTESIAN_POINT('',(-4.617410050242,-5.531023878252));
#211 = CARTESIAN_POINT('',(-4.602367793892,-5.949580007095));
#212 = CARTESIAN_POINT('',(-4.590178231165,-6.413799631496));
#213 = CARTESIAN_POINT('',(-4.580667700986,-6.907347376773));
#214 = CARTESIAN_POINT('',(-4.573667766284,-7.41899958648));
#215 = CARTESIAN_POINT('',(-4.569040540277,-7.94145065672));
#216 = CARTESIAN_POINT('',(-4.566712992831,-8.469811458874));
#217 = CARTESIAN_POINT('',(-4.566712992831,-9.));
#218 = ( GEOMETRIC_REPRESENTATION_CONTEXT(2) 
PARAMETRIC_REPRESENTATION_CONTEXT() REPRESENTATION_CONTEXT('2D SPACE',''
  ) );
#219 = PCURVE('',#220,#225);
#220 = CYLINDRICAL_SURFACE('',#221,4.5);
#221 = AXIS2_PLACEMENT_3D('',#222,#223,#224);
#222 = CARTESIAN_POINT('',(-5.551115123126E-16,-34.,14.));
#223 = DIRECTION('',(-1.110223024625E-16,-1.,-0.));
#224 = DIRECTION('',(-1.,1.110223024625E-16,0.));
#225 = DEFINITIONAL_REPRESENTATION('',(#226),#278);
#226 = B_SPLINE_CURVE_WITH_KNOTS('',8,(#227,#228,#229,#230,#231,#232,
    #233,#234,#235,#236,#237,#238,#239,#240,#241,#242,#243,#244,#245,
    #246,#247,#248,#249,#250,#251,#252,#253,#254,#255,#256,#257,#258,
    #259,#260,#261,#262,#263,#264,#265,#266,#267,#268,#269,#270,#271,
    #272,#273,#274,#275,#276,#277),.UNSPECIFIED.,.F.,.F.,(9,7,7,7,7,7,7,
    9),(0.,0.175233689289,0.298183725734,0.430934791318,0.594794333691,
    0.717169372359,0.825650070073,1.),.UNSPECIFIED.);
#227 = CARTESIAN_POINT('',(0.,-3.32835185387));
#228 = CARTESIAN_POINT('',(-0.117819675809,-3.32835185387));
#229 = CARTESIAN_POINT('',(-0.235233730291,-3.317877348726));
#230 = CARTESIAN_POINT('',(-0.353823069188,-3.297057983932));
#231 = CARTESIAN_POINT('',(-0.474937069536,-3.266479490738));
#232 = CARTESIAN_POINT('',(-0.599853732549,-3.22736800451));
#233 = CARTESIAN_POINT('',(-0.729933428206,-3.182016500105));
#234 = CARTESIAN_POINT('',(-0.866675362506,-3.134727319411));
#235 = CARTESIAN_POINT('',(-1.114459926067,-3.061772076668));
#236 = CARTESIAN_POINT('',(-1.224367334321,-3.032871793969));
#237 = CARTESIAN_POINT('',(-1.338919949925,-3.008880984405));
#238 = CARTESIAN_POINT('',(-1.456107785579,-2.993615627825));
#239 = CARTESIAN_POINT('',(-1.574378668884,-2.989807615979));
#240 = CARTESIAN_POINT('',(-1.692266370892,-2.997551348067));
#241 = CARTESIAN_POINT('',(-1.808179526473,-3.014754113562));
#242 = CARTESIAN_POINT('',(-2.040447671262,-3.063577331449));
#243 = CARTESIAN_POINT('',(-2.15484830145,-3.095974327841));
#244 = CARTESIAN_POINT('',(-2.264155374929,-3.131931782898));
#245 = CARTESIAN_POINT('',(-2.369122458189,-3.168346963624));
#246 = CARTESIAN_POINT('',(-2.47039919219,-3.20292470672));
#247 = CARTESIAN_POINT('',(-2.568539406383,-3.234045434132));
#248 = CARTESIAN_POINT('',(-2.66409286903,-3.2606477521));
#249 = CARTESIAN_POINT('',(-2.873064478873,-3.308495504385));
#250 = CARTESIAN_POINT('',(-2.985786578436,-3.327108202636));
#251 = CARTESIAN_POINT('',(-3.097001244158,-3.336602283344));
#252 = CARTESIAN_POINT('',(-3.207713031665,-3.336430160419));
#253 = CARTESIAN_POINT('',(-3.318874309292,-3.32653649808));
#254 = CARTESIAN_POINT('',(-3.431444010525,-3.307318251743));
#255 = CARTESIAN_POINT('',(-3.546454191322,-3.279789235092));
#256 = CARTESIAN_POINT('',(-3.753867827674,-3.220652077777));
#257 = CARTESIAN_POINT('',(-3.845330823885,-3.191639779803));
#258 = CARTESIAN_POINT('',(-3.939773411726,-3.159740156653));
#259 = CARTESIAN_POINT('',(-4.037433136038,-3.126255133411));
#260 = CARTESIAN_POINT('',(-4.138618815301,-3.092982189333));
#261 = CARTESIAN_POINT('',(-4.24372342316,-3.062238745259));
#262 = CARTESIAN_POINT('',(-4.353270677418,-3.03673082269));
#263 = CARTESIAN_POINT('',(-4.569783969755,-3.003511164794));
#264 = CARTESIAN_POINT('',(-4.673372677595,-2.994453904013));
#265 = CARTESIAN_POINT('',(-4.777573336025,-2.993544376542));
#266 = CARTESIAN_POINT('',(-4.881401785869,-3.001437198929));
#267 = CARTESIAN_POINT('',(-4.983888804989,-3.017439108007));
#268 = CARTESIAN_POINT('',(-5.083971874633,-3.0395388005));
#269 = CARTESIAN_POINT('',(-5.180292169354,-3.065177687703));
#270 = CARTESIAN_POINT('',(-5.41650994467,-3.13472731941));
#271 = CARTESIAN_POINT('',(-5.553251878984,-3.182016500109));
#272 = CARTESIAN_POINT('',(-5.683331574621,-3.227368004505));
#273 = CARTESIAN_POINT('',(-5.808248237642,-3.266479490741));
#274 = CARTESIAN_POINT('',(-5.929362238004,-3.297057983932));
#275 = CARTESIAN_POINT('',(-6.047951576878,-3.317877348726));
#276 = CARTESIAN_POINT('',(-6.165365631374,-3.32835185387));
#277 = CARTESIAN_POINT('',(-6.28318530718,-3.32835185387));
#278 = ( GEOMETRIC_REPRESENTATION_CONTEXT(2) 
PARAMETRIC_REPRESENTATION_CONTEXT() REPRESENTATION_CONTEXT('2D SPACE',''
  ) );
#279 = ADVANCED_FACE('',(#280,#283),#94,.T.);
#280 = FACE_BOUND('',#281,.T.);
#281 = EDGE_LOOP('',(#282));
#282 = ORIENTED_EDGE('',*,*,#79,.T.);
#283 = FACE_BOUND('',#284,.T.);
#284 = EDGE_LOOP('',(#285));
#285 = ORIENTED_EDGE('',*,*,#286,.T.);
#286 = EDGE_CURVE('',#287,#287,#289,.T.);
#287 = VERTEX_POINT('',#288);
#288 = CARTESIAN_POINT('',(21.,0.,65.));
#289 = SURFACE_CURVE('',#290,(#295,#306),.PCURVE_S1.);
#290 = CIRCLE('',#291,21.);
#291 = AXIS2_PLACEMENT_3D('',#292,#293,#294);
#292 = CARTESIAN_POINT('',(0.,0.,65.));
#293 = DIRECTION('',(0.,0.,-1.));
#294 = DIRECTION('',(1.,0.,0.));
#295 = PCURVE('',#94,#296);
#296 = DEFINITIONAL_REPRESENTATION('',(#297),#305);
#297 = ( BOUNDED_CURVE() B_SPLINE_CURVE(2,(#298,#299,#300,#301,#302,#303
,#304),.UNSPECIFIED.,.T.,.F.) B_SPLINE_CURVE_WITH_KNOTS((1,2,2,2,2,1),(
    -2.094395102393,0.,2.094395102393,4.188790204786,6.28318530718,
8.377580409573),.UNSPECIFIED.) CURVE() GEOMETRIC_REPRESENTATION_ITEM() 
RATIONAL_B_SPLINE_CURVE((1.,0.5,1.,0.5,1.,0.5,1.)) REPRESENTATION_ITEM(
  '') );
#298 = CARTESIAN_POINT('',(21.,-1.557633849995E-15));
#299 = CARTESIAN_POINT('',(21.,-36.37306695894));
#300 = CARTESIAN_POINT('',(-10.5,-18.18653347947));
#301 = CARTESIAN_POINT('',(-42.,-6.701150406414E-15));
#302 = CARTESIAN_POINT('',(-10.5,18.186533479473));
#303 = CARTESIAN_POINT('',(21.,36.373066958946));
#304 = CARTESIAN_POINT('',(21.,-1.557633849995E-15));
#305 = ( GEOMETRIC_REPRESENTATION_CONTEXT(2) 
PARAMETRIC_REPRESENTATION_CONTEXT() REPRESENTATION_CONTEXT('2D SPACE',''
  ) );
#306 = PCURVE('',#307,#312);
#307 = CYLINDRICAL_SURFACE('',#308,21.);
#308 = AXIS2_PLACEMENT_3D('',#309,#310,#311);
#309 = CARTESIAN_POINT('',(0.,0.,58.));
#310 = DIRECTION('',(-0.,-0.,-1.));
#311 = DIRECTION('',(1.,0.,0.));
#312 = DEFINITIONAL_REPRESENTATION('',(#313),#317);
#313 = LINE('',#314,#315);
#314 = CARTESIAN_POINT('',(-6.28318530718,-7.));
#315 = VECTOR('',#316,1.);
#316 = DIRECTION('',(1.,-0.));
#317 = ( GEOMETRIC_REPRESENTATION_CONTEXT(2) 
PARAMETRIC_REPRESENTATION_CONTEXT() REPRESENTATION_CONTEXT('2D SPACE',''
  ) );
#318 = ADVANCED_FACE('',(#319,#322,#357,#531,#566),#66,.F.);
#319 = FACE_BOUND('',#320,.F.);
#320 = EDGE_LOOP('',(#321));
#321 = ORIENTED_EDGE('',*,*,#51,.T.);
#322 = FACE_BOUND('',#323,.F.);
#323 = EDGE_LOOP('',(#324));
#324 = ORIENTED_EDGE('',*,*,#325,.T.);
#325 = EDGE_CURVE('',#326,#326,#328,.T.);
#326 = VERTEX_POINT('',#327);
#327 = CARTESIAN_POINT('',(-11.2,-21.65063509461,5.));
#328 = SURFACE_CURVE('',#329,(#334,#345),.PCURVE_S1.);
#329 = CIRCLE('',#330,1.3);
#330 = AXIS2_PLACEMENT_3D('',#331,#332,#333);
#331 = CARTESIAN_POINT('',(-12.5,-21.65063509461,5.));
#332 = DIRECTION('',(0.,0.,-1.));
#333 = DIRECTION('',(1.,0.,0.));
#334 = PCURVE('',#66,#335);
#335 = DEFINITIONAL_REPRESENTATION('',(#336),#344);
#336 = ( BOUNDED_CURVE() B_SPLINE_CURVE(2,(#337,#338,#339,#340,#341,#342
,#343),.UNSPECIFIED.,.T.,.F.) B_SPLINE_CURVE_WITH_KNOTS((1,2,2,2,2,1),(
    -2.094395102393,0.,2.094395102393,4.188790204786,6.28318530718,
8.377580409573),.UNSPECIFIED.) CURVE() GEOMETRIC_REPRESENTATION_ITEM() 
RATIONAL_B_SPLINE_CURVE((1.,0.5,1.,0.5,1.,0.5,1.)) REPRESENTATION_ITEM(
  '') );
#337 = CARTESIAN_POINT('',(-11.2,-21.65063509461));
#338 = CARTESIAN_POINT('',(-11.2,-23.90230114445));
#339 = CARTESIAN_POINT('',(-13.15,-22.77646811953));
#340 = CARTESIAN_POINT('',(-15.1,-21.65063509461));
#341 = CARTESIAN_POINT('',(-13.15,-20.52480206969));
#342 = CARTESIAN_POINT('',(-11.2,-19.39896904477));
#343 = CARTESIAN_POINT('',(-11.2,-21.65063509461));
#344 = ( GEOMETRIC_REPRESENTATION_CONTEXT(2) 
PARAMETRIC_REPRESENTATION_CONTEXT() REPRESENTATION_CONTEXT('2D SPACE',''
  ) );
#345 = PCURVE('',#346,#351);
#346 = CYLINDRICAL_SURFACE('',#347,1.3);
#347 = AXIS2_PLACEMENT_3D('',#348,#349,#350);
#348 = CARTESIAN_POINT('',(-12.5,-21.65063509461,4.));
#349 = DIRECTION('',(-0.,-0.,-1.));
#350 = DIRECTION('',(1.,0.,0.));
#351 = DEFINITIONAL_REPRESENTATION('',(#352),#356);
#352 = LINE('',#353,#354);
#353 = CARTESIAN_POINT('',(-6.28318530718,-1.));
#354 = VECTOR('',#355,1.);
#355 = DIRECTION('',(1.,-0.));
#356 = ( GEOMETRIC_REPRESENTATION_CONTEXT(2) 
PARAMETRIC_REPRESENTATION_CONTEXT() REPRESENTATION_CONTEXT('2D SPACE',''
  ) );
#357 = FACE_BOUND('',#358,.F.);
#358 = EDGE_LOOP('',(#359,#390,#419,#443,#476,#500));
#359 = ORIENTED_EDGE('',*,*,#360,.F.);
#360 = EDGE_CURVE('',#361,#363,#365,.T.);
#361 = VERTEX_POINT('',#362);
#362 = CARTESIAN_POINT('',(27.935,1.906770830488,5.));
#363 = VERTEX_POINT('',#364);
#364 = CARTESIAN_POINT('',(-12.3161880216,25.145805069962,5.));
#365 = SURFACE_CURVE('',#366,(#371,#378),.PCURVE_S1.);
#366 = CIRCLE('',#367,28.);
#367 = AXIS2_PLACEMENT_3D('',#368,#369,#370);
#368 = CARTESIAN_POINT('',(1.471511085026E-13,2.292073341162E-15,5.));
#369 = DIRECTION('',(0.,0.,1.));
#370 = DIRECTION('',(1.,0.,0.));
#371 = PCURVE('',#66,#372);
#372 = DEFINITIONAL_REPRESENTATION('',(#373),#377);
#373 = CIRCLE('',#374,28.);
#374 = AXIS2_PLACEMENT_2D('',#375,#376);
#375 = CARTESIAN_POINT('',(1.485626596071E-13,7.344394911669E-16));
#376 = DIRECTION('',(1.,0.));
#377 = ( GEOMETRIC_REPRESENTATION_CONTEXT(2) 
PARAMETRIC_REPRESENTATION_CONTEXT() REPRESENTATION_CONTEXT('2D SPACE',''
  ) );
#378 = PCURVE('',#379,#384);
#379 = CYLINDRICAL_SURFACE('',#380,28.);
#380 = AXIS2_PLACEMENT_3D('',#381,#382,#383);
#381 = CARTESIAN_POINT('',(1.471511085026E-13,2.292073341162E-15,5.));
#382 = DIRECTION('',(-0.,-0.,-1.));
#383 = DIRECTION('',(1.,0.,0.));
#384 = DEFINITIONAL_REPRESENTATION('',(#385),#389);
#385 = LINE('',#386,#387);
#386 = CARTESIAN_POINT('',(-0.,0.));
#387 = VECTOR('',#388,1.);
#388 = DIRECTION('',(-1.,0.));
#389 = ( GEOMETRIC_REPRESENTATION_CONTEXT(2) 
PARAMETRIC_REPRESENTATION_CONTEXT() REPRESENTATION_CONTEXT('2D SPACE',''
  ) );
#390 = ORIENTED_EDGE('',*,*,#391,.T.);
#391 = EDGE_CURVE('',#361,#392,#394,.T.);
#392 = VERTEX_POINT('',#393);
#393 = CARTESIAN_POINT('',(27.935,-1.906770830488,5.));
#394 = SURFACE_CURVE('',#395,(#400,#407),.PCURVE_S1.);
#395 = CIRCLE('',#396,3.5);
#396 = AXIS2_PLACEMENT_3D('',#397,#398,#399);
#397 = CARTESIAN_POINT('',(25.,0.,5.));
#398 = DIRECTION('',(0.,0.,1.));
#399 = DIRECTION('',(1.,0.,0.));
#400 = PCURVE('',#66,#401);
#401 = DEFINITIONAL_REPRESENTATION('',(#402),#406);
#402 = CIRCLE('',#403,3.5);
#403 = AXIS2_PLACEMENT_2D('',#404,#405);
#404 = CARTESIAN_POINT('',(25.,-1.557633849995E-15));
#405 = DIRECTION('',(1.,0.));
#406 = ( GEOMETRIC_REPRESENTATION_CONTEXT(2) 
PARAMETRIC_REPRESENTATION_CONTEXT() REPRESENTATION_CONTEXT('2D SPACE',''
  ) );
#407 = PCURVE('',#408,#413);
#408 = CYLINDRICAL_SURFACE('',#409,3.5);
#409 = AXIS2_PLACEMENT_3D('',#410,#411,#412);
#410 = CARTESIAN_POINT('',(25.,0.,5.));
#411 = DIRECTION('',(-0.,-0.,-1.));
#412 = DIRECTION('',(1.,0.,0.));
#413 = DEFINITIONAL_REPRESENTATION('',(#414),#418);
#414 = LINE('',#415,#416);
#415 = CARTESIAN_POINT('',(-0.,0.));
#416 = VECTOR('',#417,1.);
#417 = DIRECTION('',(-1.,0.));
#418 = ( GEOMETRIC_REPRESENTATION_CONTEXT(2) 
PARAMETRIC_REPRESENTATION_CONTEXT() REPRESENTATION_CONTEXT('2D SPACE',''
  ) );
#419 = ORIENTED_EDGE('',*,*,#420,.F.);
#420 = EDGE_CURVE('',#421,#392,#423,.T.);
#421 = VERTEX_POINT('',#422);
#422 = CARTESIAN_POINT('',(-12.3161880216,-25.14580506996,5.));
#423 = SURFACE_CURVE('',#424,(#429,#436),.PCURVE_S1.);
#424 = CIRCLE('',#425,28.);
#425 = AXIS2_PLACEMENT_3D('',#426,#427,#428);
#426 = CARTESIAN_POINT('',(1.471511085026E-13,2.292073341162E-15,5.));
#427 = DIRECTION('',(0.,0.,1.));
#428 = DIRECTION('',(1.,0.,0.));
#429 = PCURVE('',#66,#430);
#430 = DEFINITIONAL_REPRESENTATION('',(#431),#435);
#431 = CIRCLE('',#432,28.);
#432 = AXIS2_PLACEMENT_2D('',#433,#434);
#433 = CARTESIAN_POINT('',(1.485626596071E-13,7.344394911669E-16));
#434 = DIRECTION('',(1.,0.));
#435 = ( GEOMETRIC_REPRESENTATION_CONTEXT(2) 
PARAMETRIC_REPRESENTATION_CONTEXT() REPRESENTATION_CONTEXT('2D SPACE',''
  ) );
#436 = PCURVE('',#379,#437);
#437 = DEFINITIONAL_REPRESENTATION('',(#438),#442);
#438 = LINE('',#439,#440);
#439 = CARTESIAN_POINT('',(-0.,0.));
#440 = VECTOR('',#441,1.);
#441 = DIRECTION('',(-1.,0.));
#442 = ( GEOMETRIC_REPRESENTATION_CONTEXT(2) 
PARAMETRIC_REPRESENTATION_CONTEXT() REPRESENTATION_CONTEXT('2D SPACE',''
  ) );
#443 = ORIENTED_EDGE('',*,*,#444,.F.);
#444 = EDGE_CURVE('',#445,#421,#447,.T.);
#445 = VERTEX_POINT('',#446);
#446 = CARTESIAN_POINT('',(-15.61881197839,-23.23903423947,5.));
#447 = SURFACE_CURVE('',#448,(#453,#464),.PCURVE_S1.);
#448 = CIRCLE('',#449,3.5);
#449 = AXIS2_PLACEMENT_3D('',#450,#451,#452);
#450 = CARTESIAN_POINT('',(-12.5,-21.65063509461,5.));
#451 = DIRECTION('',(-0.,0.,-1.));
#452 = DIRECTION('',(-0.891089136685,-0.453828327104,0.));
#453 = PCURVE('',#66,#454);
#454 = DEFINITIONAL_REPRESENTATION('',(#455),#463);
#455 = ( BOUNDED_CURVE() B_SPLINE_CURVE(2,(#456,#457,#458,#459,#460,#461
,#462),.UNSPECIFIED.,.T.,.F.) B_SPLINE_CURVE_WITH_KNOTS((1,2,2,2,2,1),(
    -2.094395102393,0.,2.094395102393,4.188790204786,6.28318530718,
8.377580409573),.UNSPECIFIED.) CURVE() GEOMETRIC_REPRESENTATION_ITEM() 
RATIONAL_B_SPLINE_CURVE((1.,0.5,1.,0.5,1.,0.5,1.)) REPRESENTATION_ITEM(
  '') );
#456 = CARTESIAN_POINT('',(-15.61881197839,-23.23903423947));
#457 = CARTESIAN_POINT('',(-18.37,-17.83709343363));
#458 = CARTESIAN_POINT('',(-12.3161880216,-18.15546511926));
#459 = CARTESIAN_POINT('',(-6.262376043204,-18.47383680488));
#460 = CARTESIAN_POINT('',(-9.565,-23.55740592509));
#461 = CARTESIAN_POINT('',(-12.86762395679,-28.64097504531));
#462 = CARTESIAN_POINT('',(-15.61881197839,-23.23903423947));
#463 = ( GEOMETRIC_REPRESENTATION_CONTEXT(2) 
PARAMETRIC_REPRESENTATION_CONTEXT() REPRESENTATION_CONTEXT('2D SPACE',''
  ) );
#464 = PCURVE('',#465,#470);
#465 = CYLINDRICAL_SURFACE('',#466,3.5);
#466 = AXIS2_PLACEMENT_3D('',#467,#468,#469);
#467 = CARTESIAN_POINT('',(-12.5,-21.65063509461,5.));
#468 = DIRECTION('',(-0.,-0.,-1.));
#469 = DIRECTION('',(1.,0.,0.));
#470 = DEFINITIONAL_REPRESENTATION('',(#471),#475);
#471 = LINE('',#472,#473);
#472 = CARTESIAN_POINT('',(-9.895834856642,0.));
#473 = VECTOR('',#474,1.);
#474 = DIRECTION('',(1.,-0.));
#475 = ( GEOMETRIC_REPRESENTATION_CONTEXT(2) 
PARAMETRIC_REPRESENTATION_CONTEXT() REPRESENTATION_CONTEXT('2D SPACE',''
  ) );
#476 = ORIENTED_EDGE('',*,*,#477,.F.);
#477 = EDGE_CURVE('',#478,#445,#480,.T.);
#478 = VERTEX_POINT('',#479);
#479 = CARTESIAN_POINT('',(-15.61881197839,23.239034239474,5.));
#480 = SURFACE_CURVE('',#481,(#486,#493),.PCURVE_S1.);
#481 = CIRCLE('',#482,28.);
#482 = AXIS2_PLACEMENT_3D('',#483,#484,#485);
#483 = CARTESIAN_POINT('',(1.471511085026E-13,2.292073341162E-15,5.));
#484 = DIRECTION('',(0.,0.,1.));
#485 = DIRECTION('',(1.,0.,0.));
#486 = PCURVE('',#66,#487);
#487 = DEFINITIONAL_REPRESENTATION('',(#488),#492);
#488 = CIRCLE('',#489,28.);
#489 = AXIS2_PLACEMENT_2D('',#490,#491);
#490 = CARTESIAN_POINT('',(1.485626596071E-13,7.344394911669E-16));
#491 = DIRECTION('',(1.,0.));
#492 = ( GEOMETRIC_REPRESENTATION_CONTEXT(2) 
PARAMETRIC_REPRESENTATION_CONTEXT() REPRESENTATION_CONTEXT('2D SPACE',''
  ) );
#493 = PCURVE('',#379,#494);
#494 = DEFINITIONAL_REPRESENTATION('',(#495),#499);
#495 = LINE('',#496,#497);
#496 = CARTESIAN_POINT('',(-0.,0.));
#497 = VECTOR('',#498,1.);
#498 = DIRECTION('',(-1.,0.));
#499 = ( GEOMETRIC_REPRESENTATION_CONTEXT(2) 
PARAMETRIC_REPRESENTATION_CONTEXT() REPRESENTATION_CONTEXT('2D SPACE',''
  ) );
#500 = ORIENTED_EDGE('',*,*,#501,.F.);
#501 = EDGE_CURVE('',#363,#478,#502,.T.);
#502 = SURFACE_CURVE('',#503,(#508,#519),.PCURVE_S1.);
#503 = CIRCLE('',#504,3.5);
#504 = AXIS2_PLACEMENT_3D('',#505,#506,#507);
#505 = CARTESIAN_POINT('',(-12.5,21.650635094611,5.));
#506 = DIRECTION('',(0.,0.,-1.));
#507 = DIRECTION('',(5.251770811363E-02,0.998619992958,0.));
#508 = PCURVE('',#66,#509);
#509 = DEFINITIONAL_REPRESENTATION('',(#510),#518);
#510 = ( BOUNDED_CURVE() B_SPLINE_CURVE(2,(#511,#512,#513,#514,#515,#516
,#517),.UNSPECIFIED.,.T.,.F.) B_SPLINE_CURVE_WITH_KNOTS((1,2,2,2,2,1),(
    -2.094395102393,0.,2.094395102393,4.188790204786,6.28318530718,
8.377580409573),.UNSPECIFIED.) CURVE() GEOMETRIC_REPRESENTATION_ITEM() 
RATIONAL_B_SPLINE_CURVE((1.,0.5,1.,0.5,1.,0.5,1.)) REPRESENTATION_ITEM(
  '') );
#511 = CARTESIAN_POINT('',(-12.3161880216,25.145805069962));
#512 = CARTESIAN_POINT('',(-6.262376043205,24.827433384338));
#513 = CARTESIAN_POINT('',(-9.565,19.743864264123));
#514 = CARTESIAN_POINT('',(-12.86762395679,14.660295143908));
#515 = CARTESIAN_POINT('',(-15.61881197839,20.062235949748));
#516 = CARTESIAN_POINT('',(-18.37,25.464176755587));
#517 = CARTESIAN_POINT('',(-12.3161880216,25.145805069962));
#518 = ( GEOMETRIC_REPRESENTATION_CONTEXT(2) 
PARAMETRIC_REPRESENTATION_CONTEXT() REPRESENTATION_CONTEXT('2D SPACE',''
  ) );
#519 = PCURVE('',#520,#525);
#520 = CYLINDRICAL_SURFACE('',#521,3.5);
#521 = AXIS2_PLACEMENT_3D('',#522,#523,#524);
#522 = CARTESIAN_POINT('',(-12.5,21.650635094611,5.));
#523 = DIRECTION('',(-0.,-0.,-1.));
#524 = DIRECTION('',(1.,0.,0.));
#525 = DEFINITIONAL_REPRESENTATION('',(#526),#530);
#526 = LINE('',#527,#528);
#527 = CARTESIAN_POINT('',(-7.801439754249,0.));
#528 = VECTOR('',#529,1.);
#529 = DIRECTION('',(1.,-0.));
#530 = ( GEOMETRIC_REPRESENTATION_CONTEXT(2) 
PARAMETRIC_REPRESENTATION_CONTEXT() REPRESENTATION_CONTEXT('2D SPACE',''
  ) );
#531 = FACE_BOUND('',#532,.F.);
#532 = EDGE_LOOP('',(#533));
#533 = ORIENTED_EDGE('',*,*,#534,.T.);
#534 = EDGE_CURVE('',#535,#535,#537,.T.);
#535 = VERTEX_POINT('',#536);
#536 = CARTESIAN_POINT('',(-11.2,21.650635094611,5.));
#537 = SURFACE_CURVE('',#538,(#543,#554),.PCURVE_S1.);
#538 = CIRCLE('',#539,1.3);
#539 = AXIS2_PLACEMENT_3D('',#540,#541,#542);
#540 = CARTESIAN_POINT('',(-12.5,21.650635094611,5.));
#541 = DIRECTION('',(0.,0.,-1.));
#542 = DIRECTION('',(1.,0.,0.));
#543 = PCURVE('',#66,#544);
#544 = DEFINITIONAL_REPRESENTATION('',(#545),#553);
#545 = ( BOUNDED_CURVE() B_SPLINE_CURVE(2,(#546,#547,#548,#549,#550,#551
,#552),.UNSPECIFIED.,.T.,.F.) B_SPLINE_CURVE_WITH_KNOTS((1,2,2,2,2,1),(
    -2.094395102393,0.,2.094395102393,4.188790204786,6.28318530718,
8.377580409573),.UNSPECIFIED.) CURVE() GEOMETRIC_REPRESENTATION_ITEM() 
RATIONAL_B_SPLINE_CURVE((1.,0.5,1.,0.5,1.,0.5,1.)) REPRESENTATION_ITEM(
  '') );
#546 = CARTESIAN_POINT('',(-11.2,21.650635094611));
#547 = CARTESIAN_POINT('',(-11.2,19.398969044771));
#548 = CARTESIAN_POINT('',(-13.15,20.524802069691));
#549 = CARTESIAN_POINT('',(-15.1,21.650635094611));
#550 = CARTESIAN_POINT('',(-13.15,22.776468119531));
#551 = CARTESIAN_POINT('',(-11.2,23.902301144451));
#552 = CARTESIAN_POINT('',(-11.2,21.650635094611));
#553 = ( GEOMETRIC_REPRESENTATION_CONTEXT(2) 
PARAMETRIC_REPRESENTATION_CONTEXT() REPRESENTATION_CONTEXT('2D SPACE',''
  ) );
#554 = PCURVE('',#555,#560);
#555 = CYLINDRICAL_SURFACE('',#556,1.3);
#556 = AXIS2_PLACEMENT_3D('',#557,#558,#559);
#557 = CARTESIAN_POINT('',(-12.5,21.650635094611,4.));
#558 = DIRECTION('',(-0.,-0.,-1.));
#559 = DIRECTION('',(1.,0.,0.));
#560 = DEFINITIONAL_REPRESENTATION('',(#561),#565);
#561 = LINE('',#562,#563);
#562 = CARTESIAN_POINT('',(-6.28318530718,-1.));
#563 = VECTOR('',#564,1.);
#564 = DIRECTION('',(1.,-0.));
#565 = ( GEOMETRIC_REPRESENTATION_CONTEXT(2) 
PARAMETRIC_REPRESENTATION_CONTEXT() REPRESENTATION_CONTEXT('2D SPACE',''
  ) );
#566 = FACE_BOUND('',#567,.F.);
#567 = EDGE_LOOP('',(#568));
#568 = ORIENTED_EDGE('',*,*,#569,.T.);
#569 = EDGE_CURVE('',#570,#570,#572,.T.);
#570 = VERTEX_POINT('',#571);
#571 = CARTESIAN_POINT('',(26.3,0.,5.));
#572 = SURFACE_CURVE('',#573,(#578,#589),.PCURVE_S1.);
#573 = CIRCLE('',#574,1.3);
#574 = AXIS2_PLACEMENT_3D('',#575,#576,#577);
#575 = CARTESIAN_POINT('',(25.,0.,5.));
#576 = DIRECTION('',(0.,0.,-1.));
#577 = DIRECTION('',(1.,0.,0.));
#578 = PCURVE('',#66,#579);
#579 = DEFINITIONAL_REPRESENTATION('',(#580),#588);
#580 = ( BOUNDED_CURVE() B_SPLINE_CURVE(2,(#581,#582,#583,#584,#585,#586
,#587),.UNSPECIFIED.,.T.,.F.) B_SPLINE_CURVE_WITH_KNOTS((1,2,2,2,2,1),(
    -2.094395102393,0.,2.094395102393,4.188790204786,6.28318530718,
8.377580409573),.UNSPECIFIED.) CURVE() GEOMETRIC_REPRESENTATION_ITEM() 
RATIONAL_B_SPLINE_CURVE((1.,0.5,1.,0.5,1.,0.5,1.)) REPRESENTATION_ITEM(
  '') );
#581 = CARTESIAN_POINT('',(26.3,-1.557633849995E-15));
#582 = CARTESIAN_POINT('',(26.3,-2.25166604984));
#583 = CARTESIAN_POINT('',(24.35,-1.12583302492));
#584 = CARTESIAN_POINT('',(22.4,-1.876042017773E-15));
#585 = CARTESIAN_POINT('',(24.35,1.12583302492));
#586 = CARTESIAN_POINT('',(26.3,2.25166604984));
#587 = CARTESIAN_POINT('',(26.3,-1.557633849995E-15));
#588 = ( GEOMETRIC_REPRESENTATION_CONTEXT(2) 
PARAMETRIC_REPRESENTATION_CONTEXT() REPRESENTATION_CONTEXT('2D SPACE',''
  ) );
#589 = PCURVE('',#590,#595);
#590 = CYLINDRICAL_SURFACE('',#591,1.3);
#591 = AXIS2_PLACEMENT_3D('',#592,#593,#594);
#592 = CARTESIAN_POINT('',(25.,0.,4.));
#593 = DIRECTION('',(-0.,-0.,-1.));
#594 = DIRECTION('',(1.,0.,0.));
#595 = DEFINITIONAL_REPRESENTATION('',(#596),#600);
#596 = LINE('',#597,#598);
#597 = CARTESIAN_POINT('',(-6.28318530718,-1.));
#598 = VECTOR('',#599,1.);
#599 = DIRECTION('',(1.,-0.));
#600 = ( GEOMETRIC_REPRESENTATION_CONTEXT(2) 
PARAMETRIC_REPRESENTATION_CONTEXT() REPRESENTATION_CONTEXT('2D SPACE',''
  ) );
#601 = ADVANCED_FACE('',(#602),#220,.F.);
#602 = FACE_BOUND('',#603,.T.);
#603 = EDGE_LOOP('',(#604,#605,#628,#793));
#604 = ORIENTED_EDGE('',*,*,#108,.F.);
#605 = ORIENTED_EDGE('',*,*,#606,.T.);
#606 = EDGE_CURVE('',#109,#607,#609,.T.);
#607 = VERTEX_POINT('',#608);
#608 = CARTESIAN_POINT('',(-4.5,-27.63602721087,14.));
#609 = SEAM_CURVE('',#610,(#614,#621),.PCURVE_S1.);
#610 = LINE('',#611,#612);
#611 = CARTESIAN_POINT('',(-4.5,-34.,14.));
#612 = VECTOR('',#613,1.);
#613 = DIRECTION('',(1.110223024625E-16,1.,0.));
#614 = PCURVE('',#220,#615);
#615 = DEFINITIONAL_REPRESENTATION('',(#616),#620);
#616 = LINE('',#617,#618);
#617 = CARTESIAN_POINT('',(-6.28318530718,0.));
#618 = VECTOR('',#619,1.);
#619 = DIRECTION('',(-0.,-1.));
#620 = ( GEOMETRIC_REPRESENTATION_CONTEXT(2) 
PARAMETRIC_REPRESENTATION_CONTEXT() REPRESENTATION_CONTEXT('2D SPACE',''
  ) );
#621 = PCURVE('',#220,#622);
#622 = DEFINITIONAL_REPRESENTATION('',(#623),#627);
#623 = LINE('',#624,#625);
#624 = CARTESIAN_POINT('',(-0.,0.));
#625 = VECTOR('',#626,1.);
#626 = DIRECTION('',(-0.,-1.));
#627 = ( GEOMETRIC_REPRESENTATION_CONTEXT(2) 
PARAMETRIC_REPRESENTATION_CONTEXT() REPRESENTATION_CONTEXT('2D SPACE',''
  ) );
#628 = ORIENTED_EDGE('',*,*,#629,.T.);
#629 = EDGE_CURVE('',#607,#607,#630,.T.);
#630 = SURFACE_CURVE('',#631,(#683,#738),.PCURVE_S1.);
#631 = B_SPLINE_CURVE_WITH_KNOTS('',8,(#632,#633,#634,#635,#636,#637,
    #638,#639,#640,#641,#642,#643,#644,#645,#646,#647,#648,#649,#650,
    #651,#652,#653,#654,#655,#656,#657,#658,#659,#660,#661,#662,#663,
    #664,#665,#666,#667,#668,#669,#670,#671,#672,#673,#674,#675,#676,
    #677,#678,#679,#680,#681,#682),.UNSPECIFIED.,.T.,.F.,(9,7,7,7,7,7,7,
    9),(0.,0.176969357533,0.301104801649,0.42889894146,0.606517559051,
    0.754421907353,0.860939675587,1.),.UNSPECIFIED.);
#632 = CARTESIAN_POINT('',(-4.5,-27.63602721087,14.));
#633 = CARTESIAN_POINT('',(-4.5,-27.63602721087,14.53046368614));
#634 = CARTESIAN_POINT('',(-4.428536117386,-27.64766432124,
    15.059047368358));
#635 = CARTESIAN_POINT('',(-4.286488607454,-27.67079067234,
    15.581629574089));
#636 = CARTESIAN_POINT('',(-4.071522671256,-27.70474144034,
    16.093297330895));
#637 = CARTESIAN_POINT('',(-3.779200343469,-27.74813573073,
    16.586747207289));
#638 = CARTESIAN_POINT('',(-3.40398845868,-27.79840924727,
    17.050789065098));
#639 = CARTESIAN_POINT('',(-2.940074844444,-27.85079398315,
    17.469140152516));
#640 = CARTESIAN_POINT('',(-1.995023690166,-27.9315733146,
    18.059673654812));
#641 = CARTESIAN_POINT('',(-1.547241627832,-27.96358410522,
    18.276270033481));
#642 = CARTESIAN_POINT('',(-1.051822404114,-27.99015958903,
    18.442514663117));
#643 = CARTESIAN_POINT('',(-0.523780764146,-28.00706753403,
    18.542622371852));
#644 = CARTESIAN_POINT('',(1.826195333728E-02,-28.01128835445,
    18.568289532618));
#645 = CARTESIAN_POINT('',(0.554713378272,-28.00271543986,
    18.518647986277));
#646 = CARTESIAN_POINT('',(1.066862903146,-27.98366449205,
    18.400493635354));
#647 = CARTESIAN_POINT('',(2.025236551884,-27.93090530207,
    18.051674153908));
#648 = CARTESIAN_POINT('',(2.464447163873,-27.89703536023,
    17.819478951286));
#649 = CARTESIAN_POINT('',(2.854856684404,-27.85940294421,
    17.545041635368));
#650 = CARTESIAN_POINT('',(3.196740986435,-27.82099349815,
    17.238514335886));
#651 = CARTESIAN_POINT('',(3.491418843577,-27.78410858745,
    16.908003381041));
#652 = CARTESIAN_POINT('',(3.740706596447,-27.75038670063,
    16.559965693327));
#653 = CARTESIAN_POINT('',(3.946612195212,-27.72096418984,
    16.199433887299));
#654 = CARTESIAN_POINT('',(4.339370851254,-27.66266769602,15.31728350256
    ));
#655 = CARTESIAN_POINT('',(4.488336477733,-27.638357168,14.785779899072)
  );
#656 = CARTESIAN_POINT('',(4.562302299338,-27.62564366133,14.24475245152
    ));
#657 = CARTESIAN_POINT('',(4.563476227067,-27.62536254926,
    13.700359346104));
#658 = CARTESIAN_POINT('',(4.492061961647,-27.63761485392,
    13.158167110385));
#659 = CARTESIAN_POINT('',(4.346354184102,-27.66183763396,12.62418637623
    ));
#660 = CARTESIAN_POINT('',(4.122809999122,-27.69653798769,
    12.106015581671));
#661 = CARTESIAN_POINT('',(3.560913682072,-27.77384213478,
    11.206793503755));
#662 = CARTESIAN_POINT('',(3.240064070528,-27.81524769768,
    10.804567114799));
#663 = CARTESIAN_POINT('',(2.849900146265,-27.86100642063,
    10.426376912614));
#664 = CARTESIAN_POINT('',(2.390680357155,-27.9075641327,10.089720486129
    ));
#665 = CARTESIAN_POINT('',(1.866475029811,-27.94988345805,9.811844584214
    ));
#666 = CARTESIAN_POINT('',(1.284898281341,-27.98237029521,9.60969431805)
  );
#667 = CARTESIAN_POINT('',(0.657209706043,-28.,9.5));
#668 = CARTESIAN_POINT('',(-0.473309351302,-28.,9.5));
#669 = CARTESIAN_POINT('',(-0.936323085955,-27.99085611317,
    9.556893832685));
#670 = CARTESIAN_POINT('',(-1.380973586352,-27.9732653788,9.666353352478
    ));
#671 = CARTESIAN_POINT('',(-1.800166019567,-27.94875628959,9.82276786024
    ));
#672 = CARTESIAN_POINT('',(-2.18795829703,-27.9194577793,10.019282216681
    ));
#673 = CARTESIAN_POINT('',(-2.539801153651,-27.88770732285,
    10.247831858621));
#674 = CARTESIAN_POINT('',(-2.852800308241,-27.85564735983,
    10.499181074859));
#675 = CARTESIAN_POINT('',(-3.482579660318,-27.7848955314,
    11.107351925766));
#676 = CARTESIAN_POINT('',(-3.781357101946,-27.74603998692,
    11.482649892747));
#677 = CARTESIAN_POINT('',(-4.025085337399,-27.71105334592,
    11.879231351439));
#678 = CARTESIAN_POINT('',(-4.216687140467,-27.68169526612,
    12.290420459571));
#679 = CARTESIAN_POINT('',(-4.35865901685,-27.65904252119,
    12.711369858387));
#680 = CARTESIAN_POINT('',(-4.452794991651,-27.64371342038,
    13.138460181389));
#681 = CARTESIAN_POINT('',(-4.5,-27.63602721087,13.568875248482));
#682 = CARTESIAN_POINT('',(-4.5,-27.63602721087,14.));
#683 = PCURVE('',#220,#684);
#684 = DEFINITIONAL_REPRESENTATION('',(#685),#737);
#685 = B_SPLINE_CURVE_WITH_KNOTS('',8,(#686,#687,#688,#689,#690,#691,
    #692,#693,#694,#695,#696,#697,#698,#699,#700,#701,#702,#703,#704,
    #705,#706,#707,#708,#709,#710,#711,#712,#713,#714,#715,#716,#717,
    #718,#719,#720,#721,#722,#723,#724,#725,#726,#727,#728,#729,#730,
    #731,#732,#733,#734,#735,#736),.UNSPECIFIED.,.F.,.F.,(9,7,7,7,7,7,7,
    9),(0.,0.176969357533,0.301104801649,0.42889894146,0.606517559051,
    0.754421907353,0.860939675587,1.),.UNSPECIFIED.);
#686 = CARTESIAN_POINT('',(0.,-6.363972789129));
#687 = CARTESIAN_POINT('',(-0.117880819142,-6.363972789129));
#688 = CARTESIAN_POINT('',(-0.235344397915,-6.352335678758));
#689 = CARTESIAN_POINT('',(-0.35396678529,-6.329209327658));
#690 = CARTESIAN_POINT('',(-0.475093678891,-6.295258559651));
#691 = CARTESIAN_POINT('',(-0.600001774367,-6.251864269261));
#692 = CARTESIAN_POINT('',(-0.730051578182,-6.201590752724));
#693 = CARTESIAN_POINT('',(-0.866744148991,-6.14920601685));
#694 = CARTESIAN_POINT('',(-1.114385018146,-6.068426685399));
#695 = CARTESIAN_POINT('',(-1.224278630829,-6.036415894779));
#696 = CARTESIAN_POINT('',(-1.338838789256,-6.009840410961));
#697 = CARTESIAN_POINT('',(-1.456053495241,-5.992932465967));
#698 = CARTESIAN_POINT('',(-1.574344808332,-5.988711645542));
#699 = CARTESIAN_POINT('',(-1.692259900282,-5.997284560134));
#700 = CARTESIAN_POINT('',(-1.808187895774,-6.01633550795));
#701 = CARTESIAN_POINT('',(-2.034827881266,-6.069094697921));
#702 = CARTESIAN_POINT('',(-2.144192622405,-6.102964639766));
#703 = CARTESIAN_POINT('',(-2.248889102547,-6.140597055781));
#704 = CARTESIAN_POINT('',(-2.34958434741,-6.179006501848));
#705 = CARTESIAN_POINT('',(-2.446830226584,-6.215891412542));
#706 = CARTESIAN_POINT('',(-2.541122429559,-6.249613299366));
#707 = CARTESIAN_POINT('',(-2.632924512817,-6.27903581016));
#708 = CARTESIAN_POINT('',(-2.847509804869,-6.337332303973));
#709 = CARTESIAN_POINT('',(-2.968874877467,-6.361642831991));
#710 = CARTESIAN_POINT('',(-3.088355091891,-6.374356338669));
#711 = CARTESIAN_POINT('',(-3.20718393524,-6.374637450739));
#712 = CARTESIAN_POINT('',(-3.326525277825,-6.362385146077));
#713 = CARTESIAN_POINT('',(-3.447550599937,-6.338162366034));
#714 = CARTESIAN_POINT('',(-3.571527667296,-6.303462012308));
#715 = CARTESIAN_POINT('',(-3.807159501541,-6.226157865213));
#716 = CARTESIAN_POINT('',(-3.920744651943,-6.184752302311));
#717 = CARTESIAN_POINT('',(-4.03983029802,-6.138993579363));
#718 = CARTESIAN_POINT('',(-4.163924705957,-6.092435867291));
#719 = CARTESIAN_POINT('',(-4.292871639939,-6.050116541949));
#720 = CARTESIAN_POINT('',(-4.426855714665,-6.017629704782));
#721 = CARTESIAN_POINT('',(-4.566342379042,-6.));
#722 = CARTESIAN_POINT('',(-4.81756883623,-6.));
#723 = CARTESIAN_POINT('',(-4.920460678586,-6.009143886827));
#724 = CARTESIAN_POINT('',(-5.021045318355,-6.026734621196));
#725 = CARTESIAN_POINT('',(-5.119194156979,-6.051243710407));
#726 = CARTESIAN_POINT('',(-5.214673258132,-6.080542220694));
#727 = CARTESIAN_POINT('',(-5.307112677827,-6.112292677143));
#728 = CARTESIAN_POINT('',(-5.395947103335,-6.144352640164));
#729 = CARTESIAN_POINT('',(-5.590501842364,-6.215104468594));
#730 = CARTESIAN_POINT('',(-5.696197019829,-6.253960013079));
#731 = CARTESIAN_POINT('',(-5.79841299576,-6.288946654076));
#732 = CARTESIAN_POINT('',(-5.897937898334,-6.318304733873));
#733 = CARTESIAN_POINT('',(-5.995482347108,-6.340957478807));
#734 = CARTESIAN_POINT('',(-6.091732278471,-6.356286579619));
#735 = CARTESIAN_POINT('',(-6.187379806842,-6.363972789129));
#736 = CARTESIAN_POINT('',(-6.28318530718,-6.363972789129));
#737 = ( GEOMETRIC_REPRESENTATION_CONTEXT(2) 
PARAMETRIC_REPRESENTATION_CONTEXT() REPRESENTATION_CONTEXT('2D SPACE',''
  ) );
#738 = PCURVE('',#379,#739);
#739 = DEFINITIONAL_REPRESENTATION('',(#740),#792);
#740 = B_SPLINE_CURVE_WITH_KNOTS('',8,(#741,#742,#743,#744,#745,#746,
    #747,#748,#749,#750,#751,#752,#753,#754,#755,#756,#757,#758,#759,
    #760,#761,#762,#763,#764,#765,#766,#767,#768,#769,#770,#771,#772,
    #773,#774,#775,#776,#777,#778,#779,#780,#781,#782,#783,#784,#785,
    #786,#787,#788,#789,#790,#791),.UNSPECIFIED.,.F.,.F.,(9,7,7,7,7,7,7,
    9),(0.,0.176969357533,0.301104801649,0.42889894146,0.606517559051,
    0.754421907353,0.860939675587,1.),.UNSPECIFIED.);
#741 = CARTESIAN_POINT('',(-4.550974676984,-9.));
#742 = CARTESIAN_POINT('',(-4.550974676984,-9.53046368614));
#743 = CARTESIAN_POINT('',(-4.553560570122,-10.05904736835));
#744 = CARTESIAN_POINT('',(-4.558700523543,-10.58162957409));
#745 = CARTESIAN_POINT('',(-4.566472856385,-11.09329733089));
#746 = CARTESIAN_POINT('',(-4.577026489459,-11.58674720729));
#747 = CARTESIAN_POINT('',(-4.590543205287,-12.05078906509));
#748 = CARTESIAN_POINT('',(-4.607210681666,-12.46914015251));
#749 = CARTESIAN_POINT('',(-4.641085582535,-13.05967365481));
#750 = CARTESIAN_POINT('',(-4.657117049451,-13.27627003348));
#751 = CARTESIAN_POINT('',(-4.674831360544,-13.44251466311));
#752 = CARTESIAN_POINT('',(-4.6936903127,-13.54262237185));
#753 = CARTESIAN_POINT('',(-4.713038353801,-13.56828953261));
#754 = CARTESIAN_POINT('',(-4.732192621137,-13.51864798627));
#755 = CARTESIAN_POINT('',(-4.750493408206,-13.40049363535));
#756 = CARTESIAN_POINT('',(-4.784772864159,-13.0516741539));
#757 = CARTESIAN_POINT('',(-4.800501724012,-12.81947895128));
#758 = CARTESIAN_POINT('',(-4.814505771869,-12.54504163536));
#759 = CARTESIAN_POINT('',(-4.826790390569,-12.23851433588));
#760 = CARTESIAN_POINT('',(-4.837395647919,-11.90800338104));
#761 = CARTESIAN_POINT('',(-4.846379404664,-11.55996569332));
#762 = CARTESIAN_POINT('',(-4.85380777348,-11.19943388729));
#763 = CARTESIAN_POINT('',(-4.867988541711,-10.31728350256));
#764 = CARTESIAN_POINT('',(-4.873378580587,-9.785779899072));
#765 = CARTESIAN_POINT('',(-4.876059033694,-9.24475245152));
#766 = CARTESIAN_POINT('',(-4.876102198577,-8.700359346104));
#767 = CARTESIAN_POINT('',(-4.873514191283,-8.158167110385));
#768 = CARTESIAN_POINT('',(-4.868239010259,-7.62418637623));
#769 = CARTESIAN_POINT('',(-4.860160863806,-7.106015581671));
#770 = CARTESIAN_POINT('',(-4.839904112529,-6.206793503755));
#771 = CARTESIAN_POINT('',(-4.828350578202,-5.804567114799));
#772 = CARTESIAN_POINT('',(-4.814322267363,-5.426376912614));
#773 = CARTESIAN_POINT('',(-4.79784183324,-5.089720486129));
#774 = CARTESIAN_POINT('',(-4.779068497048,-4.811844584214));
#775 = CARTESIAN_POINT('',(-4.758278206846,-4.60969431805));
#776 = CARTESIAN_POINT('',(-4.735860755601,-4.5));
#777 = CARTESIAN_POINT('',(-4.695485074981,-4.5));
#778 = CARTESIAN_POINT('',(-4.678948862778,-4.556893832685));
#779 = CARTESIAN_POINT('',(-4.663061159316,-4.666353352478));
#780 = CARTESIAN_POINT('',(-4.648069204745,-4.82276786024));
#781 = CARTESIAN_POINT('',(-4.634183209505,-5.019282216682));
#782 = CARTESIAN_POINT('',(-4.621567884741,-5.247831858621));
#783 = CARTESIAN_POINT('',(-4.610331402726,-5.499181074859));
#784 = CARTESIAN_POINT('',(-4.587697789992,-6.107351925766));
#785 = CARTESIAN_POINT('',(-4.57693894809,-6.482649892747));
#786 = CARTESIAN_POINT('',(-4.568146082091,-6.879231351439));
#787 = CARTESIAN_POINT('',(-4.561223580865,-7.290420459571));
#788 = CARTESIAN_POINT('',(-4.556089060168,-7.711369858387));
#789 = CARTESIAN_POINT('',(-4.552682770918,-8.138460181389));
#790 = CARTESIAN_POINT('',(-4.550974676984,-8.568875248482));
#791 = CARTESIAN_POINT('',(-4.550974676984,-9.));
#792 = ( GEOMETRIC_REPRESENTATION_CONTEXT(2) 
PARAMETRIC_REPRESENTATION_CONTEXT() REPRESENTATION_CONTEXT('2D SPACE',''
  ) );
#793 = ORIENTED_EDGE('',*,*,#606,.F.);
#794 = ADVANCED_FACE('',(#795),#307,.F.);
#795 = FACE_BOUND('',#796,.T.);
#796 = EDGE_LOOP('',(#797,#798,#821,#847));
#797 = ORIENTED_EDGE('',*,*,#286,.F.);
#798 = ORIENTED_EDGE('',*,*,#799,.T.);
#799 = EDGE_CURVE('',#287,#800,#802,.T.);
#800 = VERTEX_POINT('',#801);
#801 = CARTESIAN_POINT('',(21.,0.,58.));
#802 = SEAM_CURVE('',#803,(#807,#814),.PCURVE_S1.);
#803 = LINE('',#804,#805);
#804 = CARTESIAN_POINT('',(21.,0.,65.));
#805 = VECTOR('',#806,1.);
#806 = DIRECTION('',(0.,0.,-1.));
#807 = PCURVE('',#307,#808);
#808 = DEFINITIONAL_REPRESENTATION('',(#809),#813);
#809 = LINE('',#810,#811);
#810 = CARTESIAN_POINT('',(-6.28318530718,-7.));
#811 = VECTOR('',#812,1.);
#812 = DIRECTION('',(0.,1.));
#813 = ( GEOMETRIC_REPRESENTATION_CONTEXT(2) 
PARAMETRIC_REPRESENTATION_CONTEXT() REPRESENTATION_CONTEXT('2D SPACE',''
  ) );
#814 = PCURVE('',#307,#815);
#815 = DEFINITIONAL_REPRESENTATION('',(#816),#820);
#816 = LINE('',#817,#818);
#817 = CARTESIAN_POINT('',(-0.,-7.));
#818 = VECTOR('',#819,1.);
#819 = DIRECTION('',(0.,1.));
#820 = ( GEOMETRIC_REPRESENTATION_CONTEXT(2) 
PARAMETRIC_REPRESENTATION_CONTEXT() REPRESENTATION_CONTEXT('2D SPACE',''
  ) );
#821 = ORIENTED_EDGE('',*,*,#822,.F.);
#822 = EDGE_CURVE('',#800,#800,#823,.T.);
#823 = SURFACE_CURVE('',#824,(#829,#835),.PCURVE_S1.);
#824 = CIRCLE('',#825,21.);
#825 = AXIS2_PLACEMENT_3D('',#826,#827,#828);
#826 = CARTESIAN_POINT('',(0.,0.,58.));
#827 = DIRECTION('',(0.,0.,1.));
#828 = DIRECTION('',(1.,0.,0.));
#829 = PCURVE('',#307,#830);
#830 = DEFINITIONAL_REPRESENTATION('',(#831),#834);
#831 = B_SPLINE_CURVE_WITH_KNOTS('',1,(#832,#833),.UNSPECIFIED.,.F.,.F.,
  (2,2),(0.,6.28318530718),.PIECEWISE_BEZIER_KNOTS.);
#832 = CARTESIAN_POINT('',(0.,0.));
#833 = CARTESIAN_POINT('',(-6.28318530718,0.));
#834 = ( GEOMETRIC_REPRESENTATION_CONTEXT(2) 
PARAMETRIC_REPRESENTATION_CONTEXT() REPRESENTATION_CONTEXT('2D SPACE',''
  ) );
#835 = PCURVE('',#836,#841);
#836 = PLANE('',#837);
#837 = AXIS2_PLACEMENT_3D('',#838,#839,#840);
#838 = CARTESIAN_POINT('',(-1.041859148601E-15,1.846063891983E-16,58.));
#839 = DIRECTION('',(0.,0.,1.));
#840 = DIRECTION('',(1.,0.,-0.));
#841 = DEFINITIONAL_REPRESENTATION('',(#842),#846);
#842 = CIRCLE('',#843,21.);
#843 = AXIS2_PLACEMENT_2D('',#844,#845);
#844 = CARTESIAN_POINT('',(1.041859148601E-15,-1.846063891983E-16));
#845 = DIRECTION('',(1.,0.));
#846 = ( GEOMETRIC_REPRESENTATION_CONTEXT(2) 
PARAMETRIC_REPRESENTATION_CONTEXT() REPRESENTATION_CONTEXT('2D SPACE',''
  ) );
#847 = ORIENTED_EDGE('',*,*,#799,.F.);
#848 = ADVANCED_FACE('',(#849),#346,.F.);
#849 = FACE_BOUND('',#850,.T.);
#850 = EDGE_LOOP('',(#851,#852,#875,#902));
#851 = ORIENTED_EDGE('',*,*,#325,.T.);
#852 = ORIENTED_EDGE('',*,*,#853,.T.);
#853 = EDGE_CURVE('',#326,#854,#856,.T.);
#854 = VERTEX_POINT('',#855);
#855 = CARTESIAN_POINT('',(-11.2,-21.65063509461,13.));
#856 = SEAM_CURVE('',#857,(#861,#868),.PCURVE_S1.);
#857 = LINE('',#858,#859);
#858 = CARTESIAN_POINT('',(-11.2,-21.65063509461,4.));
#859 = VECTOR('',#860,1.);
#860 = DIRECTION('',(0.,0.,1.));
#861 = PCURVE('',#346,#862);
#862 = DEFINITIONAL_REPRESENTATION('',(#863),#867);
#863 = LINE('',#864,#865);
#864 = CARTESIAN_POINT('',(-6.28318530718,0.));
#865 = VECTOR('',#866,1.);
#866 = DIRECTION('',(-0.,-1.));
#867 = ( GEOMETRIC_REPRESENTATION_CONTEXT(2) 
PARAMETRIC_REPRESENTATION_CONTEXT() REPRESENTATION_CONTEXT('2D SPACE',''
  ) );
#868 = PCURVE('',#346,#869);
#869 = DEFINITIONAL_REPRESENTATION('',(#870),#874);
#870 = LINE('',#871,#872);
#871 = CARTESIAN_POINT('',(-0.,0.));
#872 = VECTOR('',#873,1.);
#873 = DIRECTION('',(-0.,-1.));
#874 = ( GEOMETRIC_REPRESENTATION_CONTEXT(2) 
PARAMETRIC_REPRESENTATION_CONTEXT() REPRESENTATION_CONTEXT('2D SPACE',''
  ) );
#875 = ORIENTED_EDGE('',*,*,#876,.T.);
#876 = EDGE_CURVE('',#854,#854,#877,.T.);
#877 = SURFACE_CURVE('',#878,(#883,#890),.PCURVE_S1.);
#878 = CIRCLE('',#879,1.3);
#879 = AXIS2_PLACEMENT_3D('',#880,#881,#882);
#880 = CARTESIAN_POINT('',(-12.5,-21.65063509461,13.));
#881 = DIRECTION('',(0.,0.,1.));
#882 = DIRECTION('',(1.,0.,0.));
#883 = PCURVE('',#346,#884);
#884 = DEFINITIONAL_REPRESENTATION('',(#885),#889);
#885 = LINE('',#886,#887);
#886 = CARTESIAN_POINT('',(-0.,-9.));
#887 = VECTOR('',#888,1.);
#888 = DIRECTION('',(-1.,0.));
#889 = ( GEOMETRIC_REPRESENTATION_CONTEXT(2) 
PARAMETRIC_REPRESENTATION_CONTEXT() REPRESENTATION_CONTEXT('2D SPACE',''
  ) );
#890 = PCURVE('',#891,#896);
#891 = PLANE('',#892);
#892 = AXIS2_PLACEMENT_3D('',#893,#894,#895);
#893 = CARTESIAN_POINT('',(-12.5,-21.65063509461,13.));
#894 = DIRECTION('',(0.,0.,1.));
#895 = DIRECTION('',(1.,0.,-0.));
#896 = DEFINITIONAL_REPRESENTATION('',(#897),#901);
#897 = CIRCLE('',#898,1.3);
#898 = AXIS2_PLACEMENT_2D('',#899,#900);
#899 = CARTESIAN_POINT('',(0.,0.));
#900 = DIRECTION('',(1.,0.));
#901 = ( GEOMETRIC_REPRESENTATION_CONTEXT(2) 
PARAMETRIC_REPRESENTATION_CONTEXT() REPRESENTATION_CONTEXT('2D SPACE',''
  ) );
#902 = ORIENTED_EDGE('',*,*,#853,.F.);
#903 = ADVANCED_FACE('',(#904,#1202),#379,.F.);
#904 = FACE_BOUND('',#905,.T.);
#905 = EDGE_LOOP('',(#906,#907,#928,#961,#984,#1011,#1012,#1040,#1059,
    #1060,#1081,#1109,#1128,#1129,#1150,#1183));
#906 = ORIENTED_EDGE('',*,*,#360,.F.);
#907 = ORIENTED_EDGE('',*,*,#908,.F.);
#908 = EDGE_CURVE('',#909,#361,#911,.T.);
#909 = VERTEX_POINT('',#910);
#910 = CARTESIAN_POINT('',(27.935,1.906770830488,13.));
#911 = SURFACE_CURVE('',#912,(#916,#922),.PCURVE_S1.);
#912 = LINE('',#913,#914);
#913 = CARTESIAN_POINT('',(27.935,1.906770830488,5.));
#914 = VECTOR('',#915,1.);
#915 = DIRECTION('',(-0.,-0.,-1.));
#916 = PCURVE('',#379,#917);
#917 = DEFINITIONAL_REPRESENTATION('',(#918),#921);
#918 = B_SPLINE_CURVE_WITH_KNOTS('',1,(#919,#920),.UNSPECIFIED.,.F.,.F.,
  (2,2),(-8.0000006,5.999999999062E-07),.PIECEWISE_BEZIER_KNOTS.);
#919 = CARTESIAN_POINT('',(-6.815170283453E-02,-8.0000006));
#920 = CARTESIAN_POINT('',(-6.815170283453E-02,5.999999999062E-07));
#921 = ( GEOMETRIC_REPRESENTATION_CONTEXT(2) 
PARAMETRIC_REPRESENTATION_CONTEXT() REPRESENTATION_CONTEXT('2D SPACE',''
  ) );
#922 = PCURVE('',#408,#923);
#923 = DEFINITIONAL_REPRESENTATION('',(#924),#927);
#924 = B_SPLINE_CURVE_WITH_KNOTS('',1,(#925,#926),.UNSPECIFIED.,.F.,.F.,
  (2,2),(-8.0000006,5.999999999062E-07),.PIECEWISE_BEZIER_KNOTS.);
#925 = CARTESIAN_POINT('',(-0.576140655324,-8.0000006));
#926 = CARTESIAN_POINT('',(-0.576140655324,5.999999999062E-07));
#927 = ( GEOMETRIC_REPRESENTATION_CONTEXT(2) 
PARAMETRIC_REPRESENTATION_CONTEXT() REPRESENTATION_CONTEXT('2D SPACE',''
  ) );
#928 = ORIENTED_EDGE('',*,*,#929,.T.);
#929 = EDGE_CURVE('',#909,#930,#932,.T.);
#930 = VERTEX_POINT('',#931);
#931 = CARTESIAN_POINT('',(28.,2.292073341162E-15,13.));
#932 = SURFACE_CURVE('',#933,(#938,#945),.PCURVE_S1.);
#933 = CIRCLE('',#934,28.);
#934 = AXIS2_PLACEMENT_3D('',#935,#936,#937);
#935 = CARTESIAN_POINT('',(1.471511085026E-13,2.292073341162E-15,13.));
#936 = DIRECTION('',(0.,0.,-1.));
#937 = DIRECTION('',(1.,0.,0.));
#938 = PCURVE('',#379,#939);
#939 = DEFINITIONAL_REPRESENTATION('',(#940),#944);
#940 = LINE('',#941,#942);
#941 = CARTESIAN_POINT('',(-6.28318530718,-8.));
#942 = VECTOR('',#943,1.);
#943 = DIRECTION('',(1.,-0.));
#944 = ( GEOMETRIC_REPRESENTATION_CONTEXT(2) 
PARAMETRIC_REPRESENTATION_CONTEXT() REPRESENTATION_CONTEXT('2D SPACE',''
  ) );
#945 = PCURVE('',#946,#951);
#946 = PLANE('',#947);
#947 = AXIS2_PLACEMENT_3D('',#948,#949,#950);
#948 = CARTESIAN_POINT('',(25.,2.47821720825E-16,13.));
#949 = DIRECTION('',(0.,0.,1.));
#950 = DIRECTION('',(1.,0.,-0.));
#951 = DEFINITIONAL_REPRESENTATION('',(#952),#960);
#952 = ( BOUNDED_CURVE() B_SPLINE_CURVE(2,(#953,#954,#955,#956,#957,#958
,#959),.UNSPECIFIED.,.T.,.F.) B_SPLINE_CURVE_WITH_KNOTS((1,2,2,2,2,1),(
    -2.094395102393,0.,2.094395102393,4.188790204786,6.28318530718,
8.377580409573),.UNSPECIFIED.) CURVE() GEOMETRIC_REPRESENTATION_ITEM() 
RATIONAL_B_SPLINE_CURVE((1.,0.5,1.,0.5,1.,0.5,1.)) REPRESENTATION_ITEM(
  '') );
#953 = CARTESIAN_POINT('',(3.,2.044251620337E-15));
#954 = CARTESIAN_POINT('',(3.,-48.49742261192));
#955 = CARTESIAN_POINT('',(-39.,-24.24871130596));
#956 = CARTESIAN_POINT('',(-81.,-4.813770454889E-15));
#957 = CARTESIAN_POINT('',(-39.,24.248711305964));
#958 = CARTESIAN_POINT('',(3.,48.497422611929));
#959 = CARTESIAN_POINT('',(3.,2.044251620337E-15));
#960 = ( GEOMETRIC_REPRESENTATION_CONTEXT(2) 
PARAMETRIC_REPRESENTATION_CONTEXT() REPRESENTATION_CONTEXT('2D SPACE',''
  ) );
#961 = ORIENTED_EDGE('',*,*,#962,.T.);
#962 = EDGE_CURVE('',#930,#963,#965,.T.);
#963 = VERTEX_POINT('',#964);
#964 = CARTESIAN_POINT('',(28.,2.292073341162E-15,59.));
#965 = SEAM_CURVE('',#966,(#970,#977),.PCURVE_S1.);
#966 = LINE('',#967,#968);
#967 = CARTESIAN_POINT('',(28.,2.292073341162E-15,5.));
#968 = VECTOR('',#969,1.);
#969 = DIRECTION('',(0.,0.,1.));
#970 = PCURVE('',#379,#971);
#971 = DEFINITIONAL_REPRESENTATION('',(#972),#976);
#972 = LINE('',#973,#974);
#973 = CARTESIAN_POINT('',(-6.28318530718,0.));
#974 = VECTOR('',#975,1.);
#975 = DIRECTION('',(-0.,-1.));
#976 = ( GEOMETRIC_REPRESENTATION_CONTEXT(2) 
PARAMETRIC_REPRESENTATION_CONTEXT() REPRESENTATION_CONTEXT('2D SPACE',''
  ) );
#977 = PCURVE('',#379,#978);
#978 = DEFINITIONAL_REPRESENTATION('',(#979),#983);
#979 = LINE('',#980,#981);
#980 = CARTESIAN_POINT('',(-0.,0.));
#981 = VECTOR('',#982,1.);
#982 = DIRECTION('',(-0.,-1.));
#983 = ( GEOMETRIC_REPRESENTATION_CONTEXT(2) 
PARAMETRIC_REPRESENTATION_CONTEXT() REPRESENTATION_CONTEXT('2D SPACE',''
  ) );
#984 = ORIENTED_EDGE('',*,*,#985,.T.);
#985 = EDGE_CURVE('',#963,#963,#986,.T.);
#986 = SURFACE_CURVE('',#987,(#992,#999),.PCURVE_S1.);
#987 = CIRCLE('',#988,28.);
#988 = AXIS2_PLACEMENT_3D('',#989,#990,#991);
#989 = CARTESIAN_POINT('',(1.471511085026E-13,2.292073341162E-15,59.));
#990 = DIRECTION('',(0.,0.,1.));
#991 = DIRECTION('',(1.,0.,0.));
#992 = PCURVE('',#379,#993);
#993 = DEFINITIONAL_REPRESENTATION('',(#994),#998);
#994 = LINE('',#995,#996);
#995 = CARTESIAN_POINT('',(-0.,-54.));
#996 = VECTOR('',#997,1.);
#997 = DIRECTION('',(-1.,0.));
#998 = ( GEOMETRIC_REPRESENTATION_CONTEXT(2) 
PARAMETRIC_REPRESENTATION_CONTEXT() REPRESENTATION_CONTEXT('2D SPACE',''
  ) );
#999 = PCURVE('',#1000,#1005);
#1000 = PLANE('',#1001);
#1001 = AXIS2_PLACEMENT_3D('',#1002,#1003,#1004);
#1002 = CARTESIAN_POINT('',(-1.411551104557E-15,1.557633849995E-15,59.)
  );
#1003 = DIRECTION('',(0.,0.,1.));
#1004 = DIRECTION('',(1.,0.,-0.));
#1005 = DEFINITIONAL_REPRESENTATION('',(#1006),#1010);
#1006 = CIRCLE('',#1007,28.);
#1007 = AXIS2_PLACEMENT_2D('',#1008,#1009);
#1008 = CARTESIAN_POINT('',(1.485626596071E-13,7.344394911669E-16));
#1009 = DIRECTION('',(1.,0.));
#1010 = ( GEOMETRIC_REPRESENTATION_CONTEXT(2) 
PARAMETRIC_REPRESENTATION_CONTEXT() REPRESENTATION_CONTEXT('2D SPACE',''
  ) );
#1011 = ORIENTED_EDGE('',*,*,#962,.F.);
#1012 = ORIENTED_EDGE('',*,*,#1013,.T.);
#1013 = EDGE_CURVE('',#930,#1014,#1016,.T.);
#1014 = VERTEX_POINT('',#1015);
#1015 = CARTESIAN_POINT('',(27.935,-1.906770830488,13.));
#1016 = SURFACE_CURVE('',#1017,(#1022,#1029),.PCURVE_S1.);
#1017 = CIRCLE('',#1018,28.);
#1018 = AXIS2_PLACEMENT_3D('',#1019,#1020,#1021);
#1019 = CARTESIAN_POINT('',(1.471511085026E-13,2.292073341162E-15,13.));
#1020 = DIRECTION('',(0.,0.,-1.));
#1021 = DIRECTION('',(1.,0.,0.));
#1022 = PCURVE('',#379,#1023);
#1023 = DEFINITIONAL_REPRESENTATION('',(#1024),#1028);
#1024 = LINE('',#1025,#1026);
#1025 = CARTESIAN_POINT('',(-6.28318530718,-8.));
#1026 = VECTOR('',#1027,1.);
#1027 = DIRECTION('',(1.,-0.));
#1028 = ( GEOMETRIC_REPRESENTATION_CONTEXT(2) 
PARAMETRIC_REPRESENTATION_CONTEXT() REPRESENTATION_CONTEXT('2D SPACE',''
  ) );
#1029 = PCURVE('',#946,#1030);
#1030 = DEFINITIONAL_REPRESENTATION('',(#1031),#1039);
#1031 = ( BOUNDED_CURVE() B_SPLINE_CURVE(2,(#1032,#1033,#1034,#1035,
#1036,#1037,#1038),.UNSPECIFIED.,.T.,.F.) B_SPLINE_CURVE_WITH_KNOTS((1,2
    ,2,2,2,1),(-2.094395102393,0.,2.094395102393,4.188790204786,
6.28318530718,8.377580409573),.UNSPECIFIED.) CURVE() 
GEOMETRIC_REPRESENTATION_ITEM() RATIONAL_B_SPLINE_CURVE((1.,0.5,1.,0.5,
1.,0.5,1.)) REPRESENTATION_ITEM('') );
#1032 = CARTESIAN_POINT('',(3.,2.044251620337E-15));
#1033 = CARTESIAN_POINT('',(3.,-48.49742261192));
#1034 = CARTESIAN_POINT('',(-39.,-24.24871130596));
#1035 = CARTESIAN_POINT('',(-81.,-4.813770454889E-15));
#1036 = CARTESIAN_POINT('',(-39.,24.248711305964));
#1037 = CARTESIAN_POINT('',(3.,48.497422611929));
#1038 = CARTESIAN_POINT('',(3.,2.044251620337E-15));
#1039 = ( GEOMETRIC_REPRESENTATION_CONTEXT(2) 
PARAMETRIC_REPRESENTATION_CONTEXT() REPRESENTATION_CONTEXT('2D SPACE',''
  ) );
#1040 = ORIENTED_EDGE('',*,*,#1041,.T.);
#1041 = EDGE_CURVE('',#1014,#392,#1042,.T.);
#1042 = SURFACE_CURVE('',#1043,(#1047,#1053),.PCURVE_S1.);
#1043 = LINE('',#1044,#1045);
#1044 = CARTESIAN_POINT('',(27.935,-1.906770830488,5.));
#1045 = VECTOR('',#1046,1.);
#1046 = DIRECTION('',(-0.,-0.,-1.));
#1047 = PCURVE('',#379,#1048);
#1048 = DEFINITIONAL_REPRESENTATION('',(#1049),#1052);
#1049 = B_SPLINE_CURVE_WITH_KNOTS('',1,(#1050,#1051),.UNSPECIFIED.,.F.,
  .F.,(2,2),(-8.0000006,5.999999999062E-07),.PIECEWISE_BEZIER_KNOTS.);
#1050 = CARTESIAN_POINT('',(-6.215033604345,-8.0000006));
#1051 = CARTESIAN_POINT('',(-6.215033604345,5.999999999062E-07));
#1052 = ( GEOMETRIC_REPRESENTATION_CONTEXT(2) 
PARAMETRIC_REPRESENTATION_CONTEXT() REPRESENTATION_CONTEXT('2D SPACE',''
  ) );
#1053 = PCURVE('',#408,#1054);
#1054 = DEFINITIONAL_REPRESENTATION('',(#1055),#1058);
#1055 = B_SPLINE_CURVE_WITH_KNOTS('',1,(#1056,#1057),.UNSPECIFIED.,.F.,
  .F.,(2,2),(-8.0000006,5.999999999062E-07),.PIECEWISE_BEZIER_KNOTS.);
#1056 = CARTESIAN_POINT('',(-5.707044651855,-8.0000006));
#1057 = CARTESIAN_POINT('',(-5.707044651855,5.999999999062E-07));
#1058 = ( GEOMETRIC_REPRESENTATION_CONTEXT(2) 
PARAMETRIC_REPRESENTATION_CONTEXT() REPRESENTATION_CONTEXT('2D SPACE',''
  ) );
#1059 = ORIENTED_EDGE('',*,*,#420,.F.);
#1060 = ORIENTED_EDGE('',*,*,#1061,.F.);
#1061 = EDGE_CURVE('',#1062,#421,#1064,.T.);
#1062 = VERTEX_POINT('',#1063);
#1063 = CARTESIAN_POINT('',(-12.3161880216,-25.14580506996,13.));
#1064 = SURFACE_CURVE('',#1065,(#1069,#1075),.PCURVE_S1.);
#1065 = LINE('',#1066,#1067);
#1066 = CARTESIAN_POINT('',(-12.3161880216,-25.14580506996,5.));
#1067 = VECTOR('',#1068,1.);
#1068 = DIRECTION('',(-0.,-0.,-1.));
#1069 = PCURVE('',#379,#1070);
#1070 = DEFINITIONAL_REPRESENTATION('',(#1071),#1074);
#1071 = B_SPLINE_CURVE_WITH_KNOTS('',1,(#1072,#1073),.UNSPECIFIED.,.F.,
  .F.,(2,2),(-8.0000006,5.999999999062E-07),.PIECEWISE_BEZIER_KNOTS.);
#1072 = CARTESIAN_POINT('',(-4.256941907621,-8.0000006));
#1073 = CARTESIAN_POINT('',(-4.256941907621,5.999999999062E-07));
#1074 = ( GEOMETRIC_REPRESENTATION_CONTEXT(2) 
PARAMETRIC_REPRESENTATION_CONTEXT() REPRESENTATION_CONTEXT('2D SPACE',''
  ) );
#1075 = PCURVE('',#465,#1076);
#1076 = DEFINITIONAL_REPRESENTATION('',(#1077),#1080);
#1077 = B_SPLINE_CURVE_WITH_KNOTS('',1,(#1078,#1079),.UNSPECIFIED.,.F.,
  .F.,(2,2),(-8.,0.),.PIECEWISE_BEZIER_KNOTS.);
#1078 = CARTESIAN_POINT('',(-4.764930860111,-8.));
#1079 = CARTESIAN_POINT('',(-4.764930860111,0.));
#1080 = ( GEOMETRIC_REPRESENTATION_CONTEXT(2) 
PARAMETRIC_REPRESENTATION_CONTEXT() REPRESENTATION_CONTEXT('2D SPACE',''
  ) );
#1081 = ORIENTED_EDGE('',*,*,#1082,.T.);
#1082 = EDGE_CURVE('',#1062,#1083,#1085,.T.);
#1083 = VERTEX_POINT('',#1084);
#1084 = CARTESIAN_POINT('',(-15.61881197839,-23.23903423947,13.));
#1085 = SURFACE_CURVE('',#1086,(#1091,#1098),.PCURVE_S1.);
#1086 = CIRCLE('',#1087,28.);
#1087 = AXIS2_PLACEMENT_3D('',#1088,#1089,#1090);
#1088 = CARTESIAN_POINT('',(1.471511085026E-13,2.292073341162E-15,13.));
#1089 = DIRECTION('',(0.,0.,-1.));
#1090 = DIRECTION('',(1.,0.,0.));
#1091 = PCURVE('',#379,#1092);
#1092 = DEFINITIONAL_REPRESENTATION('',(#1093),#1097);
#1093 = LINE('',#1094,#1095);
#1094 = CARTESIAN_POINT('',(-6.28318530718,-8.));
#1095 = VECTOR('',#1096,1.);
#1096 = DIRECTION('',(1.,-0.));
#1097 = ( GEOMETRIC_REPRESENTATION_CONTEXT(2) 
PARAMETRIC_REPRESENTATION_CONTEXT() REPRESENTATION_CONTEXT('2D SPACE',''
  ) );
#1098 = PCURVE('',#891,#1099);
#1099 = DEFINITIONAL_REPRESENTATION('',(#1100),#1108);
#1100 = ( BOUNDED_CURVE() B_SPLINE_CURVE(2,(#1101,#1102,#1103,#1104,
#1105,#1106,#1107),.UNSPECIFIED.,.T.,.F.) B_SPLINE_CURVE_WITH_KNOTS((1,2
    ,2,2,2,1),(-2.094395102393,0.,2.094395102393,4.188790204786,
6.28318530718,8.377580409573),.UNSPECIFIED.) CURVE() 
GEOMETRIC_REPRESENTATION_ITEM() RATIONAL_B_SPLINE_CURVE((1.,0.5,1.,0.5,
1.,0.5,1.)) REPRESENTATION_ITEM('') );
#1101 = CARTESIAN_POINT('',(40.5,21.650635094611));
#1102 = CARTESIAN_POINT('',(40.5,-26.84678751731));
#1103 = CARTESIAN_POINT('',(-1.5,-2.598076211353));
#1104 = CARTESIAN_POINT('',(-43.5,21.650635094611));
#1105 = CARTESIAN_POINT('',(-1.5,45.899346400575));
#1106 = CARTESIAN_POINT('',(40.5,70.14805770654));
#1107 = CARTESIAN_POINT('',(40.5,21.650635094611));
#1108 = ( GEOMETRIC_REPRESENTATION_CONTEXT(2) 
PARAMETRIC_REPRESENTATION_CONTEXT() REPRESENTATION_CONTEXT('2D SPACE',''
  ) );
#1109 = ORIENTED_EDGE('',*,*,#1110,.T.);
#1110 = EDGE_CURVE('',#1083,#445,#1111,.T.);
#1111 = SURFACE_CURVE('',#1112,(#1116,#1122),.PCURVE_S1.);
#1112 = LINE('',#1113,#1114);
#1113 = CARTESIAN_POINT('',(-15.61881197839,-23.23903423947,5.));
#1114 = VECTOR('',#1115,1.);
#1115 = DIRECTION('',(-0.,-0.,-1.));
#1116 = PCURVE('',#379,#1117);
#1117 = DEFINITIONAL_REPRESENTATION('',(#1118),#1121);
#1118 = B_SPLINE_CURVE_WITH_KNOTS('',1,(#1119,#1120),.UNSPECIFIED.,.F.,
  .F.,(2,2),(-8.0000006,5.999999999062E-07),.PIECEWISE_BEZIER_KNOTS.);
#1119 = CARTESIAN_POINT('',(-4.120638501952,-8.0000006));
#1120 = CARTESIAN_POINT('',(-4.120638501952,5.999999999062E-07));
#1121 = ( GEOMETRIC_REPRESENTATION_CONTEXT(2) 
PARAMETRIC_REPRESENTATION_CONTEXT() REPRESENTATION_CONTEXT('2D SPACE',''
  ) );
#1122 = PCURVE('',#465,#1123);
#1123 = DEFINITIONAL_REPRESENTATION('',(#1124),#1127);
#1124 = B_SPLINE_CURVE_WITH_KNOTS('',1,(#1125,#1126),.UNSPECIFIED.,.F.,
  .F.,(2,2),(-8.,0.),.PIECEWISE_BEZIER_KNOTS.);
#1125 = CARTESIAN_POINT('',(-9.895834856642,-8.));
#1126 = CARTESIAN_POINT('',(-9.895834856642,0.));
#1127 = ( GEOMETRIC_REPRESENTATION_CONTEXT(2) 
PARAMETRIC_REPRESENTATION_CONTEXT() REPRESENTATION_CONTEXT('2D SPACE',''
  ) );
#1128 = ORIENTED_EDGE('',*,*,#477,.F.);
#1129 = ORIENTED_EDGE('',*,*,#1130,.F.);
#1130 = EDGE_CURVE('',#1131,#478,#1133,.T.);
#1131 = VERTEX_POINT('',#1132);
#1132 = CARTESIAN_POINT('',(-15.61881197839,23.239034239474,13.));
#1133 = SURFACE_CURVE('',#1134,(#1138,#1144),.PCURVE_S1.);
#1134 = LINE('',#1135,#1136);
#1135 = CARTESIAN_POINT('',(-15.61881197839,23.239034239474,5.));
#1136 = VECTOR('',#1137,1.);
#1137 = DIRECTION('',(-0.,-0.,-1.));
#1138 = PCURVE('',#379,#1139);
#1139 = DEFINITIONAL_REPRESENTATION('',(#1140),#1143);
#1140 = B_SPLINE_CURVE_WITH_KNOTS('',1,(#1141,#1142),.UNSPECIFIED.,.F.,
  .F.,(2,2),(-8.0000006,5.999999999062E-07),.PIECEWISE_BEZIER_KNOTS.);
#1141 = CARTESIAN_POINT('',(-2.162546805228,-8.0000006));
#1142 = CARTESIAN_POINT('',(-2.162546805228,5.999999999062E-07));
#1143 = ( GEOMETRIC_REPRESENTATION_CONTEXT(2) 
PARAMETRIC_REPRESENTATION_CONTEXT() REPRESENTATION_CONTEXT('2D SPACE',''
  ) );
#1144 = PCURVE('',#520,#1145);
#1145 = DEFINITIONAL_REPRESENTATION('',(#1146),#1149);
#1146 = B_SPLINE_CURVE_WITH_KNOTS('',1,(#1147,#1148),.UNSPECIFIED.,.F.,
  .F.,(2,2),(-8.,-0.),.PIECEWISE_BEZIER_KNOTS.);
#1147 = CARTESIAN_POINT('',(-2.670535757718,-8.));
#1148 = CARTESIAN_POINT('',(-2.670535757718,0.));
#1149 = ( GEOMETRIC_REPRESENTATION_CONTEXT(2) 
PARAMETRIC_REPRESENTATION_CONTEXT() REPRESENTATION_CONTEXT('2D SPACE',''
  ) );
#1150 = ORIENTED_EDGE('',*,*,#1151,.T.);
#1151 = EDGE_CURVE('',#1131,#1152,#1154,.T.);
#1152 = VERTEX_POINT('',#1153);
#1153 = CARTESIAN_POINT('',(-12.3161880216,25.145805069962,13.));
#1154 = SURFACE_CURVE('',#1155,(#1160,#1167),.PCURVE_S1.);
#1155 = CIRCLE('',#1156,28.);
#1156 = AXIS2_PLACEMENT_3D('',#1157,#1158,#1159);
#1157 = CARTESIAN_POINT('',(1.471511085026E-13,2.292073341162E-15,13.));
#1158 = DIRECTION('',(0.,0.,-1.));
#1159 = DIRECTION('',(1.,0.,0.));
#1160 = PCURVE('',#379,#1161);
#1161 = DEFINITIONAL_REPRESENTATION('',(#1162),#1166);
#1162 = LINE('',#1163,#1164);
#1163 = CARTESIAN_POINT('',(-6.28318530718,-8.));
#1164 = VECTOR('',#1165,1.);
#1165 = DIRECTION('',(1.,-0.));
#1166 = ( GEOMETRIC_REPRESENTATION_CONTEXT(2) 
PARAMETRIC_REPRESENTATION_CONTEXT() REPRESENTATION_CONTEXT('2D SPACE',''
  ) );
#1167 = PCURVE('',#1168,#1173);
#1168 = PLANE('',#1169);
#1169 = AXIS2_PLACEMENT_3D('',#1170,#1171,#1172);
#1170 = CARTESIAN_POINT('',(-12.5,21.650635094611,13.));
#1171 = DIRECTION('',(0.,0.,1.));
#1172 = DIRECTION('',(1.,0.,-0.));
#1173 = DEFINITIONAL_REPRESENTATION('',(#1174),#1182);
#1174 = ( BOUNDED_CURVE() B_SPLINE_CURVE(2,(#1175,#1176,#1177,#1178,
#1179,#1180,#1181),.UNSPECIFIED.,.T.,.F.) B_SPLINE_CURVE_WITH_KNOTS((1,2
    ,2,2,2,1),(-2.094395102393,0.,2.094395102393,4.188790204786,
6.28318530718,8.377580409573),.UNSPECIFIED.) CURVE() 
GEOMETRIC_REPRESENTATION_ITEM() RATIONAL_B_SPLINE_CURVE((1.,0.5,1.,0.5,
1.,0.5,1.)) REPRESENTATION_ITEM('') );
#1175 = CARTESIAN_POINT('',(40.5,-21.65063509461));
#1176 = CARTESIAN_POINT('',(40.5,-70.14805770654));
#1177 = CARTESIAN_POINT('',(-1.5,-45.89934640057));
#1178 = CARTESIAN_POINT('',(-43.5,-21.65063509461));
#1179 = CARTESIAN_POINT('',(-1.5,2.598076211353));
#1180 = CARTESIAN_POINT('',(40.5,26.846787517318));
#1181 = CARTESIAN_POINT('',(40.5,-21.65063509461));
#1182 = ( GEOMETRIC_REPRESENTATION_CONTEXT(2) 
PARAMETRIC_REPRESENTATION_CONTEXT() REPRESENTATION_CONTEXT('2D SPACE',''
  ) );
#1183 = ORIENTED_EDGE('',*,*,#1184,.T.);
#1184 = EDGE_CURVE('',#1152,#363,#1185,.T.);
#1185 = SURFACE_CURVE('',#1186,(#1190,#1196),.PCURVE_S1.);
#1186 = LINE('',#1187,#1188);
#1187 = CARTESIAN_POINT('',(-12.3161880216,25.145805069962,5.));
#1188 = VECTOR('',#1189,1.);
#1189 = DIRECTION('',(-0.,-0.,-1.));
#1190 = PCURVE('',#379,#1191);
#1191 = DEFINITIONAL_REPRESENTATION('',(#1192),#1195);
#1192 = B_SPLINE_CURVE_WITH_KNOTS('',1,(#1193,#1194),.UNSPECIFIED.,.F.,
  .F.,(2,2),(-8.0000006,5.999999999062E-07),.PIECEWISE_BEZIER_KNOTS.);
#1193 = CARTESIAN_POINT('',(-2.026243399559,-8.0000006));
#1194 = CARTESIAN_POINT('',(-2.026243399559,5.999999999062E-07));
#1195 = ( GEOMETRIC_REPRESENTATION_CONTEXT(2) 
PARAMETRIC_REPRESENTATION_CONTEXT() REPRESENTATION_CONTEXT('2D SPACE',''
  ) );
#1196 = PCURVE('',#520,#1197);
#1197 = DEFINITIONAL_REPRESENTATION('',(#1198),#1201);
#1198 = B_SPLINE_CURVE_WITH_KNOTS('',1,(#1199,#1200),.UNSPECIFIED.,.F.,
  .F.,(2,2),(-8.,0.),.PIECEWISE_BEZIER_KNOTS.);
#1199 = CARTESIAN_POINT('',(-7.801439754248,-8.));
#1200 = CARTESIAN_POINT('',(-7.801439754248,0.));
#1201 = ( GEOMETRIC_REPRESENTATION_CONTEXT(2) 
PARAMETRIC_REPRESENTATION_CONTEXT() REPRESENTATION_CONTEXT('2D SPACE',''
  ) );
#1202 = FACE_BOUND('',#1203,.T.);
#1203 = EDGE_LOOP('',(#1204));
#1204 = ORIENTED_EDGE('',*,*,#629,.F.);
#1205 = ADVANCED_FACE('',(#1206),#408,.T.);
#1206 = FACE_BOUND('',#1207,.F.);
#1207 = EDGE_LOOP('',(#1208,#1209,#1210,#1232));
#1208 = ORIENTED_EDGE('',*,*,#391,.F.);
#1209 = ORIENTED_EDGE('',*,*,#908,.F.);
#1210 = ORIENTED_EDGE('',*,*,#1211,.T.);
#1211 = EDGE_CURVE('',#909,#1014,#1212,.T.);
#1212 = SURFACE_CURVE('',#1213,(#1218,#1225),.PCURVE_S1.);
#1213 = CIRCLE('',#1214,3.5);
#1214 = AXIS2_PLACEMENT_3D('',#1215,#1216,#1217);
#1215 = CARTESIAN_POINT('',(25.,0.,13.));
#1216 = DIRECTION('',(0.,0.,1.));
#1217 = DIRECTION('',(1.,0.,0.));
#1218 = PCURVE('',#408,#1219);
#1219 = DEFINITIONAL_REPRESENTATION('',(#1220),#1224);
#1220 = LINE('',#1221,#1222);
#1221 = CARTESIAN_POINT('',(-0.,-8.));
#1222 = VECTOR('',#1223,1.);
#1223 = DIRECTION('',(-1.,0.));
#1224 = ( GEOMETRIC_REPRESENTATION_CONTEXT(2) 
PARAMETRIC_REPRESENTATION_CONTEXT() REPRESENTATION_CONTEXT('2D SPACE',''
  ) );
#1225 = PCURVE('',#946,#1226);
#1226 = DEFINITIONAL_REPRESENTATION('',(#1227),#1231);
#1227 = CIRCLE('',#1228,3.5);
#1228 = AXIS2_PLACEMENT_2D('',#1229,#1230);
#1229 = CARTESIAN_POINT('',(0.,-2.47821720825E-16));
#1230 = DIRECTION('',(1.,0.));
#1231 = ( GEOMETRIC_REPRESENTATION_CONTEXT(2) 
PARAMETRIC_REPRESENTATION_CONTEXT() REPRESENTATION_CONTEXT('2D SPACE',''
  ) );
#1232 = ORIENTED_EDGE('',*,*,#1041,.T.);
#1233 = ADVANCED_FACE('',(#1234),#520,.T.);
#1234 = FACE_BOUND('',#1235,.F.);
#1235 = EDGE_LOOP('',(#1236,#1237,#1238,#1264));
#1236 = ORIENTED_EDGE('',*,*,#501,.T.);
#1237 = ORIENTED_EDGE('',*,*,#1130,.F.);
#1238 = ORIENTED_EDGE('',*,*,#1239,.F.);
#1239 = EDGE_CURVE('',#1152,#1131,#1240,.T.);
#1240 = SURFACE_CURVE('',#1241,(#1246,#1253),.PCURVE_S1.);
#1241 = CIRCLE('',#1242,3.5);
#1242 = AXIS2_PLACEMENT_3D('',#1243,#1244,#1245);
#1243 = CARTESIAN_POINT('',(-12.5,21.650635094611,13.));
#1244 = DIRECTION('',(0.,0.,-1.));
#1245 = DIRECTION('',(5.251770811369E-02,0.998619992958,0.));
#1246 = PCURVE('',#520,#1247);
#1247 = DEFINITIONAL_REPRESENTATION('',(#1248),#1252);
#1248 = LINE('',#1249,#1250);
#1249 = CARTESIAN_POINT('',(-7.801439754248,-8.));
#1250 = VECTOR('',#1251,1.);
#1251 = DIRECTION('',(1.,-0.));
#1252 = ( GEOMETRIC_REPRESENTATION_CONTEXT(2) 
PARAMETRIC_REPRESENTATION_CONTEXT() REPRESENTATION_CONTEXT('2D SPACE',''
  ) );
#1253 = PCURVE('',#1168,#1254);
#1254 = DEFINITIONAL_REPRESENTATION('',(#1255),#1263);
#1255 = ( BOUNDED_CURVE() B_SPLINE_CURVE(2,(#1256,#1257,#1258,#1259,
#1260,#1261,#1262),.UNSPECIFIED.,.T.,.F.) B_SPLINE_CURVE_WITH_KNOTS((1,2
    ,2,2,2,1),(-2.094395102393,0.,2.094395102393,4.188790204786,
6.28318530718,8.377580409573),.UNSPECIFIED.) CURVE() 
GEOMETRIC_REPRESENTATION_ITEM() RATIONAL_B_SPLINE_CURVE((1.,0.5,1.,0.5,
1.,0.5,1.)) REPRESENTATION_ITEM('') );
#1256 = CARTESIAN_POINT('',(0.183811978398,3.495169975351));
#1257 = CARTESIAN_POINT('',(6.237623956796,3.176798289726));
#1258 = CARTESIAN_POINT('',(2.935,-1.906770830488));
#1259 = CARTESIAN_POINT('',(-0.367623956796,-6.990339950703));
#1260 = CARTESIAN_POINT('',(-3.118811978398,-1.588399144863));
#1261 = CARTESIAN_POINT('',(-5.87,3.813541660976));
#1262 = CARTESIAN_POINT('',(0.183811978398,3.495169975351));
#1263 = ( GEOMETRIC_REPRESENTATION_CONTEXT(2) 
PARAMETRIC_REPRESENTATION_CONTEXT() REPRESENTATION_CONTEXT('2D SPACE',''
  ) );
#1264 = ORIENTED_EDGE('',*,*,#1184,.T.);
#1265 = ADVANCED_FACE('',(#1266),#465,.T.);
#1266 = FACE_BOUND('',#1267,.F.);
#1267 = EDGE_LOOP('',(#1268,#1269,#1270,#1296));
#1268 = ORIENTED_EDGE('',*,*,#444,.T.);
#1269 = ORIENTED_EDGE('',*,*,#1061,.F.);
#1270 = ORIENTED_EDGE('',*,*,#1271,.F.);
#1271 = EDGE_CURVE('',#1083,#1062,#1272,.T.);
#1272 = SURFACE_CURVE('',#1273,(#1278,#1285),.PCURVE_S1.);
#1273 = CIRCLE('',#1274,3.5);
#1274 = AXIS2_PLACEMENT_3D('',#1275,#1276,#1277);
#1275 = CARTESIAN_POINT('',(-12.5,-21.65063509461,13.));
#1276 = DIRECTION('',(-0.,0.,-1.));
#1277 = DIRECTION('',(-0.891089136685,-0.453828327104,0.));
#1278 = PCURVE('',#465,#1279);
#1279 = DEFINITIONAL_REPRESENTATION('',(#1280),#1284);
#1280 = LINE('',#1281,#1282);
#1281 = CARTESIAN_POINT('',(-9.895834856642,-8.));
#1282 = VECTOR('',#1283,1.);
#1283 = DIRECTION('',(1.,-0.));
#1284 = ( GEOMETRIC_REPRESENTATION_CONTEXT(2) 
PARAMETRIC_REPRESENTATION_CONTEXT() REPRESENTATION_CONTEXT('2D SPACE',''
  ) );
#1285 = PCURVE('',#891,#1286);
#1286 = DEFINITIONAL_REPRESENTATION('',(#1287),#1295);
#1287 = ( BOUNDED_CURVE() B_SPLINE_CURVE(2,(#1288,#1289,#1290,#1291,
#1292,#1293,#1294),.UNSPECIFIED.,.T.,.F.) B_SPLINE_CURVE_WITH_KNOTS((1,2
    ,2,2,2,1),(-2.094395102393,0.,2.094395102393,4.188790204786,
6.28318530718,8.377580409573),.UNSPECIFIED.) CURVE() 
GEOMETRIC_REPRESENTATION_ITEM() RATIONAL_B_SPLINE_CURVE((1.,0.5,1.,0.5,
1.,0.5,1.)) REPRESENTATION_ITEM('') );
#1288 = CARTESIAN_POINT('',(-3.118811978398,-1.588399144863));
#1289 = CARTESIAN_POINT('',(-5.87,3.813541660976));
#1290 = CARTESIAN_POINT('',(0.183811978398,3.495169975351));
#1291 = CARTESIAN_POINT('',(6.237623956796,3.176798289726));
#1292 = CARTESIAN_POINT('',(2.935,-1.906770830488));
#1293 = CARTESIAN_POINT('',(-0.367623956796,-6.990339950703));
#1294 = CARTESIAN_POINT('',(-3.118811978398,-1.588399144863));
#1295 = ( GEOMETRIC_REPRESENTATION_CONTEXT(2) 
PARAMETRIC_REPRESENTATION_CONTEXT() REPRESENTATION_CONTEXT('2D SPACE',''
  ) );
#1296 = ORIENTED_EDGE('',*,*,#1110,.T.);
#1297 = ADVANCED_FACE('',(#1298),#555,.F.);
#1298 = FACE_BOUND('',#1299,.T.);
#1299 = EDGE_LOOP('',(#1300,#1301,#1324,#1346));
#1300 = ORIENTED_EDGE('',*,*,#534,.T.);
#1301 = ORIENTED_EDGE('',*,*,#1302,.T.);
#1302 = EDGE_CURVE('',#535,#1303,#1305,.T.);
#1303 = VERTEX_POINT('',#1304);
#1304 = CARTESIAN_POINT('',(-11.2,21.650635094611,13.));
#1305 = SEAM_CURVE('',#1306,(#1310,#1317),.PCURVE_S1.);
#1306 = LINE('',#1307,#1308);
#1307 = CARTESIAN_POINT('',(-11.2,21.650635094611,4.));
#1308 = VECTOR('',#1309,1.);
#1309 = DIRECTION('',(0.,0.,1.));
#1310 = PCURVE('',#555,#1311);
#1311 = DEFINITIONAL_REPRESENTATION('',(#1312),#1316);
#1312 = LINE('',#1313,#1314);
#1313 = CARTESIAN_POINT('',(-6.28318530718,0.));
#1314 = VECTOR('',#1315,1.);
#1315 = DIRECTION('',(-0.,-1.));
#1316 = ( GEOMETRIC_REPRESENTATION_CONTEXT(2) 
PARAMETRIC_REPRESENTATION_CONTEXT() REPRESENTATION_CONTEXT('2D SPACE',''
  ) );
#1317 = PCURVE('',#555,#1318);
#1318 = DEFINITIONAL_REPRESENTATION('',(#1319),#1323);
#1319 = LINE('',#1320,#1321);
#1320 = CARTESIAN_POINT('',(-0.,0.));
#1321 = VECTOR('',#1322,1.);
#1322 = DIRECTION('',(-0.,-1.));
#1323 = ( GEOMETRIC_REPRESENTATION_CONTEXT(2) 
PARAMETRIC_REPRESENTATION_CONTEXT() REPRESENTATION_CONTEXT('2D SPACE',''
  ) );
#1324 = ORIENTED_EDGE('',*,*,#1325,.T.);
#1325 = EDGE_CURVE('',#1303,#1303,#1326,.T.);
#1326 = SURFACE_CURVE('',#1327,(#1332,#1339),.PCURVE_S1.);
#1327 = CIRCLE('',#1328,1.3);
#1328 = AXIS2_PLACEMENT_3D('',#1329,#1330,#1331);
#1329 = CARTESIAN_POINT('',(-12.5,21.650635094611,13.));
#1330 = DIRECTION('',(0.,0.,1.));
#1331 = DIRECTION('',(1.,0.,0.));
#1332 = PCURVE('',#555,#1333);
#1333 = DEFINITIONAL_REPRESENTATION('',(#1334),#1338);
#1334 = LINE('',#1335,#1336);
#1335 = CARTESIAN_POINT('',(-0.,-9.));
#1336 = VECTOR('',#1337,1.);
#1337 = DIRECTION('',(-1.,0.));
#1338 = ( GEOMETRIC_REPRESENTATION_CONTEXT(2) 
PARAMETRIC_REPRESENTATION_CONTEXT() REPRESENTATION_CONTEXT('2D SPACE',''
  ) );
#1339 = PCURVE('',#1168,#1340);
#1340 = DEFINITIONAL_REPRESENTATION('',(#1341),#1345);
#1341 = CIRCLE('',#1342,1.3);
#1342 = AXIS2_PLACEMENT_2D('',#1343,#1344);
#1343 = CARTESIAN_POINT('',(0.,0.));
#1344 = DIRECTION('',(1.,0.));
#1345 = ( GEOMETRIC_REPRESENTATION_CONTEXT(2) 
PARAMETRIC_REPRESENTATION_CONTEXT() REPRESENTATION_CONTEXT('2D SPACE',''
  ) );
#1346 = ORIENTED_EDGE('',*,*,#1302,.F.);
#1347 = ADVANCED_FACE('',(#1348),#590,.F.);
#1348 = FACE_BOUND('',#1349,.T.);
#1349 = EDGE_LOOP('',(#1350,#1351,#1374,#1396));
#1350 = ORIENTED_EDGE('',*,*,#569,.T.);
#1351 = ORIENTED_EDGE('',*,*,#1352,.T.);
#1352 = EDGE_CURVE('',#570,#1353,#1355,.T.);
#1353 = VERTEX_POINT('',#1354);
#1354 = CARTESIAN_POINT('',(26.3,0.,13.));
#1355 = SEAM_CURVE('',#1356,(#1360,#1367),.PCURVE_S1.);
#1356 = LINE('',#1357,#1358);
#1357 = CARTESIAN_POINT('',(26.3,0.,4.));
#1358 = VECTOR('',#1359,1.);
#1359 = DIRECTION('',(0.,0.,1.));
#1360 = PCURVE('',#590,#1361);
#1361 = DEFINITIONAL_REPRESENTATION('',(#1362),#1366);
#1362 = LINE('',#1363,#1364);
#1363 = CARTESIAN_POINT('',(-6.28318530718,0.));
#1364 = VECTOR('',#1365,1.);
#1365 = DIRECTION('',(-0.,-1.));
#1366 = ( GEOMETRIC_REPRESENTATION_CONTEXT(2) 
PARAMETRIC_REPRESENTATION_CONTEXT() REPRESENTATION_CONTEXT('2D SPACE',''
  ) );
#1367 = PCURVE('',#590,#1368);
#1368 = DEFINITIONAL_REPRESENTATION('',(#1369),#1373);
#1369 = LINE('',#1370,#1371);
#1370 = CARTESIAN_POINT('',(-0.,0.));
#1371 = VECTOR('',#1372,1.);
#1372 = DIRECTION('',(-0.,-1.));
#1373 = ( GEOMETRIC_REPRESENTATION_CONTEXT(2) 
PARAMETRIC_REPRESENTATION_CONTEXT() REPRESENTATION_CONTEXT('2D SPACE',''
  ) );
#1374 = ORIENTED_EDGE('',*,*,#1375,.T.);
#1375 = EDGE_CURVE('',#1353,#1353,#1376,.T.);
#1376 = SURFACE_CURVE('',#1377,(#1382,#1389),.PCURVE_S1.);
#1377 = CIRCLE('',#1378,1.3);
#1378 = AXIS2_PLACEMENT_3D('',#1379,#1380,#1381);
#1379 = CARTESIAN_POINT('',(25.,0.,13.));
#1380 = DIRECTION('',(0.,0.,1.));
#1381 = DIRECTION('',(1.,0.,0.));
#1382 = PCURVE('',#590,#1383);
#1383 = DEFINITIONAL_REPRESENTATION('',(#1384),#1388);
#1384 = LINE('',#1385,#1386);
#1385 = CARTESIAN_POINT('',(-0.,-9.));
#1386 = VECTOR('',#1387,1.);
#1387 = DIRECTION('',(-1.,0.));
#1388 = ( GEOMETRIC_REPRESENTATION_CONTEXT(2) 
PARAMETRIC_REPRESENTATION_CONTEXT() REPRESENTATION_CONTEXT('2D SPACE',''
  ) );
#1389 = PCURVE('',#946,#1390);
#1390 = DEFINITIONAL_REPRESENTATION('',(#1391),#1395);
#1391 = CIRCLE('',#1392,1.3);
#1392 = AXIS2_PLACEMENT_2D('',#1393,#1394);
#1393 = CARTESIAN_POINT('',(0.,-2.47821720825E-16));
#1394 = DIRECTION('',(1.,0.));
#1395 = ( GEOMETRIC_REPRESENTATION_CONTEXT(2) 
PARAMETRIC_REPRESENTATION_CONTEXT() REPRESENTATION_CONTEXT('2D SPACE',''
  ) );
#1396 = ORIENTED_EDGE('',*,*,#1352,.F.);
#1397 = ADVANCED_FACE('',(#1398,#1401),#836,.T.);
#1398 = FACE_BOUND('',#1399,.T.);
#1399 = EDGE_LOOP('',(#1400));
#1400 = ORIENTED_EDGE('',*,*,#822,.T.);
#1401 = FACE_BOUND('',#1402,.T.);
#1402 = EDGE_LOOP('',(#1403));
#1403 = ORIENTED_EDGE('',*,*,#1404,.F.);
#1404 = EDGE_CURVE('',#1405,#1405,#1407,.T.);
#1405 = VERTEX_POINT('',#1406);
#1406 = CARTESIAN_POINT('',(18.,5.075305255429E-16,58.));
#1407 = SURFACE_CURVE('',#1408,(#1413,#1420),.PCURVE_S1.);
#1408 = CIRCLE('',#1409,18.);
#1409 = AXIS2_PLACEMENT_3D('',#1410,#1411,#1412);
#1410 = CARTESIAN_POINT('',(9.981433669011E-14,5.075305255429E-16,58.));
#1411 = DIRECTION('',(0.,0.,1.));
#1412 = DIRECTION('',(1.,0.,0.));
#1413 = PCURVE('',#836,#1414);
#1414 = DEFINITIONAL_REPRESENTATION('',(#1415),#1419);
#1415 = CIRCLE('',#1416,18.);
#1416 = AXIS2_PLACEMENT_2D('',#1417,#1418);
#1417 = CARTESIAN_POINT('',(1.008561958387E-13,3.229241363446E-16));
#1418 = DIRECTION('',(1.,0.));
#1419 = ( GEOMETRIC_REPRESENTATION_CONTEXT(2) 
PARAMETRIC_REPRESENTATION_CONTEXT() REPRESENTATION_CONTEXT('2D SPACE',''
  ) );
#1420 = PCURVE('',#1421,#1426);
#1421 = CYLINDRICAL_SURFACE('',#1422,18.);
#1422 = AXIS2_PLACEMENT_3D('',#1423,#1424,#1425);
#1423 = CARTESIAN_POINT('',(9.981433669011E-14,5.075305255429E-16,52.));
#1424 = DIRECTION('',(-0.,-0.,-1.));
#1425 = DIRECTION('',(1.,0.,0.));
#1426 = DEFINITIONAL_REPRESENTATION('',(#1427),#1431);
#1427 = LINE('',#1428,#1429);
#1428 = CARTESIAN_POINT('',(-0.,-6.));
#1429 = VECTOR('',#1430,1.);
#1430 = DIRECTION('',(-1.,0.));
#1431 = ( GEOMETRIC_REPRESENTATION_CONTEXT(2) 
PARAMETRIC_REPRESENTATION_CONTEXT() REPRESENTATION_CONTEXT('2D SPACE',''
  ) );
#1432 = ADVANCED_FACE('',(#1433,#1437),#891,.T.);
#1433 = FACE_BOUND('',#1434,.T.);
#1434 = EDGE_LOOP('',(#1435,#1436));
#1435 = ORIENTED_EDGE('',*,*,#1082,.F.);
#1436 = ORIENTED_EDGE('',*,*,#1271,.F.);
#1437 = FACE_BOUND('',#1438,.T.);
#1438 = EDGE_LOOP('',(#1439));
#1439 = ORIENTED_EDGE('',*,*,#876,.F.);
#1440 = ADVANCED_FACE('',(#1441,#1445),#1168,.T.);
#1441 = FACE_BOUND('',#1442,.T.);
#1442 = EDGE_LOOP('',(#1443,#1444));
#1443 = ORIENTED_EDGE('',*,*,#1151,.F.);
#1444 = ORIENTED_EDGE('',*,*,#1239,.F.);
#1445 = FACE_BOUND('',#1446,.T.);
#1446 = EDGE_LOOP('',(#1447));
#1447 = ORIENTED_EDGE('',*,*,#1325,.F.);
#1448 = ADVANCED_FACE('',(#1449,#1454),#946,.T.);
#1449 = FACE_BOUND('',#1450,.T.);
#1450 = EDGE_LOOP('',(#1451,#1452,#1453));
#1451 = ORIENTED_EDGE('',*,*,#929,.F.);
#1452 = ORIENTED_EDGE('',*,*,#1211,.T.);
#1453 = ORIENTED_EDGE('',*,*,#1013,.F.);
#1454 = FACE_BOUND('',#1455,.T.);
#1455 = EDGE_LOOP('',(#1456));
#1456 = ORIENTED_EDGE('',*,*,#1375,.F.);
#1457 = ADVANCED_FACE('',(#1458,#1461),#1000,.F.);
#1458 = FACE_BOUND('',#1459,.F.);
#1459 = EDGE_LOOP('',(#1460));
#1460 = ORIENTED_EDGE('',*,*,#985,.T.);
#1461 = FACE_BOUND('',#1462,.F.);
#1462 = EDGE_LOOP('',(#1463));
#1463 = ORIENTED_EDGE('',*,*,#1464,.F.);
#1464 = EDGE_CURVE('',#1465,#1465,#1467,.T.);
#1465 = VERTEX_POINT('',#1466);
#1466 = CARTESIAN_POINT('',(25.,0.,59.));
#1467 = SURFACE_CURVE('',#1468,(#1473,#1480),.PCURVE_S1.);
#1468 = CIRCLE('',#1469,25.);
#1469 = AXIS2_PLACEMENT_3D('',#1470,#1471,#1472);
#1470 = CARTESIAN_POINT('',(0.,0.,59.));
#1471 = DIRECTION('',(0.,0.,1.));
#1472 = DIRECTION('',(1.,0.,0.));
#1473 = PCURVE('',#1000,#1474);
#1474 = DEFINITIONAL_REPRESENTATION('',(#1475),#1479);
#1475 = CIRCLE('',#1476,25.);
#1476 = AXIS2_PLACEMENT_2D('',#1477,#1478);
#1477 = CARTESIAN_POINT('',(1.411551104557E-15,-1.557633849995E-15));
#1478 = DIRECTION('',(1.,0.));
#1479 = ( GEOMETRIC_REPRESENTATION_CONTEXT(2) 
PARAMETRIC_REPRESENTATION_CONTEXT() REPRESENTATION_CONTEXT('2D SPACE',''
  ) );
#1480 = PCURVE('',#1481,#1486);
#1481 = CYLINDRICAL_SURFACE('',#1482,25.);
#1482 = AXIS2_PLACEMENT_3D('',#1483,#1484,#1485);
#1483 = CARTESIAN_POINT('',(0.,0.,45.));
#1484 = DIRECTION('',(-0.,-0.,-1.));
#1485 = DIRECTION('',(1.,0.,0.));
#1486 = DEFINITIONAL_REPRESENTATION('',(#1487),#1491);
#1487 = LINE('',#1488,#1489);
#1488 = CARTESIAN_POINT('',(-0.,-14.));
#1489 = VECTOR('',#1490,1.);
#1490 = DIRECTION('',(-1.,0.));
#1491 = ( GEOMETRIC_REPRESENTATION_CONTEXT(2) 
PARAMETRIC_REPRESENTATION_CONTEXT() REPRESENTATION_CONTEXT('2D SPACE',''
  ) );
#1492 = ADVANCED_FACE('',(#1493),#1421,.F.);
#1493 = FACE_BOUND('',#1494,.T.);
#1494 = EDGE_LOOP('',(#1495,#1518,#1519,#1520));
#1495 = ORIENTED_EDGE('',*,*,#1496,.T.);
#1496 = EDGE_CURVE('',#1497,#1405,#1499,.T.);
#1497 = VERTEX_POINT('',#1498);
#1498 = CARTESIAN_POINT('',(18.,5.075305255429E-16,52.));
#1499 = SEAM_CURVE('',#1500,(#1504,#1511),.PCURVE_S1.);
#1500 = LINE('',#1501,#1502);
#1501 = CARTESIAN_POINT('',(18.,5.075305255429E-16,52.));
#1502 = VECTOR('',#1503,1.);
#1503 = DIRECTION('',(0.,0.,1.));
#1504 = PCURVE('',#1421,#1505);
#1505 = DEFINITIONAL_REPRESENTATION('',(#1506),#1510);
#1506 = LINE('',#1507,#1508);
#1507 = CARTESIAN_POINT('',(-0.,0.));
#1508 = VECTOR('',#1509,1.);
#1509 = DIRECTION('',(-0.,-1.));
#1510 = ( GEOMETRIC_REPRESENTATION_CONTEXT(2) 
PARAMETRIC_REPRESENTATION_CONTEXT() REPRESENTATION_CONTEXT('2D SPACE',''
  ) );
#1511 = PCURVE('',#1421,#1512);
#1512 = DEFINITIONAL_REPRESENTATION('',(#1513),#1517);
#1513 = LINE('',#1514,#1515);
#1514 = CARTESIAN_POINT('',(-6.28318530718,0.));
#1515 = VECTOR('',#1516,1.);
#1516 = DIRECTION('',(-0.,-1.));
#1517 = ( GEOMETRIC_REPRESENTATION_CONTEXT(2) 
PARAMETRIC_REPRESENTATION_CONTEXT() REPRESENTATION_CONTEXT('2D SPACE',''
  ) );
#1518 = ORIENTED_EDGE('',*,*,#1404,.T.);
#1519 = ORIENTED_EDGE('',*,*,#1496,.F.);
#1520 = ORIENTED_EDGE('',*,*,#1521,.F.);
#1521 = EDGE_CURVE('',#1497,#1497,#1522,.T.);
#1522 = SURFACE_CURVE('',#1523,(#1528,#1535),.PCURVE_S1.);
#1523 = CIRCLE('',#1524,18.);
#1524 = AXIS2_PLACEMENT_3D('',#1525,#1526,#1527);
#1525 = CARTESIAN_POINT('',(9.981433669011E-14,5.075305255429E-16,52.));
#1526 = DIRECTION('',(0.,0.,1.));
#1527 = DIRECTION('',(1.,0.,0.));
#1528 = PCURVE('',#1421,#1529);
#1529 = DEFINITIONAL_REPRESENTATION('',(#1530),#1534);
#1530 = LINE('',#1531,#1532);
#1531 = CARTESIAN_POINT('',(-0.,0.));
#1532 = VECTOR('',#1533,1.);
#1533 = DIRECTION('',(-1.,0.));
#1534 = ( GEOMETRIC_REPRESENTATION_CONTEXT(2) 
PARAMETRIC_REPRESENTATION_CONTEXT() REPRESENTATION_CONTEXT('2D SPACE',''
  ) );
#1535 = PCURVE('',#1536,#1541);
#1536 = PLANE('',#1537);
#1537 = AXIS2_PLACEMENT_3D('',#1538,#1539,#1540);
#1538 = CARTESIAN_POINT('',(-1.041859148601E-15,1.846063891983E-16,52.)
  );
#1539 = DIRECTION('',(0.,0.,1.));
#1540 = DIRECTION('',(1.,0.,-0.));
#1541 = DEFINITIONAL_REPRESENTATION('',(#1542),#1546);
#1542 = CIRCLE('',#1543,18.);
#1543 = AXIS2_PLACEMENT_2D('',#1544,#1545);
#1544 = CARTESIAN_POINT('',(1.008561958387E-13,3.229241363446E-16));
#1545 = DIRECTION('',(1.,0.));
#1546 = ( GEOMETRIC_REPRESENTATION_CONTEXT(2) 
PARAMETRIC_REPRESENTATION_CONTEXT() REPRESENTATION_CONTEXT('2D SPACE',''
  ) );
#1547 = ADVANCED_FACE('',(#1548),#1481,.T.);
#1548 = FACE_BOUND('',#1549,.F.);
#1549 = EDGE_LOOP('',(#1550,#1573,#1574,#1575));
#1550 = ORIENTED_EDGE('',*,*,#1551,.T.);
#1551 = EDGE_CURVE('',#1552,#1465,#1554,.T.);
#1552 = VERTEX_POINT('',#1553);
#1553 = CARTESIAN_POINT('',(25.,0.,45.));
#1554 = SEAM_CURVE('',#1555,(#1559,#1566),.PCURVE_S1.);
#1555 = LINE('',#1556,#1557);
#1556 = CARTESIAN_POINT('',(25.,0.,45.));
#1557 = VECTOR('',#1558,1.);
#1558 = DIRECTION('',(0.,0.,1.));
#1559 = PCURVE('',#1481,#1560);
#1560 = DEFINITIONAL_REPRESENTATION('',(#1561),#1565);
#1561 = LINE('',#1562,#1563);
#1562 = CARTESIAN_POINT('',(-0.,0.));
#1563 = VECTOR('',#1564,1.);
#1564 = DIRECTION('',(-0.,-1.));
#1565 = ( GEOMETRIC_REPRESENTATION_CONTEXT(2) 
PARAMETRIC_REPRESENTATION_CONTEXT() REPRESENTATION_CONTEXT('2D SPACE',''
  ) );
#1566 = PCURVE('',#1481,#1567);
#1567 = DEFINITIONAL_REPRESENTATION('',(#1568),#1572);
#1568 = LINE('',#1569,#1570);
#1569 = CARTESIAN_POINT('',(-6.28318530718,0.));
#1570 = VECTOR('',#1571,1.);
#1571 = DIRECTION('',(-0.,-1.));
#1572 = ( GEOMETRIC_REPRESENTATION_CONTEXT(2) 
PARAMETRIC_REPRESENTATION_CONTEXT() REPRESENTATION_CONTEXT('2D SPACE',''
  ) );
#1573 = ORIENTED_EDGE('',*,*,#1464,.T.);
#1574 = ORIENTED_EDGE('',*,*,#1551,.F.);
#1575 = ORIENTED_EDGE('',*,*,#1576,.F.);
#1576 = EDGE_CURVE('',#1552,#1552,#1577,.T.);
#1577 = SURFACE_CURVE('',#1578,(#1583,#1590),.PCURVE_S1.);
#1578 = CIRCLE('',#1579,25.);
#1579 = AXIS2_PLACEMENT_3D('',#1580,#1581,#1582);
#1580 = CARTESIAN_POINT('',(0.,0.,45.));
#1581 = DIRECTION('',(0.,0.,1.));
#1582 = DIRECTION('',(1.,0.,0.));
#1583 = PCURVE('',#1481,#1584);
#1584 = DEFINITIONAL_REPRESENTATION('',(#1585),#1589);
#1585 = LINE('',#1586,#1587);
#1586 = CARTESIAN_POINT('',(-0.,0.));
#1587 = VECTOR('',#1588,1.);
#1588 = DIRECTION('',(-1.,0.));
#1589 = ( GEOMETRIC_REPRESENTATION_CONTEXT(2) 
PARAMETRIC_REPRESENTATION_CONTEXT() REPRESENTATION_CONTEXT('2D SPACE',''
  ) );
#1590 = PCURVE('',#1591,#1596);
#1591 = PLANE('',#1592);
#1592 = AXIS2_PLACEMENT_3D('',#1593,#1594,#1595);
#1593 = CARTESIAN_POINT('',(-8.751616848252E-16,1.604946055186E-15,45.)
  );
#1594 = DIRECTION('',(0.,0.,1.));
#1595 = DIRECTION('',(1.,0.,-0.));
#1596 = DEFINITIONAL_REPRESENTATION('',(#1597),#1601);
#1597 = CIRCLE('',#1598,25.);
#1598 = AXIS2_PLACEMENT_2D('',#1599,#1600);
#1599 = CARTESIAN_POINT('',(8.751616848252E-16,-1.604946055186E-15));
#1600 = DIRECTION('',(1.,0.));
#1601 = ( GEOMETRIC_REPRESENTATION_CONTEXT(2) 
PARAMETRIC_REPRESENTATION_CONTEXT() REPRESENTATION_CONTEXT('2D SPACE',''
  ) );
#1602 = ADVANCED_FACE('',(#1603,#1634),#1536,.F.);
#1603 = FACE_BOUND('',#1604,.F.);
#1604 = EDGE_LOOP('',(#1605));
#1605 = ORIENTED_EDGE('',*,*,#1606,.T.);
#1606 = EDGE_CURVE('',#1607,#1607,#1609,.T.);
#1607 = VERTEX_POINT('',#1608);
#1608 = CARTESIAN_POINT('',(21.,0.,52.));
#1609 = SURFACE_CURVE('',#1610,(#1615,#1622),.PCURVE_S1.);
#1610 = CIRCLE('',#1611,21.);
#1611 = AXIS2_PLACEMENT_3D('',#1612,#1613,#1614);
#1612 = CARTESIAN_POINT('',(0.,0.,52.));
#1613 = DIRECTION('',(0.,0.,1.));
#1614 = DIRECTION('',(1.,0.,0.));
#1615 = PCURVE('',#1536,#1616);
#1616 = DEFINITIONAL_REPRESENTATION('',(#1617),#1621);
#1617 = CIRCLE('',#1618,21.);
#1618 = AXIS2_PLACEMENT_2D('',#1619,#1620);
#1619 = CARTESIAN_POINT('',(1.041859148601E-15,-1.846063891983E-16));
#1620 = DIRECTION('',(1.,0.));
#1621 = ( GEOMETRIC_REPRESENTATION_CONTEXT(2) 
PARAMETRIC_REPRESENTATION_CONTEXT() REPRESENTATION_CONTEXT('2D SPACE',''
  ) );
#1622 = PCURVE('',#1623,#1628);
#1623 = CYLINDRICAL_SURFACE('',#1624,21.);
#1624 = AXIS2_PLACEMENT_3D('',#1625,#1626,#1627);
#1625 = CARTESIAN_POINT('',(1.188027454191E-13,8.526512829121E-16,45.));
#1626 = DIRECTION('',(-0.,-0.,-1.));
#1627 = DIRECTION('',(1.,0.,0.));
#1628 = DEFINITIONAL_REPRESENTATION('',(#1629),#1633);
#1629 = LINE('',#1630,#1631);
#1630 = CARTESIAN_POINT('',(-0.,-7.));
#1631 = VECTOR('',#1632,1.);
#1632 = DIRECTION('',(-1.,0.));
#1633 = ( GEOMETRIC_REPRESENTATION_CONTEXT(2) 
PARAMETRIC_REPRESENTATION_CONTEXT() REPRESENTATION_CONTEXT('2D SPACE',''
  ) );
#1634 = FACE_BOUND('',#1635,.F.);
#1635 = EDGE_LOOP('',(#1636));
#1636 = ORIENTED_EDGE('',*,*,#1521,.F.);
#1637 = ADVANCED_FACE('',(#1638,#1641),#1591,.F.);
#1638 = FACE_BOUND('',#1639,.F.);
#1639 = EDGE_LOOP('',(#1640));
#1640 = ORIENTED_EDGE('',*,*,#1576,.T.);
#1641 = FACE_BOUND('',#1642,.F.);
#1642 = EDGE_LOOP('',(#1643));
#1643 = ORIENTED_EDGE('',*,*,#1644,.F.);
#1644 = EDGE_CURVE('',#1645,#1645,#1647,.T.);
#1645 = VERTEX_POINT('',#1646);
#1646 = CARTESIAN_POINT('',(21.,8.526512829121E-16,45.));
#1647 = SURFACE_CURVE('',#1648,(#1653,#1660),.PCURVE_S1.);
#1648 = CIRCLE('',#1649,21.);
#1649 = AXIS2_PLACEMENT_3D('',#1650,#1651,#1652);
#1650 = CARTESIAN_POINT('',(1.188027454191E-13,8.526512829121E-16,45.));
#1651 = DIRECTION('',(0.,0.,1.));
#1652 = DIRECTION('',(1.,0.,0.));
#1653 = PCURVE('',#1591,#1654);
#1654 = DEFINITIONAL_REPRESENTATION('',(#1655),#1659);
#1655 = CIRCLE('',#1656,21.);
#1656 = AXIS2_PLACEMENT_2D('',#1657,#1658);
#1657 = CARTESIAN_POINT('',(1.196779071039E-13,-7.522947722741E-16));
#1658 = DIRECTION('',(1.,0.));
#1659 = ( GEOMETRIC_REPRESENTATION_CONTEXT(2) 
PARAMETRIC_REPRESENTATION_CONTEXT() REPRESENTATION_CONTEXT('2D SPACE',''
  ) );
#1660 = PCURVE('',#1623,#1661);
#1661 = DEFINITIONAL_REPRESENTATION('',(#1662),#1666);
#1662 = LINE('',#1663,#1664);
#1663 = CARTESIAN_POINT('',(-0.,0.));
#1664 = VECTOR('',#1665,1.);
#1665 = DIRECTION('',(-1.,0.));
#1666 = ( GEOMETRIC_REPRESENTATION_CONTEXT(2) 
PARAMETRIC_REPRESENTATION_CONTEXT() REPRESENTATION_CONTEXT('2D SPACE',''
  ) );
#1667 = ADVANCED_FACE('',(#1668),#1623,.F.);
#1668 = FACE_BOUND('',#1669,.T.);
#1669 = EDGE_LOOP('',(#1670,#1671,#1692,#1693));
#1670 = ORIENTED_EDGE('',*,*,#1644,.F.);
#1671 = ORIENTED_EDGE('',*,*,#1672,.T.);
#1672 = EDGE_CURVE('',#1645,#1607,#1673,.T.);
#1673 = SEAM_CURVE('',#1674,(#1678,#1685),.PCURVE_S1.);
#1674 = LINE('',#1675,#1676);
#1675 = CARTESIAN_POINT('',(21.,8.526512829121E-16,45.));
#1676 = VECTOR('',#1677,1.);
#1677 = DIRECTION('',(0.,0.,1.));
#1678 = PCURVE('',#1623,#1679);
#1679 = DEFINITIONAL_REPRESENTATION('',(#1680),#1684);
#1680 = LINE('',#1681,#1682);
#1681 = CARTESIAN_POINT('',(-6.28318530718,0.));
#1682 = VECTOR('',#1683,1.);
#1683 = DIRECTION('',(-0.,-1.));
#1684 = ( GEOMETRIC_REPRESENTATION_CONTEXT(2) 
PARAMETRIC_REPRESENTATION_CONTEXT() REPRESENTATION_CONTEXT('2D SPACE',''
  ) );
#1685 = PCURVE('',#1623,#1686);
#1686 = DEFINITIONAL_REPRESENTATION('',(#1687),#1691);
#1687 = LINE('',#1688,#1689);
#1688 = CARTESIAN_POINT('',(-0.,0.));
#1689 = VECTOR('',#1690,1.);
#1690 = DIRECTION('',(-0.,-1.));
#1691 = ( GEOMETRIC_REPRESENTATION_CONTEXT(2) 
PARAMETRIC_REPRESENTATION_CONTEXT() REPRESENTATION_CONTEXT('2D SPACE',''
  ) );
#1692 = ORIENTED_EDGE('',*,*,#1606,.T.);
#1693 = ORIENTED_EDGE('',*,*,#1672,.F.);
#1694 = ( GEOMETRIC_REPRESENTATION_CONTEXT(3) 
GLOBAL_UNCERTAINTY_ASSIGNED_CONTEXT((#1698)) 
GLOBAL_UNIT_ASSIGNED_CONTEXT((#1695,#1696,#1697)) REPRESENTATION_CONTEXT
('Context #1','3D Context with UNIT and UNCERTAINTY') );
#1695 = ( LENGTH_UNIT() NAMED_UNIT(*) SI_UNIT(.MILLI.,.METRE.) );
#1696 = ( NAMED_UNIT(*) PLANE_ANGLE_UNIT() SI_UNIT($,.RADIAN.) );
#1697 = ( NAMED_UNIT(*) SI_UNIT($,.STERADIAN.) SOLID_ANGLE_UNIT() );
#1698 = UNCERTAINTY_MEASURE_WITH_UNIT(LENGTH_MEASURE(1.E-07),#1695,
  'distance_accuracy_value','confusion accuracy');
#1699 = PRODUCT_RELATED_PRODUCT_CATEGORY('part',$,(#7));
ENDSEC;
END-ISO-10303-21;
